<svg width="22" height="20" viewBox="0 0 22 20" fill="none" xmlns="http://www.w3.org/2000/svg">
<path d="M19.9696 1.79688H17.3438V0.402344H15.9766V1.79688H6.02344V0.402344H4.65625V1.79688H2.03043C1.17156 1.79688 0.472656 2.49578 0.472656 3.35465V17.9032C0.472656 18.762 1.17156 19.4609 2.03043 19.4609H19.9696C20.8284 19.4609 21.5273 18.762 21.5273 17.9032V3.35465C21.5273 2.49578 20.8284 1.79688 19.9696 1.79688ZM17.4876 6.99191C17.7143 6.99191 17.8977 7.17539 17.8977 7.40207V9.52996C17.8977 9.75664 17.7143 9.94012 17.4876 9.94012H15.3594C15.133 9.94012 14.9493 9.75664 14.9493 9.52996V7.40207C14.9493 7.17539 15.133 6.99191 15.3594 6.99191H17.4876ZM15.0313 12.8161C15.0313 12.5895 15.215 12.406 15.4414 12.406H17.5696C17.7963 12.406 17.9798 12.5895 17.9798 12.8161V14.944C17.9798 15.1707 17.7963 15.3542 17.5696 15.3542H15.4414C15.215 15.3542 15.0313 15.1707 15.0313 14.944V12.8161ZM9.5259 12.8161C9.5259 12.5895 9.70937 12.406 9.93605 12.406H12.0639C12.2906 12.406 12.4741 12.5895 12.4741 12.8161V14.944C12.4741 15.1707 12.2906 15.3542 12.0639 15.3542H9.93605C9.70937 15.3542 9.5259 15.1707 9.5259 14.944V12.8161ZM9.44387 9.52996V7.40207C9.44387 7.17539 9.62734 6.99191 9.85402 6.99191H11.9819C12.2086 6.99191 12.3921 7.17539 12.3921 7.40207V9.52996C12.3921 9.75664 12.2086 9.94012 11.9819 9.94012H9.85402C9.62734 9.94012 9.44387 9.75664 9.44387 9.52996ZM6.47652 6.99191C6.70293 6.99191 6.88668 7.17539 6.88668 7.40207V9.52996C6.88668 9.75664 6.70293 9.94012 6.47652 9.94012H4.34836C4.12168 9.94012 3.9382 9.75664 3.9382 9.52996V7.40207C3.9382 7.17539 4.12168 6.99191 4.34836 6.99191H6.47652ZM4.02023 12.8161C4.02023 12.5895 4.20371 12.406 4.43039 12.406H6.55855C6.78496 12.406 6.96871 12.5895 6.96871 12.8161V14.944C6.96871 15.1707 6.78496 15.3542 6.55855 15.3542H4.43039C4.20371 15.3542 4.02023 15.1707 4.02023 14.944V12.8161Z" fill="#1A191E"/>
</svg>
