<svg width="24" height="20" viewBox="0 0 24 20" fill="none" xmlns="http://www.w3.org/2000/svg">
<path fill-rule="evenodd" clip-rule="evenodd" d="M8.41362 3.50249L10.8511 1.06499C11.1558 0.760303 11.5694 0.588867 12 0.588867C12.4306 0.588867 12.8442 0.760303 13.1489 1.06499L15.5864 3.50249H20.9375C21.5842 3.50249 22.2042 3.75923 22.6608 4.21586C23.1183 4.6733 23.375 5.29324 23.375 5.93999C23.375 8.75368 23.375 14.5013 23.375 17.315C23.375 17.9609 23.1183 18.5809 22.6608 19.0383C22.2042 19.4957 21.5842 19.7525 20.9375 19.7525C17.0026 19.7525 6.99744 19.7525 3.0625 19.7525C2.41575 19.7525 1.79581 19.4957 1.33919 19.0383C0.881748 18.5809 0.625 17.9609 0.625 17.315C0.625 14.5013 0.625 8.75368 0.625 5.93999C0.625 5.29324 0.881748 4.6733 1.33919 4.21586C1.79581 3.75923 2.41575 3.50249 3.0625 3.50249H8.41362ZM10.3116 12.9332C10.1597 12.1743 9.49262 11.6275 8.7175 11.6275C7.78637 11.6275 6.10612 11.6275 5.175 11.6275C4.40069 11.6275 3.73362 12.1743 3.58169 12.9332C3.45006 13.5921 3.2445 14.6167 3.09419 15.3707C2.99831 15.8484 3.12181 16.3432 3.43056 16.7202C3.73931 17.0964 4.20081 17.315 4.6875 17.315C5.91113 17.315 7.98137 17.315 9.205 17.315C9.6925 17.315 10.1532 17.0964 10.4619 16.7202C10.7707 16.3432 10.8942 15.8484 10.7991 15.3707L10.3116 12.9332ZM12.8125 13.2525H18.5C18.9485 13.2525 19.3125 12.8885 19.3125 12.44C19.3125 11.9915 18.9485 11.6275 18.5 11.6275H12.8125C12.364 11.6275 12 11.9915 12 12.44C12 12.8885 12.364 13.2525 12.8125 13.2525ZM6.94625 5.93999C5.60075 5.93999 4.50875 7.03199 4.50875 8.37749C4.50875 9.72218 5.60075 10.815 6.94625 10.815C8.29175 10.815 9.38375 9.72218 9.38375 8.37749C9.38375 7.03199 8.29175 5.93999 6.94625 5.93999ZM12.8125 10.815H20.125C20.5735 10.815 20.9375 10.451 20.9375 10.0025C20.9375 9.55399 20.5735 9.18999 20.125 9.18999H12.8125C12.364 9.18999 12 9.55399 12 10.0025C12 10.451 12.364 10.815 12.8125 10.815Z" fill="#1A191E"/>
</svg>
