<svg width="121" height="121" viewBox="0 0 121 121" fill="none" xmlns="http://www.w3.org/2000/svg">
<circle cx="60.5" cy="60.5" r="60.5" fill="#F3F1FF" fill-opacity="0.6"/>
<circle cx="60.5" cy="60.5" r="41.5" fill="#8F7EF3"/>
<line x1="42" y1="47" x2="42" y2="74" stroke="white" stroke-width="2"/>
<line x1="84.3411" y1="47" x2="84.3411" y2="74" stroke="white" stroke-width="2"/>
<path d="M41.614 62.6484H50.8186C53.5799 62.6484 54.8072 64.4893 54.8072 68.1712C54.8072 71.853 54.8072 73.0803 54.8072 73.3871" stroke="white" stroke-width="2"/>
<path d="M84.2615 62.9551H75.0569C72.6024 62.9551 71.0683 64.796 71.0683 68.4778C71.0683 72.1596 71.0683 73.3869 71.0683 73.6937" stroke="white" stroke-width="2"/>
<path d="M50.2051 54.4434C54.8687 54.4434 56.6483 54.4434 56.9551 54.4434" stroke="white" stroke-width="2"/>
<path d="M69.8408 54.75C74.5045 54.75 76.284 54.75 76.5908 54.75" stroke="white" stroke-width="2"/>
<path d="M63.4517 58.2838C63.255 58.4882 62.9278 58.4882 62.7311 58.2838L58.5919 53.9822C58.2862 53.6645 58.5114 53.1355 58.9522 53.1355L67.2307 53.1355C67.6715 53.1355 67.8966 53.6645 67.5909 53.9822L63.4517 58.2838Z" fill="white"/>
<line x1="62.7275" y1="59.8867" x2="62.7275" y2="71.5458" stroke="white" stroke-width="2.5"/>
<path d="M64.0338 71.5449H61.5566L60.9998 72.499L61.2498 72.4654L64.9998 72.499L64.0338 71.5449Z" stroke="white" stroke-width="1.5"/>
<path d="M65.9998 72.7734H60.4952H59.824V74.0007H65.9998V72.7734Z" fill="#1A191E" stroke="white" stroke-width="1.5"/>
</svg>
