<svg width="27" height="27" viewBox="0 0 27 27" fill="none" xmlns="http://www.w3.org/2000/svg">
<path d="M13.5007 0.583252C6.39649 0.583252 0.583984 6.39575 0.583984 13.4999C0.583984 20.6041 6.39649 26.4166 13.5007 26.4166C20.6048 26.4166 26.4173 20.6041 26.4173 13.4999C26.4173 6.39575 20.6048 0.583252 13.5007 0.583252ZM14.7923 13.4999C14.7923 14.0166 14.534 14.4041 14.1465 14.6624L10.7882 16.5999C10.1423 16.9874 9.36732 16.7291 8.97982 16.0833C8.59232 15.4374 8.85065 14.6624 9.49649 14.2749L12.209 12.7249V7.04159C12.209 6.26659 12.7257 5.74992 13.5007 5.74992C14.2757 5.74992 14.7923 6.26659 14.7923 7.04159V13.4999Z" fill="#272F3D"/>
</svg>
