<svg width="57" height="77" viewBox="0 0 57 77" fill="none" xmlns="http://www.w3.org/2000/svg">
<path d="M2.31963 50.8035C2.31963 50.8035 1.22514 52.8251 1.14141 54.087C1.05768 55.349 1.90097 65.6241 3.74905 67.8968C5.59713 70.1695 11.243 76.1503 27.9116 76.3178C44.5802 76.4853 53.085 68.9075 54.012 67.3944C54.939 65.8812 56.1173 58.8059 56.201 53.2497C56.2847 47.6935 26.6497 51.5631 26.6497 51.5631L2.31963 50.8035Z" fill="#FBB75A"/>
<path d="M27.5767 64.2738C42.3972 64.6924 56.1172 55.6016 56.1172 55.6016L55.6986 60.147C55.6986 60.147 44.4187 68.8192 27.8279 68.4006C11.237 67.9819 1.64376 60.147 1.64376 60.147L1.2251 56.1877C1.2251 56.1877 14.6162 63.903 27.5767 64.2738Z" fill="#F2A05B"/>
<path d="M29.4309 28.9069C23.1152 28.9368 4.09014 30.4201 2.15235 38.5062C0.214559 46.5923 0.465754 54.17 0.806661 54.8398C1.14159 55.5157 1.89517 54.3494 3.67148 55.0073C5.9442 55.8506 5.77674 61.9929 9.90351 63.0874C14.0303 64.1819 14.114 58.542 18.8269 58.8769C23.5398 59.2118 21.3508 65.5336 27.5829 65.6113C33.9824 65.6951 31.608 59.3554 36.0876 58.7932C40.5194 58.231 38.1929 65.1089 44.3412 64.1819C50.4895 63.2549 49.7778 54.5049 52.9237 53.5779C55.31 52.8781 55.1067 55.2226 56.2371 55.1209C57.1641 55.0372 56.7993 42.2083 55.956 39.3495C55.1127 36.4906 47.194 28.8232 29.4309 28.9069Z" fill="url(#paint0_radial_3664_38527)"/>
<path d="M10.2742 46.9699C5.79451 45.08 4.34714 43.2917 3.62346 42.3826C3.12107 41.7486 2.36151 41.4974 1.93687 42.0058C1.51821 42.5082 1.72754 43.0584 2.18806 43.6027C2.64859 44.1529 4.71198 47.3048 10.017 49.0333C14.682 50.5524 17.7622 50.7617 18.9404 50.8036C20.2502 50.8515 20.7944 49.2067 19.066 48.9914C17.0863 48.7462 15.1605 49.0333 10.2742 46.9699ZM23.731 49.5955C22.5827 49.5656 22.1581 50.2115 22.1581 50.7199C22.1581 51.3359 22.6904 51.6768 23.6174 51.7306C24.5444 51.7845 25.0767 51.1684 25.0767 50.7498C25.0827 50.3251 24.8255 49.6194 23.731 49.5955Z" fill="#FDFFFF"/>
<path d="M5.60301 53.5852C5.07669 54.0996 5.29798 54.6977 5.54918 55.0087C5.96186 55.517 6.70348 55.6008 7.08626 55.3017C7.52286 54.9668 7.46903 54.3448 7.19391 53.9321C6.84104 53.3938 6.12334 53.0709 5.60301 53.5852ZM7.07429 55.7981C6.35061 56.2048 6.67358 57.1079 7.06233 57.8496C7.89367 59.4285 8.15682 60.7144 9.11376 61.3483C10.0827 61.9883 11.2788 61.5457 11.1652 60.8818C10.9858 59.8232 10.3338 60.6247 9.77165 59.285C9.5384 58.7287 9.05993 57.8376 8.50371 56.6354C8.18075 55.9297 7.80396 55.3855 7.07429 55.7981ZM23.9283 60.0625C23.2166 60.5708 23.6472 61.8567 24.5443 62.8675C25.4414 63.8782 26.7034 64.6916 28.079 64.3268C29.1436 64.0457 29.0598 62.8675 28.3302 62.5326C27.6005 62.1976 26.7333 62.395 25.9438 61.3543C25.5611 60.846 25.0228 59.279 23.9283 60.0625ZM40.8301 58.956C40.1244 59.4763 40.7883 60.5589 41.2249 61.3065C41.6615 62.0541 43.1029 63.4895 43.9462 62.6402C44.5622 62.0182 43.4019 61.2646 42.8576 60.4512C42.4509 59.8352 41.7691 58.2563 40.8301 58.956ZM39.616 57.0063C39.1495 57.3472 39.2213 57.8854 39.3888 58.1845C39.616 58.5792 40.3457 58.7467 40.7643 58.3819C41.171 58.029 40.9318 57.4548 40.7105 57.1737C40.4892 56.8926 39.927 56.779 39.616 57.0063Z" fill="#FCE9CA"/>
<path d="M42.2418 24.1533C42.2418 24.1533 37.6186 30.5288 37.9116 31.7968C38.1389 32.7956 39.2155 33.8661 41.5181 34.0216C43.8207 34.1771 45.2621 33.1066 45.591 32.0898C46.0336 30.7382 44.5922 26.432 44.0719 25.5767C43.3363 24.3626 42.6724 24.1891 42.2418 24.1533ZM51.7991 29.9068L46.8291 36.8685C46.8291 36.8685 46.9786 38.3936 48.4738 39.0515C50.0348 39.7333 53.2226 39.7752 54.1377 38.4415C55.1783 36.9283 54.7298 34.3267 54.2034 32.7537C53.7968 31.5216 52.9355 29.7752 51.7991 29.9068ZM43.3841 37.7716L38.5755 45.158C38.5755 45.158 38.5217 46.9881 40.6927 47.4965C42.4152 47.8972 45.5791 47.9151 46.7573 46.9044C47.9355 45.8936 47.8398 43.8601 46.8231 41.725C45.7107 39.4044 44.0599 37.2214 43.3841 37.7716ZM31.4105 39.5838L25.1127 47.2034C25.1127 47.2034 24.9871 48.6747 26.5421 49.3924C28.5397 50.3194 31.6138 50.2716 33.1748 49.4343C34.5444 48.6986 34.7538 46.3661 34.2574 44.9068C33.8507 43.7166 33.2885 42.7058 33.0791 42.1556C32.8698 41.6113 32.1641 39.9187 31.4105 39.5838ZM17.8519 37.0121L12.4871 45.3912C12.4871 45.3912 12.6546 47.3469 14.7 47.7477C16.4644 48.0945 19.3711 48.2979 20.3818 47.03C21.3926 45.762 21.4344 42.5443 20.4655 40.2716C19.4967 38.0049 18.6534 37.3111 17.8519 37.0121ZM9.70602 29.1114L8.98832 28.8542L4.20365 36.414C4.20365 36.414 4.06609 37.7477 5.17853 38.4594C6.23115 39.1353 9.58042 39.4702 11.3866 38.585C13.1988 37.6999 13.0672 34.7334 11.8053 32.1855C10.639 29.8231 9.70602 29.1114 9.70602 29.1114ZM18.4859 23.5312L13.8388 31.5516C13.8388 31.5516 14.0421 32.5922 15.645 33.0468C17.218 33.4953 19.2754 33.4116 20.328 32.5982C21.3866 31.7848 21.6677 29.9965 21.1832 27.9212C20.8543 26.5037 19.5804 23.9379 18.4859 23.5312Z" fill="#EE5B4A"/>
<path d="M13.8983 39.9378C12.8995 42.0909 11.5 45.2847 13.0969 46.3373C14.6938 47.39 17.0562 45.7034 17.8935 42.5455C18.7309 39.3876 18.8624 37.8087 18.061 37.1328C17.2656 36.469 15.2022 37.1209 13.8983 39.9378ZM8.47971 28.6101C7.34335 28.6819 6.03953 30.4403 5.38762 32.1687C4.73571 33.8972 3.97614 36.0443 4.25126 36.7381C4.52637 37.4319 6.39838 38.2752 7.19981 36.8039C8.00124 35.3326 7.83976 33.3649 8.01918 32.3601C8.33617 30.5898 9.70578 29.1185 9.70578 29.1185C9.70578 29.1185 9.23928 28.5623 8.47971 28.6101ZM17.4868 23.1855C16.6735 23.2334 15.9019 23.5743 15.2082 25.847C14.8314 27.091 13.7668 28.5324 13.6651 29.89C13.5634 31.2537 13.8684 31.6065 13.8684 31.6065C13.8684 31.6065 15.8182 31.9833 16.5778 30.4642C17.3074 29.0109 17.0802 27.5276 17.3254 26.8398C17.5706 26.146 18.689 23.6281 18.689 23.6281C18.689 23.6281 18.1986 23.1496 17.4868 23.1855Z" fill="#FD6F42"/>
<path d="M42.0445 24.1106C41.1893 24.0687 39.9393 25.1273 39.1438 27.0173C38.3424 28.9072 37.858 30.9586 37.8938 31.5627C37.9297 32.1668 41.0876 32.2385 42.2 30.4144C42.8998 29.2661 42.8639 26.1859 42.7862 25.4443C42.7144 24.6967 42.9357 24.1524 42.0445 24.1106ZM51.5361 29.8821C50.8005 30.0017 49.066 30.4263 47.6665 33.4467C46.7933 35.3306 46.5302 37.1428 47.1641 37.406C47.7981 37.6691 49.5266 37.9323 50.316 36.9454C51.1055 35.9586 51.9787 33.2732 52.1761 31.9335C52.3675 30.6058 52.499 29.7266 51.5361 29.8821ZM38.7551 45.6655C39.7001 46.5267 41.5003 45.7134 42.1462 44.9478C43.1331 43.7696 43.9584 41.3055 44.0003 39.583C44.0302 38.333 44.3173 37.6273 43.2228 37.6871C42.846 37.711 41.8113 37.8964 40.6151 39.6667C39.6642 41.0662 39.1199 42.1727 38.8029 43.5423C38.5338 44.6787 38.48 45.4143 38.7551 45.6655ZM30.1666 39.1584C29.5566 39.1344 28.3963 39.4933 27.2001 41.4729C25.998 43.4526 24.6343 46.6523 25.2204 47.6392C25.8125 48.626 27.2599 48.7337 28.7372 48.1236C30.2085 47.5136 31.2192 45.3844 31.303 44.5232C31.3867 43.6619 31.9549 39.9777 31.4704 39.6189C30.986 39.266 30.6929 39.1823 30.1666 39.1584Z" fill="#FF6E45"/>
<path d="M52.9472 16.0552C52.9472 24.3865 39.6339 31.7728 29.2571 31.7728C18.8804 31.7728 5.68066 23.9379 5.68066 15.6066C5.68066 7.27533 18.695 0.642578 29.0657 0.642578C39.4365 0.642578 52.9472 7.72389 52.9472 16.0552Z" fill="url(#paint1_radial_3664_38527)"/>
<path d="M34.1021 19.0995C34.3114 18.8065 38.2528 19.1354 38.6057 19.2251C38.7731 19.267 38.7313 34.2969 38.5219 34.4225C38.3425 34.5301 37.6368 35.182 36.2911 35.182C34.9454 35.182 34.1858 34.7215 33.9346 34.5481C33.6834 34.3806 33.8928 19.3926 34.1021 19.0995Z" fill="#FEA8A8"/>
<path d="M26.865 22.8072C26.7036 22.9447 26.6557 37.4602 26.7813 37.5858C26.9069 37.7114 27.7502 38.471 29.389 38.4291C31.0337 38.3873 31.7873 37.7952 31.9129 37.6696C32.0385 37.544 31.9966 22.8072 31.871 22.7235C31.7454 22.6337 27.1162 22.5919 26.865 22.8072Z" fill="#EC7FAE"/>
<path d="M19.7896 19.6931C19.5862 19.8127 19.5802 34.5555 19.664 34.6811C19.7477 34.8067 20.9678 35.2313 22.1041 35.2313C23.2405 35.2313 24.335 34.9801 24.4606 34.8546C24.5862 34.729 24.5025 19.8666 24.3769 19.6991C24.2513 19.5316 19.9989 19.5675 19.7896 19.6931Z" fill="#93C7EE"/>
<path d="M29.4308 9.45898C29.682 9.45898 30.0229 11.4386 30.4834 12.575C30.9439 13.7114 32.6724 16.5343 31.9966 18.9745C31.2609 21.6479 27.0923 22.1683 26.1892 18.6814C25.5552 16.2413 27.7023 13.7114 28.2526 12.575C28.6294 11.7915 29.2574 9.45898 29.4308 9.45898Z" fill="url(#paint2_radial_3664_38527)"/>
<path d="M36.207 6.38477C36.207 6.38477 35.585 9.21968 34.8195 10.4278C33.725 12.1563 33.0312 14.5187 33.8924 16.4505C34.9869 18.8907 39.3709 18.7651 39.4486 14.5965C39.4905 12.4075 38.5336 11.2472 37.8518 10.0092C37.3852 9.16586 36.5001 6.4685 36.207 6.38477Z" fill="url(#paint3_radial_3664_38527)"/>
<path d="M22.2718 6.85156C22.2718 6.85156 21.1355 9.67452 20.4178 10.7271C19.7001 11.7798 18.4262 14.2618 19.1558 16.2415C20.041 18.6398 23.9584 18.9269 24.712 15.781C25.2144 13.6757 24.1199 12.0788 23.3663 10.3504C22.8938 9.26184 22.2718 6.85156 22.2718 6.85156Z" fill="url(#paint4_radial_3664_38527)"/>
<defs>
<radialGradient id="paint0_radial_3664_38527" cx="0" cy="0" r="1" gradientUnits="userSpaceOnUse" gradientTransform="translate(29.6319 38.0008) rotate(91.1173) scale(27.383 59.611)">
<stop offset="0.445" stop-color="#FEEAC9"/>
<stop offset="0.565" stop-color="#FEE7C2"/>
<stop offset="0.741" stop-color="#FEDEAE"/>
<stop offset="0.952" stop-color="#FFCF8D"/>
<stop offset="1" stop-color="#FFCB85"/>
</radialGradient>
<radialGradient id="paint1_radial_3664_38527" cx="0" cy="0" r="1" gradientUnits="userSpaceOnUse" gradientTransform="translate(29.3175 16.2069) scale(23.3396 14.3702)">
<stop offset="0.034" stop-color="#FFE265" stop-opacity="0.7"/>
<stop offset="0.112" stop-color="#FFE575" stop-opacity="0.643"/>
<stop offset="0.417" stop-color="#FFF0B0" stop-opacity="0.422"/>
<stop offset="0.677" stop-color="#FFF8DB" stop-opacity="0.234"/>
<stop offset="0.88" stop-color="#FFFDF5" stop-opacity="0.087"/>
<stop offset="1" stop-color="white" stop-opacity="0"/>
</radialGradient>
<radialGradient id="paint2_radial_3664_38527" cx="0" cy="0" r="1" gradientUnits="userSpaceOnUse" gradientTransform="translate(29.3883 22.0056) scale(11.6196 11.6196)">
<stop offset="0.17" stop-color="#FF9616"/>
<stop offset="0.654" stop-color="#FFD429"/>
</radialGradient>
<radialGradient id="paint3_radial_3664_38527" cx="0" cy="0" r="1" gradientUnits="userSpaceOnUse" gradientTransform="translate(36.7465 18.9248) scale(11.3899 11.3899)">
<stop offset="0.17" stop-color="#FF9616"/>
<stop offset="0.654" stop-color="#FFD429"/>
</radialGradient>
<radialGradient id="paint4_radial_3664_38527" cx="0" cy="0" r="1" gradientUnits="userSpaceOnUse" gradientTransform="translate(22.1594 18.9221) scale(11.2757 11.2757)">
<stop offset="0.17" stop-color="#FF9616"/>
<stop offset="0.654" stop-color="#FFD429"/>
</radialGradient>
</defs>
</svg>
