<svg width="7" height="9" viewBox="0 0 7 9" fill="none" xmlns="http://www.w3.org/2000/svg">
<path d="M6.0275 3.98128C5.85392 3.57048 5.60157 3.20177 5.28625 2.89821L5.02605 2.64718C5.01722 2.63889 5.00658 2.63301 4.99508 2.63005C4.98358 2.62709 4.97156 2.62715 4.96009 2.63021C4.94861 2.63327 4.93802 2.63925 4.92926 2.64762C4.92049 2.65599 4.91381 2.66649 4.90981 2.67821L4.79357 3.02889C4.72114 3.24889 4.58791 3.47359 4.39925 3.69453C4.38673 3.70863 4.37242 3.71239 4.36259 3.71333C4.35275 3.71427 4.33755 3.71239 4.32414 3.69923C4.31162 3.68795 4.30536 3.67102 4.30625 3.6541C4.33934 3.08812 4.17839 2.44975 3.82609 1.75497C3.5346 1.17771 3.12954 0.727366 2.62345 0.413351L2.25417 0.184891C2.20588 0.154806 2.14419 0.194293 2.14687 0.253523L2.16654 0.704802C2.17995 1.01318 2.14597 1.28582 2.0655 1.5124C1.96714 1.78975 1.82587 2.04736 1.64525 2.27864C1.51955 2.43937 1.37708 2.58476 1.22052 2.71205C0.843462 3.01682 0.536863 3.40734 0.323684 3.85436C0.111031 4.30527 0.000259449 4.80172 0 5.30503C0 5.74879 0.0831565 6.17844 0.247681 6.58365C0.406542 6.97379 0.635797 7.32786 0.922769 7.6263C1.21248 7.92715 1.54868 8.16407 1.92333 8.3286C2.31139 8.49971 2.7227 8.58621 3.14743 8.58621C3.57215 8.58621 3.98346 8.49971 4.37153 8.32954C4.74526 8.16598 5.0851 7.92743 5.37209 7.62724C5.66179 7.32638 5.88891 6.97476 6.04717 6.58459C6.21145 6.18049 6.29573 5.74544 6.29486 5.30597C6.29486 4.84717 6.20544 4.40153 6.0275 3.98128Z" fill="black"/>
</svg>
