<svg width="10" height="10" viewBox="0 0 10 10" fill="none" xmlns="http://www.w3.org/2000/svg">
<path d="M8.64555 5.00003L9.10555 4.20503C9.16084 4.10939 9.17587 3.9957 9.14736 3.88896C9.11884 3.78223 9.0491 3.69119 8.95347 3.63587L8.15764 3.17587V2.2592C8.15764 2.14869 8.11374 2.04271 8.0356 1.96457C7.95746 1.88643 7.85148 1.84253 7.74097 1.84253H6.82472L6.36514 1.04712C6.30963 0.951666 6.21877 0.881911 6.11222 0.852951C6.05937 0.838624 6.00421 0.83493 5.94992 0.842082C5.89563 0.849235 5.8433 0.867091 5.79597 0.894618L5.00014 1.35462L4.2043 0.894201C4.1086 0.83895 3.99488 0.823977 3.88814 0.852576C3.7814 0.881175 3.69039 0.951004 3.63514 1.0467L3.17514 1.84253H2.25889C2.14838 1.84253 2.0424 1.88643 1.96426 1.96457C1.88612 2.04271 1.84222 2.14869 1.84222 2.2592V3.17545L1.04639 3.63545C0.9989 3.66277 0.957279 3.69919 0.923914 3.74264C0.890549 3.78609 0.866098 3.83571 0.851965 3.88863C0.837833 3.94156 0.834299 3.99676 0.841564 4.05106C0.84883 4.10536 0.866753 4.15768 0.894303 4.20503L1.3543 5.00003L0.894303 5.79503C0.839299 5.89077 0.824375 6.00438 0.852786 6.11107C0.881197 6.21777 0.950638 6.30891 1.04597 6.36462L1.8418 6.82462V7.74087C1.8418 7.85137 1.8857 7.95736 1.96384 8.0355C2.04198 8.11364 2.14796 8.15753 2.25847 8.15753H3.17514L3.63514 8.95337C3.67202 9.01643 3.72469 9.0688 3.78796 9.10532C3.85123 9.14185 3.92292 9.16128 3.99597 9.1617C4.06847 9.1617 4.14055 9.14253 4.20472 9.10545L4.99972 8.64545L5.79555 9.10545C5.89123 9.16062 6.00488 9.1756 6.11158 9.14709C6.21828 9.11858 6.30932 9.04891 6.36472 8.95337L6.8243 8.15753H7.74055C7.85106 8.15753 7.95704 8.11364 8.03518 8.0355C8.11332 7.95736 8.15722 7.85137 8.15722 7.74087V6.82462L8.95305 6.36462C9.00046 6.33722 9.042 6.30075 9.0753 6.2573C9.1086 6.21384 9.13302 6.16424 9.14714 6.11134C9.16126 6.05845 9.16482 6.00328 9.15762 5.94901C9.15041 5.89473 9.13258 5.84241 9.10514 5.79503L8.64555 5.00003ZM3.95805 2.91253C4.12387 2.91259 4.28287 2.97851 4.40008 3.0958C4.51729 3.21309 4.58311 3.37214 4.58305 3.53795C4.583 3.70377 4.51708 3.86277 4.39979 3.97998C4.2825 4.09719 4.12345 4.16301 3.95764 4.16295C3.79182 4.1629 3.63282 4.09697 3.51561 3.97968C3.3984 3.8624 3.33258 3.70335 3.33264 3.53753C3.33269 3.37172 3.39861 3.21272 3.5159 3.09551C3.63319 2.9783 3.79224 2.91248 3.95805 2.91253ZM4.08305 6.91253L3.41639 6.41295L5.91639 3.07962L6.58305 3.5792L4.08305 6.91253ZM6.04139 7.0792C5.95928 7.07917 5.87799 7.06297 5.80215 7.03153C5.7263 7.00008 5.65739 6.95401 5.59936 6.89593C5.54132 6.83786 5.49529 6.76892 5.4639 6.69306C5.4325 6.61719 5.41636 6.53589 5.41639 6.45378C5.41641 6.37168 5.43261 6.29039 5.46406 6.21454C5.4955 6.1387 5.54158 6.06979 5.59965 6.01176C5.65773 5.95372 5.72667 5.90769 5.80253 5.8763C5.87839 5.8449 5.9597 5.82876 6.0418 5.82878C6.20762 5.82884 6.36662 5.89476 6.48383 6.01205C6.60104 6.12934 6.66686 6.28839 6.6668 6.4542C6.66675 6.62002 6.60082 6.77902 6.48354 6.89623C6.36625 7.01344 6.2072 7.07926 6.04139 7.0792Z" fill="black"/>
</svg>
