<svg width="10" height="10" viewBox="0 0 10 10" fill="none" xmlns="http://www.w3.org/2000/svg">
<path fill-rule="evenodd" clip-rule="evenodd" d="M4.85713 6.55148C4.9329 6.55148 5.00557 6.58158 5.05916 6.63517C5.11274 6.68875 5.14284 6.76142 5.14284 6.8372V9.71434C5.14284 9.79012 5.11274 9.86279 5.05916 9.91637C5.00557 9.96995 4.9329 10.0001 4.85713 10.0001C4.78135 10.0001 4.70868 9.96995 4.65509 9.91637C4.60151 9.86279 4.57141 9.79012 4.57141 9.71434V6.8372C4.57141 6.76142 4.60151 6.68875 4.65509 6.63517C4.70868 6.58158 4.78135 6.55148 4.85713 6.55148Z" fill="black"/>
<path fill-rule="evenodd" clip-rule="evenodd" d="M3.71429 8.83714C3.71429 8.76136 3.74439 8.68869 3.79797 8.63511C3.85155 8.58153 3.92422 8.55142 4 8.55142H5.71429C5.79006 8.55142 5.86273 8.58153 5.91632 8.63511C5.9699 8.68869 6 8.76136 6 8.83714C6 8.91291 5.9699 8.98559 5.91632 9.03917C5.86273 9.09275 5.79006 9.12285 5.71429 9.12285H4C3.92422 9.12285 3.85155 9.09275 3.79797 9.03917C3.74439 8.98559 3.71429 8.91291 3.71429 8.83714ZM4.85714 1.71428C4.25093 1.71428 3.66955 1.9551 3.2409 2.38375C2.81224 2.81241 2.57143 3.39379 2.57143 4C2.57143 4.6062 2.81224 5.18759 3.2409 5.61624C3.66955 6.04489 4.25093 6.28571 4.85714 6.28571C5.46335 6.28571 6.04473 6.04489 6.47339 5.61624C6.90204 5.18759 7.14286 4.6062 7.14286 4C7.14286 3.39379 6.90204 2.81241 6.47339 2.38375C6.04473 1.9551 5.46335 1.71428 4.85714 1.71428ZM4.85714 1.14285C3.27914 1.14285 2 2.422 2 4C2 5.578 3.27914 6.85714 4.85714 6.85714C6.43514 6.85714 7.71429 5.578 7.71429 4C7.71429 2.422 6.43514 1.14285 4.85714 1.14285Z" fill="black"/>
<path fill-rule="evenodd" clip-rule="evenodd" d="M6.94 2.77288C6.88662 2.71911 6.85679 2.64634 6.85706 2.57058C6.85733 2.49482 6.88767 2.42227 6.94143 2.36888L9.108 0.215735C9.16176 0.162312 9.23454 0.132436 9.31034 0.132677C9.38613 0.132918 9.45872 0.163257 9.51214 0.21702C9.56556 0.270783 9.59544 0.343566 9.5952 0.419358C9.59496 0.495149 9.56462 0.567741 9.51085 0.621163L7.34428 2.77402C7.29055 2.82743 7.21781 2.85732 7.14205 2.8571C7.06629 2.85689 6.99371 2.82659 6.94028 2.77288H6.94Z" fill="black"/>
<path fill-rule="evenodd" clip-rule="evenodd" d="M8.82145 2.522C8.76787 2.57556 8.69522 2.60565 8.61945 2.60565C8.54369 2.60565 8.47103 2.57556 8.41745 2.522L7.20517 1.31C7.17862 1.28347 7.15756 1.25198 7.14319 1.21731C7.12881 1.18264 7.12141 1.14549 7.1214 1.10796C7.12138 1.07043 7.12876 1.03327 7.14311 0.99859C7.15746 0.963914 7.1785 0.932403 7.20503 0.905857C7.23155 0.879311 7.26305 0.85825 7.29771 0.843877C7.33238 0.829503 7.36954 0.822098 7.40707 0.822085C7.4446 0.822072 7.48176 0.82945 7.51644 0.843799C7.55111 0.858148 7.58262 0.879187 7.60917 0.905714L8.82145 2.118C8.87502 2.17158 8.90511 2.24424 8.90511 2.32C8.90511 2.39576 8.87502 2.46842 8.82145 2.522ZM9.4286 1.71429C9.35282 1.71429 9.28015 1.68418 9.22657 1.6306C9.17298 1.57702 9.14288 1.50435 9.14288 1.42857V0.571429H8.28574C8.20996 0.571429 8.13729 0.541327 8.08371 0.487745C8.03013 0.434163 8.00003 0.36149 8.00003 0.285714C8.00003 0.209938 8.03013 0.137266 8.08371 0.0836838C8.13729 0.030102 8.20996 0 8.28574 0H9.4286C9.50437 0 9.57705 0.030102 9.63063 0.0836838C9.68421 0.137266 9.71431 0.209938 9.71431 0.285714V1.42857C9.71431 1.50435 9.68421 1.57702 9.63063 1.6306C9.57705 1.68418 9.50437 1.71429 9.4286 1.71429ZM0.620312 0.216286L2.61917 2.21514C2.64646 2.2415 2.66822 2.27303 2.6832 2.30788C2.69817 2.34274 2.70605 2.38023 2.70638 2.41817C2.70671 2.45611 2.69948 2.49373 2.68512 2.52884C2.67075 2.56396 2.64954 2.59586 2.62271 2.62268C2.59588 2.64951 2.56398 2.67073 2.52887 2.68509C2.49376 2.69946 2.45613 2.70669 2.4182 2.70636C2.38026 2.70603 2.34277 2.69815 2.30791 2.68317C2.27305 2.6682 2.24153 2.64643 2.21517 2.61914L0.216312 0.620286C0.164267 0.566399 0.135468 0.494227 0.136119 0.419314C0.13677 0.344401 0.166818 0.27274 0.219792 0.219766C0.272766 0.166792 0.344427 0.136744 0.41934 0.136093C0.494253 0.135442 0.566425 0.164241 0.620312 0.216286Z" fill="black"/>
<path fill-rule="evenodd" clip-rule="evenodd" d="M1.71429 0.285714C1.71429 0.36149 1.68418 0.434163 1.6306 0.487745C1.57702 0.541327 1.50435 0.571429 1.42857 0.571429H0.571429V1.42857C0.571429 1.50435 0.541327 1.57702 0.487745 1.6306C0.434163 1.68418 0.36149 1.71429 0.285714 1.71429C0.209938 1.71429 0.137266 1.68418 0.0836838 1.6306C0.030102 1.57702 0 1.50435 0 1.42857V0.285714C0 0.209938 0.030102 0.137266 0.0836838 0.0836838C0.137266 0.030102 0.209938 0 0.285714 0H1.42857C1.50435 0 1.57702 0.030102 1.6306 0.0836838C1.68418 0.137266 1.71429 0.209938 1.71429 0.285714Z" fill="black"/>
</svg>
