<svg width="586" height="486" viewBox="0 0 586 486" fill="none" xmlns="http://www.w3.org/2000/svg">
<path d="M346.312 0H176.03C149.546 0 128.077 21.4648 128.077 47.9431V436.971C128.077 463.449 149.546 484.914 176.03 484.914H346.312C372.796 484.914 394.266 463.449 394.266 436.971V47.9431C394.266 21.4648 372.796 0 346.312 0Z" fill="#3F3D56"/>
<path d="M389.775 47.9454V436.97C389.762 448.491 385.179 459.536 377.03 467.683C368.882 475.829 357.835 480.412 346.311 480.425H176.032C164.509 480.412 153.461 475.829 145.313 467.683C137.165 459.536 132.581 448.491 132.568 436.97V47.9454C132.581 36.4247 137.165 25.3796 145.313 17.2332C153.461 9.08681 164.509 4.50429 176.032 4.49095H198.299V12.181C198.299 15.6624 199.682 19.0012 202.145 21.4629C204.607 23.9247 207.946 25.3078 211.429 25.308H310.915C314.397 25.3078 317.737 23.9247 320.199 21.4629C322.661 19.0012 324.044 15.6624 324.045 12.181V4.49095H346.311C357.835 4.50429 368.882 9.08681 377.03 17.2332C385.179 25.3796 389.762 36.4247 389.775 47.9454Z" fill="white"/>
<path d="M126.852 98.3705C125.986 98.3695 125.156 98.0252 124.543 97.413C123.931 96.8008 123.587 95.9708 123.586 95.1051V88.5743C123.586 87.7082 123.93 86.8777 124.542 86.2653C125.155 85.6529 125.986 85.3089 126.852 85.3089C127.718 85.3089 128.549 85.6529 129.161 86.2653C129.774 86.8777 130.118 87.7082 130.118 88.5743V95.1051C130.117 95.9708 129.773 96.8008 129.16 97.413C128.548 98.0252 127.718 98.3695 126.852 98.3705Z" fill="#3F3D56"/>
<path d="M126.852 131.858C125.986 131.857 125.156 131.512 124.543 130.9C123.931 130.288 123.587 129.458 123.586 128.592V110.615C123.586 109.749 123.93 108.918 124.542 108.306C125.155 107.693 125.986 107.349 126.852 107.349C127.718 107.349 128.549 107.693 129.161 108.306C129.774 108.918 130.118 109.749 130.118 110.615V128.592C130.117 129.458 129.773 130.288 129.16 130.9C128.548 131.512 127.718 131.857 126.852 131.858Z" fill="#3F3D56"/>
<path d="M126.852 158.781C125.986 158.78 125.156 158.436 124.543 157.824C123.931 157.212 123.587 156.382 123.586 155.516V137.539C123.586 136.673 123.93 135.842 124.542 135.23C125.155 134.617 125.986 134.273 126.852 134.273C127.718 134.273 128.549 134.617 129.161 135.23C129.774 135.842 130.118 136.673 130.118 137.539V155.516C130.117 156.382 129.773 157.212 129.16 157.824C128.548 158.436 127.718 158.78 126.852 158.781Z" fill="#3F3D56"/>
<path d="M394.674 144.086C393.808 144.085 392.978 143.741 392.366 143.129C391.753 142.517 391.409 141.687 391.408 140.821V96.9554C391.408 96.0893 391.752 95.2588 392.365 94.6464C392.977 94.034 393.808 93.69 394.674 93.69C395.54 93.69 396.371 94.034 396.984 94.6464C397.596 95.2588 397.94 96.0893 397.94 96.9554V140.821C397.939 141.687 397.595 142.517 396.983 143.129C396.37 143.741 395.54 144.085 394.674 144.086Z" fill="#3F3D56"/>
<path d="M268.187 14.9758H242.875C242.334 14.9758 241.814 14.7608 241.432 14.3781C241.049 13.9953 240.834 13.4762 240.834 12.9349C240.834 12.3937 241.049 11.8746 241.432 11.4918C241.814 11.1091 242.334 10.8941 242.875 10.8941H268.187C268.729 10.8941 269.248 11.1091 269.631 11.4918C270.014 11.8746 270.229 12.3937 270.229 12.9349C270.229 13.4762 270.014 13.9953 269.631 14.3781C269.248 14.7608 268.729 14.9758 268.187 14.9758Z" fill="white"/>
<path d="M281.252 14.5682C282.154 14.5682 282.885 13.8373 282.885 12.9355C282.885 12.0338 282.154 11.3028 281.252 11.3028C280.35 11.3028 279.619 12.0338 279.619 12.9355C279.619 13.8373 280.35 14.5682 281.252 14.5682Z" fill="white"/>
<path d="M188.57 23.7351H166.524C165.441 23.7351 164.403 23.305 163.637 22.5396C162.871 21.7741 162.441 20.7359 162.441 19.6533C162.441 18.5708 162.871 17.5326 163.637 16.7671C164.403 16.0016 165.441 15.5716 166.524 15.5716H188.57C189.653 15.5716 190.691 16.0016 191.457 16.7671C192.223 17.5326 192.653 18.5708 192.653 19.6533C192.653 20.7359 192.223 21.7741 191.457 22.5396C190.691 23.305 189.653 23.7351 188.57 23.7351Z" fill="#E6E6E6"/>
<path d="M333.096 23.3275C335.125 23.3275 336.771 21.6828 336.771 19.6539C336.771 17.625 335.125 15.9803 333.096 15.9803C331.067 15.9803 329.422 17.625 329.422 19.6539C329.422 21.6828 331.067 23.3275 333.096 23.3275Z" fill="#E6E6E6"/>
<path d="M344.528 23.3275C346.557 23.3275 348.202 21.6828 348.202 19.6539C348.202 17.625 346.557 15.9803 344.528 15.9803C342.498 15.9803 340.853 17.625 340.853 19.6539C340.853 21.6828 342.498 23.3275 344.528 23.3275Z" fill="#E6E6E6"/>
<path d="M355.959 23.3275C357.988 23.3275 359.633 21.6828 359.633 19.6539C359.633 17.625 357.988 15.9803 355.959 15.9803C353.93 15.9803 352.285 17.625 352.285 19.6539C352.285 21.6828 353.93 23.3275 355.959 23.3275Z" fill="#E6E6E6"/>
<path d="M330.868 266.83H178.396C174.47 266.825 170.706 265.264 167.93 262.489C165.155 259.714 163.593 255.951 163.589 252.026V236.734C163.593 232.809 165.155 229.046 167.93 226.271C170.706 223.496 174.47 221.935 178.396 221.93H330.868C334.794 221.935 338.558 223.496 341.333 226.271C344.109 229.046 345.671 232.809 345.675 236.734V252.026C345.671 255.951 344.109 259.714 341.333 262.489C338.558 265.264 334.794 266.825 330.868 266.83ZM178.396 223.563C174.903 223.567 171.554 224.956 169.085 227.425C166.615 229.894 165.226 233.242 165.222 236.734V252.026C165.226 255.518 166.615 258.866 169.085 261.335C171.554 263.804 174.903 265.193 178.396 265.197H330.868C334.361 265.193 337.71 263.804 340.179 261.335C342.649 258.866 344.038 255.518 344.042 252.026V236.734C344.038 233.242 342.649 229.894 340.179 227.425C337.71 224.956 334.361 223.567 330.868 223.563H178.396Z" fill="#E6E6E6"/>
<path d="M272.195 308.333H250.149C249.066 308.333 248.027 307.903 247.262 307.137C246.496 306.372 246.066 305.334 246.066 304.251C246.066 303.169 246.496 302.131 247.262 301.365C248.027 300.6 249.066 300.169 250.149 300.169H272.195C273.278 300.169 274.316 300.6 275.082 301.365C275.847 302.131 276.278 303.169 276.278 304.251C276.278 305.334 275.847 306.372 275.082 307.137C274.316 307.903 273.278 308.333 272.195 308.333Z" fill="#E6E6E6"/>
<path d="M277.26 426.703H245.084C244.301 426.704 243.525 426.551 242.802 426.252C242.078 425.953 241.42 425.514 240.866 424.961C240.312 424.408 239.873 423.751 239.573 423.027C239.273 422.304 239.118 421.529 239.118 420.746C239.118 419.963 239.273 419.188 239.573 418.465C239.873 417.742 240.312 417.085 240.866 416.531C241.42 415.978 242.078 415.539 242.802 415.24C243.525 414.941 244.301 414.788 245.084 414.789H277.26C278.84 414.789 280.355 415.417 281.473 416.534C282.59 417.651 283.218 419.166 283.218 420.746C283.218 422.326 282.59 423.841 281.473 424.958C280.355 426.076 278.84 426.703 277.26 426.703Z" fill="black"/>
<path d="M331.64 365.477H179.168C175.242 365.473 171.478 363.912 168.702 361.136C165.927 358.361 164.365 354.598 164.361 350.674V335.381C164.365 331.456 165.927 327.694 168.702 324.918C171.478 322.143 175.242 320.582 179.168 320.578H331.64C335.566 320.582 339.33 322.143 342.105 324.918C344.881 327.694 346.443 331.456 346.447 335.381V350.674C346.443 354.598 344.881 358.361 342.105 361.136C339.33 363.912 335.566 365.473 331.64 365.477ZM179.168 322.21C175.675 322.214 172.326 323.603 169.857 326.072C167.387 328.542 165.998 331.889 165.994 335.381V350.674C165.998 354.165 167.387 357.513 169.857 359.982C172.326 362.451 175.675 363.84 179.168 363.844H331.64C335.133 363.84 338.482 362.452 340.951 359.982C343.421 357.513 344.81 354.165 344.814 350.674V335.381C344.81 331.889 343.421 328.542 340.951 326.072C338.482 323.603 335.133 322.214 331.64 322.21H179.168Z" fill="#E6E6E6"/>
<path d="M394.098 229.467L279.289 270.05L279.483 270.598L394.292 230.015L394.098 229.467Z" fill="white"/>
<path d="M4.30068e-06 485.029C-0.00037626 485.156 0.0245032 485.283 0.0732026 485.401C0.121902 485.519 0.193468 485.626 0.283777 485.716C0.374086 485.807 0.481354 485.878 0.59942 485.927C0.717486 485.976 0.844016 486 0.971728 486H585.028C585.286 486 585.533 485.898 585.715 485.715C585.898 485.533 586 485.286 586 485.029C586 484.771 585.898 484.524 585.715 484.342C585.533 484.159 585.286 484.057 585.028 484.057H0.971678C0.843971 484.057 0.717454 484.082 0.599395 484.13C0.481337 484.179 0.374067 484.25 0.283764 484.341C0.193461 484.431 0.1219 484.538 0.0732026 484.656C0.0245047 484.774 -0.000371893 484.901 4.30068e-06 485.029Z" fill="#CCCCCC"/>
<path d="M203.034 463.976C202.564 463.998 202.1 463.875 201.702 463.623C201.305 463.372 200.995 463.005 200.814 462.571C200.633 462.137 200.589 461.659 200.689 461.2C200.789 460.74 201.027 460.323 201.373 460.004L201.53 459.38C201.509 459.33 201.488 459.28 201.467 459.23C200.994 458.113 200.202 457.16 199.189 456.492C198.176 455.824 196.989 455.47 195.776 455.475C194.562 455.479 193.378 455.842 192.37 456.518C191.362 457.193 190.577 458.151 190.112 459.272C188.255 463.744 185.89 468.224 185.308 472.952C185.052 475.042 185.16 477.161 185.628 479.214C181.266 469.701 179.001 459.361 178.986 448.896C178.985 446.27 179.131 443.646 179.423 441.036C179.664 438.896 179.999 436.772 180.428 434.663C182.766 423.219 187.786 412.493 195.075 403.366C198.603 401.441 201.456 398.482 203.25 394.886C203.9 393.594 204.359 392.214 204.613 390.79C204.216 390.842 203.113 384.782 203.413 384.411C202.858 383.569 201.866 383.151 201.26 382.33C198.247 378.246 194.097 378.959 191.93 384.508C187.302 386.844 187.257 390.717 190.097 394.443C191.904 396.813 192.152 400.02 193.737 402.557C193.574 402.766 193.405 402.968 193.242 403.177C190.26 407.01 187.661 411.126 185.483 415.466C186.013 410.604 185.38 405.686 183.638 401.116C181.872 396.857 178.562 393.27 175.647 389.588C172.146 385.165 164.967 387.095 164.35 392.701C164.344 392.756 164.338 392.81 164.332 392.864C164.765 393.108 165.189 393.368 165.604 393.642C166.125 393.99 166.528 394.487 166.762 395.068C166.995 395.649 167.048 396.288 166.912 396.899C166.777 397.511 166.46 398.067 166.002 398.495C165.545 398.923 164.969 399.204 164.35 399.299L164.287 399.309C164.441 400.869 164.714 402.415 165.102 403.934C161.363 418.391 169.436 423.657 180.963 423.894C181.217 424.024 181.465 424.154 181.72 424.278C179.531 430.48 178.158 436.939 177.636 443.495C177.34 447.362 177.357 451.247 177.688 455.112L177.668 454.975C176.833 450.678 174.54 446.8 171.176 443.997C166.181 439.894 159.123 438.383 153.733 435.085C153.16 434.718 152.494 434.521 151.814 434.52C151.133 434.518 150.466 434.711 149.892 435.076C149.317 435.441 148.859 435.962 148.571 436.579C148.283 437.196 148.178 437.882 148.267 438.557C148.274 438.604 148.282 438.652 148.289 438.701C149.093 439.028 149.875 439.405 150.631 439.829C151.064 440.073 151.488 440.332 151.903 440.607C152.424 440.954 152.827 441.452 153.061 442.033C153.294 442.614 153.347 443.252 153.211 443.864C153.076 444.475 152.759 445.032 152.301 445.46C151.844 445.888 151.268 446.168 150.649 446.264L150.586 446.274C150.54 446.28 150.501 446.287 150.455 446.293C151.828 449.57 153.755 452.586 156.151 455.21C158.489 467.831 168.531 469.028 179.273 465.353H179.28C180.458 470.473 182.166 475.458 184.375 480.225H202.578C202.643 480.023 202.702 479.814 202.761 479.612C201.076 479.718 199.384 479.617 197.724 479.312C199.074 477.655 200.425 475.985 201.775 474.328C201.806 474.297 201.834 474.265 201.86 474.231C202.545 473.383 203.237 472.541 203.922 471.693L203.922 471.692C203.959 469.093 203.66 466.5 203.035 463.977L203.034 463.976Z" fill="#F2F2F2"/>
<path d="M263.716 193.838C294.092 193.838 318.716 169.312 318.716 139.058C318.716 108.803 294.092 84.2774 263.716 84.2774C233.341 84.2774 208.717 108.803 208.717 139.058C208.717 169.312 233.341 193.838 263.716 193.838Z" fill="#B63232"/>
<path d="M262.669 145.151L261.469 121.751H268.869L267.619 145.151H262.669ZM265.169 157.101C264.002 157.101 263.035 156.718 262.269 155.951C261.502 155.185 261.119 154.268 261.119 153.201C261.119 152.135 261.502 151.235 262.269 150.501C263.035 149.735 264.002 149.351 265.169 149.351C266.335 149.351 267.285 149.735 268.019 150.501C268.752 151.235 269.119 152.135 269.119 153.201C269.119 154.268 268.752 155.185 268.019 155.951C267.285 156.718 266.335 157.101 265.169 157.101Z" fill="white"/>
<path d="M464.126 440.333C464.778 439.279 465.546 438.301 466.415 437.418C466.773 437.046 467.151 436.696 467.541 436.356C469.91 434.247 472.799 432.808 475.91 432.186C479.02 431.563 482.241 431.78 485.24 432.814C488.239 433.849 490.908 435.662 492.973 438.07C495.038 440.477 496.425 443.391 496.99 446.511C499.607 436.835 492.794 427.304 485.943 419.983C479.089 412.664 471.255 404.636 471.295 394.607C471.314 389.027 474.044 384.049 478.167 380.358C478.294 380.247 478.422 380.135 478.551 380.027C483.535 375.757 489.946 373.524 496.505 373.773C508.689 374.425 519.328 382.611 526.717 392.322C538.61 407.945 543.821 429.877 535.495 447.662C528.172 463.304 512.553 472.593 496.613 480.06C494.387 481.103 492.166 482.115 489.949 483.095C489.934 483.099 489.918 483.109 489.904 483.113C489.797 483.16 489.69 483.207 489.59 483.255C489.133 483.457 488.675 483.659 488.221 483.858L488.431 483.996L489.087 484.42C488.86 484.282 488.635 484.149 488.407 484.011C488.34 483.969 488.268 483.93 488.201 483.889C480.372 479.193 472.434 474.225 467.025 466.894C461.416 459.283 459.161 448.38 464.126 440.333Z" fill="#F1F1F1"/>
<path d="M516.36 422.658C518.094 426.6 519.243 430.774 519.772 435.048C520.188 438.859 520.031 442.711 519.308 446.475C517.753 454.212 514.363 461.461 509.422 467.615C505.694 472.287 501.39 476.469 496.613 480.062C494.387 481.105 492.166 482.117 489.949 483.097C489.934 483.101 489.918 483.111 489.904 483.115C489.797 483.162 489.69 483.209 489.59 483.257C489.133 483.459 488.675 483.661 488.221 483.86L488.431 483.997L489.087 484.422C488.86 484.284 488.635 484.151 488.407 484.013C488.34 483.971 488.268 483.932 488.201 483.89C489.924 477.866 490.177 471.517 488.94 465.374C487.702 459.232 485.01 453.476 481.088 448.588C477.146 443.761 472.118 439.935 466.415 437.42C466.773 437.048 467.151 436.698 467.54 436.358C469.737 437.366 471.841 438.567 473.826 439.945C480.926 444.851 486.258 451.911 489.031 460.081C491.508 467.493 491.817 475.458 489.923 483.04C490.316 482.783 490.71 482.519 491.094 482.257C498.387 477.34 505.109 471.436 510.172 464.195C514.539 458.075 517.333 450.976 518.309 443.523C519.28 435.381 517.242 427.375 513.605 420.11C509.59 412.338 504.53 405.151 498.566 398.749C492.577 392.171 485.804 386.35 478.4 381.416C478.233 381.303 478.116 381.131 478.072 380.935C478.029 380.738 478.063 380.533 478.167 380.36C478.247 380.204 478.385 380.085 478.551 380.029C478.636 380.008 478.725 380.005 478.81 380.023C478.896 380.04 478.977 380.076 479.046 380.129C479.96 380.739 480.867 381.354 481.762 381.988C489.218 387.265 495.99 393.449 501.922 400.395C507.653 407.092 512.869 414.531 516.36 422.658Z" fill="white"/>
<path d="M356.74 116.094C363.027 116.094 368.122 111 368.122 104.716C368.122 98.4327 363.027 93.3388 356.74 93.3388C350.454 93.3388 345.359 98.4327 345.359 104.716C345.359 111 350.454 116.094 356.74 116.094Z" fill="#F1F1F1"/>
<path d="M498.269 268.351C502.101 268.351 505.208 265.246 505.208 261.415C505.208 257.584 502.101 254.478 498.269 254.478C494.436 254.478 491.329 257.584 491.329 261.415C491.329 265.246 494.436 268.351 498.269 268.351Z" fill="#F1F1F1"/>
<path d="M569.031 207.962C578.403 207.962 586 200.372 586 191.009C586 181.646 578.403 174.056 569.031 174.056C559.659 174.056 552.062 181.646 552.062 191.009C552.062 200.372 559.659 207.962 569.031 207.962Z" fill="#F1F1F1"/>
<path d="M78.058 271.256C83.681 271.256 88.2394 266.701 88.2394 261.083C88.2394 255.466 83.681 250.911 78.058 250.911C72.4349 250.911 67.8765 255.466 67.8765 261.083C67.8765 266.701 72.4349 271.256 78.058 271.256Z" fill="#F1F1F1"/>
<path d="M299.097 485.187H540.901C541.069 485.187 541.23 485.12 541.349 485.001C541.468 484.882 541.535 484.721 541.535 484.553C541.535 484.384 541.468 484.223 541.349 484.104C541.23 483.985 541.069 483.918 540.901 483.918H299.097C298.929 483.918 298.767 483.985 298.648 484.104C298.529 484.223 298.462 484.384 298.462 484.553C298.462 484.721 298.529 484.882 298.648 485.001C298.767 485.12 298.929 485.187 299.097 485.187Z" fill="#CBCBCB"/>
<path d="M418.344 197.799C430.962 197.799 441.191 187.573 441.191 174.96C441.191 162.346 430.962 152.121 418.344 152.121C405.726 152.121 395.496 162.346 395.496 174.96C395.496 187.573 405.726 197.799 418.344 197.799Z" fill="#2F2E41"/>
<path d="M420.18 162.057C425.097 157.074 431.046 153.228 437.61 150.791C441.823 149.231 446.409 148.267 450.814 149.153C455.219 150.039 459.384 153.085 460.613 157.405C461.618 160.938 460.581 164.741 459.021 168.067C457.462 171.392 455.38 174.476 454.119 177.925C452.832 181.445 452.445 185.23 452.993 188.937C453.541 192.644 455.006 196.156 457.256 199.153C459.506 202.151 462.47 204.539 465.877 206.101C469.285 207.663 473.029 208.35 476.769 208.099C472.441 208.679 468.452 210.712 464.221 211.794C459.991 212.877 454.998 212.803 451.854 209.774C448.528 206.568 448.461 201.357 448.622 196.741C448.861 189.88 449.1 183.019 449.34 176.158C449.461 172.659 449.566 169.048 448.303 165.782C447.041 162.516 444.041 159.656 440.538 159.686C437.884 159.708 435.534 161.316 433.406 162.901C431.277 164.486 429.024 166.178 426.38 166.414C423.736 166.649 420.717 164.693 420.915 162.047L420.18 162.057Z" fill="#2F2E41"/>
<path d="M331.567 328.311C329.374 328.92 327.033 328.704 324.989 327.703C322.944 326.702 321.338 324.986 320.474 322.881C319.611 320.775 319.55 318.426 320.303 316.279C321.056 314.132 322.571 312.335 324.561 311.23L344.299 288.845L360.994 292.451L337.513 315.441C338.091 316.663 338.393 317.997 338.398 319.348C338.404 320.7 338.113 322.036 337.546 323.263C336.979 324.49 336.15 325.578 335.117 326.45C334.084 327.323 332.872 327.958 331.567 328.311H331.567Z" fill="#FFE6DE"/>
<path d="M396.506 248.175L347.31 309.903L332.315 303.021L390.138 213.033L396.506 248.175Z" fill="#3F3D56"/>
<path d="M357.252 434.568L345.528 434.384L346.938 474.33H357.25L357.252 434.568Z" fill="#FFE6DE"/>
<path d="M359.881 470.964L339.571 470.963H339.57C336.138 470.963 332.846 472.326 330.419 474.752C327.992 477.179 326.628 480.469 326.628 483.901V484.321L359.88 484.322L359.881 470.964Z" fill="#2F2E41"/>
<path d="M434.881 423.973L422.073 432.192L447.693 463.002L456.371 457.433L434.881 423.973Z" fill="#FFE6DE"/>
<path d="M456.766 453.18L439.675 464.148L439.674 464.149C436.786 466.003 434.753 468.928 434.022 472.28C433.291 475.633 433.922 479.138 435.776 482.026L436.003 482.379L463.985 464.421L456.766 453.18Z" fill="#2F2E41"/>
<path d="M439.444 301.995C439.444 301.995 410.987 207.514 401.841 206.237C392.696 204.96 377.96 230.48 377.96 230.48C358.855 254.846 339.155 333.775 339.155 333.775C339.155 333.775 371.996 335.829 396.003 348.597C420.01 361.365 448.342 347.951 448.342 347.951L439.444 301.995Z" fill="#3F3D56"/>
<path opacity="0.1" d="M439.444 301.994C439.444 301.994 410.987 207.513 401.841 206.237C392.696 204.96 381.703 230.738 381.703 230.738C372.183 270.072 339.155 333.775 339.155 333.775C339.155 333.775 371.996 335.829 396.003 348.597C420.01 361.364 448.342 347.95 448.342 347.95L439.444 301.994Z" fill="black"/>
<path d="M416.097 273.726V321.202L421.686 389.975L449.611 441.996L436.283 451.513L398.204 402.029L383.143 352.894L359.49 461.663L341.72 460.394L354.061 309.588L377.481 267.14L416.097 273.726Z" fill="#2F2E41"/>
<path d="M387.404 227.807C378.519 236.689 386.77 246.205 386.77 246.205L376.615 269.044L416.598 279.829L430.571 217.417L421.051 207.266C402.012 206.632 402.001 206.237 402.001 206.237C398.666 209.501 387.404 227.807 387.404 227.807Z" fill="#F3857E"/>
<path d="M432.181 210.95C430.365 209.61 428.302 208.643 426.109 208.106C423.917 207.57 421.64 207.473 419.41 207.822C417.18 208.17 415.042 208.958 413.118 210.139C411.195 211.32 409.525 212.871 408.206 214.701C398.154 228.691 388.86 251.282 401.666 279.456C422.228 324.696 440.122 347.855 447.396 347.853C447.714 347.855 448.03 347.806 448.331 347.706C452.809 346.187 459.282 338.613 460.454 331.939C460.874 329.55 460.774 326.223 457.916 323.938C449.707 317.374 434.969 296.936 430.371 270.036C427.83 255.172 432.757 241.632 437.338 232.891C439.273 229.275 439.839 225.082 438.933 221.082C438.026 217.082 435.708 213.542 432.402 211.112L432.181 210.95Z" fill="#3F3D56"/>
<path d="M419.519 195.556C427.669 191.102 430.665 180.887 426.209 172.74C421.754 164.593 411.535 161.599 403.385 166.053C395.234 170.506 392.239 180.721 396.694 188.868C401.15 197.015 411.369 200.01 419.519 195.556Z" fill="#FFE6DE"/>
<path d="M387.799 179.532H412.085L412.334 176.046L413.579 179.532H417.318L417.812 172.624L420.28 179.532H427.515V179.19C427.51 174.38 425.597 169.77 422.195 166.369C418.793 162.969 414.18 161.056 409.369 161.05H405.945C401.134 161.056 396.522 162.969 393.12 166.369C389.718 169.77 387.805 174.38 387.799 179.19V179.532Z" fill="#2F2E41"/>
<path d="M423.847 192.059L434.21 188.698V163.54H414.635L415.119 164.024C421.862 170.755 429.362 194.638 423.847 192.059Z" fill="#2F2E41"/>
<path d="M411.682 342.079C413.057 343.896 415.052 345.15 417.288 345.603C419.525 346.056 421.847 345.677 423.816 344.537C425.785 343.398 427.263 341.577 427.97 339.42C428.677 337.263 428.565 334.92 427.653 332.834L425.564 303.115L410.082 295.803L414.781 328.28C413.578 328.895 412.526 329.766 411.699 330.832C410.872 331.898 410.29 333.132 409.994 334.447C409.699 335.763 409.697 337.128 409.988 338.447C410.28 339.765 410.858 341.005 411.682 342.079Z" fill="#FFE6DE"/>
<path d="M407.08 222.927L410.355 317.934L426.479 321.619L435.214 215.247L407.08 222.927Z" fill="#3F3D56"/>
</svg>
