<svg width="21" height="21" viewBox="0 0 21 21" fill="none" xmlns="http://www.w3.org/2000/svg">
<path d="M2.04167 0.833252H18.9583M2.04167 0.833252H1.4375M2.04167 0.833252L3.25 10.4999M18.9583 0.833252H19.5625M18.9583 0.833252L17.75 10.4999M3.25 10.4999L4.19371 18.0496C4.26676 18.6342 4.55084 19.1719 4.99253 19.5618C5.43423 19.9516 6.00312 20.1667 6.59225 20.1666H14.4078C14.9969 20.1667 15.5658 19.9516 16.0075 19.5618C16.4492 19.1719 16.7332 18.6342 16.8063 18.0496L17.75 10.4999M3.25 10.4999L5.75367 9.66617C6.1028 9.54972 6.47392 9.51455 6.83871 9.56334C7.2035 9.61213 7.55233 9.7436 7.85858 9.94771L9.15996 10.8141C9.55684 11.0785 10.0231 11.2196 10.5 11.2196C10.9769 11.2196 11.4432 11.0785 11.84 10.8141L13.1414 9.94771C13.4476 9.7434 13.7964 9.61172 14.1611 9.56271C14.5259 9.51371 14.8971 9.54868 15.2463 9.66496L17.75 10.4999" stroke="black" stroke-width="1.5" stroke-linecap="round" stroke-linejoin="round"/>
</svg>
