<svg width="23" height="28" viewBox="0 0 23 28" fill="none" xmlns="http://www.w3.org/2000/svg">
<path d="M0.500012 11.0008L0.500012 11.0006C0.503382 8.2212 1.63975 5.55368 3.6645 3.58402C5.68959 1.61404 8.43803 0.503441 11.3077 0.5C14.1774 0.503441 16.9258 1.61404 18.9509 3.58402C20.9756 5.55368 22.112 8.2212 22.1154 11.0006V11.0007C22.1187 13.2699 21.3569 15.4791 19.9442 17.2894L19.8926 17.3556L19.8919 17.3576L19.7846 17.4938C19.7433 17.5461 19.7009 17.5997 19.6662 17.6432L19.6219 17.6985L19.6075 17.7163C19.6053 17.7189 19.6039 17.7206 19.6031 17.7216C19.6028 17.722 19.6026 17.7222 19.6024 17.7224C19.6023 17.7225 19.6023 17.7225 19.6024 17.7224L11.3077 27.239L3.01368 17.7235L3.01143 17.7209C3.01249 17.7221 3.00787 17.7168 2.99441 17.7003C2.98261 17.6858 2.96757 17.6671 2.95007 17.6452C2.91514 17.6015 2.8727 17.5478 2.83127 17.4952L2.72062 17.3543L2.68526 17.3091L2.67549 17.2966L2.67295 17.2934L2.67231 17.2926L2.67218 17.2924C2.67217 17.2924 2.67216 17.2924 2.67215 17.2924C2.67214 17.2923 2.67213 17.2923 2.67211 17.2923C1.25879 15.4812 0.496591 13.271 0.500012 11.0008ZM15.9196 11.0006V11C15.9196 10.1069 15.6473 9.23497 15.1387 8.49463C14.6304 7.75447 13.9092 7.17964 13.0681 6.84072C12.2271 6.50184 11.3025 6.41337 10.4105 6.58596C9.51852 6.75856 8.69734 7.18492 8.05151 7.81318C7.40553 8.44158 6.96399 9.2439 6.78495 10.1195C6.6059 10.9951 6.69793 11.9026 7.04878 12.7266C7.39955 13.5504 7.9926 14.2523 8.75076 14.7451C9.50878 15.2378 10.3986 15.5 11.3077 15.5H11.3083C12.5264 15.4985 13.6969 15.0273 14.5624 14.1854C15.4283 13.343 15.918 12.198 15.9196 11.0006Z" fill="black" stroke="black"/>
</svg>
