<svg width="530" height="530" viewBox="0 0 530 530" fill="none" xmlns="http://www.w3.org/2000/svg">
<path d="M265.265 498.094C403.764 498.094 516.04 433.272 516.04 353.309C516.04 273.346 403.764 208.523 265.265 208.523C126.766 208.523 14.4902 273.346 14.4902 353.309C14.4902 433.272 126.766 498.094 265.265 498.094Z" fill="#F5F5F5"/>
<path d="M447.012 314.313L392.889 283.022C391.995 282.566 391.015 282.307 390.013 282.261C389.011 282.216 388.011 282.384 387.08 282.757L326.533 310.719C324.89 311.472 324.837 312.839 326.395 313.73L393.874 352.685C394.732 353.123 395.691 353.327 396.653 353.277C397.615 353.227 398.547 352.924 399.355 352.399L447.192 317.843C447.52 317.669 447.792 317.405 447.975 317.082C448.158 316.759 448.245 316.391 448.226 316.02C448.207 315.65 448.083 315.292 447.868 314.99C447.653 314.687 447.356 314.452 447.012 314.313Z" fill="#E0E0E0"/>
<path d="M82.1712 314.313L136.295 283.022C137.188 282.566 138.169 282.307 139.171 282.261C140.172 282.216 141.172 282.384 142.104 282.757L202.651 310.719C204.294 311.472 204.347 312.839 202.789 313.73L135.32 352.685C134.46 353.123 133.5 353.327 132.536 353.277C131.572 353.227 130.638 352.924 129.829 352.399L81.991 317.843C81.6668 317.666 81.3991 317.401 81.2188 317.079C81.0384 316.757 80.9527 316.39 80.9715 316.021C80.9904 315.652 81.113 315.296 81.3252 314.994C81.5374 314.692 81.8307 314.456 82.1712 314.313Z" fill="#E0E0E0"/>
<path d="M86.2307 383.084L257.58 481.749C258.418 482.177 259.346 482.401 260.288 482.401C261.23 482.401 262.158 482.177 262.996 481.749L438.448 380.381C439.953 379.522 439.953 378.123 438.448 377.201L267.12 278.589C266.278 278.166 265.348 277.945 264.406 277.945C263.464 277.945 262.534 278.166 261.693 278.589L86.2307 379.957C84.7255 380.815 84.7255 382.225 86.2307 383.084Z" fill="#E0E0E0"/>
<path d="M378.145 114.088C374.763 114.331 366.124 113.356 360.973 119.737C355.514 126.479 336.688 153.657 336.688 153.657L317.884 125.758L297.044 114.702C297.839 124.476 322.696 166.483 326.459 171.603C330.222 176.723 334.494 181.143 342.656 174.38C350.818 167.618 369.591 141.764 369.591 141.764C369.591 141.764 381.526 113.844 378.145 114.088Z" fill="#FFA8A7"/>
<path d="M380.243 113.582C380.243 113.582 369.961 112.246 364.152 116.062C358.343 119.878 342.253 144.078 342.253 144.078C342.253 144.078 343.641 155.855 357.453 159.279L377.042 133.468L380.243 113.582Z" fill="#455A64"/>
<path d="M305.004 118.808C311.672 114.96 322.494 114.96 329.172 118.808C332.501 120.737 334.165 123.249 334.165 125.772V128.952C334.165 131.485 332.511 134.008 329.172 135.937C322.494 139.796 311.672 139.796 305.004 135.937C301.665 134.019 300.012 131.496 300.012 128.984V125.73C299.98 123.26 301.665 120.737 305.004 118.808Z" fill="#FFBDA7"/>
<path d="M329.172 132.764C322.494 136.612 311.672 136.612 305.004 132.764C298.337 128.916 298.326 122.662 305.004 118.804C311.682 114.945 322.494 114.956 329.172 118.804C335.85 122.652 335.85 128.906 329.172 132.764Z" fill="#F0997A"/>
<path d="M305.004 114.745C311.672 110.897 322.494 110.897 329.172 114.745C332.501 116.674 334.165 119.187 334.165 121.709V124.942C334.165 127.476 332.511 129.999 329.172 131.928C322.494 135.786 311.672 135.786 305.004 131.928C301.665 130.009 300.012 127.486 300.012 124.974V121.72C299.98 119.197 301.665 116.674 305.004 114.745Z" fill="#B16668"/>
<path d="M329.172 128.705C322.494 132.564 311.672 132.564 305.004 128.705C298.337 124.847 298.326 118.604 305.004 114.745C311.682 110.887 322.494 110.897 329.172 114.745C335.85 118.593 335.85 124.847 329.172 128.705Z" fill="#9A4A4D"/>
<path d="M304.972 118.098H329.204C331.896 122.041 331.896 128.316 331.896 129.546C331.896 130.775 331.759 131.56 329.776 131.114C321.46 129.093 312.78 129.093 304.464 131.114C302.45 131.56 302.344 130.775 302.344 129.546C302.344 128.316 302.269 122.041 304.972 118.098Z" fill="#F0F0F0"/>
<path d="M331.303 126.895C330.78 127.789 329.928 128.444 328.928 128.718C327.964 128.962 326.946 128.877 325.96 129.025C323.936 129.333 322.568 130.711 320.745 131.442C319.976 131.753 319.146 131.884 318.318 131.824C317.395 131.738 316.493 131.502 315.647 131.124C314.279 130.583 312.954 129.894 311.544 129.47C310.441 129.108 309.269 129.006 308.121 129.174C307.174 129.377 306.187 129.277 305.301 128.887C303.616 128.092 303.043 125.909 301.517 124.849C300.308 124.001 298.538 123.852 297.828 122.57C297.609 122.088 297.537 121.552 297.622 121.03C297.707 120.507 297.945 120.021 298.305 119.634C299.034 118.868 299.951 118.309 300.966 118.012C302.829 117.388 304.762 116.993 306.721 116.835C311.12 116.39 315.53 116.125 319.95 116.008C324.37 115.892 328.536 115.754 332.766 117.068C333.74 117.334 334.654 117.783 335.458 118.393C335.855 118.709 336.172 119.113 336.383 119.573C336.595 120.033 336.696 120.537 336.677 121.043C336.562 121.51 336.351 121.946 336.057 122.326C335.763 122.706 335.393 123.02 334.97 123.248C334.462 123.598 333.91 123.831 333.37 124.213C332.539 124.988 331.84 125.894 331.303 126.895Z" fill="#BA68C8"/>
<path d="M299.439 116.6C299.427 116.555 299.427 116.507 299.439 116.462C300.997 110.494 308.29 106 317.035 106C325.78 106 333.094 110.494 334.652 116.462C334.665 116.507 334.665 116.555 334.652 116.6C334.858 117.254 334.951 117.939 334.928 118.625C334.854 121.222 333.105 123.797 329.681 125.758C322.674 129.797 311.332 129.797 304.326 125.758C300.913 123.797 299.153 121.222 299.079 118.625C299.083 117.934 299.205 117.249 299.439 116.6Z" fill="#FFBDA7"/>
<path d="M303.213 110.674L313.929 108.809C313.929 108.809 321.052 111.278 321.127 111.406C321.201 111.533 324.953 113.854 324.953 113.854C325.6 114.405 324.709 115.826 323.416 115.974C322.654 116.026 321.889 116.026 321.127 115.974C321.127 115.974 318.869 118.274 313.791 118.698C308.714 119.122 305.184 116.939 303.255 116.303C301.654 115.773 300.658 115.391 299.736 115.667C300.445 113.731 301.643 112.011 303.213 110.674Z" fill="#F0997A"/>
<path d="M303.054 122.634C307.516 126.036 318.954 127.16 326.109 123.545C333.264 119.931 333.529 113.825 331.303 110.984C332.923 112.437 334.099 114.319 334.695 116.412C334.707 116.457 334.707 116.504 334.695 116.549C334.901 117.204 334.994 117.888 334.97 118.574C334.896 121.171 333.147 123.747 329.723 125.708C322.717 129.746 311.375 129.746 304.368 125.708C300.955 123.747 299.195 121.171 299.121 118.574C299.098 117.888 299.191 117.204 299.397 116.549C299.397 116.549 299.164 119.666 303.054 122.634Z" fill="#F0997A"/>
<path d="M299.206 117.659C297.086 118.295 296.885 113.652 296.98 113.111C297.166 111.929 297.688 110.825 298.485 109.931C300.891 107.197 303.35 106.985 306.244 105.066C307.188 104.32 308.268 103.765 309.424 103.434C310.612 103.446 311.783 103.713 312.859 104.218C317.099 106.232 324.519 112.232 324.095 111.882C324.472 112.183 324.827 112.513 325.155 112.868C325.579 113.44 324.985 114.14 324.572 114.415C324.02 114.766 323.401 114.996 322.754 115.091C322.108 115.186 321.448 115.144 320.819 114.966C318.923 116.193 316.774 116.976 314.534 117.256C311.896 117.739 309.178 117.527 306.647 116.641C301.633 114.574 300.033 113.758 299.206 117.659Z" fill="#FFA8A7"/>
<path d="M432.48 236.59V315.083C432.499 315.429 432.599 315.766 432.772 316.066C432.945 316.366 433.186 316.622 433.477 316.811L436.158 318.348C436.465 318.504 436.805 318.586 437.15 318.586C437.494 318.586 437.834 318.504 438.141 318.348L440.822 316.811C441.113 316.622 441.354 316.366 441.527 316.066C441.7 315.766 441.8 315.429 441.819 315.083V236.59C441.819 236.439 441.789 236.289 441.731 236.15C441.672 236.01 441.587 235.883 441.48 235.777C441.372 235.67 441.245 235.586 441.105 235.529C440.965 235.473 440.815 235.444 440.663 235.445H433.636C433.484 235.444 433.334 235.473 433.194 235.529C433.054 235.586 432.927 235.67 432.819 235.777C432.712 235.883 432.627 236.01 432.568 236.15C432.51 236.289 432.48 236.439 432.48 236.59Z" fill="#BA68C8"/>
<path opacity="0.6" d="M432.48 236.59V315.083C432.499 315.429 432.599 315.766 432.772 316.066C432.945 316.366 433.186 316.622 433.477 316.811L436.158 318.348C436.465 318.504 436.805 318.586 437.15 318.586C437.494 318.586 437.834 318.504 438.141 318.348L440.822 316.811C441.113 316.622 441.354 316.366 441.527 316.066C441.7 315.766 441.8 315.429 441.819 315.083V236.59C441.819 236.439 441.789 236.289 441.731 236.15C441.672 236.01 441.587 235.883 441.48 235.777C441.372 235.67 441.245 235.586 441.105 235.529C440.965 235.473 440.815 235.444 440.663 235.445H433.636C433.484 235.444 433.334 235.473 433.194 235.529C433.054 235.586 432.927 235.67 432.819 235.777C432.712 235.883 432.627 236.01 432.568 236.15C432.51 236.289 432.48 236.439 432.48 236.59Z" fill="black"/>
<path d="M440.642 235.445H438.279C438.127 235.444 437.977 235.473 437.837 235.529C437.697 235.586 437.57 235.67 437.462 235.777C437.355 235.883 437.27 236.01 437.211 236.15C437.153 236.289 437.123 236.439 437.123 236.59V317.776C437.123 318.412 437.568 318.666 438.109 318.348L440.791 316.811C441.081 316.622 441.323 316.366 441.496 316.066C441.669 315.766 441.769 315.429 441.787 315.083V236.59C441.787 236.287 441.667 235.995 441.452 235.781C441.237 235.566 440.946 235.445 440.642 235.445Z" fill="#BA68C8"/>
<path opacity="0.4" d="M440.642 235.445H438.279C438.127 235.444 437.977 235.473 437.837 235.529C437.697 235.586 437.57 235.67 437.462 235.777C437.355 235.883 437.27 236.01 437.211 236.15C437.153 236.289 437.123 236.439 437.123 236.59V317.776C437.123 318.412 437.568 318.666 438.109 318.348L440.791 316.811C441.081 316.622 441.323 316.366 441.496 316.066C441.669 315.766 441.769 315.429 441.787 315.083V236.59C441.787 236.287 441.667 235.995 441.452 235.781C441.237 235.566 440.946 235.445 440.642 235.445Z" fill="black"/>
<path d="M387.42 262.499V340.992C387.433 341.338 387.531 341.675 387.704 341.975C387.878 342.274 388.122 342.526 388.416 342.709L391.087 344.257C391.396 344.413 391.737 344.495 392.084 344.495C392.43 344.495 392.771 344.413 393.08 344.257L395.751 342.709C396.045 342.526 396.289 342.274 396.463 341.975C396.637 341.675 396.734 341.338 396.748 340.992V262.499C396.749 262.348 396.72 262.198 396.664 262.058C396.607 261.918 396.523 261.79 396.416 261.683C396.31 261.575 396.183 261.49 396.043 261.432C395.904 261.374 395.754 261.344 395.603 261.344H388.564C388.26 261.347 387.969 261.47 387.754 261.686C387.54 261.902 387.42 262.195 387.42 262.499Z" fill="#BA68C8"/>
<path opacity="0.6" d="M387.42 262.499V340.992C387.433 341.338 387.531 341.675 387.704 341.975C387.878 342.274 388.122 342.526 388.416 342.709L391.087 344.257C391.396 344.413 391.737 344.495 392.084 344.495C392.43 344.495 392.771 344.413 393.08 344.257L395.751 342.709C396.045 342.526 396.289 342.274 396.463 341.975C396.637 341.675 396.734 341.338 396.748 340.992V262.499C396.749 262.348 396.72 262.198 396.664 262.058C396.607 261.918 396.523 261.79 396.416 261.683C396.31 261.575 396.183 261.49 396.043 261.432C395.904 261.374 395.754 261.344 395.603 261.344H388.564C388.26 261.347 387.969 261.47 387.754 261.686C387.54 261.902 387.42 262.195 387.42 262.499Z" fill="black"/>
<path d="M395.602 261.344H393.26C393.108 261.344 392.958 261.374 392.818 261.432C392.678 261.49 392.55 261.575 392.443 261.682C392.336 261.79 392.251 261.917 392.192 262.057C392.134 262.197 392.104 262.348 392.104 262.499V343.685C392.104 344.321 392.55 344.575 393.101 344.257L395.772 342.71C396.066 342.526 396.31 342.274 396.484 341.975C396.657 341.675 396.755 341.338 396.768 340.992V262.499C396.77 262.346 396.741 262.195 396.682 262.053C396.624 261.912 396.538 261.783 396.43 261.675C396.321 261.568 396.192 261.483 396.05 261.426C395.908 261.369 395.755 261.341 395.602 261.344Z" fill="#BA68C8"/>
<path opacity="0.4" d="M395.602 261.344H393.26C393.108 261.344 392.958 261.374 392.818 261.432C392.678 261.49 392.55 261.575 392.443 261.682C392.336 261.79 392.251 261.917 392.192 262.057C392.134 262.197 392.104 262.348 392.104 262.499V343.685C392.104 344.321 392.55 344.575 393.101 344.257L395.772 342.71C396.066 342.526 396.31 342.274 396.484 341.975C396.657 341.675 396.755 341.338 396.768 340.992V262.499C396.77 262.346 396.741 262.195 396.682 262.053C396.624 261.912 396.538 261.783 396.43 261.675C396.321 261.568 396.192 261.483 396.05 261.426C395.908 261.369 395.755 261.341 395.602 261.344Z" fill="black"/>
<path d="M390.409 204.877C390.538 205.983 390.227 207.096 389.543 207.974C388.858 208.853 387.856 209.427 386.752 209.573H386.232C385.208 209.566 384.221 209.189 383.453 208.511C382.685 207.832 382.189 206.899 382.056 205.884C379.629 186.507 383.116 143.164 391.373 118.741C392.221 116.229 394.649 115.678 396.938 117.003C398.687 118.063 399.959 119.547 399.292 121.455C391.352 144.425 388.077 186.21 390.409 204.877Z" fill="#455A64"/>
<path d="M439.232 216.029C439.517 216.029 439.8 215.983 440.07 215.891C440.405 215.782 440.714 215.607 440.981 215.378C441.248 215.149 441.468 214.869 441.626 214.555C441.785 214.241 441.88 213.898 441.905 213.547C441.931 213.196 441.887 212.843 441.776 212.509C435.565 193.631 405.047 176.84 385.342 176.84C384.96 176.781 384.569 176.805 384.197 176.911C383.824 177.017 383.48 177.202 383.186 177.454C382.892 177.705 382.656 178.018 382.494 178.369C382.332 178.721 382.249 179.103 382.249 179.49C382.249 179.877 382.332 180.26 382.494 180.611C382.656 180.963 382.892 181.275 383.186 181.527C383.48 181.779 383.824 181.964 384.197 182.07C384.569 182.176 384.96 182.2 385.342 182.14C403.171 182.14 431.272 197.659 436.688 214.131C436.857 214.676 437.194 215.154 437.651 215.495C438.108 215.836 438.662 216.023 439.232 216.029Z" fill="#BA68C8"/>
<path d="M442.115 191.555C442.4 191.554 442.683 191.508 442.953 191.417C443.627 191.194 444.185 190.713 444.505 190.079C444.825 189.445 444.881 188.71 444.659 188.035C438.204 168.425 406.765 152.557 387.144 154.571C386.501 154.714 385.933 155.087 385.548 155.621C385.163 156.155 384.988 156.812 385.056 157.467C385.124 158.122 385.431 158.729 385.918 159.172C386.404 159.615 387.037 159.864 387.695 159.871C405.079 158.101 433.911 172.496 439.571 189.678C439.739 190.222 440.077 190.698 440.535 191.035C440.993 191.373 441.547 191.555 442.115 191.555Z" fill="#BA68C8"/>
<path d="M448.073 172.156C448.437 172.153 448.798 172.078 449.133 171.934C449.783 171.648 450.294 171.115 450.552 170.454C450.81 169.792 450.795 169.055 450.511 168.404C441.278 147.373 408.429 130.106 390.663 132.576C389.997 132.715 389.409 133.102 389.018 133.658C388.626 134.215 388.461 134.899 388.555 135.573C388.65 136.247 388.996 136.859 389.526 137.287C390.055 137.714 390.727 137.925 391.405 137.876C407.104 135.692 437.346 151.762 445.603 170.545C445.813 171.025 446.159 171.433 446.598 171.719C447.036 172.005 447.549 172.157 448.073 172.156Z" fill="#BA68C8"/>
<g opacity="0.6">
<path d="M439.232 216.029C439.517 216.029 439.8 215.983 440.07 215.891C440.405 215.782 440.714 215.607 440.981 215.378C441.248 215.149 441.468 214.869 441.626 214.555C441.785 214.241 441.88 213.898 441.905 213.547C441.931 213.196 441.887 212.843 441.776 212.509C435.565 193.631 405.047 176.84 385.342 176.84C384.96 176.781 384.569 176.805 384.197 176.911C383.824 177.017 383.48 177.202 383.186 177.454C382.892 177.705 382.656 178.018 382.494 178.369C382.332 178.721 382.249 179.103 382.249 179.49C382.249 179.877 382.332 180.26 382.494 180.611C382.656 180.963 382.892 181.275 383.186 181.527C383.48 181.779 383.824 181.964 384.197 182.07C384.569 182.176 384.96 182.2 385.342 182.14C403.171 182.14 431.272 197.659 436.688 214.131C436.857 214.676 437.194 215.154 437.651 215.495C438.108 215.836 438.662 216.023 439.232 216.029Z" fill="black"/>
</g>
<g opacity="0.6">
<path d="M442.115 191.555C442.4 191.554 442.683 191.508 442.953 191.417C443.627 191.194 444.185 190.713 444.505 190.079C444.825 189.445 444.881 188.71 444.659 188.035C438.204 168.425 406.765 152.557 387.144 154.571C386.501 154.714 385.933 155.087 385.548 155.621C385.163 156.155 384.988 156.812 385.056 157.467C385.124 158.122 385.431 158.729 385.918 159.172C386.404 159.615 387.037 159.864 387.695 159.871C405.079 158.101 433.911 172.496 439.571 189.678C439.739 190.222 440.077 190.698 440.535 191.035C440.993 191.373 441.547 191.555 442.115 191.555Z" fill="black"/>
</g>
<g opacity="0.6">
<path d="M448.073 172.156C448.437 172.153 448.798 172.078 449.133 171.934C449.783 171.648 450.294 171.115 450.552 170.454C450.81 169.792 450.795 169.055 450.511 168.404C441.278 147.373 408.429 130.106 390.663 132.576C389.997 132.715 389.409 133.102 389.018 133.658C388.626 134.215 388.461 134.899 388.555 135.573C388.65 136.247 388.996 136.859 389.526 137.287C390.055 137.714 390.727 137.925 391.405 137.876C407.104 135.692 437.346 151.762 445.603 170.545C445.813 171.025 446.159 171.433 446.598 171.719C447.036 172.005 447.549 172.157 448.073 172.156Z" fill="black"/>
</g>
<path d="M454.889 149.65C455.769 150.176 456.428 151.002 456.746 151.977C457.064 152.951 457.018 154.007 456.616 154.95C446.939 177.56 441.84 205.194 441.84 235.447V239.56L441.522 239.888C441.358 240.058 441.16 240.192 440.941 240.282C440.722 240.371 440.486 240.414 440.25 240.408C439.643 240.373 439.047 240.23 438.49 239.984C438.212 239.87 437.925 239.778 437.632 239.708C436.507 239.708 435.429 239.261 434.634 238.466C433.839 237.671 433.392 236.593 433.392 235.468C433.392 204.092 438.692 175.324 448.868 151.643C449.104 151.098 449.453 150.608 449.891 150.206C450.329 149.804 450.847 149.498 451.411 149.31C451.975 149.121 452.572 149.052 453.164 149.109C453.755 149.166 454.329 149.347 454.846 149.64L454.889 149.65Z" fill="#BA68C8"/>
<path opacity="0.4" d="M454.889 149.65C455.769 150.176 456.428 151.002 456.746 151.977C457.064 152.951 457.018 154.007 456.616 154.95C446.939 177.56 441.84 205.194 441.84 235.447V239.56L441.522 239.888C441.358 240.058 441.16 240.192 440.941 240.282C440.722 240.371 440.486 240.414 440.25 240.408C439.643 240.373 439.047 240.23 438.49 239.984C438.212 239.87 437.925 239.778 437.632 239.708C436.507 239.708 435.429 239.261 434.634 238.466C433.839 237.671 433.392 236.593 433.392 235.468C433.392 204.092 438.692 175.324 448.868 151.643C449.104 151.098 449.453 150.608 449.891 150.206C450.329 149.804 450.847 149.498 451.411 149.31C451.975 149.121 452.572 149.052 453.164 149.109C453.755 149.166 454.329 149.347 454.846 149.64L454.889 149.65Z" fill="black"/>
<path d="M441.797 238.501V239.561C441.745 240.501 441.497 241.419 441.068 242.258C440.639 243.096 440.039 243.834 439.306 244.426L394.564 276.767C393.808 277.26 392.935 277.544 392.034 277.591C391.133 277.637 390.236 277.444 389.433 277.032L326.321 240.621C325.549 240.116 324.907 239.436 324.446 238.637C323.986 237.838 323.72 236.941 323.671 236.02V234.96C323.718 234.056 323.998 233.179 324.485 232.416C324.972 231.652 325.648 231.028 326.448 230.604L383.084 204.453C383.956 204.107 384.892 203.949 385.829 203.991C386.766 204.033 387.684 204.274 388.522 204.697L439.137 233.953C439.905 234.45 440.546 235.121 441.008 235.91C441.47 236.7 441.74 237.587 441.797 238.501Z" fill="#BA68C8"/>
<path opacity="0.4" d="M441.797 238.501V239.561C441.745 240.501 441.497 241.419 441.068 242.258C440.639 243.096 440.039 243.834 439.306 244.426L394.564 276.767C393.808 277.26 392.935 277.544 392.034 277.591C391.133 277.637 390.236 277.444 389.433 277.032L326.321 240.621C325.549 240.116 324.907 239.436 324.446 238.637C323.986 237.838 323.72 236.941 323.671 236.02V234.96C323.718 234.056 323.998 233.179 324.485 232.416C324.972 231.652 325.648 231.028 326.448 230.604L383.084 204.453C383.956 204.107 384.892 203.949 385.829 203.991C386.766 204.033 387.684 204.274 388.522 204.697L439.137 233.953C439.905 234.45 440.546 235.121 441.008 235.91C441.47 236.7 441.74 237.587 441.797 238.501Z" fill="black"/>
<path d="M439.137 233.941L388.522 204.685C387.684 204.262 386.766 204.021 385.829 203.979C384.892 203.937 383.956 204.095 383.084 204.442L326.48 230.592C324.953 231.302 324.89 232.563 326.353 233.411L389.465 269.844C390.267 270.256 391.164 270.449 392.064 270.405C392.965 270.36 393.838 270.079 394.595 269.589L439.338 237.27C439.648 237.105 439.904 236.854 440.075 236.547C440.247 236.241 440.327 235.892 440.306 235.541C440.284 235.19 440.163 234.853 439.956 234.57C439.749 234.286 439.464 234.068 439.137 233.941Z" fill="#BA68C8"/>
<path d="M370.279 326.066H357.867V347.659H370.279V326.066Z" fill="#FFA8A7"/>
<path d="M321.413 332.297L308.47 332.986L308.778 330.379L308.884 328.439L310.082 309.465L324.19 309.952L322.187 328.895L322.049 330.347L321.413 332.297Z" fill="#FFA8A7"/>
<path d="M357.899 344.247V343.187C356.298 343.187 350.616 355.207 345.179 360.147C340.854 364.101 333.254 369.496 333.434 373.238C333.667 378.061 340.557 380.202 346.493 378.813C351.136 377.753 357.761 374.913 360.941 371.478C364.121 368.044 365.181 363.539 366.813 361.292C368.446 359.044 372.304 356.532 373.173 353.935C373.661 352.504 373.078 349.377 372.378 346.738C371.753 344.31 371.064 341.65 370.258 341.872V343.367C369.272 344.427 366.516 345.572 363.411 345.688C361.397 345.773 357.877 345.784 357.899 344.247Z" fill="#263238"/>
<path d="M308.894 328.441C308.237 328.441 307.622 329.268 306.043 330.699C304.124 332.416 300.065 334.038 297.128 335.183C292.21 337.102 279.607 339.137 275.292 340.621C272.6 341.554 272.886 345.624 276.352 348.221C278.928 350.15 287.482 352.578 295.432 351.549C299.747 350.998 306.435 348.656 309.626 348.444C313.113 348.221 319.505 348.136 322.229 346.599C324.953 345.062 324.286 341.193 323.851 337.886C323.385 334.261 323.427 328.77 322.24 328.897L322.102 330.36C320.374 332.48 312 332.374 308.831 330.36L308.894 328.441Z" fill="#263238"/>
<path d="M421.032 210.133C423.799 229.627 420.068 233.368 401.539 252.046C391.586 262.084 369.983 279.298 369.983 279.298C369.983 279.298 373.555 287.079 373.693 301.039C373.809 313.335 370.799 336.867 370.799 336.867C370.799 336.867 363.294 341.054 357.549 337.397C357.549 337.397 344.204 272.737 345.285 268.242C346.037 265.062 369.665 234.566 369.665 234.566L376.3 230.326L333.413 256.752C333.413 256.752 334.717 268.582 333.837 276.139C332.014 291.827 327.795 301.919 323.459 321.719C323.459 321.719 313.22 323.384 308.672 319.843C308.672 319.843 308.397 252.067 308.397 246.088C308.397 236.994 347.882 209.847 355.355 203.529C359.595 199.925 364.375 196.109 364.375 196.109L421.032 210.133Z" fill="#455A64"/>
<path d="M410.04 207.41C409.764 218.985 406.86 229.585 396.748 240.154C381.441 256.213 356.764 268.583 357.867 275.653C358.969 282.723 364.82 301.39 366.124 320.608C366.495 325.961 366.654 332.204 366.697 338.416C368.119 338.06 369.496 337.541 370.799 336.868C370.799 336.868 373.809 313.336 373.693 301.04C373.555 287.08 369.983 279.299 369.983 279.299C369.983 279.299 391.585 262.085 401.539 252.047C420.068 233.37 423.799 229.628 421.032 210.134L410.04 207.41Z" fill="#37474F"/>
<path d="M376.3 230.357C370.304 226.221 365.542 220.535 362.52 213.906C362.52 213.906 363.125 222.524 366.336 227.548C368.743 231.311 333.37 256.783 333.37 256.783L376.3 230.357Z" fill="#263238"/>
<path d="M403.092 114.143C403.675 114.291 417.253 116.655 417.253 116.655C423.02 117.969 420.062 118.552 423.348 119.665L422.288 160.762L422.045 213.889C413.109 223.62 368.144 219.189 362.632 198.508V136.329C362.632 126.386 368.154 114.45 383.397 113.57L403.092 114.143Z" fill="#F0F0F0"/>
<g filter="url(#filter0_f_5428_8022)">
<path d="M403.092 114.147C403.675 114.295 417.253 116.659 417.253 116.659C423.02 117.973 420.062 118.556 423.348 119.669L422.288 160.765L422.045 213.893C413.109 223.623 368.144 219.193 362.632 198.512V136.332C362.632 126.39 368.154 114.454 383.397 113.574L403.092 114.147Z" fill="black" fill-opacity="0.2"/>
</g>
<path opacity="0.1" d="M422.141 214.141L422.384 161.014L423.19 129.691L411.159 125.207C408.127 134.917 412.071 154.527 414.169 163.452C416.268 172.377 414.699 193.132 410.057 198.644C405.414 204.156 378.479 218.169 362.728 198.76C368.24 219.441 413.205 223.872 422.141 214.141Z" fill="black"/>
<path d="M389.005 202.707C399.605 199.346 427.748 182.185 427.748 182.185L414.731 141.767C414.731 141.767 412.802 123.832 417.349 116.91C427.112 117.663 430.451 122.708 432.062 129.938C433.673 137.167 448.714 183.998 447.57 188.704C446.51 193.156 409.314 212.151 394.898 214.451C394.898 214.451 380.684 205.346 389.005 202.707Z" fill="#FFA8A7"/>
<path d="M413.915 116.304C413.915 116.304 409.855 121.88 411.593 132.141C412.828 139.136 414.542 146.039 416.724 152.8C419.013 160.305 423.433 173.777 423.433 173.777C423.433 173.777 435.793 176.184 444.57 163.835C444.57 163.835 439.27 144.214 434.956 132.883C429.719 119.092 424.546 116.082 413.915 116.304Z" fill="#455A64"/>
<path d="M393.404 186.805H367.434L369.405 217.407C369.532 218.467 370.571 219.622 372.585 220.47C377.621 222.283 383.131 222.283 388.167 220.47C390.224 219.622 391.347 218.52 391.421 217.407L393.404 186.805Z" fill="#FAFAFA"/>
<path d="M367.402 186.836L367.805 193.048C368.469 193.509 369.18 193.9 369.925 194.214C375.543 196.535 384.765 196.535 390.616 194.214C390.87 194.108 391.082 194.002 391.305 193.896C391.871 193.632 392.416 193.328 392.937 192.984L393.33 186.805L367.402 186.836Z" fill="#E0E0E0"/>
<path d="M393.838 187.846V183.542H391.061C390.69 183.352 390.276 183.161 389.831 182.981C384.531 180.861 375.977 180.861 370.815 182.981C370.38 183.161 369.999 183.352 369.638 183.542H366.903V187.846C366.903 189.245 368.197 190.644 370.783 191.715C375.945 193.835 384.457 193.835 389.799 191.715C392.502 190.644 393.838 189.224 393.838 187.846Z" fill="#37474F"/>
<path d="M389.831 179.68C384.531 177.56 375.977 177.56 370.815 179.68C365.653 181.8 365.642 185.287 370.815 187.418C375.988 189.548 384.489 189.538 389.831 187.418C395.174 185.298 395.174 181.8 389.831 179.68Z" fill="#455A64"/>
<path d="M390.404 182.33L389.344 179.457H371.441L370.381 182.33C369.978 183.443 370.911 184.619 373.2 185.51C377.855 186.973 382.846 186.973 387.5 185.51C389.853 184.619 390.818 183.443 390.404 182.33Z" fill="#37474F"/>
<path d="M386.705 177.457C382.565 176.155 378.125 176.155 373.985 177.457C370.529 178.761 370.529 180.86 373.985 182.163C378.126 183.457 382.563 183.457 386.705 182.163C390.277 180.86 390.277 178.761 386.705 177.457Z" fill="#455A64"/>
<path d="M388.104 179.81C388.104 179.81 388.008 180.033 387.711 180.256C387.259 180.573 386.762 180.822 386.238 180.998C384.309 181.626 382.288 181.93 380.26 181.899C378.262 181.938 376.273 181.637 374.377 181.008C373.867 180.833 373.387 180.579 372.956 180.256C372.67 180.022 372.585 179.853 372.585 179.81C372.585 179.768 372.893 179.174 374.377 178.613C376.273 177.984 378.262 177.683 380.26 177.722C382.289 177.685 384.31 177.99 386.238 178.623C387.764 179.153 388.104 179.683 388.104 179.81Z" fill="#37474F"/>
<path d="M387.754 180.255C387.302 180.572 386.805 180.822 386.281 180.997C384.352 181.625 382.332 181.93 380.303 181.898C378.305 181.938 376.316 181.637 374.42 181.008C373.91 180.833 373.431 180.579 372.999 180.255C373.432 179.936 373.911 179.686 374.42 179.513C376.315 178.88 378.305 178.576 380.303 178.612C382.332 178.581 384.352 178.885 386.281 179.513C386.805 179.688 387.302 179.938 387.754 180.255Z" fill="#263238"/>
<path d="M384.171 180.338C384.376 180.2 384.606 180.105 384.848 180.058C385.09 180.01 385.34 180.012 385.581 180.063C385.846 180.211 385.634 180.572 385.115 180.879C384.911 181.019 384.68 181.114 384.438 181.16C384.195 181.205 383.945 181.2 383.705 181.144C383.44 180.996 383.652 180.635 384.171 180.338Z" fill="black"/>
<path d="M401.153 197.255C398.831 198.432 392.779 196.195 392.779 196.195L392.471 200.87C392.471 200.87 391.411 202.99 384.638 204.379C377.865 205.767 374.96 203.626 371.78 204.559C368.6 205.492 370.604 212.848 372.999 215.784C375.395 218.72 389.005 222.992 403.665 212.117L401.153 197.255Z" fill="#FFA8A7"/>
<path d="M377.652 88.4784C387.048 88.4784 394.665 80.2635 394.665 70.1299C394.665 59.9962 387.048 51.7812 377.652 51.7812C368.256 51.7812 360.639 59.9962 360.639 70.1299C360.639 80.2635 368.256 88.4784 377.652 88.4784Z" fill="#263238"/>
<path d="M413.385 81.482C415.06 72.101 415.399 67.861 413.11 65.582C412.384 64.8457 411.499 64.2846 410.524 63.9411C409.549 63.5976 408.508 63.4809 407.481 63.5998L405.955 80.5598L403.654 92.6651L403.421 103.265C404.404 103.224 405.354 102.903 406.16 102.34C406.965 101.776 407.593 100.994 407.969 100.085C409.283 97.4775 411.965 87.1318 412.982 83.125H413.099C413.205 82.5844 413.3 82.065 413.385 81.5456V81.482Z" fill="#263238"/>
<path d="M404.004 83.9409C405.064 84.5981 406.686 82.4675 408.053 81.0365C409.421 79.6055 413.883 77.6551 416.109 82.3403C418.335 87.0255 414.148 93.4385 410.64 94.5409C404.576 96.4489 403.675 92.5587 403.675 92.5587L403.209 114.395C403.209 114.395 399.245 124.094 388.507 125.556C377.769 127.019 380.027 118.136 383.514 113.822V107.176C383.514 107.176 378.034 108.003 375.363 107.589C370.911 106.9 368.102 103.349 366.756 98.5689C364.583 90.8309 363.576 84.0045 364.879 69.6627C366.385 52.9147 387.023 52.5013 397.506 59.0627C407.99 65.6241 404.004 83.9409 404.004 83.9409Z" fill="#FFA8A7"/>
<path d="M404.004 85.8082C404.555 85.8082 406.675 82.2996 408.053 81.0382C409.972 79.2998 407.502 63.5482 407.502 63.5482C407.502 63.5482 409.431 57.5698 405.658 53.616C401.587 49.376 394.231 50.2452 388.931 50.2134C385.135 50.3089 381.339 50.0248 377.599 49.3654C375.172 48.8132 372.802 48.036 370.519 47.044C368.6 46.2384 366.438 45.3374 364.519 46.143C363.328 46.7395 362.392 47.7439 361.88 48.9732C359.399 54.1884 361.721 60.4742 366.268 63.6648C369.203 65.6037 372.612 66.7033 376.126 66.8448C383.546 67.3112 393.998 66.1134 396.743 65.7848C398.799 65.4986 399.234 67.4914 400.347 72.9398C401.301 77.6674 402.107 85.7658 404.004 85.8082Z" fill="#263238"/>
<path d="M407.47 64.7782L414.17 61.1742C413.956 60.7235 413.653 60.3208 413.279 59.9906C412.905 59.6603 412.468 59.4093 411.994 59.2528C411.521 59.0962 411.02 59.0374 410.523 59.0797C410.026 59.1221 409.543 59.2649 409.103 59.4994C408.203 59.9997 407.531 60.8278 407.227 61.8112C406.923 62.7946 407.01 63.8574 407.47 64.7782Z" fill="#263238"/>
<path d="M383.503 107.176C383.503 107.176 391.824 105.056 395.291 103.233C397.332 102.169 399.006 100.514 400.092 98.4844C399.571 100.515 398.644 102.418 397.368 104.081C394.824 107.335 383.503 109.816 383.503 109.816V107.176Z" fill="#F28F8F"/>
<path d="M383.217 81.9403C383.242 82.3281 383.38 82.7001 383.613 83.0107C383.847 83.3212 384.166 83.5568 384.532 83.6883C384.897 83.8198 385.293 83.8416 385.671 83.7509C386.049 83.6602 386.392 83.4611 386.658 83.178C386.924 82.8949 387.102 82.5402 387.169 82.1575C387.236 81.7748 387.19 81.3808 387.036 81.024C386.882 80.6672 386.627 80.3632 386.303 80.1493C385.979 79.9355 385.599 79.8211 385.21 79.8203C384.939 79.8243 384.671 79.8828 384.423 79.9923C384.174 80.1019 383.95 80.2602 383.764 80.458C383.579 80.6558 383.434 80.8889 383.34 81.1436C383.246 81.3982 383.205 81.6692 383.217 81.9403Z" fill="#263238"/>
<path d="M385.104 73.6821L389.831 74.8481C389.974 74.2052 389.863 73.5322 389.521 72.9693C389.179 72.4064 388.634 71.9972 387.998 71.8271C387.685 71.7525 387.361 71.7416 387.045 71.7952C386.729 71.8487 386.426 71.9656 386.156 72.1388C385.886 72.312 385.653 72.538 385.473 72.8032C385.292 73.0683 385.166 73.3673 385.104 73.6821Z" fill="#263238"/>
<path d="M381.744 95.1172L377.197 96.8238C377.296 97.1285 377.455 97.4102 377.665 97.652C377.875 97.8938 378.132 98.0909 378.419 98.2313C378.707 98.3718 379.021 98.4529 379.34 98.4696C379.66 98.4864 379.98 98.4386 380.281 98.329C380.893 98.0868 381.388 97.6169 381.66 97.018C381.933 96.4191 381.963 95.7378 381.744 95.1172Z" fill="#F28F8F"/>
<path d="M366.395 74.3292L371.006 72.6226C370.907 72.3231 370.749 72.0464 370.541 71.8088C370.334 71.5712 370.081 71.3776 369.797 71.2393C369.514 71.101 369.206 71.0208 368.891 71.0036C368.576 70.9863 368.26 71.0322 367.964 71.1386C367.344 71.3691 366.836 71.8282 366.544 72.4216C366.252 73.015 366.199 73.6977 366.395 74.3292Z" fill="#263238"/>
<path d="M367.964 80.9755C367.988 81.3632 368.126 81.7353 368.36 82.0458C368.593 82.3564 368.912 82.5919 369.278 82.7234C369.643 82.855 370.04 82.8767 370.417 82.7861C370.795 82.6954 371.138 82.4963 371.404 82.2132C371.671 81.9301 371.848 81.5753 371.915 81.1926C371.982 80.8099 371.936 80.4159 371.782 80.0592C371.628 79.7024 371.374 79.3983 371.049 79.1845C370.725 78.9706 370.345 78.8563 369.956 78.8555C369.685 78.8594 369.417 78.9179 369.169 79.0275C368.921 79.137 368.697 79.2954 368.511 79.4932C368.325 79.691 368.181 79.9241 368.087 80.1787C367.993 80.4334 367.951 80.7043 367.964 80.9755Z" fill="#263238"/>
<path d="M377.653 80.4531L377.006 92.4311L370.752 90.3005L377.653 80.4531Z" fill="#F28F8F"/>
<path d="M145.4 118.306C148.782 118.55 154.834 118.306 158.036 123.15C162.795 130.401 179.543 157.484 179.543 157.484L198.347 129.585L219.176 118.529C218.36 128.26 193.524 170.31 189.74 175.43C185.956 180.549 181.705 184.97 173.533 178.207C165.36 171.444 146.598 145.591 146.598 145.591C146.598 145.591 142.04 118.062 145.4 118.306Z" fill="#FFA8A7"/>
<path d="M211.227 122.597C204.549 118.749 193.726 118.749 187.048 122.597C183.72 124.526 182.066 127.038 182.066 129.561C182.066 130.112 182.066 132.264 182.066 132.741C182.066 135.274 183.709 137.797 187.048 139.726C193.726 143.585 204.549 143.585 211.227 139.726C214.555 137.808 216.219 135.285 216.219 132.773V129.519C216.24 127.049 214.566 124.526 211.227 122.597Z" fill="#FFBDA7"/>
<path d="M199.143 139.452C208.586 139.452 216.241 135.034 216.241 129.583C216.241 124.133 208.586 119.715 199.143 119.715C189.7 119.715 182.045 124.133 182.045 129.583C182.045 135.034 189.7 139.452 199.143 139.452Z" fill="#F0997A"/>
<path d="M211.227 118.538C204.549 114.69 193.726 114.69 187.048 118.538C183.72 120.467 182.066 122.98 182.066 125.502C182.066 126.054 182.066 128.205 182.066 128.682C182.066 131.216 183.709 133.749 187.048 135.678C193.726 139.526 204.549 139.526 211.227 135.678C214.555 133.749 216.219 131.226 216.219 128.714V125.46C216.24 122.958 214.566 120.467 211.227 118.538Z" fill="#B16668"/>
<path d="M187.048 132.498C193.726 136.357 204.549 136.357 211.227 132.498C217.905 128.64 217.905 122.397 211.227 118.538C204.549 114.68 193.726 114.69 187.048 118.538C180.37 122.386 180.381 128.64 187.048 132.498Z" fill="#9A4A4D"/>
<path d="M211.258 121.898H187.026C184.323 125.842 184.323 132.117 184.323 133.346C184.323 134.576 184.472 135.36 186.443 134.926C190.6 133.993 194.841 133.481 199.1 133.399C203.359 133.482 207.599 133.994 211.756 134.926C213.76 135.36 213.876 134.576 213.876 133.346C213.876 132.117 213.95 125.831 211.258 121.898Z" fill="#F0F0F0"/>
<path d="M184.928 130.697C185.453 131.585 186.306 132.232 187.302 132.499C188.267 132.743 189.285 132.658 190.26 132.806C192.295 133.114 193.662 134.492 195.475 135.223C196.245 135.531 197.074 135.665 197.902 135.615C198.829 135.523 199.734 135.283 200.584 134.905C201.952 134.365 203.266 133.676 204.676 133.252C205.779 132.889 206.951 132.788 208.1 132.955C209.049 133.163 210.041 133.063 210.93 132.669C212.615 131.874 213.188 129.69 214.714 128.63C215.912 127.782 217.693 127.634 218.403 126.351C218.619 125.869 218.689 125.333 218.605 124.811C218.52 124.29 218.284 123.804 217.926 123.415C217.191 122.652 216.27 122.094 215.255 121.793C213.391 121.172 211.458 120.78 209.499 120.627C205.11 120.171 200.69 119.906 196.281 119.79C191.871 119.673 187.684 119.535 183.465 120.85C182.488 121.112 181.573 121.566 180.773 122.185C180.374 122.497 180.056 122.898 179.844 123.357C179.632 123.817 179.533 124.319 179.554 124.825C179.667 125.29 179.876 125.727 180.168 126.107C180.46 126.487 180.829 126.801 181.25 127.029C181.769 127.379 182.31 127.612 182.861 127.994C183.689 128.779 184.387 129.692 184.928 130.697Z" fill="#BA68C8"/>
<path d="M216.781 120.342C216.789 120.297 216.789 120.25 216.781 120.204C215.223 114.237 207.93 109.742 199.174 109.742C190.419 109.742 183.126 114.237 181.557 120.204C181.548 120.25 181.548 120.297 181.557 120.342C181.352 120.997 181.259 121.681 181.281 122.367C181.356 124.964 183.105 127.54 186.528 129.501C193.524 133.539 204.877 133.539 211.884 129.501C215.286 127.54 217.046 124.964 217.12 122.367C217.133 121.677 217.018 120.99 216.781 120.342Z" fill="#FFBDA7"/>
<path d="M213.06 114.479L202.344 112.613C202.344 112.613 195.21 115.083 195.136 115.21C195.061 115.337 191.309 117.659 191.309 117.659C190.662 118.221 191.563 119.63 192.846 119.779C193.608 119.837 194.373 119.837 195.136 119.779C195.136 119.779 197.404 122.079 202.471 122.503C207.538 122.927 211.078 120.743 213.018 120.107C214.618 119.577 215.604 119.196 216.526 119.471C215.825 117.534 214.63 115.813 213.06 114.479Z" fill="#F0997A"/>
<path d="M213.177 126.427C208.703 129.829 197.277 130.953 190.122 127.349C182.967 123.745 182.649 117.618 184.928 114.777C183.305 116.23 182.125 118.111 181.525 120.205C181.516 120.25 181.516 120.297 181.525 120.342C181.32 120.997 181.227 121.681 181.249 122.367C181.324 124.964 183.073 127.54 186.496 129.501C193.492 133.539 204.845 133.539 211.852 129.501C215.254 127.54 217.014 124.964 217.088 122.367C217.121 121.681 217.028 120.995 216.812 120.342C216.812 120.342 217.067 123.459 213.177 126.427Z" fill="#F0997A"/>
<path d="M217.024 121.456C219.144 122.092 219.335 117.449 219.25 116.908C219.062 115.724 218.536 114.62 217.734 113.728C215.339 110.993 212.879 110.781 209.975 108.863C209.016 108.11 207.917 107.556 206.742 107.23C205.558 107.244 204.39 107.512 203.318 108.015C199.078 110.029 191.658 116.028 192.072 115.679C191.699 115.986 191.346 116.316 191.012 116.664C190.577 117.237 191.171 117.936 191.584 118.212C192.138 118.563 192.759 118.793 193.407 118.888C194.055 118.983 194.716 118.94 195.347 118.763C197.238 119.993 199.384 120.776 201.622 121.053C204.263 121.536 206.985 121.324 209.519 120.438C214.586 118.371 216.24 117.555 217.024 121.456Z" fill="#FFA8A7"/>
<path d="M96.8311 238.329V316.769C96.8125 317.115 96.7125 317.451 96.5394 317.752C96.3663 318.052 96.1249 318.307 95.8347 318.496L93.1529 320.118C92.8445 320.276 92.503 320.359 92.1565 320.359C91.81 320.359 91.4684 320.276 91.1601 320.118L88.4783 318.581C88.1912 318.389 87.9527 318.133 87.7816 317.834C87.6105 317.534 87.5116 317.198 87.4925 316.853V238.413C87.4911 238.262 87.5197 238.112 87.5766 237.972C87.6335 237.832 87.7176 237.705 87.824 237.597C87.9305 237.49 88.0571 237.404 88.1967 237.346C88.3363 237.288 88.486 237.258 88.6373 237.258H95.6651C95.9599 237.252 96.2457 237.36 96.4629 237.559C96.6802 237.759 96.812 238.034 96.8311 238.329Z" fill="#BA68C8"/>
<path opacity="0.6" d="M96.8311 238.329V316.769C96.8125 317.115 96.7125 317.451 96.5394 317.752C96.3663 318.052 96.1249 318.307 95.8347 318.496L93.1529 320.118C92.8445 320.276 92.503 320.359 92.1565 320.359C91.81 320.359 91.4684 320.276 91.1601 320.118L88.4783 318.581C88.1912 318.389 87.9527 318.133 87.7816 317.834C87.6105 317.534 87.5116 317.198 87.4925 316.853V238.413C87.4911 238.262 87.5197 238.112 87.5766 237.972C87.6335 237.832 87.7176 237.705 87.824 237.597C87.9305 237.49 88.0571 237.404 88.1967 237.346C88.3363 237.288 88.486 237.258 88.6373 237.258H95.6651C95.9599 237.252 96.2457 237.36 96.4629 237.559C96.6802 237.759 96.812 238.034 96.8311 238.329Z" fill="black"/>
<path d="M88.6481 237.173H91.0119C91.168 237.166 91.324 237.19 91.4703 237.245C91.6167 237.3 91.7504 237.384 91.8634 237.492C91.9763 237.6 92.0662 237.73 92.1275 237.874C92.1889 238.017 92.2204 238.172 92.2203 238.328V319.514C92.2203 320.15 91.7751 320.404 91.2239 320.086L88.5421 318.549C88.255 318.357 88.0165 318.102 87.8454 317.802C87.6743 317.502 87.5753 317.166 87.5563 316.822V238.381C87.5477 238.23 87.5692 238.079 87.6196 237.936C87.67 237.793 87.7483 237.662 87.8498 237.549C87.9514 237.437 88.0742 237.346 88.2112 237.281C88.3483 237.217 88.4967 237.18 88.6481 237.173Z" fill="#BA68C8"/>
<path opacity="0.4" d="M88.6481 237.173H91.0119C91.168 237.166 91.324 237.19 91.4703 237.245C91.6167 237.3 91.7504 237.384 91.8634 237.492C91.9763 237.6 92.0662 237.73 92.1275 237.874C92.1889 238.017 92.2204 238.172 92.2203 238.328V319.514C92.2203 320.15 91.7751 320.404 91.2239 320.086L88.5421 318.549C88.255 318.357 88.0165 318.102 87.8454 317.802C87.6743 317.502 87.5753 317.166 87.5563 316.822V238.381C87.5477 238.23 87.5692 238.079 87.6196 237.936C87.67 237.793 87.7483 237.662 87.8498 237.549C87.9514 237.437 88.0742 237.346 88.2112 237.281C88.3483 237.217 88.4967 237.18 88.6481 237.173Z" fill="black"/>
<path d="M141.87 264.237V342.677C141.852 343.022 141.752 343.357 141.579 343.655C141.405 343.954 141.164 344.207 140.874 344.394L138.203 345.942C137.894 346.098 137.553 346.18 137.206 346.18C136.86 346.18 136.519 346.098 136.21 345.942L133.56 344.5C133.27 344.313 133.028 344.06 132.855 343.761C132.682 343.463 132.582 343.128 132.564 342.783V264.343C132.562 264.192 132.591 264.042 132.648 263.902C132.705 263.761 132.789 263.634 132.895 263.527C133.002 263.419 133.128 263.334 133.268 263.276C133.407 263.217 133.557 263.187 133.708 263.188H140.747C141.031 263.192 141.303 263.302 141.511 263.496C141.719 263.689 141.847 263.954 141.87 264.237Z" fill="#BA68C8"/>
<path opacity="0.6" d="M141.87 264.237V342.677C141.852 343.022 141.752 343.357 141.579 343.655C141.405 343.954 141.164 344.207 140.874 344.394L138.203 345.942C137.894 346.098 137.553 346.18 137.206 346.18C136.86 346.18 136.519 346.098 136.21 345.942L133.56 344.5C133.27 344.313 133.028 344.06 132.855 343.761C132.682 343.463 132.582 343.128 132.564 342.783V264.343C132.562 264.192 132.591 264.042 132.648 263.902C132.705 263.761 132.789 263.634 132.895 263.527C133.002 263.419 133.128 263.334 133.268 263.276C133.407 263.217 133.557 263.187 133.708 263.188H140.747C141.031 263.192 141.303 263.302 141.511 263.496C141.719 263.689 141.847 263.954 141.87 264.237Z" fill="black"/>
<path d="M133.687 263.078H136.062C136.213 263.078 136.363 263.108 136.502 263.166C136.642 263.224 136.768 263.31 136.875 263.417C136.981 263.525 137.065 263.652 137.122 263.792C137.179 263.932 137.208 264.082 137.206 264.234V345.419C137.206 346.055 136.761 346.309 136.21 345.991L133.56 344.497C133.27 344.31 133.029 344.056 132.855 343.758C132.682 343.459 132.582 343.124 132.564 342.78V264.34C132.547 264.181 132.564 264.022 132.613 263.871C132.662 263.719 132.742 263.58 132.848 263.461C132.953 263.343 133.083 263.247 133.227 263.181C133.372 263.115 133.528 263.08 133.687 263.078Z" fill="#BA68C8"/>
<path opacity="0.4" d="M133.687 263.078H136.062C136.213 263.078 136.363 263.108 136.502 263.166C136.642 263.224 136.768 263.31 136.875 263.417C136.981 263.525 137.065 263.652 137.122 263.792C137.179 263.932 137.208 264.082 137.206 264.234V345.419C137.206 346.055 136.761 346.309 136.21 345.991L133.56 344.497C133.27 344.31 133.029 344.056 132.855 343.758C132.682 343.459 132.582 343.124 132.564 342.78V264.34C132.547 264.181 132.564 264.022 132.613 263.871C132.662 263.719 132.742 263.58 132.848 263.461C132.953 263.343 133.083 263.247 133.227 263.181C133.372 263.115 133.528 263.08 133.687 263.078Z" fill="black"/>
<path d="M138.86 206.616C138.73 207.722 139.041 208.834 139.726 209.713C140.41 210.592 141.413 211.166 142.517 211.311H143.036C144.062 211.307 145.052 210.931 145.822 210.253C146.592 209.574 147.09 208.64 147.223 207.623C149.64 188.246 146.163 144.902 137.895 120.469C137.047 117.968 134.62 117.417 132.33 118.742C130.581 119.802 129.32 121.286 129.977 123.194C137.948 146.164 141.213 187.949 138.86 206.616Z" fill="#455A64"/>
<path d="M90.1002 217.764C89.8154 217.765 89.5324 217.718 89.2628 217.626C88.5887 217.403 88.0304 216.922 87.7105 216.288C87.3906 215.654 87.3351 214.919 87.5562 214.245C93.7678 195.366 124.285 178.576 143.991 178.576C144.356 178.553 144.723 178.605 145.067 178.729C145.412 178.853 145.728 179.046 145.995 179.297C146.262 179.548 146.475 179.851 146.62 180.187C146.766 180.523 146.841 180.886 146.841 181.252C146.841 181.618 146.766 181.981 146.62 182.317C146.475 182.653 146.262 182.956 145.995 183.207C145.728 183.458 145.412 183.651 145.067 183.775C144.723 183.899 144.356 183.952 143.991 183.929C126.172 183.929 98.0714 199.447 92.6442 215.919C92.4667 216.454 92.1256 216.92 91.6692 217.251C91.2128 217.582 90.664 217.761 90.1002 217.764Z" fill="#BA68C8"/>
<path d="M87.185 193.29C86.9001 193.291 86.617 193.245 86.3476 193.152C86.0092 193.043 85.6959 192.867 85.4258 192.636C85.1558 192.405 84.9344 192.122 84.7746 191.804C84.6148 191.487 84.5198 191.141 84.495 190.786C84.4703 190.431 84.5163 190.075 84.6304 189.739C91.0858 170.129 122.525 154.26 142.146 156.274C142.524 156.27 142.899 156.346 143.245 156.497C143.592 156.648 143.902 156.87 144.157 157.15C144.412 157.429 144.604 157.759 144.722 158.118C144.84 158.477 144.881 158.857 144.842 159.233C144.803 159.609 144.685 159.973 144.495 160.3C144.306 160.627 144.05 160.91 143.743 161.131C143.436 161.352 143.086 161.506 142.716 161.583C142.346 161.659 141.964 161.656 141.595 161.574C124.211 159.804 95.3788 174.199 89.729 191.382C89.5654 191.93 89.2299 192.412 88.7719 192.755C88.3138 193.099 87.7575 193.286 87.185 193.29Z" fill="#BA68C8"/>
<path d="M81.2172 173.89C80.8525 173.888 80.4921 173.812 80.1572 173.668C79.5068 173.382 78.9964 172.85 78.7381 172.188C78.4797 171.526 78.4945 170.789 78.7792 170.138C88.0118 149.108 120.861 131.84 138.627 134.31C138.975 134.359 139.31 134.476 139.613 134.654C139.916 134.832 140.18 135.068 140.392 135.349C140.604 135.629 140.758 135.949 140.846 136.289C140.934 136.629 140.955 136.983 140.906 137.331C140.857 137.679 140.74 138.014 140.562 138.317C140.384 138.62 140.148 138.885 139.867 139.096C139.587 139.308 139.267 139.462 138.927 139.55C138.587 139.639 138.233 139.659 137.885 139.61C122.186 137.437 91.9444 153.496 83.687 172.29C83.4773 172.769 83.1315 173.176 82.6924 173.461C82.2533 173.746 81.7404 173.895 81.2172 173.89Z" fill="#BA68C8"/>
<g opacity="0.6">
<path d="M90.1002 217.764C89.8154 217.765 89.5324 217.718 89.2628 217.626C88.5887 217.403 88.0304 216.922 87.7105 216.288C87.3906 215.654 87.3351 214.919 87.5562 214.245C93.7678 195.366 124.285 178.576 143.991 178.576C144.356 178.553 144.723 178.605 145.067 178.729C145.412 178.853 145.728 179.046 145.995 179.297C146.262 179.548 146.475 179.851 146.62 180.187C146.766 180.523 146.841 180.886 146.841 181.252C146.841 181.618 146.766 181.981 146.62 182.317C146.475 182.653 146.262 182.956 145.995 183.207C145.728 183.458 145.412 183.651 145.067 183.775C144.723 183.899 144.356 183.952 143.991 183.929C126.172 183.929 98.0714 199.447 92.6442 215.919C92.4667 216.454 92.1256 216.92 91.6692 217.251C91.2128 217.582 90.664 217.761 90.1002 217.764Z" fill="black"/>
</g>
<g opacity="0.6">
<path d="M87.185 193.29C86.9001 193.291 86.617 193.245 86.3476 193.152C86.0092 193.043 85.6959 192.867 85.4258 192.636C85.1558 192.405 84.9344 192.122 84.7746 191.804C84.6148 191.487 84.5198 191.141 84.495 190.786C84.4703 190.431 84.5163 190.075 84.6304 189.739C91.0858 170.129 122.525 154.26 142.146 156.274C142.524 156.27 142.899 156.346 143.245 156.497C143.592 156.648 143.902 156.87 144.157 157.15C144.412 157.429 144.604 157.759 144.722 158.118C144.84 158.477 144.881 158.857 144.842 159.233C144.803 159.609 144.685 159.973 144.495 160.3C144.306 160.627 144.05 160.91 143.743 161.131C143.436 161.352 143.086 161.506 142.716 161.583C142.346 161.659 141.964 161.656 141.595 161.574C124.211 159.804 95.3788 174.199 89.729 191.382C89.5654 191.93 89.2299 192.412 88.7719 192.755C88.3138 193.099 87.7575 193.286 87.185 193.29Z" fill="black"/>
</g>
<g opacity="0.6">
<path d="M81.2172 173.89C80.8525 173.888 80.4921 173.812 80.1572 173.668C79.5068 173.382 78.9964 172.85 78.7381 172.188C78.4797 171.526 78.4945 170.789 78.7792 170.138C88.0118 149.108 120.861 131.84 138.627 134.31C138.975 134.359 139.31 134.476 139.613 134.654C139.916 134.832 140.18 135.068 140.392 135.349C140.604 135.629 140.758 135.949 140.846 136.289C140.934 136.629 140.955 136.983 140.906 137.331C140.857 137.679 140.74 138.014 140.562 138.317C140.384 138.62 140.148 138.885 139.867 139.096C139.587 139.308 139.267 139.462 138.927 139.55C138.587 139.639 138.233 139.659 137.885 139.61C122.186 137.437 91.9444 153.496 83.687 172.29C83.4773 172.769 83.1315 173.176 82.6924 173.461C82.2533 173.746 81.7404 173.895 81.2172 173.89Z" fill="black"/>
</g>
<path d="M74.4016 151.39C73.5217 151.915 72.8619 152.742 72.5443 153.716C72.2266 154.69 72.2726 155.747 72.6738 156.69C82.3516 179.3 87.4502 206.934 87.4502 237.186V241.236L87.7788 241.575C87.9404 241.746 88.1364 241.88 88.3538 241.97C88.5712 242.059 88.8052 242.102 89.0402 242.094C89.6475 242.06 90.2436 241.916 90.7998 241.67C91.0786 241.557 91.3656 241.465 91.6584 241.395C92.7829 241.395 93.8614 240.948 94.6565 240.153C95.4517 239.358 95.8984 238.279 95.8984 237.155C95.8984 205.779 90.5984 177.01 80.4118 153.33C80.1751 152.786 79.8268 152.297 79.3895 151.896C78.9522 151.495 78.4356 151.191 77.8731 151.002C77.3107 150.813 76.7148 150.744 76.1241 150.8C75.5334 150.856 74.961 151.035 74.444 151.326L74.4016 151.39Z" fill="#BA68C8"/>
<path opacity="0.4" d="M74.4016 151.39C73.5217 151.915 72.8619 152.742 72.5443 153.716C72.2266 154.69 72.2726 155.747 72.6738 156.69C82.3516 179.3 87.4502 206.934 87.4502 237.186V241.236L87.7788 241.575C87.9404 241.746 88.1364 241.88 88.3538 241.97C88.5712 242.059 88.8052 242.102 89.0402 242.094C89.6475 242.06 90.2436 241.916 90.7998 241.67C91.0786 241.557 91.3656 241.465 91.6584 241.395C92.7829 241.395 93.8614 240.948 94.6565 240.153C95.4517 239.358 95.8984 238.279 95.8984 237.155C95.8984 205.779 90.5984 177.01 80.4118 153.33C80.1751 152.786 79.8268 152.297 79.3895 151.896C78.9522 151.495 78.4356 151.191 77.8731 151.002C77.3107 150.813 76.7148 150.744 76.1241 150.8C75.5334 150.856 74.961 151.035 74.444 151.326L74.4016 151.39Z" fill="black"/>
<path d="M87.5027 240.269V241.329C87.5514 242.267 87.7975 243.184 88.2249 244.021C88.6523 244.857 89.2514 245.594 89.9831 246.183L134.726 278.535C135.482 279.026 136.355 279.309 137.255 279.356C138.156 279.402 139.053 279.21 139.856 278.8L202.968 242.357C203.741 241.855 204.383 241.178 204.844 240.38C205.305 239.582 205.57 238.687 205.618 237.767V236.707C205.572 235.804 205.292 234.929 204.805 234.167C204.318 233.405 203.641 232.783 202.841 232.361L146.205 206.211C145.335 205.864 144.401 205.707 143.466 205.749C142.53 205.791 141.614 206.031 140.778 206.455L90.1527 235.711C89.3863 236.211 88.7475 236.884 88.2874 237.676C87.8273 238.467 87.5586 239.355 87.5027 240.269Z" fill="#BA68C8"/>
<path opacity="0.4" d="M87.5027 240.269V241.329C87.5514 242.267 87.7975 243.184 88.2249 244.021C88.6523 244.857 89.2514 245.594 89.9831 246.183L134.726 278.535C135.482 279.026 136.355 279.309 137.255 279.356C138.156 279.402 139.053 279.21 139.856 278.8L202.968 242.357C203.741 241.855 204.383 241.178 204.844 240.38C205.305 239.582 205.57 238.687 205.618 237.767V236.707C205.572 235.804 205.292 234.929 204.805 234.167C204.318 233.405 203.641 232.783 202.841 232.361L146.205 206.211C145.335 205.864 144.401 205.707 143.466 205.749C142.53 205.791 141.614 206.031 140.778 206.455L90.1527 235.711C89.3863 236.211 88.7475 236.884 88.2874 237.676C87.8273 238.467 87.5586 239.355 87.5027 240.269Z" fill="black"/>
<path d="M90.1531 235.679L140.779 206.423C141.614 206 142.53 205.76 143.466 205.718C144.402 205.676 145.336 205.833 146.206 206.18L202.842 232.33C204.379 233.04 204.432 234.301 202.969 235.149L139.856 271.582C139.054 271.994 138.158 272.187 137.257 272.143C136.356 272.098 135.483 271.817 134.726 271.327L89.9835 239.008C89.6725 238.845 89.4147 238.597 89.2407 238.292C89.0666 237.988 88.9835 237.64 89.0014 237.289C89.0193 236.939 89.1373 236.601 89.3414 236.316C89.5455 236.03 89.8272 235.809 90.1531 235.679Z" fill="#BA68C8"/>
<path d="M181.864 346.258C180.804 346.671 180.455 349.003 180.19 350.699C179.925 352.395 178.26 354.356 180.19 357.462C182.119 360.568 186.168 361.702 188.754 365.942C191.341 370.182 194.553 377.952 203.594 380.337C212.636 382.722 219.791 380.04 221.614 377.39C223.438 374.74 222.049 372.09 216.314 368.454C210.262 364.596 208.545 363.462 208.545 363.462L181.864 346.258Z" fill="#263238"/>
<path d="M192.634 327.887C192.634 327.887 196.482 340.352 198.899 346.098C201.454 352.15 204.941 357.765 209.234 362.74C210.209 363.874 212.414 365.973 213.23 366.895C213.419 367.073 213.566 367.292 213.661 367.534C213.755 367.777 213.795 368.037 213.776 368.297C213.758 368.556 213.682 368.808 213.555 369.035C213.428 369.262 213.251 369.458 213.039 369.608C211.046 371.516 202.577 371.951 197.849 368.389C193.122 364.828 189.02 357.895 186.189 355.033C184.78 353.602 183.455 352.224 182.479 351.217C182.02 350.741 181.692 350.154 181.527 349.513C181.361 348.872 181.365 348.2 181.536 347.56C181.631 347.189 181.748 346.765 181.865 346.257C182.522 343.522 178.939 332.296 178.939 332.296L192.634 327.887Z" fill="#FFA8A7"/>
<path d="M101.198 200.945C98.0927 212.001 96.4603 225.463 99.8947 232.904C104.06 241.84 115.646 250.924 126.267 257.221C136.889 263.517 153.213 271.181 156.403 272.591C159.594 274 159.922 275.951 159.456 282.035C158.99 288.12 161.12 298.073 167.798 310.581C172.286 318.993 176.244 327.677 179.649 336.583C181.843 338.024 190.609 339.042 194.796 334.685C194.796 334.685 181.864 268.647 179.172 260.697C176.48 252.747 146.63 226.958 146.63 226.958C146.63 226.958 156.689 209.362 159.074 200.203L101.198 200.945Z" fill="#455A64"/>
<path d="M168.742 295.348C166.06 285.808 167.258 275.654 164.957 271.721C162.657 267.788 137.217 253.394 124.974 244.288C113.675 235.882 110.134 218.17 113.537 200.828L101.198 200.987C98.0927 212.001 96.4603 225.463 99.8947 232.904C104.06 241.84 115.646 250.924 126.267 257.22C136.889 263.517 153.213 271.18 156.403 272.59C159.594 274 159.922 275.95 159.456 282.035C158.99 288.119 161.12 298.073 167.798 310.581C172.286 318.992 176.244 327.677 179.649 336.582C181.912 337.634 184.418 338.052 186.899 337.791C180.963 325.198 170.48 301.486 168.742 295.348Z" fill="#37474F"/>
<path d="M211.258 326.629C210.198 327.053 209.848 329.374 209.594 331.07C209.339 332.766 207.654 334.727 209.594 337.833C211.534 340.939 215.572 342.073 218.169 346.313C220.766 350.553 223.957 358.333 233.009 360.718C242.062 363.103 249.217 360.411 251.029 357.772C252.842 355.132 251.464 352.472 245.729 348.836C239.677 344.977 237.959 343.843 237.959 343.843L211.258 326.629Z" fill="#263238"/>
<path d="M222.027 308.258C222.027 308.258 225.875 320.723 228.292 326.479C230.85 332.533 234.341 338.149 238.638 343.121C239.613 344.245 241.818 346.354 242.634 347.266C242.822 347.446 242.969 347.666 243.062 347.91C243.156 348.154 243.195 348.415 243.175 348.675C243.156 348.936 243.08 349.189 242.951 349.416C242.823 349.643 242.645 349.839 242.432 349.99C240.44 351.898 231.97 352.333 227.243 348.771C222.515 345.209 218.413 338.277 215.583 335.404C214.162 333.973 212.837 332.606 211.862 331.588C211.403 331.114 211.074 330.529 210.909 329.89C210.744 329.251 210.747 328.58 210.919 327.942C211.014 327.571 211.131 327.136 211.247 326.628C211.904 323.893 208.322 312.678 208.322 312.678L222.027 308.258Z" fill="#FFA8A7"/>
<path d="M129.373 180.867C124.656 191.054 126.628 202.258 129.691 211.607C132.755 220.956 145.04 231.27 155.661 237.567C166.283 243.863 180.041 252.735 183.221 254.156C186.401 255.576 186.645 257.537 187.461 263.59C188.278 270.056 190.546 278.43 197.277 290.906C204.39 304.082 208.418 312.657 208.418 312.657C210.869 313.433 213.486 313.524 215.986 312.921C218.486 312.317 220.773 311.042 222.6 309.233C222.6 309.233 211.248 248.993 208.555 241.033C205.863 233.072 160.718 201.643 160.718 201.643L129.373 180.867Z" fill="#455A64"/>
<path opacity="0.6" d="M174.508 249.098C173.087 247.572 171.625 246.13 170.172 244.741C165.551 240.353 153.711 229.711 149.598 226.011C150.852 223.207 151.845 220.294 152.566 217.309C152.566 217.309 150.213 221.549 148.146 224.729L146.842 226.626L146.64 226.912L146.725 226.997C147.637 227.781 155.619 234.714 163.463 242.293C167.332 244.688 171.19 247.095 174.508 249.098Z" fill="black"/>
<path d="M155.513 161.947C155.767 164.343 154.856 170.787 154.856 170.787C157.802 183.847 159.626 200.902 159.626 200.902C152.661 213.548 109.859 224.127 98.4954 208.449C101.538 197.171 108.449 177.985 108.449 177.985L103.053 155.969C103.053 155.969 113.06 142.04 104.506 122.96L118.286 120.84L137.461 118.031L145.4 118.36C145.4 118.36 155.343 129.734 158.608 137.853C160.633 142.846 164.3 151.58 155.513 161.947Z" fill="#F0F0F0"/>
<path d="M159.626 200.91C159.626 200.91 152.577 207.514 146.206 206.21C139.835 204.906 123.522 185.339 121.455 179.498C119.388 173.658 115.402 148.355 113.717 144.062L107.23 145.557C106.51 149.27 105.093 152.813 103.053 155.998L108.449 178.014C108.449 178.014 101.538 197.2 98.4954 208.479C109.859 224.124 152.64 213.545 159.626 200.91Z" fill="#E0E0E0"/>
<path d="M159.128 81.9052C159.234 64.9452 147.648 50.561 130.243 50.4232C125.914 50.3832 121.623 51.2318 117.636 52.9165C113.648 54.6012 110.049 57.0861 107.06 60.2176C107.092 59.7524 107.038 59.2855 106.901 58.8396C106.735 58.328 106.467 57.8551 106.114 57.449C105.76 57.043 105.329 56.7119 104.846 56.4757C104.363 56.2394 103.836 56.1026 103.299 56.0735C102.762 56.0444 102.224 56.1235 101.718 56.3062L103.541 62.1468C103.04 61.4875 102.354 60.9929 101.57 60.7264C101.062 60.5498 100.524 60.4768 99.9876 60.5119C99.4512 60.5469 98.9273 60.6893 98.4469 60.9304C97.9666 61.1716 97.5395 61.5067 97.1909 61.916C96.8424 62.3252 96.5796 62.8002 96.418 63.3128L102.99 65.56C100.205 70.1745 98.7182 75.4556 98.6864 80.8452C98.5592 99.3952 113.919 114.521 132.914 114.543H159.17L159.128 81.9052Z" fill="#37474F"/>
<path d="M149.343 70.3711C152.629 72.1943 155.438 74.6111 155.512 91.6347C155.512 106.093 150.976 109.792 148.654 110.884C146.333 111.976 141.785 111.478 137.355 110.884L137.461 117.997C137.461 117.997 143.821 121.908 141.478 124.919C139.051 128.099 134.683 128.544 129.055 127.155C124.94 126.085 121.209 123.882 118.285 120.795L117.861 100.761C117.861 100.761 115.338 103.348 110.833 99.6165C107.113 96.5425 105.745 91.2213 108.491 88.2745C109.209 87.5775 110.081 87.0598 111.037 86.7633C111.992 86.4669 113.005 86.4001 113.991 86.5685C114.977 86.7368 115.91 87.1355 116.713 87.7322C117.517 88.3289 118.168 89.1066 118.614 90.0023C128.08 90.0023 129.85 79.1373 130.454 72.5653C135.68 67.1487 143.852 80.1761 149.343 70.3711Z" fill="#FFA8A7"/>
<path d="M120.055 94.7535L117.713 87.0367C118.211 86.857 118.741 86.7803 119.27 86.8114C119.798 86.8425 120.315 86.9807 120.789 87.2176C121.263 87.4545 121.684 87.7852 122.026 88.1896C122.368 88.5939 122.624 89.0636 122.78 89.5701C123.079 90.6186 122.963 91.7423 122.456 92.7076C121.949 93.6729 121.089 94.4056 120.055 94.7535Z" fill="#37474F"/>
<path d="M137.419 87.3102C137.43 87.6651 137.337 88.0155 137.151 88.318C136.965 88.6204 136.694 88.8616 136.372 89.0115C136.051 89.1615 135.692 89.2136 135.341 89.1614C134.989 89.1092 134.661 88.955 134.397 88.718C134.133 88.4809 133.944 88.1714 133.854 87.828C133.764 87.4845 133.776 87.1222 133.891 86.7859C134.005 86.4497 134.215 86.1544 134.496 85.9367C134.776 85.7189 135.114 85.5884 135.468 85.5612C135.959 85.5352 136.439 85.7047 136.805 86.0325C137.171 86.3604 137.391 86.8199 137.419 87.3102Z" fill="#263238"/>
<path d="M140.09 100.699L144.33 101.929C144.262 102.214 144.138 102.482 143.964 102.718C143.79 102.954 143.57 103.152 143.317 103.3C143.065 103.449 142.785 103.545 142.494 103.582C142.204 103.62 141.909 103.598 141.627 103.519C141.06 103.333 140.585 102.938 140.299 102.414C140.014 101.89 139.939 101.277 140.09 100.699Z" fill="#F28F8F"/>
<path d="M152.948 82.731L149.195 80.2824C149.34 80.0265 149.535 79.8034 149.77 79.6271C150.005 79.4509 150.274 79.3254 150.56 79.2586C150.846 79.1919 151.143 79.1853 151.432 79.2392C151.721 79.2932 151.995 79.4066 152.238 79.5722C152.736 79.9095 153.086 80.424 153.218 81.0109C153.35 81.5978 153.253 82.2129 152.948 82.731Z" fill="#263238"/>
<path d="M133.645 82.731L137.397 80.2824C137.253 80.0265 137.057 79.8034 136.822 79.6271C136.587 79.4509 136.318 79.3254 136.032 79.2586C135.746 79.1919 135.449 79.1853 135.161 79.2392C134.872 79.2932 134.598 79.4066 134.355 79.5722C133.857 79.9095 133.506 80.424 133.374 81.0109C133.242 81.5978 133.339 82.2129 133.645 82.731Z" fill="#263238"/>
<path d="M151.887 86.6852C151.901 87.0426 151.809 87.396 151.623 87.7015C151.437 88.0071 151.166 88.2512 150.842 88.4035C150.519 88.5559 150.157 88.6098 149.804 88.5584C149.45 88.5071 149.119 88.3528 148.852 88.1148C148.585 87.8767 148.394 87.5655 148.303 87.2197C148.211 86.874 148.224 86.509 148.338 86.1703C148.453 85.8315 148.664 85.5339 148.947 85.3145C149.229 85.095 149.57 84.9635 149.926 84.9362C150.418 84.9101 150.9 85.0793 151.267 85.4069C151.634 85.7345 151.857 86.194 151.887 86.6852Z" fill="#263238"/>
<path d="M143.026 85.9141L143.238 97.7543L148.94 95.8145L143.026 85.9141Z" fill="#F28F8F"/>
<path d="M137.355 110.862C132.691 110.375 123.055 107.894 121.455 104.152C122.104 106.049 123.322 107.7 124.942 108.88C127.868 111.254 137.429 113.756 137.429 113.756L137.355 110.862Z" fill="#F28F8F"/>
<path d="M152.64 69.2708C152.64 69.2708 150.192 83.4112 130.508 83.8352V67.8398L152.64 69.2708Z" fill="#37474F"/>
<path d="M177.709 233.388C168.445 228.905 162.816 227.262 156.096 221.622C149.375 215.983 117.512 185.169 117.512 185.169L113.717 144.03C113.717 144.03 114.109 130.431 104.505 122.926C96.6932 124.102 92.0716 131.342 92.3578 138.741C92.644 146.14 97.0006 189.621 99.3008 193.776C101.495 197.804 140.111 226.329 145.485 230.42C149.619 233.929 147.435 235.996 153.7 239.42C157.05 241.243 168.042 243.066 172.981 245.112C179.193 247.677 185.288 243.66 188.394 242.324C191.86 240.851 186.973 237.872 177.709 233.388Z" fill="#FFA8A7"/>
<path d="M275.335 458.24C275.346 458.557 275.446 458.864 275.624 459.127C275.803 459.389 276.051 459.596 276.342 459.724C277.114 460.113 277.967 460.316 278.833 460.316C279.698 460.316 280.551 460.113 281.324 459.724C281.616 459.596 281.869 459.392 282.056 459.132C282.242 458.873 282.355 458.568 282.384 458.25L282.479 349.441L275.441 349.537L275.335 458.24Z" fill="#455A64"/>
<path d="M279.215 460.287C279.956 460.252 280.68 460.053 281.335 459.704C281.627 459.576 281.88 459.372 282.066 459.113C282.253 458.854 282.366 458.549 282.395 458.231L282.49 349.422H279.31L279.215 460.287Z" fill="#37474F"/>
<path d="M276.438 350.926C277.209 351.32 278.062 351.526 278.929 351.526C279.795 351.526 280.648 351.32 281.42 350.926C282.808 350.131 282.829 348.806 281.42 348.053C280.648 347.659 279.795 347.453 278.929 347.453C278.062 347.453 277.209 347.659 276.438 348.053C275.091 348.859 275.07 350.141 276.438 350.926Z" fill="#263238"/>
<path d="M411.121 380.341C411.13 380.659 411.229 380.968 411.408 381.231C411.586 381.494 411.836 381.7 412.128 381.825C412.901 382.215 413.754 382.418 414.619 382.418C415.485 382.418 416.338 382.215 417.11 381.825C417.403 381.7 417.656 381.498 417.842 381.24C418.029 380.983 418.142 380.679 418.17 380.363L418.266 271.543L411.217 271.638L411.121 380.341Z" fill="#455A64"/>
<path d="M415 382.385C415.742 382.351 416.466 382.152 417.12 381.802C417.413 381.677 417.666 381.475 417.853 381.217C418.039 380.959 418.153 380.656 418.18 380.339L418.276 271.52H415.096L415 382.385Z" fill="#37474F"/>
<path d="M412.223 273.039C412.995 273.431 413.849 273.636 414.714 273.636C415.58 273.636 416.434 273.431 417.205 273.039C418.594 272.244 418.615 270.919 417.205 270.167C416.433 269.777 415.58 269.574 414.714 269.574C413.849 269.574 412.996 269.777 412.223 270.167C410.877 270.962 410.856 272.244 412.223 273.039Z" fill="#263238"/>
<path d="M115 380.341C115.013 380.665 115.12 380.978 115.309 381.241C115.497 381.505 115.758 381.708 116.06 381.825C116.833 382.215 117.686 382.418 118.551 382.418C119.416 382.418 120.269 382.215 121.042 381.825C121.332 381.696 121.582 381.493 121.769 381.236C121.955 380.98 122.07 380.678 122.102 380.363L122.197 271.543L115.148 271.638L115 380.341Z" fill="#455A64"/>
<path d="M118.869 382.385C119.61 382.349 120.334 382.15 120.989 381.802C121.278 381.673 121.529 381.47 121.715 381.213C121.901 380.956 122.016 380.655 122.049 380.339L122.144 271.52H118.964L118.869 382.385Z" fill="#37474F"/>
<path d="M116.102 273.039C116.874 273.431 117.728 273.636 118.593 273.636C119.459 273.636 120.312 273.431 121.084 273.039C122.473 272.244 122.483 270.919 121.084 270.167C120.31 269.777 119.455 269.574 118.588 269.574C117.721 269.574 116.866 269.777 116.092 270.167C114.745 270.962 114.735 272.244 116.102 273.039Z" fill="#263238"/>
<path d="M83.5173 272.475V271.415C83.5666 270.474 83.8382 269.558 84.3099 268.741C84.7816 267.925 85.4399 267.232 86.2309 266.72L261.672 165.362C262.514 164.939 263.443 164.719 264.385 164.719C265.327 164.719 266.257 164.939 267.099 165.362L438.405 264.027C439.196 264.54 439.855 265.233 440.326 266.049C440.798 266.865 441.07 267.782 441.119 268.723V269.783C441.07 270.724 440.798 271.641 440.326 272.457C439.855 273.273 439.196 273.966 438.405 274.479L262.954 375.836C262.114 376.259 261.186 376.48 260.246 376.48C259.305 376.48 258.378 376.259 257.538 375.836L86.2309 277.171C85.4405 276.658 84.7826 275.965 84.311 275.149C83.8394 274.333 83.5675 273.417 83.5173 272.475Z" fill="#BA68C8"/>
<g opacity="0.65">
<path d="M83.5173 272.475V271.415C83.5666 270.474 83.8382 269.558 84.3099 268.741C84.7816 267.925 85.4399 267.232 86.2309 266.72L261.672 165.362C262.514 164.939 263.443 164.719 264.385 164.719C265.327 164.719 266.257 164.939 267.099 165.362L438.405 264.027C439.196 264.54 439.855 265.233 440.326 266.049C440.798 266.865 441.07 267.782 441.119 268.723V269.783C441.07 270.724 440.798 271.641 440.326 272.457C439.855 273.273 439.196 273.966 438.405 274.479L262.954 375.836C262.114 376.259 261.186 376.48 260.246 376.48C259.305 376.48 258.378 376.259 257.538 375.836L86.2309 277.171C85.4405 276.658 84.7826 275.965 84.311 275.149C83.8394 274.333 83.5675 273.417 83.5173 272.475Z" fill="white"/>
</g>
<path d="M260.251 369.139V376.485C259.307 376.494 258.376 376.272 257.538 375.838L86.2309 277.184C85.4417 276.669 84.7847 275.976 84.3132 275.16C83.8418 274.344 83.5691 273.429 83.5173 272.488V271.428C83.5623 270.589 83.7827 269.769 84.1643 269.02C84.5459 268.272 85.0802 267.611 85.7327 267.082C84.7469 267.919 84.9165 269.085 86.2309 269.859L257.58 368.492C258.399 368.935 259.32 369.158 260.251 369.139Z" fill="#BA68C8"/>
<g opacity="0.5">
<path d="M260.251 369.139V376.485C259.307 376.494 258.376 376.272 257.538 375.838L86.2309 277.184C85.4417 276.669 84.7847 275.976 84.3132 275.16C83.8418 274.344 83.5691 273.429 83.5173 272.488V271.428C83.5623 270.589 83.7827 269.769 84.1643 269.02C84.5459 268.272 85.0802 267.611 85.7327 267.082C84.7469 267.919 84.9165 269.085 86.2309 269.859L257.58 368.492C258.399 368.935 259.32 369.158 260.251 369.139Z" fill="white"/>
</g>
<path d="M86.231 269.825L257.58 368.49C258.42 368.913 259.348 369.134 260.288 369.134C261.229 369.134 262.156 368.913 262.997 368.49L438.405 267.122C439.911 266.264 439.911 264.854 438.405 263.995L267.12 165.362C266.278 164.939 265.349 164.719 264.406 164.719C263.464 164.719 262.535 164.939 261.693 165.362L86.231 266.698C84.7258 267.557 84.7258 268.967 86.231 269.825Z" fill="#BA68C8"/>
<g opacity="0.8">
<path d="M86.231 269.825L257.58 368.49C258.42 368.913 259.348 369.134 260.288 369.134C261.229 369.134 262.156 368.913 262.997 368.49L438.405 267.122C439.911 266.264 439.911 264.854 438.405 263.995L267.12 165.362C266.278 164.939 265.349 164.719 264.406 164.719C263.464 164.719 262.535 164.939 261.693 165.362L86.231 266.698C84.7258 267.557 84.7258 268.967 86.231 269.825Z" fill="white"/>
</g>
<path opacity="0.1" d="M224.306 269.656L199.407 255.282L197.806 252.791V250.438L192.273 248.106L191.733 245.774L195.39 245.17L197.764 245.34L197.393 243.326L200.668 242.117L246.768 252.791L250.223 254.795C250.309 254.844 250.381 254.915 250.43 255.001C250.48 255.086 250.506 255.183 250.506 255.282C250.506 255.381 250.48 255.479 250.43 255.564C250.381 255.65 250.309 255.721 250.223 255.77L226.172 269.656C225.888 269.818 225.566 269.903 225.239 269.903C224.912 269.903 224.591 269.818 224.306 269.656Z" fill="black"/>
<path d="M229.066 240.784L215.106 228.816L212.731 230.661L215.106 233.841L211.067 231.201L208.947 232.961L207.007 234.021L204.071 232.314L201.951 233.82L202.258 235.176L206.074 237.296C205.443 237.682 204.776 238.005 204.082 238.261C203.041 237.677 202.048 237.01 201.114 236.268L199.842 238.95L201.601 244.102L199.057 244.632L199.46 247.388L203.202 250.154L198.495 251.479L199.46 253.896C199.46 253.896 212.551 258.507 212.742 258.507C213.134 258.496 229.066 240.784 229.066 240.784Z" fill="#B16668"/>
<path d="M193.216 246.422L209.699 256.788L211.47 254.478L195.103 243.496L192.93 244.09L193.216 246.422Z" fill="#FFBDA7"/>
<path d="M192.93 244.09L210.855 255.283L209.699 256.789L193.216 246.422L192.93 244.09Z" fill="#F0997A"/>
<path d="M195.824 240.358L209.562 252.124L211.746 250.82L195.39 236.457L195.824 240.358Z" fill="#F0997A"/>
<path d="M195.39 236.459L198.199 235.77L213.124 249.38L211.746 250.822L195.39 236.459Z" fill="#FFBDA7"/>
<path d="M202.682 238.408L218.71 247.376V245.341L202.682 236.023V238.408Z" fill="#F0997A"/>
<path d="M202.682 236.024L205.311 235.145L219.982 244.091L218.71 245.342L202.682 236.024Z" fill="#FFBDA7"/>
<path d="M224.836 246.338L204.961 233.491V231.148L225.239 245.342L224.836 246.338Z" fill="#F0997A"/>
<path d="M204.961 231.145L207.643 230.414L226.426 244.289L225.239 245.339L204.961 231.145Z" fill="#FFBDA7"/>
<path d="M233.189 241.692L215.105 230.414L215.699 232.905L232.023 243.494L233.189 241.692Z" fill="#F0997A"/>
<path d="M215.105 230.414H218.709L233.528 240.526L233.189 241.692L215.105 230.414Z" fill="#FFBDA7"/>
<path d="M193.217 224.363L193.98 226.091C193.98 226.091 197.616 228.868 201.612 228.391C205.608 227.914 210.007 224.363 210.007 224.363H193.217Z" fill="#F0997A"/>
<path d="M193.217 224.363C195.275 225.493 197.553 226.166 199.895 226.335C204.018 226.706 210.007 224.363 210.007 224.363H193.217Z" fill="#FFBDA7"/>
<path d="M206.965 248.669L225.239 262.735L246.768 250.312L228.493 236.235C226.2 234.639 223.515 233.698 220.727 233.511C217.94 233.324 215.154 233.899 212.668 235.175L207.664 238.058C203.106 240.719 202.788 245.457 206.965 248.669Z" fill="#BA68C8"/>
<path d="M222.759 252.041C220.572 252.097 218.425 251.45 216.632 250.197C215.98 249.753 215.451 249.153 215.094 248.45C214.736 247.748 214.562 246.967 214.586 246.179C214.694 245.279 215.024 244.419 215.548 243.679C216.072 242.939 216.772 242.341 217.586 241.939C221.041 239.947 226.235 240.169 229.172 242.427C229.824 242.87 230.355 243.47 230.714 244.172C231.073 244.875 231.25 245.656 231.228 246.444C231.118 247.346 230.786 248.206 230.26 248.946C229.734 249.686 229.032 250.284 228.218 250.684C226.545 251.599 224.665 252.067 222.759 252.041ZM223.066 241.674C221.338 241.652 219.633 242.076 218.116 242.904C217.462 243.217 216.895 243.685 216.463 244.267C216.031 244.849 215.747 245.527 215.635 246.243C215.626 246.857 215.772 247.463 216.059 248.006C216.347 248.549 216.766 249.011 217.278 249.349C219.907 251.373 224.571 251.564 227.688 249.762C228.343 249.451 228.911 248.984 229.344 248.402C229.776 247.82 230.059 247.14 230.168 246.423C230.175 245.811 230.028 245.207 229.741 244.666C229.454 244.125 229.036 243.665 228.525 243.328C226.929 242.207 225.015 241.631 223.066 241.685V241.674Z" fill="#FAFAFA"/>
<path d="M225.239 262.734V267.706L206.965 257.159V248.668L225.239 262.734Z" fill="#BA68C8"/>
<path opacity="0.15" d="M225.239 262.734V267.706L206.965 257.159V248.668L225.239 262.734Z" fill="black"/>
<path d="M246.768 250.312V255.284L225.239 267.707V262.736L246.768 250.312Z" fill="#BA68C8"/>
<path opacity="0.3" d="M246.768 250.312V255.284L225.239 267.707V262.736L246.768 250.312Z" fill="black"/>
<path opacity="0.1" d="M308.576 269.656L333.475 255.282L335.076 252.791V250.438L340.609 248.106L341.139 245.774L337.493 245.17L335.108 245.34L335.479 243.326L332.214 242.117L286.115 252.791L282.659 254.795C282.573 254.844 282.502 254.915 282.452 255.001C282.402 255.086 282.376 255.183 282.376 255.282C282.376 255.381 282.402 255.479 282.452 255.564C282.502 255.65 282.573 255.721 282.659 255.77L306.71 269.656C306.995 269.818 307.316 269.903 307.643 269.903C307.97 269.903 308.292 269.818 308.576 269.656Z" fill="black"/>
<path d="M303.891 240.784L317.851 228.816L320.225 230.661L317.851 233.841L321.89 231.201L324.01 232.961L325.949 234.021L328.886 232.314L331.006 233.82L330.698 235.176L326.872 237.296C327.503 237.682 328.17 238.005 328.864 238.261C329.905 237.677 330.898 237.01 331.832 236.268L333.115 238.95L331.345 244.102L333.889 244.632L333.486 247.388L329.808 250.165L334.514 251.49L333.55 253.907C333.55 253.907 320.459 258.518 320.268 258.518C319.823 258.496 303.891 240.784 303.891 240.784Z" fill="#B16668"/>
<path d="M336.973 240.367L320.49 250.734L318.731 248.412L335.097 237.441L337.26 238.024L336.973 240.367Z" fill="#FFBDA7"/>
<path d="M337.26 238.027L319.335 249.221L320.491 250.737L336.974 240.37L337.26 238.027Z" fill="#F0997A"/>
<path d="M316.992 222.974L296.068 222.667L297.425 221.214L316.706 219.508L318.338 221.045L316.992 222.974Z" fill="#FFBDA7"/>
<path d="M318.338 221.047L296.068 222.669L297.562 224.365L316.992 222.976L318.338 221.047Z" fill="#F0997A"/>
<path d="M337.705 249.518L320.544 255.231L319.007 253.196L339.581 246.062L337.705 249.518Z" fill="#F0997A"/>
<path d="M339.581 246.059L337.238 244.363L318.275 251.349L319.006 253.193L339.581 246.059Z" fill="#FFBDA7"/>
<path d="M330.911 238.842L314.884 247.81V245.774L330.911 236.457V238.842Z" fill="#F0997A"/>
<path d="M330.91 236.458L328.292 235.578L313.611 244.525L314.883 245.775L330.91 236.458Z" fill="#FFBDA7"/>
<path d="M321.052 233.607L306.817 245.214L306.467 243.2L320.639 231.254L321.052 233.607Z" fill="#F0997A"/>
<path d="M320.639 231.254L317.904 230.852L304.993 242.194L306.467 243.201L320.639 231.254Z" fill="#FFBDA7"/>
<path d="M299.598 247.419L315.402 229.812L314.798 227.555L298.941 246.55L299.598 247.419Z" fill="#F0997A"/>
<path d="M314.799 227.555H312.021L297.531 245.861L298.941 246.55L314.799 227.555Z" fill="#FFBDA7"/>
<path d="M313.156 241.196L331.239 229.918L330.646 232.409L314.322 242.998L313.156 241.196Z" fill="#F0997A"/>
<path d="M331.239 229.918H327.635L312.816 240.03L313.155 241.196L331.239 229.918Z" fill="#FFBDA7"/>
<path d="M325.992 248.669L307.718 262.735L286.2 250.312L304.474 236.235C306.768 234.639 309.453 233.698 312.24 233.511C315.028 233.324 317.814 233.899 320.3 235.175L325.303 238.058C329.851 240.719 330.169 245.457 325.992 248.669Z" fill="#BA68C8"/>
<path d="M304.739 250.681C303.924 250.28 303.222 249.682 302.697 248.942C302.171 248.202 301.838 247.342 301.729 246.441C301.709 245.652 301.886 244.872 302.245 244.17C302.605 243.468 303.134 242.868 303.785 242.423C306.721 240.165 311.915 239.943 315.371 241.936C316.185 242.338 316.886 242.936 317.411 243.676C317.937 244.416 318.27 245.275 318.381 246.176C318.402 246.964 318.224 247.744 317.865 248.446C317.506 249.148 316.976 249.748 316.325 250.193C314.532 251.446 312.385 252.093 310.198 252.037C308.292 252.063 306.412 251.595 304.739 250.681ZM304.432 243.324C303.921 243.661 303.503 244.121 303.216 244.662C302.928 245.203 302.782 245.807 302.789 246.419C302.897 247.136 303.18 247.816 303.613 248.398C304.045 248.98 304.614 249.447 305.269 249.758C308.386 251.56 313.05 251.369 315.678 249.345C316.191 249.007 316.61 248.545 316.897 248.002C317.185 247.459 317.33 246.853 317.321 246.239C317.21 245.523 316.926 244.845 316.494 244.263C316.062 243.681 315.495 243.213 314.841 242.9C313.327 242.073 311.626 241.65 309.901 241.671C307.948 241.618 306.029 242.198 304.432 243.324Z" fill="#FAFAFA"/>
<path d="M307.717 262.734V267.706L325.992 257.159V248.668L307.717 262.734Z" fill="#BA68C8"/>
<path opacity="0.15" d="M307.717 262.734V267.706L325.992 257.159V248.668L307.717 262.734Z" fill="black"/>
<path d="M286.189 250.312V255.284L307.717 267.707V262.736L286.189 250.312Z" fill="#BA68C8"/>
<path opacity="0.3" d="M286.189 250.312V255.284L307.717 267.707V262.736L286.189 250.312Z" fill="black"/>
<path opacity="0.1" d="M240.683 195.722C235.383 193.39 226.819 193.39 221.656 195.722C216.494 198.054 216.494 201.827 221.656 204.202C226.819 206.576 235.341 206.534 240.683 204.202C246.026 201.87 246.026 198.054 240.683 195.722Z" fill="black"/>
<path d="M244.224 168.117H218.254L220.215 198.719C220.331 199.832 221.381 200.935 223.395 201.783C228.43 203.596 233.941 203.596 238.977 201.783C241.022 200.935 242.157 199.832 242.231 198.719L244.224 168.117Z" fill="#FAFAFA"/>
<path d="M236.21 193.028C235.555 193.037 234.916 192.832 234.387 192.445C233.274 191.629 232.67 189.965 232.67 187.781C232.67 184.856 234.79 181.082 237.747 180.361C238.244 180.2 238.771 180.158 239.287 180.239C239.803 180.32 240.292 180.522 240.715 180.828C241.701 181.602 242.221 183.096 242.221 185.142C242.221 187.188 241.256 191.693 237.599 192.816C237.149 192.954 236.681 193.026 236.21 193.028ZM238.85 181.262C238.56 181.268 238.272 181.307 237.991 181.379C235.553 181.983 233.751 185.259 233.751 187.739C233.751 189.552 234.218 190.919 235.034 191.544C235.367 191.759 235.748 191.89 236.143 191.925C236.538 191.96 236.936 191.899 237.302 191.746C240.376 190.802 241.182 186.986 241.182 185.089C241.182 183.372 240.8 182.174 240.122 181.602C239.751 181.342 239.3 181.222 238.85 181.262Z" fill="#BA68C8"/>
<path d="M220.215 198.751C220.331 199.864 221.381 200.967 223.395 201.815C228.43 203.627 233.941 203.627 238.977 201.815C240.237 201.414 241.313 200.576 242.008 199.451C239.387 201.122 236.283 201.868 233.189 201.571C228.154 201.009 225.048 200.108 224.147 196.133C223.373 192.741 221.54 173.873 221.052 168.191H218.254L220.215 198.751Z" fill="#F0F0F0"/>
<path d="M218.254 168.149L218.646 174.361C219.312 174.819 220.022 175.21 220.766 175.527C226.384 177.848 235.606 177.848 241.457 175.527C241.711 175.421 241.913 175.315 242.146 175.209C242.71 174.942 243.255 174.637 243.778 174.297L244.171 168.117L218.254 168.149Z" fill="#E0E0E0"/>
<path d="M244.691 169.159V164.855H241.903C241.532 164.664 241.129 164.473 240.684 164.293C235.384 162.173 226.819 162.173 221.657 164.293C221.233 164.473 220.851 164.664 220.491 164.855H217.788V169.159C217.788 170.558 219.081 171.957 221.657 173.028C226.819 175.148 235.341 175.148 240.684 173.028C243.355 171.957 244.691 170.558 244.691 169.159Z" fill="#37474F"/>
<path d="M240.683 160.985C235.383 158.865 226.819 158.865 221.656 160.985C216.494 163.105 216.494 166.592 221.656 168.723C226.819 170.853 235.341 170.843 240.683 168.723C246.026 166.603 246.026 163.115 240.683 160.985Z" fill="#455A64"/>
<path d="M241.245 163.646L240.185 160.773H222.292L221.232 163.646C220.83 164.759 221.762 165.936 224.041 166.826C228.699 168.289 233.694 168.289 238.351 166.826C240.705 165.936 241.68 164.759 241.245 163.646Z" fill="#37474F"/>
<path d="M237.557 158.769C233.417 157.467 228.977 157.467 224.837 158.769C221.381 160.073 221.381 162.172 224.837 163.476C228.978 164.769 233.415 164.769 237.557 163.476C241.129 162.183 241.129 160.063 237.557 158.769Z" fill="#455A64"/>
<path d="M238.998 161.123C238.909 161.307 238.769 161.462 238.595 161.568C238.146 161.886 237.654 162.136 237.132 162.31C235.203 162.937 233.183 163.242 231.154 163.211C229.153 163.251 227.16 162.95 225.26 162.321C224.752 162.149 224.276 161.894 223.85 161.568C223.554 161.335 223.479 161.165 223.479 161.123C223.479 161.081 223.787 160.487 225.26 159.925C227.16 159.296 229.153 158.995 231.154 159.035C233.183 158.999 235.204 159.303 237.132 159.936C238.616 160.466 238.987 161.017 238.998 161.123Z" fill="#37474F"/>
<path d="M238.595 161.568C238.147 161.885 237.654 162.135 237.133 162.31C235.203 162.937 233.183 163.242 231.154 163.211C229.153 163.25 227.16 162.949 225.261 162.32C224.753 162.148 224.276 161.894 223.851 161.568C224.278 161.246 224.754 160.995 225.261 160.826C227.16 160.193 229.153 159.888 231.154 159.925C233.183 159.894 235.203 160.198 237.133 160.826C237.654 161 238.147 161.25 238.595 161.568Z" fill="#263238"/>
<path d="M235.023 161.651C235.227 161.512 235.457 161.416 235.7 161.37C235.943 161.325 236.192 161.33 236.433 161.386C236.698 161.524 236.433 161.884 235.966 162.192C235.761 162.331 235.528 162.426 235.284 162.472C235.039 162.518 234.788 162.512 234.546 162.457C234.26 162.308 234.504 161.948 235.023 161.651Z" fill="black"/>
<defs>
<filter id="filter0_f_5428_8022" x="360.639" y="111.582" width="64.7018" height="109.235" filterUnits="userSpaceOnUse" color-interpolation-filters="sRGB">
<feFlood flood-opacity="0" result="BackgroundImageFix"/>
<feBlend mode="normal" in="SourceGraphic" in2="BackgroundImageFix" result="shape"/>
<feGaussianBlur stdDeviation="0.996241" result="effect1_foregroundBlur_5428_8022"/>
</filter>
</defs>
</svg>
