<svg width="837" height="623" viewBox="0 0 837 623" fill="none" xmlns="http://www.w3.org/2000/svg">
<path d="M744.197 187.238L733.519 244.99L726.645 237.502L714.951 246.822L706.014 234.424L685.973 250.697L668.846 218.712L649.743 231.21L642.166 219.547L617.908 234.81L610.611 217.354L627.616 125.387L718.779 146.407L744.197 187.238Z" fill="#EBEBEB"/>
<path d="M718.778 146.408L744.197 187.24L712.574 179.951L718.778 146.408Z" fill="#DBDBDB"/>
<path d="M731.242 256.526L715.587 341.254L592.791 312.945L608.335 228.902L615.632 246.346L639.901 231.083L647.466 242.745L666.58 230.26L683.697 262.245L703.748 245.973L712.675 258.358L724.38 249.05L731.242 256.526Z" fill="#EBEBEB"/>
<path d="M555.489 246.596L430.35 255.243L420.408 75.8688L513.334 69.4395L547.444 101.399L555.489 246.596Z" fill="#EBEBEB"/>
<path d="M513.334 69.4395L547.444 101.399L515.219 103.63L513.334 69.4395Z" fill="#DBDBDB"/>
<path d="M478.687 190.139L478.196 186.089C476.935 177.704 478.988 168.321 485.516 158.515C491.407 149.793 494.598 143.563 494.241 136.486C493.84 128.512 489.098 123.478 480.271 123.876C475.227 124.169 470.382 126.168 466.379 129.608L462.53 119.976C466.993 115.927 474.804 112.937 482.224 112.5C498.325 111.504 506.158 122.144 506.772 134.019C507.308 144.647 502.376 152.634 496.105 161.967C490.347 170.477 488.461 177.492 489.276 185.429L489.622 189.491L478.687 190.139ZM476.701 212.205C476.411 206.424 479.702 202.138 484.601 201.839C489.499 201.54 493.07 205.377 493.36 211.171C493.628 216.641 490.626 221.052 485.449 221.376C480.506 221.687 476.935 217.675 476.656 212.205H476.701Z" fill="#DBDBDB"/>
<path d="M165.677 159.625L153.091 153.258L151.339 157.557C151.08 158.171 150.677 158.695 150.171 159.072C149.666 159.45 149.078 159.667 148.471 159.7C147.779 159.725 147.09 159.8 146.407 159.924C145.807 160.023 145.195 159.939 144.635 159.68C144.075 159.421 143.588 158.997 143.227 158.454L140.761 154.603L129.525 163.6L131.99 167.45C132.333 168.005 132.535 168.655 132.575 169.328C132.614 170.001 132.489 170.674 132.214 171.275C131.896 171.96 131.609 172.663 131.354 173.381C131.133 174.014 130.762 174.567 130.28 174.982C129.799 175.397 129.225 175.658 128.621 175.736L124.414 176.197L125.764 191.56L129.993 191.086C130.6 191.032 131.208 191.164 131.752 191.467C132.297 191.77 132.757 192.233 133.084 192.806C133.263 193.13 133.452 193.441 133.653 193.753C133.854 194.064 134.055 194.363 134.267 194.662C134.652 195.186 134.899 195.818 134.982 196.489C135.065 197.159 134.979 197.843 134.735 198.463L132.972 202.799L145.57 209.178L147.322 204.855C147.583 204.241 147.989 203.718 148.496 203.343C149.003 202.967 149.593 202.753 150.201 202.724C150.885 202.693 151.566 202.618 152.243 202.5C152.842 202.4 153.455 202.485 154.015 202.744C154.575 203.002 155.062 203.426 155.423 203.97L157.889 207.82L169.136 198.824L166.67 194.974C166.317 194.423 166.108 193.773 166.069 193.097C166.029 192.421 166.16 191.746 166.447 191.149C166.758 190.467 167.037 189.769 167.284 189.055C167.498 188.418 167.868 187.86 168.351 187.444C168.834 187.028 169.411 186.77 170.018 186.7L174.247 186.227L172.885 170.864L168.656 171.325C168.054 171.384 167.448 171.256 166.907 170.955C166.365 170.653 165.909 170.191 165.588 169.618C165.398 169.294 165.208 168.982 165.008 168.671C164.807 168.359 164.606 168.048 164.394 167.761C164.011 167.232 163.766 166.596 163.683 165.921C163.601 165.247 163.684 164.561 163.925 163.936L165.677 159.625ZM158.536 173.842C159.841 175.875 160.576 178.295 160.649 180.795C160.723 183.295 160.13 185.763 158.947 187.888C157.764 190.012 156.044 191.696 154.003 192.728C151.962 193.761 149.694 194.094 147.483 193.686C145.273 193.278 143.221 192.148 141.586 190.437C139.952 188.727 138.808 186.514 138.3 184.077C137.791 181.641 137.942 179.091 138.731 176.75C139.521 174.409 140.915 172.383 142.736 170.926C145.177 168.974 148.214 168.184 151.176 168.731C154.139 169.277 156.787 171.116 158.536 173.842Z" fill="#EBEBEB"/>
<path d="M734.634 363.469L726.243 368.876L727.727 371.742C727.949 372.153 728.059 372.627 728.045 373.107C728.031 373.587 727.894 374.052 727.649 374.446C727.392 374.895 727.147 375.356 726.924 375.842C726.74 376.271 726.451 376.634 726.089 376.885C725.727 377.137 725.308 377.268 724.882 377.262H721.936V388.09H724.904C725.33 388.084 725.749 388.215 726.111 388.466C726.473 388.718 726.763 389.08 726.946 389.51C727.169 389.996 727.415 390.457 727.671 390.906C727.916 391.3 728.054 391.765 728.068 392.245C728.081 392.724 727.971 393.198 727.749 393.609L726.265 396.475L734.656 401.883L736.152 399.005C736.368 398.596 736.682 398.264 737.059 398.044C737.435 397.824 737.859 397.725 738.283 397.759H739.711C740.135 397.726 740.558 397.826 740.934 398.045C741.31 398.265 741.625 398.597 741.842 399.005L743.337 401.895L751.717 396.488L750.233 393.609C750.022 393.196 749.919 392.725 749.934 392.25C749.95 391.774 750.085 391.313 750.323 390.918C750.579 390.47 750.825 389.996 751.048 389.523C751.231 389.093 751.521 388.731 751.883 388.479C752.245 388.227 752.663 388.096 753.09 388.102H756.058V377.274H753.067C752.641 377.28 752.222 377.15 751.86 376.898C751.499 376.646 751.209 376.284 751.025 375.854C750.802 375.381 750.557 374.907 750.3 374.458C750.062 374.064 749.928 373.603 749.912 373.127C749.896 372.651 750 372.18 750.211 371.767L751.695 368.889L743.315 363.481L741.82 366.322C741.603 366.73 741.289 367.063 740.913 367.283C740.536 367.503 740.113 367.602 739.689 367.568H738.975H738.26C737.835 367.6 737.411 367.501 737.033 367.281C736.655 367.061 736.338 366.729 736.118 366.322L734.634 363.469ZM738.975 373.811C740.547 373.808 742.084 374.327 743.393 375.301C744.701 376.274 745.721 377.66 746.324 379.281C746.926 380.903 747.084 382.688 746.778 384.41C746.472 386.132 745.715 387.714 744.603 388.955C743.492 390.197 742.075 391.042 740.533 391.384C738.991 391.726 737.392 391.549 735.94 390.876C734.488 390.203 733.248 389.064 732.375 387.603C731.503 386.142 731.039 384.425 731.041 382.67C731.04 381.505 731.244 380.352 731.642 379.276C732.04 378.199 732.624 377.221 733.361 376.397C734.098 375.573 734.973 374.92 735.936 374.474C736.899 374.028 737.932 373.798 738.975 373.798V373.811Z" fill="#EBEBEB"/>
<path d="M191.14 113.584L183.452 120.163L185.226 122.792C185.491 123.167 185.653 123.618 185.695 124.093C185.736 124.568 185.655 125.046 185.46 125.471C185.247 125.956 185.061 126.455 184.902 126.966C184.765 127.416 184.518 127.814 184.188 128.116C183.859 128.418 183.461 128.61 183.039 128.673L180.093 129.097L181.343 139.825L184.289 139.401C184.718 139.334 185.155 139.404 185.549 139.603C185.944 139.801 186.281 140.12 186.52 140.523C186.789 140.956 187.08 141.372 187.391 141.769C187.678 142.122 187.869 142.559 187.94 143.03C188.011 143.5 187.96 143.984 187.792 144.423L186.677 147.488L195.603 151.637L196.719 148.572C196.885 148.132 197.158 147.753 197.507 147.478C197.856 147.203 198.267 147.042 198.694 147.014L199.408 146.927L200.111 146.802C200.524 146.716 200.95 146.757 201.344 146.921C201.737 147.086 202.083 147.368 202.343 147.737L204.162 150.391L211.85 143.812L210.053 141.183C209.794 140.803 209.634 140.35 209.593 139.875C209.551 139.399 209.63 138.92 209.819 138.492C210.03 138.01 210.217 137.515 210.377 137.009C210.514 136.559 210.761 136.161 211.091 135.859C211.42 135.558 211.818 135.365 212.24 135.302L215.186 134.878L213.936 124.15L210.99 124.574C210.563 124.642 210.126 124.574 209.732 124.378C209.337 124.182 209 123.865 208.759 123.465C208.48 123.016 208.19 122.593 207.877 122.219C207.617 121.858 207.449 121.426 207.39 120.968C207.331 120.51 207.384 120.042 207.542 119.615L208.658 116.55L199.732 112.4L198.616 115.466C198.448 115.904 198.174 116.281 197.825 116.556C197.477 116.831 197.067 116.993 196.641 117.023L195.927 117.098L195.268 117.123C194.855 117.21 194.429 117.168 194.036 117.004C193.642 116.839 193.297 116.557 193.037 116.188L191.14 113.584ZM196.641 123.216C198.195 122.993 199.774 123.288 201.178 124.066C202.582 124.844 203.748 126.068 204.529 127.585C205.311 129.102 205.672 130.843 205.568 132.589C205.465 134.335 204.9 136.008 203.946 137.396C202.992 138.784 201.691 139.826 200.207 140.39C198.724 140.953 197.124 141.013 195.61 140.563C194.095 140.112 192.734 139.171 191.699 137.858C190.663 136.544 189.999 134.918 189.79 133.184C189.65 132.026 189.717 130.85 189.986 129.721C190.256 128.593 190.722 127.535 191.359 126.609C191.996 125.682 192.79 124.906 193.697 124.323C194.603 123.741 195.604 123.365 196.641 123.216Z" fill="#EBEBEB"/>
<path d="M133.698 394.709C134.117 382.664 133.968 370.603 133.252 358.575C131.655 333.739 128.263 309.087 123.109 284.862C120.275 271.23 116.793 257.823 113.156 244.429C113.044 244.018 112.464 244.13 112.564 244.553C123.801 291.777 133.017 340.495 132.381 389.588C132.203 403.294 130.775 416.813 129.614 430.469C129.614 430.83 130.116 430.98 130.194 430.606C132.504 418.881 133.263 406.646 133.698 394.709Z" fill="#EBEBEB"/>
<path d="M112.564 244.514C112.564 244.514 95.5587 292.734 99.3636 304.023C103.169 315.311 111.024 317.729 111.024 317.729C111.024 317.729 100.613 334.325 107.888 349.888C115.164 365.45 131.321 364.715 132.437 382.359C132.403 382.446 133.296 308.67 112.564 244.514Z" fill="#EBEBEB"/>
<path d="M130.551 351.979C130.578 351.898 130.578 351.81 130.551 351.729C128.319 318.809 122.787 286.272 114.059 254.728C114.059 254.641 113.892 254.666 113.914 254.728C117.284 268.85 120.259 283.029 122.841 297.267C120.554 294.848 117.762 293.109 114.717 292.208C114.717 292.208 114.628 292.283 114.717 292.308C117.915 293.616 120.791 295.751 123.108 298.538C123.599 301.341 124.09 304.132 124.548 306.936C120.743 302.188 115.476 299.834 110.198 297.591C110.186 297.597 110.176 297.606 110.169 297.618C110.162 297.63 110.158 297.645 110.158 297.659C110.158 297.674 110.162 297.688 110.169 297.7C110.176 297.712 110.186 297.722 110.198 297.728C115.699 300.22 121.167 303.434 124.894 308.73C126.188 316.729 127.326 324.758 128.308 332.815C125.561 329.601 122.038 327.346 118.165 326.323C118.043 326.323 117.976 326.485 118.098 326.523C122.076 327.831 125.627 330.402 128.319 333.924H128.386C128.721 336.748 129.041 339.585 129.346 342.434C127.221 340.426 124.821 338.811 122.238 337.65C122.171 337.65 122.127 337.737 122.238 337.762C124.874 339.037 127.288 340.821 129.368 343.032C129.368 343.032 129.424 343.032 129.457 343.032C129.736 345.736 130.015 348.44 130.261 351.144C126.429 345.971 121.457 342.003 115.833 339.631C115.81 339.631 115.787 339.641 115.77 339.66C115.753 339.679 115.744 339.704 115.744 339.73C115.744 339.757 115.753 339.782 115.77 339.801C115.787 339.82 115.81 339.83 115.833 339.83C121.386 342.563 126.264 346.757 130.049 352.053C130.091 352.111 130.147 352.154 130.21 352.177C130.274 352.199 130.342 352.199 130.406 352.178C130.774 356.327 131.109 360.476 131.377 364.638C131.377 364.7 131.466 364.7 131.466 364.638C131.176 360.46 130.871 356.24 130.551 351.979Z" fill="white"/>
<path d="M116.882 287.462C113.802 285.322 110.284 284.095 106.661 283.898C106.643 283.898 106.626 283.906 106.614 283.92C106.601 283.934 106.594 283.953 106.594 283.973C106.594 283.993 106.601 284.012 106.614 284.026C106.626 284.04 106.643 284.048 106.661 284.048C110.164 284.79 113.563 286.047 116.771 287.786C116.904 287.823 117.005 287.562 116.882 287.462Z" fill="white"/>
<path d="M118.947 338.514C116.58 336.997 113.973 336.003 111.27 335.586C111.181 335.586 111.17 335.723 111.27 335.748C113.91 336.339 116.464 337.337 118.858 338.713C118.958 338.776 119.047 338.576 118.947 338.514Z" fill="white"/>
<path d="M178.42 304.859C171.226 310.412 164.619 316.857 158.726 324.072C152.648 331.711 147.96 340.599 144.923 350.238C138.46 370.321 134.985 391.451 134.635 412.788C134.418 424.604 135.433 436.408 137.659 447.962C137.677 448.046 137.723 448.119 137.788 448.166C137.853 448.213 137.932 448.23 138.008 448.214C138.084 448.198 138.151 448.15 138.196 448.08C138.242 448.01 138.261 447.923 138.25 447.838C135.481 427.448 135.586 406.7 138.563 386.347C141.486 366.411 146.072 344.706 157.431 328.496C163.613 319.662 171.323 312.721 178.944 305.544C179.346 305.146 178.833 304.535 178.42 304.859Z" fill="#EBEBEB"/>
<path d="M137.134 398.404C141.229 391.008 146.041 384.139 151.484 377.92C159.997 368.413 167.161 361.66 168.277 355.38C169.393 349.1 159.752 344.465 159.752 344.465C159.752 344.465 171.524 346.832 174.749 341.312C177.973 335.793 179.524 303.82 179.524 303.82C179.524 303.82 158.101 320.903 148.114 344.851C138.127 368.799 137.134 398.404 137.134 398.404Z" fill="#EBEBEB"/>
<path d="M171.836 333.818C170.426 333.584 168.996 333.53 167.574 333.656C167.407 333.656 167.418 333.98 167.574 333.993C168.98 333.993 170.397 333.918 171.803 333.993C171.819 333.988 171.834 333.979 171.845 333.965C171.857 333.952 171.865 333.935 171.868 333.917C171.872 333.899 171.87 333.88 171.865 333.863C171.859 333.845 171.849 333.83 171.836 333.818Z" fill="white"/>
<path d="M156.45 364.832C154.187 364.883 151.951 365.381 149.844 366.302C149.844 366.302 149.844 366.427 149.844 366.414C152.076 365.829 154.229 365.592 156.438 365.168C156.467 365.154 156.492 365.131 156.51 365.102C156.527 365.073 156.537 365.039 156.539 365.004C156.54 364.969 156.532 364.934 156.516 364.904C156.501 364.873 156.477 364.848 156.45 364.832Z" fill="white"/>
<path d="M151.83 354.112C150.891 354.104 149.953 354.195 149.029 354.386C149.012 354.393 148.997 354.406 148.987 354.422C148.977 354.439 148.971 354.459 148.971 354.479C148.971 354.5 148.977 354.52 148.987 354.536C148.997 354.553 149.012 354.566 149.029 354.573C149.964 354.633 150.903 354.587 151.83 354.436C151.868 354.436 151.905 354.419 151.932 354.388C151.96 354.358 151.975 354.317 151.975 354.274C151.975 354.231 151.96 354.19 151.932 354.159C151.905 354.129 151.868 354.112 151.83 354.112Z" fill="white"/>
<path d="M74.3247 338.773C81.2977 341.412 87.9796 344.928 94.2421 349.251C100.74 353.862 106.375 359.837 110.834 366.845C120.217 381.43 127.401 397.63 132.102 414.804C134.724 424.313 136.341 434.131 136.922 444.06C136.91 444.124 136.878 444.181 136.833 444.223C136.787 444.264 136.73 444.287 136.671 444.287C136.612 444.287 136.555 444.264 136.51 444.223C136.464 444.181 136.432 444.124 136.42 444.06C134.451 426.845 130.075 410.082 123.454 394.382C116.949 378.993 108.748 362.621 96.2059 352.429C89.3771 346.884 81.7003 343.246 74.0457 339.408C73.644 339.259 73.923 338.623 74.3247 338.773Z" fill="#EBEBEB"/>
<path d="M127.103 403.826C122.256 398.901 116.938 394.584 111.247 390.955C102.388 385.46 95.1907 381.846 92.9926 377.049C90.7944 372.252 97.6344 366.022 97.6344 366.022C97.6344 366.022 88.5962 371.006 84.8471 367.33C81.0979 363.655 73.2202 338.236 73.2202 338.236C73.2202 338.236 94.0972 346.522 107.119 363.331C120.14 380.139 127.103 403.826 127.103 403.826Z" fill="#EBEBEB"/>
<path d="M109.774 380.428C107.722 380.268 105.661 380.552 103.704 381.263C103.704 381.263 103.704 381.375 103.704 381.363C105.7 380.98 107.717 380.747 109.741 380.665C109.886 380.665 109.919 380.441 109.774 380.428Z" fill="white"/>
<path d="M91.5643 353.763C90.628 353.677 89.6856 353.736 88.7636 353.937C88.6632 353.937 88.6966 354.136 88.7636 354.124C89.6897 354.012 90.5935 354.049 91.5085 354.024C91.5369 354.026 91.5648 354.016 91.5875 353.997C91.6102 353.977 91.6262 353.95 91.6328 353.919C91.6394 353.888 91.6361 353.856 91.6236 353.827C91.6111 353.799 91.5902 353.776 91.5643 353.763Z" fill="white"/>
<path d="M154.028 476.194H106.907L113.624 421.233L115.342 407.141H145.592L147.311 421.233L154.028 476.194Z" fill="#DBDBDB"/>
<path d="M147.311 421.233H113.624L115.343 407.141H145.593L147.311 421.233Z" fill="#C7C7C7"/>
<path d="M149.91 402.26H111.013V414.196H149.91V402.26Z" fill="#DBDBDB"/>
<path d="M76.9475 476.197L161.761 475.898L246.575 475.786L416.202 475.574L585.829 475.786L670.642 475.898L755.456 476.197L670.642 476.509L585.829 476.608L416.202 476.82L246.575 476.608L161.761 476.496L76.9475 476.197Z" fill="#263238"/>
<path d="M418.433 569.064C595.136 569.064 738.383 551.537 738.383 529.915C738.383 508.293 595.136 490.766 418.433 490.766C241.729 490.766 98.4822 508.293 98.4822 529.915C98.4822 551.537 241.729 569.064 418.433 569.064Z" fill="#EBEBEB"/>
<path d="M620.072 404.7L619.838 403.454C620.563 403.28 621.278 403.093 621.992 402.881L622.271 404.127C621.512 404.339 620.809 404.526 620.072 404.7Z" fill="#263238"/>
<path d="M626.589 402.692L626.232 401.521C627.627 400.985 629.021 400.4 630.372 399.764L630.807 400.911C629.434 401.559 628.017 402.157 626.589 402.692ZM634.902 398.718L634.4 397.621C635.705 396.861 637.011 396.039 638.249 395.129L638.83 396.188C637.558 397.173 636.23 398.007 634.902 398.718ZM642.579 393.447L641.92 392.438C643.125 391.453 644.286 390.419 645.379 389.36L646.116 390.295C644.944 391.429 643.828 392.488 642.568 393.497L642.579 393.447ZM649.385 386.818L648.571 385.959C649.597 384.713 650.568 383.467 651.461 382.221L652.342 382.981C651.416 384.351 650.423 385.635 649.407 386.868L649.385 386.818ZM654.908 378.844L653.96 378.184C654.731 376.792 655.417 375.343 656.013 373.848L657.04 374.358C656.409 375.917 655.693 377.432 654.897 378.894L654.908 378.844ZM658.602 369.599L657.486 369.25C657.894 367.687 658.196 366.091 658.39 364.478L659.506 364.64C659.321 366.334 659.015 368.009 658.591 369.649L658.602 369.599ZM659.84 359.631H658.725V359.269C658.725 357.762 658.646 356.229 658.513 354.721L659.628 354.597C659.775 356.149 659.85 357.709 659.852 359.269L659.84 359.631ZM657.832 349.874C657.532 348.268 657.159 346.679 656.716 345.115L657.832 344.741C658.289 346.361 658.68 348.005 658.948 349.613L657.832 349.874ZM655.187 340.492C654.652 339.022 654.072 337.514 653.357 335.994L654.362 335.433C655.042 336.978 655.667 338.523 656.214 340.019L655.187 340.492ZM651.282 331.608C650.59 330.25 649.832 328.817 649.05 327.347L649.999 326.686C650.813 328.169 651.583 329.615 652.231 330.998L651.282 331.608ZM646.618 323.148C645.803 321.777 644.978 320.394 644.13 319.011L645.056 318.313C645.904 319.696 646.73 321.079 647.544 322.475L646.618 323.148ZM641.597 314.899C640.76 313.529 639.912 312.146 639.086 310.775L640.012 310.077C640.838 311.448 641.675 312.831 642.512 314.189L641.597 314.899ZM636.609 306.601C635.795 305.205 635.002 303.785 634.221 302.365L635.17 301.717C635.951 303.137 636.743 304.533 637.546 305.928L636.609 306.601ZM631.956 298.041C631.197 296.533 630.494 295.038 629.858 293.605L630.863 293.044C631.487 294.465 632.19 295.935 632.927 297.43L631.956 298.041ZM627.995 289.07C627.404 287.512 626.879 285.93 626.388 284.385L627.504 283.986C627.973 285.494 628.497 287.051 629.077 288.584L627.995 289.07ZM625.094 279.563C624.726 277.943 624.402 276.286 624.156 274.579L625.272 274.379C625.518 275.974 625.819 277.594 626.187 279.189L625.094 279.563ZM623.599 269.595C623.487 268.062 623.431 266.517 623.431 264.972V264.561H624.547V264.96C624.547 266.467 624.547 267.987 624.714 269.483L623.599 269.595ZM624.714 259.627L623.599 259.502C623.599 259.166 623.654 258.817 623.688 258.455C623.822 257.122 623.989 255.789 624.19 254.518L625.306 254.73C625.116 255.976 624.949 257.284 624.815 258.593C624.859 258.979 624.859 259.315 624.77 259.664L624.714 259.627ZM626.265 249.933L625.15 249.596C625.562 247.952 626.042 246.344 626.578 244.812L627.615 245.26C627.108 246.803 626.676 248.375 626.321 249.97L626.265 249.933ZM681.867 242.669C681.242 242.669 680.595 242.569 679.959 242.469C679.088 242.332 678.218 242.17 677.359 241.983L677.582 240.737C678.408 240.912 679.267 241.074 680.115 241.211C680.717 241.298 681.331 241.36 681.923 241.398L681.867 242.669ZM686.453 242.282L686.218 241.036C687.619 240.714 688.961 240.132 690.191 239.317L690.771 240.376C689.457 241.284 688.016 241.941 686.509 242.32L686.453 242.282ZM629.479 240.8L628.486 240.214C629.196 238.728 629.982 237.289 630.84 235.903L631.755 236.613C630.94 237.97 630.198 239.381 629.535 240.837L629.479 240.8ZM672.996 240.725C671.556 240.215 670.14 239.62 668.756 238.943L669.213 237.797C670.555 238.462 671.929 239.041 673.331 239.529L672.996 240.725ZM694.197 236.837L693.27 236.14C694.065 234.853 694.535 233.351 694.632 231.791L695.748 231.878C695.653 233.666 695.129 235.392 694.23 236.875L694.197 236.837ZM664.739 236.65C663.433 235.803 662.17 234.875 660.956 233.872L661.615 232.875C662.796 233.848 664.025 234.747 665.297 235.566L664.739 236.65ZM634.5 232.763L633.674 231.928C634.685 230.673 635.761 229.488 636.899 228.377L637.636 229.312C636.541 230.405 635.505 231.57 634.534 232.8L634.5 232.763ZM657.475 230.657C656.364 229.514 655.31 228.304 654.317 227.031L655.154 226.209C656.12 227.445 657.144 228.622 658.223 229.735L657.475 230.657ZM693.795 227.281C693.156 225.857 692.272 224.587 691.195 223.543L691.931 222.608C693.117 223.753 694.091 225.146 694.799 226.707L693.795 227.281ZM641.106 226.296L640.47 225.275C641.718 224.323 643.011 223.445 644.342 222.645L644.866 223.742C643.584 224.533 642.34 225.398 641.139 226.334L641.106 226.296ZM651.528 223.057C651.104 222.384 650.691 221.698 650.3 220.988L648.85 221.624L648.426 220.477L649.709 219.904C649.508 219.53 649.307 219.157 649.117 218.783L650.088 218.172C650.311 218.608 650.534 219.045 650.769 219.418C651.394 219.169 652.03 218.932 652.677 218.708L653 219.954C652.454 220.141 651.885 220.34 651.371 220.552C651.717 221.163 652.074 221.798 652.487 222.334L651.528 223.057ZM687.602 220.914C686.522 220.313 685.403 219.804 684.255 219.393L683.518 219.132L683.842 217.886L684.6 218.16C685.796 218.585 686.96 219.114 688.082 219.742L687.602 220.914ZM657.274 218.683L657.04 217.437C658.479 217.076 659.974 216.777 661.503 216.54L661.67 217.786C660.197 218.048 658.736 218.359 657.308 218.721L657.274 218.683ZM679.256 218.01C677.861 217.736 676.388 217.524 674.882 217.375L674.971 216.129C676.522 216.278 678.028 216.49 679.434 216.777L679.256 218.01ZM666.033 217.288L665.955 216.042C667.283 215.954 668.611 215.905 669.927 215.905H670.474V217.151H669.939C668.678 217.188 667.361 217.225 666.067 217.325L666.033 217.288ZM647.176 214.31C646.573 212.79 646.06 211.207 645.558 209.6L646.674 209.214C647.142 210.784 647.667 212.329 648.247 213.811L647.176 214.31ZM644.353 204.74C644.018 203.133 643.739 201.463 643.527 199.756L644.643 199.582C644.855 201.227 645.123 202.859 645.446 204.441L644.353 204.74ZM643.103 194.772C643.047 193.651 643.014 192.505 643.014 191.358C643.014 190.823 643.014 190.274 643.014 189.739H644.13C644.13 190.274 644.13 190.798 644.13 191.333C644.13 192.455 644.13 193.589 644.208 194.673L643.103 194.772ZM644.431 184.804L643.315 184.68C643.471 183.035 643.683 181.353 643.94 179.696L645.056 179.908C644.754 181.565 644.543 183.16 644.397 184.829L644.431 184.804ZM645.96 175.073L644.844 174.774C645.201 173.167 645.614 171.547 646.071 169.927L647.187 170.313C646.685 171.946 646.272 173.528 645.926 175.098L645.96 175.073ZM648.638 165.641L647.6 165.192C648.147 163.635 648.716 162.077 649.396 160.57L650.401 161.118C649.731 162.613 649.14 164.133 648.604 165.716L648.638 165.641ZM652.476 156.757L651.505 156.122C652.264 154.689 653.079 153.256 653.927 151.885L654.842 152.595C653.971 153.966 653.179 155.361 652.442 156.782L652.476 156.757ZM657.508 148.646L656.638 147.861C657.575 146.615 658.58 145.294 659.617 144.123L660.421 144.982C659.372 146.154 658.39 147.4 657.475 148.67L657.508 148.646ZM663.578 141.469L662.831 140.547C663.947 139.438 665.062 138.341 666.256 137.282L666.948 138.266C665.754 139.325 664.616 140.409 663.545 141.493L663.578 141.469ZM670.508 135.313L669.872 134.279C671.088 133.345 672.36 132.423 673.654 131.55L674.223 132.609C672.929 133.494 671.724 134.404 670.474 135.338L670.508 135.313ZM678.084 130.167L677.56 129.071C678.876 128.286 680.238 127.538 681.599 126.841L682.068 127.974C680.651 128.685 679.345 129.432 678.051 130.192L678.084 130.167ZM686.151 126.031L685.739 124.859C687.145 124.249 688.562 123.613 689.968 123.152L690.325 124.398C688.908 124.872 687.502 125.445 686.118 126.056L686.151 126.031Z" fill="#263238"/>
<path d="M694.754 122.88L694.475 121.634C695.859 121.235 696.707 121.061 696.707 121.061L696.908 122.307C696.908 122.307 696.104 122.493 694.754 122.88Z" fill="#263238"/>
<path d="M350.714 118.767C350.179 124.49 348.231 129.935 345.087 134.493C341.942 139.052 337.725 142.545 332.906 144.583C328.087 146.621 322.856 147.123 317.796 146.035C312.736 144.946 308.047 142.308 304.251 138.416L290.337 140.697L297.3 127.265C295.707 122.894 295.028 118.176 295.313 113.468C295.598 108.761 296.841 104.188 298.945 100.097C301.05 96.0053 303.962 92.5035 307.461 89.8572C310.959 87.2109 314.951 85.4896 319.134 84.8241C323.317 84.1586 327.581 84.5664 331.602 86.0165C335.623 87.4666 339.295 89.921 342.339 93.193C345.383 96.4651 347.72 100.469 349.171 104.9C350.622 109.332 351.15 114.074 350.714 118.767Z" fill="#EBEBEB"/>
<path d="M350.714 118.767C350.19 124.487 348.259 129.934 345.135 134.504C343.608 136.815 341.767 138.846 339.678 140.522C337.635 142.261 335.381 143.667 332.983 144.696C330.584 145.751 328.064 146.422 325.496 146.69C324.213 146.818 322.923 146.848 321.636 146.777C320.344 146.74 319.057 146.59 317.786 146.328C312.658 145.275 307.894 142.647 304.028 138.74L304.351 138.852L290.459 141.232L289.444 141.407L289.957 140.41L296.875 126.953V127.489C295.243 123.038 294.549 118.227 294.847 113.429C295.145 108.63 296.427 103.972 298.594 99.8153C300.758 95.6713 303.733 92.1274 307.297 89.4486C310.855 86.8053 314.903 85.0958 319.137 84.4485C323.371 83.8011 327.681 84.2326 331.745 85.7106C335.765 87.2379 339.429 89.7496 342.468 93.062C345.5 96.366 347.819 100.398 349.247 104.852C350.676 109.306 351.178 114.064 350.714 118.767ZM350.714 118.767C351.165 114.088 350.647 109.355 349.199 104.935C347.752 100.515 345.415 96.5248 342.367 93.2736C339.32 90.0224 335.644 87.5968 331.624 86.1839C327.604 84.771 323.346 84.4087 319.181 85.1249C315.057 85.8065 311.129 87.5373 307.699 90.1837C304.299 92.8509 301.458 96.3116 299.375 100.326C297.323 104.35 296.114 108.839 295.838 113.459C295.566 118.11 296.237 122.769 297.802 127.09L297.902 127.364L297.768 127.626L290.761 141.033L290.27 140.211L304.195 138.03H304.385L304.519 138.167C308.241 142.036 312.854 144.672 317.842 145.78C319.085 146.063 320.346 146.234 321.613 146.291C322.88 146.391 324.151 146.391 325.418 146.291C327.959 146.063 330.459 145.446 332.85 144.459C335.245 143.485 337.501 142.125 339.544 140.422C341.624 138.76 343.468 136.756 345.012 134.479C348.177 129.931 350.151 124.492 350.714 118.767Z" fill="#EBEBEB"/>
<path d="M309.462 130.02C309.441 129.608 309.495 129.195 309.623 128.807C309.75 128.419 309.948 128.064 310.203 127.765C310.458 127.466 310.766 127.229 311.107 127.068C311.448 126.907 311.815 126.826 312.185 126.83C312.942 126.83 313.669 127.166 314.204 127.765C314.74 128.363 315.041 129.174 315.041 130.02C315.041 130.866 314.74 131.677 314.204 132.276C313.669 132.874 312.942 133.21 312.185 133.21C311.815 133.214 311.448 133.133 311.107 132.972C310.766 132.811 310.458 132.574 310.203 132.275C309.948 131.976 309.75 131.621 309.623 131.233C309.495 130.846 309.441 130.433 309.462 130.02ZM310.578 122.656L309.931 97.9355H314.394L313.747 122.656H310.578Z" fill="#DBDBDB"/>
<path d="M320.073 130.02C320.052 129.609 320.106 129.197 320.233 128.81C320.36 128.422 320.557 128.069 320.811 127.77C321.065 127.471 321.371 127.233 321.711 127.072C322.05 126.91 322.416 126.828 322.785 126.83C323.542 126.83 324.269 127.166 324.805 127.765C325.34 128.363 325.641 129.174 325.641 130.02C325.641 130.866 325.34 131.677 324.805 132.276C324.269 132.874 323.542 133.21 322.785 133.21C322.416 133.212 322.05 133.13 321.711 132.969C321.371 132.807 321.065 132.569 320.811 132.27C320.557 131.972 320.36 131.618 320.233 131.231C320.106 130.843 320.052 130.432 320.073 130.02ZM321.189 122.656L320.575 97.9355H325.039L324.392 122.656H321.189Z" fill="#DBDBDB"/>
<path d="M330.674 130.02C330.653 129.608 330.707 129.195 330.835 128.807C330.962 128.419 331.16 128.064 331.415 127.765C331.67 127.466 331.978 127.229 332.319 127.068C332.66 126.907 333.027 126.826 333.397 126.83C334.154 126.83 334.881 127.166 335.416 127.765C335.952 128.363 336.253 129.174 336.253 130.02C336.253 130.866 335.952 131.677 335.416 132.276C334.881 132.874 334.154 133.21 333.397 133.21C333.027 133.214 332.66 133.133 332.319 132.972C331.978 132.811 331.67 132.574 331.415 132.275C331.16 131.976 330.962 131.621 330.835 131.233C330.707 130.846 330.653 130.433 330.674 130.02ZM331.79 122.656L331.143 97.9355H335.606L334.97 122.656H331.79Z" fill="#DBDBDB"/>
<ellipse cx="366.128" cy="400.5" rx="5.81157" ry="6.01351" fill="white"/>
<ellipse cx="366.128" cy="400.5" rx="5.81157" ry="6.01351" fill="white"/>
<ellipse cx="366.128" cy="400.5" rx="5.81157" ry="6.01351" fill="white"/>
<ellipse cx="366.128" cy="400.5" rx="5.81157" ry="6.01351" fill="white"/>
<ellipse cx="477.71" cy="400.5" rx="5.81157" ry="6.01351" fill="white"/>
<ellipse cx="477.71" cy="400.5" rx="5.81157" ry="6.01351" fill="white"/>
<ellipse cx="477.71" cy="400.5" rx="5.81157" ry="6.01351" fill="white"/>
<ellipse cx="477.71" cy="400.5" rx="5.81157" ry="6.01351" fill="white"/>
<rect x="523.041" y="259.783" width="44.1679" height="9.62162" rx="4.81081" fill="white" fill-opacity="0.63"/>
<rect width="42.0296" height="8.38157" rx="4.19078" transform="matrix(0.193191 0.981161 -0.978491 0.206288 569.423 278.885)" fill="white" fill-opacity="0.63"/>
<path d="M406.529 500.327C531.738 500.327 633.241 494.625 633.241 487.591C633.241 480.558 531.738 474.855 406.529 474.855C281.319 474.855 179.816 480.558 179.816 487.591C179.816 494.625 281.319 500.327 406.529 500.327Z" fill="#3E3127"/>
<path d="M563.92 465.725H251.969C250.01 465.717 248.134 464.906 246.752 463.469C245.369 462.033 244.593 460.089 244.593 458.061V252.613C244.593 248.379 247.908 240.119 252 240.119H563.92C567.997 240.119 571.312 248.379 571.312 252.613V458.061C571.312 460.091 570.533 462.038 569.148 463.475C567.762 464.912 565.882 465.721 563.92 465.725Z" fill="#637582"/>
<path d="M571.358 245.045V252.5C571.358 248.265 572.712 244.836 568.635 244.836H248.841C244.764 244.771 244.593 248.265 244.593 252.5V245.045C244.593 243.015 245.371 241.068 246.757 239.631C248.143 238.195 250.023 237.385 251.984 237.381H563.92C564.896 237.377 565.862 237.572 566.764 237.955C567.667 238.338 568.487 238.902 569.178 239.614C569.869 240.326 570.417 241.173 570.791 242.105C571.166 243.037 571.358 244.036 571.358 245.045Z" fill="#9FB1BC"/>
<path d="M257.882 460.525V255.432H557.992V460.332" fill="#EAE7FF"/>
<path d="M558.272 452.236H258.162V459.723H558.272V452.236Z" fill="#D2CBFF"/>
<path d="M558.272 257.395H258.162V264.881H558.272V257.395Z" fill="white"/>
<path d="M574.471 461.861H568.247V246.382C568.247 245.208 567.796 244.081 566.993 243.251C566.191 242.421 565.102 241.954 563.968 241.954H251.969C250.838 241.963 249.756 242.432 248.958 243.261C248.16 244.09 247.71 245.212 247.706 246.382V460.524H241.482V246.382C241.486 243.498 242.596 240.734 244.568 238.696C246.54 236.658 249.213 235.514 252 235.514H563.921C565.304 235.509 566.673 235.787 567.952 236.331C569.231 236.876 570.394 237.675 571.373 238.685C572.353 239.694 573.131 240.893 573.663 242.214C574.194 243.535 574.469 244.951 574.471 246.382V461.861Z" fill="#3E3127"/>
<path d="M604.673 461.861H211.217C204.84 461.861 199.671 467.21 199.671 473.808C199.671 480.406 204.84 485.755 211.217 485.755H604.673C611.049 485.755 616.219 480.406 616.219 473.808C616.219 467.21 611.049 461.861 604.673 461.861Z" fill="#637582"/>
<path d="M616.219 475.386C616.221 476.955 615.923 478.51 615.344 479.96C614.764 481.41 613.914 482.728 612.842 483.838C611.769 484.948 610.495 485.828 609.094 486.427C607.692 487.027 606.19 487.335 604.673 487.332H211.217C208.155 487.332 205.218 486.074 203.053 483.833C200.888 481.593 199.671 478.554 199.671 475.386C199.665 473.286 200.202 471.224 201.227 469.412C202.236 471.23 203.691 472.74 205.446 473.789C207.2 474.838 209.191 475.389 211.217 475.386H604.673C606.19 475.387 607.692 475.079 609.093 474.48C610.495 473.88 611.769 473.001 612.842 471.892C613.553 471.153 614.165 470.319 614.663 469.412C615.688 471.224 616.225 473.286 616.219 475.386Z" fill="#455760"/>
<path d="M604.673 490.02H211.217C207.329 490.02 203.601 488.422 200.852 485.577C198.103 482.733 196.559 478.875 196.559 474.853C196.559 470.83 198.103 466.972 200.852 464.128C203.601 461.284 207.329 459.686 211.217 459.686H604.673C608.56 459.686 612.288 461.284 615.037 464.128C617.786 466.972 619.33 470.83 619.33 474.853C619.33 478.875 617.786 482.733 615.037 485.577C612.288 488.422 608.56 490.02 604.673 490.02ZM211.217 466.126C208.98 466.126 206.835 467.045 205.253 468.682C203.671 470.318 202.783 472.538 202.783 474.853C202.783 477.167 203.671 479.387 205.253 481.023C206.835 482.66 208.98 483.579 211.217 483.579H604.673C606.909 483.579 609.055 482.66 610.636 481.023C612.218 479.387 613.106 477.167 613.106 474.853C613.106 472.538 612.218 470.318 610.636 468.682C609.055 467.045 606.909 466.126 604.673 466.126H211.217Z" fill="#3E3127"/>
<path d="M377.104 384.949C362.618 386.559 348.038 387.799 333.676 389.505L260.154 398.248V386.285L325.787 378.412C342.358 376.448 359.21 375.111 375.906 373.066C375.999 377.054 376.399 381.027 377.104 384.949Z" fill="#D2CBFF"/>
<path d="M512.463 398.827C506.719 413.832 496.419 426.5 483.114 434.923C469.81 443.346 454.221 447.069 438.694 445.531C423.168 443.992 408.545 437.276 397.027 426.393C385.509 415.51 377.72 401.05 374.832 385.189C374.131 381.289 373.73 377.337 373.634 373.371C373.634 372.711 373.634 372.051 373.634 371.391C373.634 369.33 373.712 367.269 373.868 365.256C373.868 365.256 373.868 365.111 373.868 365.047C374.652 374.954 377.367 384.593 381.85 393.385C387.736 404.918 396.441 414.654 407.097 421.622C417.752 428.589 429.987 432.546 442.581 433.096C455.174 433.647 467.688 430.773 478.873 424.76C490.059 418.747 499.527 409.805 506.332 398.827L518.033 381.502L512.463 398.827Z" fill="#D2CBFF"/>
<path d="M260.216 461.636H255.548V254.111H560.342V461.427H555.674V258.942H260.216V461.636Z" fill="#3E3127"/>
<path d="M230.589 257.121C225.471 254.067 221.391 249.449 218.909 243.901C216.427 238.353 215.665 232.146 216.726 226.132C217.788 220.117 220.622 214.59 224.84 210.309C229.057 206.027 234.452 203.2 240.283 202.216C240.874 202.12 241.45 202.039 242.042 201.991C245.685 201.625 249.362 202.06 252.832 203.267C256.302 204.474 259.486 206.426 262.176 208.995C265.052 211.685 267.351 214.969 268.924 218.636C270.498 222.302 271.31 226.269 271.31 230.28V231.504H268.198V230.28C268.207 226.723 267.496 223.203 266.111 219.948C264.725 216.692 262.696 213.773 260.154 211.378C257.781 209.113 254.974 207.391 251.914 206.325C248.855 205.26 245.613 204.875 242.399 205.195C241.886 205.195 241.357 205.308 240.843 205.404C235.643 206.274 230.831 208.787 227.066 212.598C223.301 216.41 220.768 221.335 219.815 226.695C218.862 232.056 219.536 237.59 221.743 242.539C223.951 247.488 227.584 251.608 232.145 254.335L230.589 257.121Z" fill="#3E3127"/>
<path d="M280.382 211.894C278.293 211.894 276.25 211.253 274.512 210.052C272.775 208.851 271.421 207.143 270.621 205.146C269.821 203.148 269.612 200.95 270.02 198.829C270.428 196.708 271.434 194.76 272.911 193.231C274.389 191.702 276.272 190.661 278.321 190.239C280.371 189.818 282.495 190.034 284.425 190.861C286.356 191.689 288.006 193.09 289.167 194.888C290.328 196.686 290.948 198.8 290.948 200.962C290.944 203.86 289.829 206.638 287.849 208.688C285.868 210.737 283.183 211.89 280.382 211.894ZM280.382 193.249C278.908 193.249 277.467 193.702 276.241 194.549C275.016 195.397 274.06 196.601 273.496 198.01C272.932 199.42 272.785 200.97 273.072 202.466C273.36 203.962 274.07 205.337 275.112 206.415C276.154 207.494 277.482 208.228 278.928 208.526C280.374 208.824 281.873 208.671 283.235 208.087C284.596 207.503 285.761 206.515 286.58 205.247C287.399 203.978 287.836 202.487 287.836 200.962C287.832 198.918 287.045 196.959 285.648 195.513C284.251 194.068 282.358 193.254 280.382 193.249Z" fill="#3E3127"/>
<path d="M563.423 224.373C563.01 224.373 562.614 224.203 562.322 223.901C562.031 223.599 561.867 223.19 561.867 222.763V198.966C561.867 198.539 562.031 198.129 562.322 197.827C562.614 197.525 563.01 197.355 563.423 197.355C563.835 197.355 564.231 197.525 564.523 197.827C564.815 198.129 564.979 198.539 564.979 198.966V222.763C564.979 223.19 564.815 223.599 564.523 223.901C564.231 224.203 563.835 224.373 563.423 224.373Z" fill="#3E3127"/>
<path d="M610.679 259.568H588.256C587.844 259.568 587.448 259.398 587.156 259.096C586.864 258.794 586.7 258.385 586.7 257.958C586.7 257.531 586.864 257.121 587.156 256.819C587.448 256.517 587.844 256.348 588.256 256.348H610.679C611.091 256.348 611.487 256.517 611.779 256.819C612.071 257.121 612.235 257.531 612.235 257.958C612.235 258.385 612.071 258.794 611.779 259.096C611.487 259.398 611.091 259.568 610.679 259.568Z" fill="#3E3127"/>
<path d="M602.883 214.742C602.667 214.743 602.454 214.698 602.255 214.609C602.057 214.521 601.879 214.39 601.732 214.226C601.592 214.071 601.483 213.887 601.412 213.688C601.341 213.488 601.309 213.276 601.318 213.063C601.326 212.851 601.376 212.642 601.463 212.449C601.55 212.256 601.673 212.083 601.825 211.94L610.477 203.664C610.623 203.503 610.799 203.375 610.995 203.287C611.19 203.199 611.401 203.154 611.615 203.154C611.828 203.155 612.039 203.2 612.235 203.288C612.43 203.377 612.606 203.505 612.752 203.667C612.897 203.828 613.009 204.019 613.08 204.227C613.151 204.435 613.18 204.656 613.165 204.877C613.15 205.097 613.092 205.311 612.993 205.507C612.895 205.703 612.759 205.876 612.593 206.015L603.942 214.307C603.655 214.585 603.277 214.74 602.883 214.742Z" fill="#3E3127"/>
<path d="M582.608 234.16C582.395 234.159 582.184 234.113 581.989 234.024C581.793 233.936 581.618 233.806 581.473 233.644C581.332 233.489 581.222 233.307 581.149 233.108C581.077 232.909 581.044 232.697 581.051 232.484C581.058 232.272 581.106 232.063 581.192 231.869C581.277 231.676 581.399 231.502 581.55 231.358L593.765 219.653C593.916 219.508 594.093 219.395 594.286 219.322C594.479 219.248 594.684 219.215 594.889 219.224C595.095 219.233 595.297 219.284 595.483 219.374C595.669 219.464 595.836 219.592 595.975 219.749C596.252 220.064 596.399 220.479 596.381 220.904C596.364 221.33 596.184 221.731 595.881 222.019L583.667 233.725C583.38 234.003 583.002 234.158 582.608 234.16Z" fill="#3E3127"/>
<path d="M574.875 226.45C574.591 226.453 574.311 226.375 574.066 226.225C573.891 226.114 573.738 225.969 573.618 225.797C573.497 225.625 573.41 225.431 573.362 225.224C573.315 225.018 573.307 224.803 573.34 224.594C573.372 224.384 573.445 224.183 573.553 224.003L578.843 215.018C578.95 214.837 579.09 214.679 579.256 214.554C579.422 214.429 579.61 214.34 579.81 214.29C580.009 214.241 580.217 214.233 580.419 214.267C580.622 214.3 580.816 214.375 580.99 214.487C581.34 214.71 581.59 215.067 581.686 215.48C581.783 215.894 581.717 216.329 581.504 216.693L576.198 225.693C576.058 225.925 575.863 226.116 575.631 226.249C575.4 226.381 575.14 226.45 574.875 226.45Z" fill="#3E3127"/>
<path d="M594.823 246.525H588.256C587.844 246.525 587.448 246.355 587.156 246.053C586.864 245.751 586.7 245.342 586.7 244.915C586.7 244.488 586.864 244.078 587.156 243.776C587.448 243.474 587.844 243.305 588.256 243.305H594.823C595.236 243.305 595.631 243.474 595.923 243.776C596.215 244.078 596.379 244.488 596.379 244.915C596.379 245.342 596.215 245.751 595.923 246.053C595.631 246.355 595.236 246.525 594.823 246.525Z" fill="#3E3127"/>
<path d="M373.603 371.484C355.802 373.754 337.815 375.139 320.045 377.248L197.99 391.739C181.699 393.671 164.909 398.389 148.509 394.75C132.108 391.111 121.667 375.187 121.667 358.233V359.537C121.667 342.551 132.186 326.643 148.509 323.02C164.832 319.398 181.699 324.099 197.99 326.031L320.045 340.522C337.752 342.631 355.833 344 373.619 346.286" fill="#ECEBEB"/>
<path d="M370.538 350.506V356.657C352.721 354.387 334.672 353.002 316.964 350.893L194.91 336.402C178.618 334.47 161.828 329.752 145.428 333.327C130.303 336.74 120.111 350.635 118.773 366.173C118.646 365.153 118.573 364.126 118.555 363.097C118.804 346.352 129.261 330.799 145.381 327.224C161.782 323.586 178.571 328.303 194.863 330.235L316.917 344.726C334.672 346.852 352.721 348.22 370.538 350.506Z" fill="white"/>
<path d="M377.104 364.128V372.178C359.288 374.464 341.316 375.849 323.53 377.942L201.491 392.433C185.2 394.51 168.348 399.147 151.994 395.508C135.905 391.934 125.433 376.38 125.168 359.652C125.201 356.97 125.504 354.299 126.071 351.682C128.95 365.174 138.519 376.606 151.994 379.585C168.41 383.223 185.2 386.331 201.491 384.415L323.53 369.924C341.238 367.799 359.288 366.414 377.104 364.128Z" fill="#C4C4C4"/>
<path d="M512.463 382.774C506.408 398.752 495.212 412.08 480.763 420.508C466.314 428.936 449.499 431.948 433.153 429.037C416.807 426.125 401.932 417.468 391.039 404.526C380.145 391.585 373.9 375.15 373.356 357.997C372.813 340.844 378.004 324.022 388.055 310.369C398.106 296.717 412.401 287.07 428.527 283.057C444.654 279.044 461.624 280.91 476.575 288.341C491.526 295.772 503.542 308.311 510.596 323.845H453.023V382.774H512.463Z" fill="#ECEBEB"/>
<path d="M511.84 327.338H507.172C498.97 314.143 486.944 303.97 472.815 298.276C458.687 292.582 443.18 291.659 428.513 295.638C413.846 299.617 400.772 308.294 391.161 320.429C381.549 332.563 375.894 347.533 375.004 363.195C375.004 361.746 374.879 360.297 374.879 358.832C374.905 341.931 380.493 325.544 390.722 312.369C400.952 299.194 415.213 290.017 431.157 286.35C447.101 282.683 463.776 284.744 478.436 292.195C493.097 299.645 504.867 312.04 511.809 327.338H511.84Z" fill="white"/>
<path d="M512.463 384.707C506.291 400.803 494.892 414.17 480.225 422.509C465.558 430.848 448.541 433.637 432.102 430.396C415.663 427.156 400.829 418.088 390.152 404.754C379.476 391.42 373.624 374.652 373.603 357.336C373.601 354.646 373.747 351.958 374.039 349.285C374.981 358.561 377.621 367.566 381.819 375.819C387.544 387.014 395.928 396.516 406.181 403.433C416.435 410.349 428.221 414.451 440.43 415.353C452.638 416.255 464.868 413.927 475.967 408.588C487.066 403.249 496.67 395.075 503.874 384.836L512.463 384.707Z" fill="#C4C4C4"/>
<path d="M439.47 328.998H404.724V340.414H439.47V328.998Z" fill="white"/>
<path d="M439.47 348.994H404.724V360.41H439.47V348.994Z" fill="white"/>
<path d="M439.47 368.99H404.724V380.406H439.47V368.99Z" fill="white"/>
<path d="M161.579 401.45C156.97 401.487 152.369 401.018 147.855 400.05C131.268 396.379 119.116 380.358 118.555 361.697V360.377C119.116 341.716 131.268 325.695 147.855 322.057C160.786 319.191 173.794 321.268 186.367 323.264C190.319 323.892 194.396 324.552 198.348 325.019L320.403 339.51C328.37 340.46 336.57 341.281 344.506 342.07C354.184 343.036 364.189 344.034 374.07 345.29L373.308 351.731C363.582 350.475 353.608 349.493 343.977 348.51C336.01 347.722 327.778 346.9 319.749 345.95L197.695 331.46C193.634 330.977 189.495 330.316 185.48 329.688C173.467 327.772 161.035 325.776 149.225 328.4C135.22 331.411 125.06 345.113 124.78 361.037C125.06 376.961 135.22 390.663 149.162 393.754C160.973 396.379 173.405 394.382 185.433 392.466C189.432 391.822 193.571 391.162 197.633 390.679C238.317 385.859 279.002 381.029 319.687 376.188C327.716 375.238 335.932 374.417 343.883 373.628C353.531 372.662 363.505 371.68 373.23 370.408L373.992 376.848C364.174 378.104 354.169 379.102 344.428 380.068C336.508 380.857 328.323 381.678 320.356 382.628L198.302 397.119C194.365 397.586 190.273 398.23 186.336 398.858C178.16 400.375 169.883 401.242 161.579 401.45Z" fill="#3E3127"/>
<path d="M445.476 435.603C432.039 435.602 418.848 431.866 407.284 424.784C395.72 417.701 386.208 407.534 379.743 395.345C373.277 383.156 370.096 369.393 370.532 355.495C370.968 341.598 375.005 328.078 382.221 316.348C389.436 304.618 399.566 295.11 411.549 288.819C423.532 282.528 436.929 279.684 450.338 280.585C463.748 281.486 476.676 286.1 487.772 293.943C498.868 301.785 507.724 312.569 513.412 325.166L515.497 329.739H456.073V382.228H517.022L515.342 386.624C509.868 401.154 500.255 413.62 487.777 422.367C475.3 431.115 460.547 435.731 445.476 435.603ZM445.476 286.878C433.185 286.912 421.128 290.354 410.559 296.846C399.99 303.338 391.296 312.643 385.382 323.792C379.468 334.941 376.55 347.526 376.931 360.238C377.313 372.95 380.981 385.323 387.552 396.07C394.124 406.818 403.359 415.546 414.297 421.347C425.235 427.147 437.476 429.808 449.745 429.052C462.014 428.297 473.863 424.152 484.059 417.049C494.255 409.947 502.424 400.147 507.717 388.669H449.848V323.299H505.507C499.51 312.275 490.793 303.095 480.247 296.697C469.7 290.298 457.702 286.91 445.476 286.878Z" fill="#3E3127"/>
<path d="M441.026 344.068H403.168V329.416H441.026V344.068ZM406.28 340.848H437.914V332.636H406.28V340.848Z" fill="#3E3127"/>
<path d="M441.026 364.049H403.168V349.43H441.026V364.049ZM406.28 360.829H437.914V352.65H406.28V360.829Z" fill="#3E3127"/>
<path d="M441.026 384.048H403.168V369.412H441.026V384.048ZM406.28 380.828H437.914V372.632H406.28V380.828Z" fill="#3E3127"/>
<path d="M192.28 388.811C194.944 388.811 197.104 386.576 197.104 383.819C197.104 381.063 194.944 378.828 192.28 378.828C189.616 378.828 187.457 381.063 187.457 383.819C187.457 386.576 189.616 388.811 192.28 388.811Z" fill="#C4C4C4"/>
<path d="M432.966 422.188C436.687 422.188 439.703 419.066 439.703 415.216C439.703 411.365 436.687 408.244 432.966 408.244C429.245 408.244 426.228 411.365 426.228 415.216C426.228 419.066 429.245 422.188 432.966 422.188Z" fill="#C4C4C4"/>
<path d="M538.869 455.969C542.59 455.969 545.607 452.847 545.607 448.997C545.607 445.147 542.59 442.025 538.869 442.025C535.148 442.025 532.131 445.147 532.131 448.997C532.131 452.847 535.148 455.969 538.869 455.969Z" fill="#D2CBFF"/>
<path d="M282.436 264.641C282.436 266.49 281.726 268.263 280.463 269.57C279.199 270.878 277.486 271.612 275.699 271.612C273.912 271.612 272.198 270.878 270.935 269.57C269.671 268.263 268.961 266.49 268.961 264.641C268.961 260.873 271.98 260.873 275.714 260.873C279.449 260.873 282.436 260.873 282.436 264.641Z" fill="white"/>
<path d="M284.801 277.008C286.657 277.008 288.162 275.451 288.162 273.531C288.162 271.61 286.657 270.053 284.801 270.053C282.945 270.053 281.44 271.61 281.44 273.531C281.44 275.451 282.945 277.008 284.801 277.008Z" fill="#D2EEF9"/>
<path d="M268.758 275.138C269.687 275.138 270.439 274.359 270.439 273.399C270.439 272.439 269.687 271.66 268.758 271.66C267.83 271.66 267.078 272.439 267.078 273.399C267.078 274.359 267.83 275.138 268.758 275.138Z" fill="#D2EEF9"/>
<path d="M198.053 379.392C199.084 379.392 199.92 378.527 199.92 377.459C199.92 376.392 199.084 375.527 198.053 375.527C197.022 375.527 196.186 376.392 196.186 377.459C196.186 378.527 197.022 379.392 198.053 379.392Z" fill="#C4C4C4"/>
<path d="M441.477 408.567C442.508 408.567 443.344 407.702 443.344 406.635C443.344 405.568 442.508 404.703 441.477 404.703C440.446 404.703 439.61 405.568 439.61 406.635C439.61 407.702 440.446 408.567 441.477 408.567Z" fill="#C4C4C4"/>
<path d="M543.755 438.819C544.786 438.819 545.622 437.954 545.622 436.887C545.622 435.82 544.786 434.955 543.755 434.955C542.723 434.955 541.887 435.82 541.887 436.887C541.887 437.954 542.723 438.819 543.755 438.819Z" fill="#D2CBFF"/>
<path d="M425.154 408.485C426.839 408.485 428.204 407.073 428.204 405.33C428.204 403.587 426.839 402.174 425.154 402.174C423.47 402.174 422.104 403.587 422.104 405.33C422.104 407.073 423.47 408.485 425.154 408.485Z" fill="#C4C4C4"/>
<path d="M524.88 443.2C527.475 443.2 529.579 441.023 529.579 438.337C529.579 435.652 527.475 433.475 524.88 433.475C522.285 433.475 520.181 435.652 520.181 438.337C520.181 441.023 522.285 443.2 524.88 443.2Z" fill="#D2CBFF"/>
<path d="M216.585 346.08H216.429L199.733 344.051C199.529 344.027 199.331 343.961 199.151 343.858C198.971 343.754 198.813 343.615 198.685 343.449C198.557 343.282 198.462 343.091 198.406 342.886C198.349 342.681 198.332 342.467 198.356 342.256C198.379 342.044 198.443 341.84 198.543 341.654C198.643 341.468 198.777 341.304 198.938 341.172C199.099 341.039 199.284 340.941 199.482 340.883C199.68 340.824 199.887 340.807 200.091 340.831L216.787 342.844C216.991 342.855 217.192 342.908 217.376 343C217.56 343.092 217.726 343.22 217.862 343.378C217.999 343.535 218.104 343.719 218.172 343.919C218.24 344.119 218.269 344.331 218.257 344.542C218.246 344.754 218.195 344.961 218.106 345.152C218.018 345.343 217.894 345.513 217.741 345.655C217.589 345.796 217.411 345.905 217.218 345.975C217.025 346.045 216.82 346.075 216.616 346.064L216.585 346.08Z" fill="#3E3127"/>
<path d="M219.697 351.54H219.542L209.568 350.332C209.363 350.308 209.166 350.242 208.986 350.139C208.806 350.036 208.648 349.897 208.52 349.73C208.392 349.563 208.297 349.372 208.241 349.167C208.184 348.963 208.167 348.749 208.191 348.537C208.214 348.326 208.278 348.121 208.378 347.935C208.478 347.749 208.612 347.585 208.773 347.453C208.934 347.321 209.119 347.222 209.317 347.164C209.514 347.105 209.721 347.088 209.926 347.112L219.9 348.32C220.312 348.343 220.699 348.535 220.975 348.854C221.251 349.173 221.393 349.591 221.37 350.018C221.347 350.445 221.162 350.846 220.854 351.131C220.546 351.416 220.141 351.563 219.729 351.54H219.697Z" fill="#3E3127"/>
<path d="M577.769 473.729C577.668 473.732 577.567 473.713 577.473 473.674C577.378 473.635 577.292 473.578 577.22 473.504C577.147 473.431 577.09 473.343 577.051 473.246C577.011 473.149 576.991 473.045 576.991 472.94C576.989 472.833 577.008 472.727 577.046 472.627C577.084 472.528 577.141 472.437 577.213 472.361C577.286 472.284 577.372 472.224 577.468 472.182C577.563 472.141 577.666 472.119 577.769 472.119H594.574C594.676 472.117 594.776 472.136 594.871 472.175C594.965 472.213 595.051 472.271 595.123 472.345C595.196 472.418 595.253 472.506 595.293 472.603C595.332 472.699 595.352 472.803 595.352 472.908C595.352 473.121 595.273 473.325 595.131 473.478C594.989 473.631 594.795 473.721 594.59 473.729H577.769Z" fill="#3E3127"/>
<path d="M588.257 477.143C588.155 477.145 588.054 477.127 587.96 477.088C587.866 477.049 587.78 476.991 587.707 476.918C587.635 476.845 587.577 476.757 587.538 476.66C587.499 476.563 587.478 476.459 587.479 476.354C587.478 476.139 587.56 475.933 587.705 475.779C587.851 475.626 588.049 475.537 588.257 475.533H598.293C598.499 475.533 598.697 475.618 598.843 475.769C598.989 475.92 599.071 476.125 599.071 476.338C599.073 476.443 599.055 476.548 599.017 476.645C598.98 476.743 598.924 476.832 598.853 476.907C598.782 476.982 598.697 477.041 598.604 477.082C598.51 477.122 598.41 477.143 598.308 477.143H588.257Z" fill="#3E3127"/>
<path d="M214.733 473.729C214.632 473.731 214.531 473.713 214.436 473.674C214.342 473.635 214.256 473.577 214.184 473.504C214.111 473.43 214.054 473.343 214.014 473.246C213.975 473.149 213.955 473.045 213.955 472.94C213.953 472.833 213.972 472.727 214.01 472.627C214.048 472.528 214.105 472.437 214.177 472.361C214.25 472.284 214.336 472.223 214.432 472.182C214.527 472.14 214.63 472.119 214.733 472.119H231.538C231.741 472.123 231.934 472.207 232.079 472.354C232.223 472.5 232.308 472.699 232.316 472.908C232.312 473.122 232.23 473.326 232.085 473.479C231.94 473.631 231.745 473.721 231.538 473.729H214.717H214.733Z" fill="#3E3127"/>
<path d="M225.221 477.143C225.017 477.143 224.822 477.061 224.676 476.913C224.531 476.766 224.447 476.565 224.443 476.354C224.443 476.139 224.524 475.933 224.67 475.779C224.815 475.626 225.013 475.537 225.221 475.533H235.257C235.464 475.533 235.661 475.618 235.807 475.769C235.953 475.92 236.035 476.125 236.035 476.338C236.035 476.552 235.953 476.757 235.807 476.907C235.661 477.058 235.464 477.143 235.257 477.143H225.205H225.221Z" fill="#3E3127"/>
<path d="M516.244 296.293C515.851 296.292 515.473 296.136 515.186 295.858C514.886 295.567 514.709 295.165 514.694 294.74C514.68 294.314 514.829 293.9 515.108 293.588L532.645 273.961C532.778 273.79 532.944 273.648 533.133 273.546C533.321 273.444 533.528 273.382 533.74 273.366C533.952 273.349 534.165 273.378 534.366 273.45C534.567 273.523 534.752 273.637 534.909 273.786C535.065 273.934 535.191 274.115 535.278 274.316C535.364 274.517 535.41 274.735 535.412 274.955C535.414 275.175 535.373 275.393 535.29 275.596C535.208 275.799 535.086 275.982 534.932 276.135L517.396 295.778C517.249 295.942 517.071 296.072 516.872 296.161C516.674 296.249 516.46 296.295 516.244 296.293Z" fill="#3E3127"/>
<path d="M534.014 287.651C533.71 287.653 533.412 287.563 533.157 287.393C532.902 287.222 532.701 286.978 532.579 286.69C532.457 286.402 532.418 286.084 532.469 285.774C532.519 285.464 532.656 285.176 532.862 284.946L543.35 273.208C543.487 273.05 543.652 272.921 543.838 272.828C544.023 272.736 544.224 272.682 544.429 272.671C544.634 272.659 544.839 272.689 545.033 272.759C545.227 272.829 545.406 272.938 545.559 273.08C545.713 273.221 545.837 273.393 545.927 273.584C546.016 273.776 546.068 273.984 546.079 274.196C546.091 274.408 546.062 274.621 545.994 274.822C545.926 275.022 545.821 275.207 545.684 275.366L535.196 287.104C535.049 287.277 534.867 287.416 534.663 287.511C534.459 287.605 534.237 287.653 534.014 287.651Z" fill="#3E3127"/>
<path d="M597.936 445.889C595.846 445.889 593.803 445.247 592.066 444.046C590.328 442.845 588.974 441.137 588.175 439.14C587.375 437.142 587.166 434.944 587.573 432.823C587.981 430.702 588.987 428.754 590.465 427.226C591.942 425.697 593.825 424.655 595.875 424.234C597.924 423.812 600.048 424.028 601.979 424.856C603.91 425.683 605.56 427.084 606.721 428.882C607.882 430.68 608.501 432.794 608.501 434.956C608.497 437.854 607.383 440.632 605.402 442.682C603.422 444.731 600.737 445.884 597.936 445.889ZM597.936 427.244C596.462 427.244 595.021 427.696 593.795 428.543C592.569 429.391 591.614 430.595 591.05 432.005C590.486 433.414 590.338 434.965 590.626 436.461C590.913 437.957 591.623 439.331 592.665 440.409C593.708 441.488 595.036 442.223 596.482 442.52C597.927 442.818 599.426 442.665 600.788 442.081C602.15 441.498 603.314 440.509 604.133 439.241C604.952 437.972 605.389 436.481 605.389 434.956C605.385 432.912 604.598 430.953 603.202 429.507C601.805 428.062 599.911 427.248 597.936 427.244Z" fill="#3E3127"/>
<path d="M443.158 475.418H373.292C368.965 475.419 364.717 474.209 361 471.916C357.283 469.623 354.234 466.332 352.177 462.392C352.08 462.206 352.019 462.002 351.998 461.792C351.978 461.582 351.997 461.369 352.055 461.167C352.114 460.964 352.21 460.775 352.339 460.611C352.468 460.447 352.627 460.311 352.807 460.211C352.987 460.11 353.184 460.048 353.387 460.026C353.591 460.004 353.796 460.024 353.992 460.085C354.188 460.146 354.37 460.245 354.529 460.379C354.687 460.512 354.819 460.677 354.916 460.863C356.714 464.279 359.371 467.13 362.606 469.114C365.84 471.098 369.532 472.141 373.292 472.134H443.158C446.918 472.141 450.61 471.098 453.844 469.114C457.079 467.13 459.736 464.279 461.534 460.863C461.631 460.677 461.763 460.512 461.921 460.379C462.08 460.245 462.262 460.146 462.458 460.085C462.654 460.024 462.859 460.004 463.062 460.026C463.266 460.048 463.463 460.11 463.643 460.211C463.823 460.311 463.981 460.447 464.11 460.611C464.239 460.775 464.336 460.964 464.394 461.167C464.453 461.369 464.472 461.582 464.452 461.792C464.431 462.002 464.37 462.206 464.273 462.392C462.216 466.332 459.167 469.623 455.45 471.916C451.733 474.209 447.485 475.419 443.158 475.418Z" fill="#3E3127"/>
<path d="M462.903 301.269C462.795 301.285 462.685 301.285 462.577 301.269C453.178 299.116 443.444 299.061 434.024 301.108C433.621 301.199 433.201 301.122 432.853 300.892C432.506 300.663 432.261 300.301 432.172 299.885C432.129 299.677 432.125 299.463 432.162 299.255C432.199 299.046 432.275 298.847 432.386 298.669C432.498 298.491 432.642 298.337 432.811 298.217C432.98 298.097 433.17 298.013 433.37 297.969C443.22 295.809 453.403 295.864 463.23 298.13C463.632 298.219 463.983 298.468 464.208 298.824C464.432 299.18 464.511 299.613 464.428 300.029C464.347 300.384 464.152 300.7 463.875 300.925C463.598 301.15 463.256 301.272 462.903 301.269Z" fill="white"/>
<path d="M413.655 309.853C413.418 309.853 413.183 309.796 412.97 309.687C412.757 309.578 412.571 309.42 412.426 309.226C412.173 308.89 412.059 308.464 412.109 308.042C412.158 307.62 412.367 307.235 412.69 306.971C416.042 304.514 419.688 302.517 423.536 301.03C423.92 300.872 424.348 300.878 424.728 301.047C425.107 301.217 425.406 301.535 425.559 301.932C425.711 302.329 425.705 302.773 425.542 303.165C425.379 303.558 425.071 303.867 424.687 304.025C421.124 305.403 417.746 307.248 414.635 309.515C414.355 309.74 414.01 309.86 413.655 309.853Z" fill="white"/>
<path d="M270.641 298.439C270.022 298.439 269.428 298.184 268.991 297.731C268.553 297.278 268.307 296.664 268.307 296.024V285.816C268.307 285.175 268.553 284.561 268.991 284.108C269.428 283.655 270.022 283.4 270.641 283.4C271.26 283.4 271.854 283.655 272.292 284.108C272.729 284.561 272.975 285.175 272.975 285.816V296.024C272.975 296.664 272.729 297.278 272.292 297.731C271.854 298.184 271.26 298.439 270.641 298.439Z" fill="white"/>
<path d="M270.641 326.578C270.022 326.578 269.428 326.324 268.991 325.871C268.553 325.418 268.307 324.804 268.307 324.163V308.175C268.307 307.534 268.553 306.92 268.991 306.467C269.428 306.014 270.022 305.76 270.641 305.76C271.26 305.76 271.854 306.014 272.292 306.467C272.729 306.92 272.975 307.534 272.975 308.175V324.163C272.975 324.804 272.729 325.418 272.292 325.871C271.854 326.324 271.26 326.578 270.641 326.578Z" fill="white"/>
<path d="M263.421 342.443V343.184C263.413 344.322 263.81 345.424 264.536 346.279C265.262 347.134 266.266 347.683 267.358 347.821L304.065 352.555C304.697 352.635 305.338 352.575 305.946 352.379C306.554 352.183 307.114 351.856 307.591 351.419C308.068 350.982 308.449 350.446 308.71 349.845C308.971 349.244 309.106 348.593 309.106 347.934V346.034" fill="white"/>
</svg>
