<svg width="48" height="48" viewBox="0 0 48 48" fill="none" xmlns="http://www.w3.org/2000/svg">
<path d="M22.5539 0.901589C23.1487 -0.291781 24.8513 -0.291781 25.4461 0.901589V0.901589C25.9633 1.93947 27.3731 2.11065 28.1237 1.22672V1.22672C28.9868 0.210356 30.64 0.617831 30.9319 1.91886V1.91886C31.1857 3.05037 32.5136 3.55396 33.4539 2.87534V2.87534C34.5351 2.09506 36.0428 2.88633 36.0148 4.2194V4.2194C35.9905 5.37878 37.1593 6.18552 38.2347 5.75166V5.75166C39.4712 5.2528 40.7457 6.38188 40.3995 7.66952V7.66952C40.0984 8.78939 41.0402 9.8524 42.1882 9.6885V9.6885C43.5081 9.50006 44.4754 10.9013 43.8311 12.0687V12.0687C43.2708 13.084 43.9307 14.3415 45.0846 14.4571V14.4571C46.4113 14.59 47.0151 16.182 46.1102 17.1613V17.1613C45.3232 18.013 45.663 19.3919 46.7557 19.7803V19.7803C48.0121 20.2268 48.2173 21.9171 47.1043 22.6513V22.6513C46.1363 23.2899 46.1363 24.7101 47.1043 25.3487V25.3487C48.2173 26.0829 48.0121 27.7732 46.7557 28.2197V28.2197C45.663 28.6081 45.3232 29.987 46.1102 30.8387V30.8387C47.0151 31.818 46.4113 33.41 45.0846 33.5429V33.5429C43.9307 33.6585 43.2708 34.916 43.8311 35.9313V35.9313C44.4754 37.0987 43.5081 38.4999 42.1882 38.3115V38.3115C41.0402 38.1476 40.0984 39.2106 40.3995 40.3305V40.3305C40.7457 41.6181 39.4712 42.7472 38.2347 42.2483V42.2483C37.1593 41.8145 35.9905 42.6212 36.0148 43.7806V43.7806C36.0428 45.1137 34.5351 45.9049 33.4539 45.1247V45.1247C32.5136 44.446 31.1857 44.9496 30.9319 46.0811V46.0811C30.64 47.3822 28.9868 47.7896 28.1237 46.7733V46.7733C27.3731 45.8893 25.9633 46.0605 25.4461 47.0984V47.0984C24.8513 48.2918 23.1487 48.2918 22.5539 47.0984V47.0984C22.0367 46.0605 20.6269 45.8893 19.8762 46.7733V46.7733C19.0132 47.7896 17.36 47.3822 17.0681 46.0811V46.0811C16.8143 44.9496 15.4864 44.446 14.5461 45.1247V45.1247C13.4649 45.9049 11.9572 45.1137 11.9852 43.7806V43.7806C12.0095 42.6212 10.8407 41.8145 9.76533 42.2483V42.2483C8.5288 42.7472 7.25434 41.6181 7.60051 40.3305V40.3305C7.90158 39.2106 6.95984 38.1476 5.81185 38.3115V38.3115C4.49187 38.4999 3.52464 37.0987 4.16891 35.9313V35.9313C4.72924 34.916 4.06926 33.6585 2.9154 33.5429V33.5429C1.58868 33.41 0.984902 31.818 1.88982 30.8387V30.8387C2.67684 29.987 2.33697 28.6081 1.24431 28.2197V28.2197C-0.0120494 27.7732 -0.217284 26.0829 0.895696 25.3487V25.3487C1.86366 24.7101 1.86366 23.2899 0.895696 22.6513V22.6513C-0.217284 21.9171 -0.0120497 20.2268 1.24431 19.7803V19.7803C2.33697 19.3919 2.67684 18.013 1.88982 17.1613V17.1613C0.984902 16.182 1.58868 14.59 2.9154 14.4571V14.4571C4.06926 14.3415 4.72924 13.084 4.16891 12.0687V12.0687C3.52464 10.9013 4.49187 9.50006 5.81185 9.6885V9.6885C6.95984 9.8524 7.90158 8.78939 7.60051 7.66952V7.66952C7.25434 6.38188 8.5288 5.2528 9.76533 5.75166V5.75166C10.8407 6.18552 12.0095 5.37878 11.9852 4.2194V4.2194C11.9572 2.88633 13.4649 2.09506 14.5461 2.87534V2.87534C15.4864 3.55396 16.8143 3.05037 17.0681 1.91886V1.91886C17.36 0.617831 19.0132 0.210356 19.8763 1.22672V1.22672C20.6269 2.11065 22.0367 1.93947 22.5539 0.901589V0.901589Z" fill="#24BA0E"/>
<path d="M36.4337 16.266C36.7765 16.9984 36.6445 17.8652 36.0992 18.4624L20.6483 35.3827C19.8552 36.2512 18.4876 36.2512 17.6945 35.3827L11.9445 29.0858C11.3775 28.4648 11.2595 27.5554 11.6492 26.8102L11.8723 26.3838C12.5074 25.1696 14.1477 24.9391 15.0927 25.9314L17.6931 28.6616C18.4925 29.5009 19.8356 29.4871 20.6176 28.6316L32.8861 15.209C33.8476 14.157 35.5696 14.4197 36.1737 15.7105L36.4337 16.266Z" fill="white"/>
</svg>
