<svg width="34" height="26" viewBox="0 0 34 26" fill="none" xmlns="http://www.w3.org/2000/svg">
<path d="M0.0698242 15.867V25.1937H25.4496V15.867H0.0698242ZM23.0886 22.7066H2.43073V18.3541H23.0886V22.7066ZM27.2202 15.867H29.5811V25.1937H27.2202V15.867ZM31.3518 15.867H33.7127V25.1937H31.3518V15.867ZM27.3256 10.6829C27.0426 10.2331 26.9062 9.69843 26.9371 9.15975C26.968 8.62107 27.1644 8.10761 27.4967 7.69693C28.1838 6.85517 28.5825 5.79473 28.6291 4.68569C28.6756 3.57664 28.3672 2.48327 27.7534 1.58092L27.3218 0.944214H24.6232L24.489 1.04525L25.8322 3.02641C26.1385 3.47666 26.2924 4.02224 26.2692 4.57564C26.246 5.12903 26.047 5.65818 25.7042 6.0782C25.0382 6.90126 24.6445 7.93028 24.5826 9.00983C24.5208 10.0894 24.794 11.1608 25.3612 12.0623L25.8015 12.7581H28.639L27.3256 10.6829ZM32.6376 10.6829C32.3546 10.2331 32.2182 9.69843 32.2491 9.15975C32.28 8.62107 32.4764 8.10761 32.8088 7.69693C33.4958 6.85517 33.8946 5.79473 33.9411 4.68569C33.9877 3.57664 33.6793 2.48327 33.0655 1.58092L32.6339 0.944214H29.9353L29.801 1.04525L31.1443 3.02641C31.4506 3.47666 31.6044 4.02224 31.5812 4.57564C31.558 5.12903 31.359 5.65818 31.0162 6.0782C30.3502 6.90126 29.9566 7.93028 29.8947 9.00983C29.8328 10.0894 30.1061 11.1608 30.6732 12.0623L31.1135 12.7581H33.951L32.6376 10.6829Z" fill="#272F3D"/>
</svg>
