<svg width="70" height="70" viewBox="0 0 70 70" fill="none" xmlns="http://www.w3.org/2000/svg">
<ellipse cx="35" cy="34.9418" rx="35" ry="34.942" transform="rotate(180 35 34.9418)" fill="#1C1C20"/>
<mask id="mask0_1_451" style="mask-type:alpha" maskUnits="userSpaceOnUse" x="18" y="16" width="38" height="38">
<rect x="56" y="53.5779" width="37.3333" height="37.2715" rx="18.6357" transform="rotate(180 56 53.5779)" fill="#D9D9D9"/>
</mask>
<g mask="url(#mask0_1_451)">
<path d="M36.2358 23.5945C36.8434 22.9986 37.8174 23.0029 38.4197 23.6041L43.5169 28.6929C46.9726 32.1429 46.9726 37.7424 43.5169 41.1923L38.4197 46.2811C37.8174 46.8824 36.8434 46.8867 36.2358 46.2908V46.2908C35.6192 45.686 35.6148 44.6942 36.2261 44.0839L37.6842 42.6282C39.9494 40.3668 38.3478 36.4956 35.1469 36.4956L26.4411 36.4956C25.5834 36.4956 24.8881 35.8003 24.8881 34.9426V34.9426C24.8881 34.085 25.5834 33.3897 26.4411 33.3897L35.1469 33.3897C38.3478 33.3897 39.9494 29.5185 37.6842 27.257L36.2261 25.8014C35.6148 25.1911 35.6192 24.1993 36.2358 23.5945V23.5945Z" fill="white"/>
</g>
</svg>
