<svg width="110" height="149" viewBox="0 0 110 149" fill="none" xmlns="http://www.w3.org/2000/svg">
<path d="M2.28986 148.038V122.754L55.3438 76.3049C59.3211 72.7064 62.7065 69.4157 65.5001 66.4327C68.2937 63.4024 70.4243 60.3721 71.8921 57.3418C73.3599 54.2642 74.0938 50.9261 74.0938 47.3276C74.0938 43.303 73.2179 39.8702 71.466 37.0293C69.7141 34.1411 67.2993 31.9157 64.2217 30.3532C61.144 28.7907 57.6166 28.0094 53.6393 28.0094C49.6147 28.0094 46.0872 28.838 43.0569 30.4952C40.0266 32.1051 37.6592 34.4488 35.9546 37.5265C34.2974 40.6041 33.4688 44.3447 33.4688 48.7481H0.15918C0.15918 38.8522 2.38456 30.3058 6.83532 23.1089C11.2861 15.9119 17.5361 10.3721 25.5853 6.48954C33.6819 2.55962 43.0806 0.594655 53.7813 0.594655C64.8135 0.594655 74.4016 2.44125 82.5455 6.13443C90.6895 9.82761 96.9868 14.9886 101.438 21.6174C105.936 28.1988 108.185 35.8456 108.185 44.5577C108.185 50.0975 107.072 55.5899 104.847 61.035C102.621 66.4801 98.6204 72.4933 92.8438 79.0748C87.1147 85.6562 78.9707 93.5397 68.412 102.725L51.0115 118.776V119.7H109.96V148.038H2.28986Z" fill="#F2E1C8"/>
</svg>
