<svg width="50" height="71" viewBox="0 0 50 71" fill="none" xmlns="http://www.w3.org/2000/svg">
<path d="M1.20455 71V61.8636L25.4432 38.1023C27.7614 35.7614 29.6932 33.6818 31.2386 31.8636C32.7841 30.0455 33.9432 28.2841 34.7159 26.5795C35.4886 24.875 35.875 23.0568 35.875 21.125C35.875 18.9205 35.375 17.0341 34.375 15.4659C33.375 13.875 32 12.6477 30.25 11.7841C28.5 10.9205 26.5114 10.4886 24.2841 10.4886C21.9886 10.4886 19.9773 10.9659 18.25 11.9205C16.5227 12.8523 15.1818 14.1818 14.2273 15.9091C13.2955 17.6364 12.8295 19.6932 12.8295 22.0795H0.795455C0.795455 17.6477 1.80682 13.7955 3.82955 10.5227C5.85227 7.25 8.63636 4.71591 12.1818 2.92045C15.75 1.125 19.8409 0.22727 24.4545 0.22727C29.1364 0.22727 33.25 1.10227 36.7955 2.85227C40.3409 4.60227 43.0909 7 45.0455 10.0455C47.0227 13.0909 48.0114 16.5682 48.0114 20.4773C48.0114 23.0909 47.5114 25.6591 46.5114 28.1818C45.5114 30.7045 43.75 33.5 41.2273 36.5682C38.7273 39.6364 35.2159 43.3523 30.6932 47.7159L18.6591 59.9545V60.4318H49.0682V71H1.20455Z" fill="#F4CF97"/>
</svg>
