<svg width="78" height="76" viewBox="0 0 78 76" fill="none" xmlns="http://www.w3.org/2000/svg">
<path opacity="0.8" d="M36.2886 29.8063L40.0667 50.825L43.8448 71.8438C44.698 76.475 74.3136 71.4875 73.4604 66.7375L71.8761 58.1875C74.923 55.9312 76.7511 52.0125 76.9948 48.6875C77.2386 45.2437 76.5073 38.5938 75.2886 35.2688C74.3136 32.6563 70.5354 33.0125 67.3667 33.725L65.7823 24.9375L36.2886 29.8063ZM71.1448 53.675L68.2198 37.525C70.048 37.1688 71.8761 37.1688 72.3636 38.475C73.3386 41.4438 73.4604 46.075 73.3386 49.1625C73.0948 50.825 72.3636 52.3688 71.1448 53.675ZM38.8479 32.0625L64.3198 27.6687L70.9011 63.7687C71.6323 67.5688 46.1604 71.9625 45.4292 68.1625L38.8479 32.0625Z" fill="#BCBCBC"/>
<path d="M65.173 40.4941L42.3823 44.4129L46.4042 66.8566C47.0136 70.3004 69.8042 66.3816 69.1948 62.9379L65.173 40.4941Z" fill="#FDB73E"/>
<path d="M33.9732 31.4693C33.6076 26.4818 40.067 22.9193 44.8201 24.938C46.4045 20.663 52.0107 20.663 54.4482 22.8005C56.3982 21.7318 60.7857 21.0193 63.1014 23.3943C67.8545 21.4943 71.8764 28.8568 64.3201 29.688C53.3514 27.9068 41.042 49.2818 41.042 49.2818C38.9701 49.638 36.167 48.688 36.7764 45.4818C35.5576 45.6005 33.6076 43.5818 34.0951 41.6818C29.0982 40.3755 29.4639 32.7755 33.9732 31.4693Z" fill="#D8D2B8"/>
<path d="M34.9479 31.9429C34.5822 26.3617 42.1385 24.3429 45.551 25.6492C46.7697 22.4429 51.6447 21.0179 54.4479 23.6304C55.9104 22.6804 60.5416 21.7304 62.7354 23.9867C67.8541 21.9679 70.2916 29.9242 63.2229 29.8054L65.1729 40.4929L48.5979 43.3429C48.476 44.5304 46.7697 45.7179 44.6979 45.3617C45.0635 47.3804 42.9916 49.1617 41.0416 49.3992C38.726 49.6367 36.8979 47.4992 37.8729 45.0054C35.6791 45.0054 34.7041 43.1054 35.1916 41.4429C30.4385 40.2554 30.4385 32.8929 34.9479 31.9429Z" fill="white"/>
<path d="M58.3481 43.9367C60.9074 43.4617 63.4668 45.1242 63.8324 47.4992C64.3199 49.993 62.4918 52.2492 59.9324 52.7242C57.3731 53.1992 54.8137 51.5367 54.4481 49.1617C53.9606 46.7867 55.7887 44.4117 58.3481 43.9367Z" fill="#FEE0AF"/>
<path d="M54.191 60.1567C56.1796 59.8149 57.5262 58.0718 57.1989 56.2634C56.8715 54.455 54.9941 53.266 53.0055 53.6078C51.0169 53.9495 49.6702 55.6926 49.9975 57.501C50.3249 59.3095 52.2024 60.4984 54.191 60.1567Z" fill="#FEE0AF"/>
<path d="M61.5454 60.8894C62.8712 60.6618 63.7661 59.4825 63.5442 58.2553C63.3223 57.0281 62.0676 56.2177 60.7418 56.4453C59.4161 56.6729 58.5212 57.8523 58.7431 59.0795C58.965 60.3066 60.2196 61.117 61.5454 60.8894Z" fill="#FEE0AF"/>
<path d="M56.5199 62.6996C57.4949 62.5808 58.348 63.0558 58.4699 64.0058C58.5917 64.8371 57.9824 65.6683 57.1292 65.7871C56.1542 65.9058 55.3011 65.4308 55.1792 64.4808C54.9355 63.7683 55.5449 62.9371 56.5199 62.6996Z" fill="#FEE0AF"/>
<path opacity="0.8" d="M14.8686 13.1816L13.1623 22.9191C9.62794 22.0879 5.48419 21.8504 4.50919 24.7004C3.04669 28.3816 2.19357 35.7441 2.43732 39.4254C2.68107 43.2254 4.75294 47.3816 8.16544 49.8754L6.45919 59.3754C5.48419 64.4816 38.0248 70.0629 38.9998 64.9566L47.4092 18.7629L14.8686 13.1816ZM6.70294 40.2566C6.45919 36.8129 6.58107 31.7066 7.79982 28.5004C8.28732 27.0754 10.2373 26.9566 12.3092 27.4316L9.01857 45.1254C7.67794 43.7004 6.82482 41.9191 6.70294 40.2566ZM37.4154 61.0379C36.6842 65.1941 8.65294 60.4441 9.50607 56.2879L16.6967 16.5066L44.7279 21.2566L37.4154 61.0379Z" fill="#BCBCBC"/>
<path d="M15.6 30.5195L40.5844 34.7945L36.1969 59.4945C35.4656 63.1758 10.4813 58.9008 11.2125 55.2195L15.6 30.5195Z" fill="#FDB73E"/>
<path d="M49.9685 20.6621C50.3341 15.0808 43.2654 11.2808 38.0248 13.4183C36.3185 8.78708 30.1029 8.66833 27.4216 11.1621C25.2279 9.97458 20.3529 9.14333 17.9154 11.8746C12.6748 9.73708 8.28728 17.9308 16.5748 18.7621C28.7623 16.7433 42.1685 40.3746 42.1685 40.3746C44.4841 40.7308 47.531 39.6621 46.7998 36.0996C48.1404 36.3371 50.2123 33.9621 49.8466 31.9433C55.2092 30.5183 54.8435 22.0871 49.9685 20.6621Z" fill="#D8D2B8"/>
<path d="M48.7499 21.2553C49.1156 15.0803 40.8281 12.8241 37.1718 14.3678C35.8312 10.9241 30.4687 9.26156 27.2999 12.1116C25.7156 11.0428 20.7187 9.97406 18.2812 12.4678C12.6749 10.3303 9.87181 18.9991 17.6718 18.8803L15.5999 30.6366L33.8812 33.7241C34.0031 35.0303 35.9531 36.3366 38.1468 35.9803C37.6593 38.2366 39.9749 40.2553 42.1687 40.4928C44.6062 40.7303 46.7999 38.3553 45.5812 35.7428C48.0187 35.7428 48.9937 33.6053 48.5062 31.8241C53.7468 30.2803 53.7468 22.2053 48.7499 21.2553Z" fill="white"/>
<path d="M39.8531 17.6928C40.0969 15.5553 38.3906 12.9428 34.3688 13.7741C33.8813 12.8241 32.7844 12.3491 31.0781 13.2991C33.0281 13.2991 33.6375 13.8928 34.0031 14.8428C38.025 14.8428 38.3906 18.4053 38.3906 18.4053C38.3906 18.4053 40.0969 18.5241 40.5844 20.6616C41.3156 19.7116 41.1938 18.2866 39.8531 17.6928ZM42.0469 26.4803C39.1219 23.7491 36.1969 24.9366 35.2219 26.8366C33.7594 26.5991 32.9062 27.6678 32.7844 28.7366C34.4906 27.1928 35.9531 28.0241 35.9531 28.0241C35.9531 28.0241 38.2688 25.2928 41.6812 27.4303C42.5344 26.7178 43.3875 26.7178 44.9719 27.6678C44.1188 26.1241 43.0219 26.0053 42.0469 26.4803Z" fill="#D8D2B8"/>
<path d="M23.0346 34.3189C20.1096 33.8439 17.4284 35.6252 16.9409 38.2377C16.4534 40.9689 18.4034 43.4627 21.3284 44.0564C24.2534 44.5314 26.9346 42.7502 27.4221 40.1377C27.9096 37.4064 25.9596 34.9127 23.0346 34.3189Z" fill="#FEE0AF"/>
<path d="M32.2276 49.2697C32.5892 47.2674 31.1089 45.3401 28.9213 44.9651C26.7337 44.59 24.6672 45.9092 24.3056 47.9116C23.944 49.9139 25.4243 51.8411 27.6119 52.2162C29.7995 52.5912 31.8661 51.272 32.2276 49.2697Z" fill="#FEE0AF"/>
<path d="M20.3532 48.2121C18.8907 47.9746 17.5501 48.8059 17.3064 50.2309C17.0626 51.5371 18.0376 52.8434 19.5001 53.0809C20.9626 53.3184 22.3032 52.4871 22.547 51.0621C22.7907 49.7559 21.8157 48.4496 20.3532 48.2121ZM25.1064 55.0996C24.1314 54.9809 23.1564 55.5746 22.9126 56.5246C22.7907 57.4746 23.4001 58.3059 24.3751 58.5434C25.3501 58.6621 26.3251 58.0684 26.5689 57.1184C26.8126 56.1684 26.2032 55.2184 25.1064 55.0996Z" fill="#FEE0AF"/>
<path d="M54.2343 17.575L65.9343 7.71875L60.328 3.8L54.2343 17.575ZM59.5968 19.5938L70.6874 21.9688V16.2688L59.5968 19.5938ZM50.3343 13.8938L53.1374 2.375H47.1655L50.3343 13.8938Z" fill="#001723"/>
</svg>
