<svg width="112" height="65" viewBox="0 0 112 65" fill="none" xmlns="http://www.w3.org/2000/svg">
<path d="M46.0212 49.998C46.2313 50.0124 46.0893 53.0168 46.0836 53.2991C46.0609 53.9545 45.9303 54.6052 46.0496 55.2558C46.1177 55.6433 46.1575 56.3418 46.4131 56.6624C46.7767 57.1169 47.3845 56.9781 47.9412 56.9781C49.4182 56.9781 50.7929 56.4566 52.02 55.806C52.5142 55.5477 53.0766 55.3324 52.9914 54.787C52.9289 54.3708 52.4347 53.8732 52.1563 53.5431C51.1622 52.3805 48.9694 50.132 47.055 50.1224L46.0212 49.998Z" fill="#ED6C30"/>
<path d="M83 24.3099C83 11.4353 72.7232 0.998047 60.0464 0.998047C48.3856 0.998047 38.7615 9.83532 37.2891 21.2694C37.2891 21.2694 34.4279 39.7215 46.7071 50.2435L48.6261 50.8915C48.6261 50.8915 66.5099 52.8204 76.777 40.2648C80.6296 36.0979 83 30.4855 83 24.3099V24.3099Z" fill="#ED6C30"/>
<path d="M30.1142 57.6226C30.2644 57.5134 32.2173 59.9776 32.4058 60.2047C32.8374 60.7376 33.1936 61.3286 33.7167 61.7761C34.0264 62.0443 34.529 62.5754 34.9182 62.6829C35.4708 62.8347 35.7822 62.3757 36.154 62.0562C37.1405 61.2084 37.7033 60.0057 38.0794 58.7854C38.2334 58.2969 38.4623 57.8033 38.0336 57.4197C37.7082 57.1255 37.039 57.0146 36.6281 56.9125C35.1718 56.5612 32.1747 56.0366 30.8895 57.1278L30.1142 57.6226Z" fill="#FFDB6C"/>
<path d="M41.7468 14.222C33.3244 4.42168 18.5515 3.30463 8.75114 11.727C-0.263793 19.4745 -1.9229 32.5958 4.41892 42.2778C4.41892 42.2778 14.2781 58.2248 30.6544 58.076L32.5618 57.2943C32.5618 57.2943 47.6497 46.8806 47.3733 30.5017C47.6258 24.7701 45.7868 18.923 41.7468 14.222V14.222Z" fill="#FFDB6C"/>
<path d="M63.7339 55.316C63.8867 55.4215 62.2075 58.0798 62.0556 58.3329C61.6956 58.9165 61.2557 59.4482 61.0065 60.0899C60.8559 60.4709 60.521 61.1209 60.5484 61.5238C60.5881 62.0955 61.1242 62.2375 61.5488 62.4826C62.6752 63.133 63.9964 63.2661 65.2724 63.2171C65.7844 63.2008 66.3259 63.2535 66.546 62.722C66.716 62.3176 66.5992 61.6494 66.5595 61.2279C66.4092 59.7373 65.9125 56.7355 64.4574 55.8839L63.7339 55.316Z" fill="#6EAECD"/>
<path d="M108.54 51.9313C115.001 40.7404 111.167 26.4301 99.9761 19.969C89.682 14.0257 76.7509 16.802 69.7129 25.9905C69.7129 25.9905 57.9269 40.5712 63.4865 55.9757L64.8553 57.517C64.8553 57.517 79.6751 68.3088 95.0398 62.628C100.532 60.9696 105.441 57.2993 108.54 51.9313V51.9313Z" fill="#6EAECD"/>
</svg>
