<svg width="16" height="16" viewBox="0 0 16 16" fill="none" xmlns="http://www.w3.org/2000/svg">
<path d="M1.25 14.0208H2.16667L11.3958 4.79167L10.4792 3.875L1.25 13.1042V14.0208ZM14.0417 3.89583L11.375 1.22917L12.25 0.354167C12.4861 0.118056 12.7778 0 13.125 0C13.4722 0 13.7639 0.118056 14 0.354167L14.9167 1.27083C15.1528 1.50694 15.2708 1.79861 15.2708 2.14583C15.2708 2.49306 15.1528 2.78472 14.9167 3.02083L14.0417 3.89583ZM13.1667 4.77083L2.66667 15.2708H0V12.6042L10.5 2.10417L13.1667 4.77083ZM10.9375 4.33333L10.4792 3.875L11.3958 4.79167L10.9375 4.33333Z" fill="#FEFEFE"/>
</svg>
