<svg width="64" height="76" viewBox="0 0 64 76" fill="none" xmlns="http://www.w3.org/2000/svg">
<path d="M15.2626 42.3325C1.72764 26.1827 36.0006 32.8051 43.3195 21.1064C50.6385 9.40778 62.9999 16.7857 62.9999 16.7857" stroke="black" stroke-width="1.5"/>
<path d="M5.03916 70.9043H41.7509C44.5338 70.9043 46.7901 73.1539 46.7901 75.9293V75.9993H0V75.9293C0 73.154 2.25625 70.9043 5.03916 70.9043Z" fill="#634E9B"/>
<path d="M11.5959 70.9056C9.24755 68.2528 7.82275 64.768 7.82275 60.951C7.82275 52.6397 14.5793 45.9023 22.9139 45.9023C31.2484 45.9023 38.005 52.6399 38.005 60.951C38.005 64.7676 36.5802 68.2525 34.2319 70.9054" fill="#FFDB6C"/>
<path d="M22.9139 45.9023C21.8746 45.9023 20.8598 46.0073 19.8792 46.2068C26.7594 47.6073 31.9358 53.6764 31.9358 60.951C31.9358 64.7676 30.511 68.2525 28.1627 70.9054H11.5957L34.2319 70.9052C36.5801 68.2525 38.005 64.7676 38.005 60.9508C38.0048 52.6397 31.2483 45.9023 22.9139 45.9023Z" fill="#FFB04C"/>
<path d="M29.3255 45.9034H17.4644C15.4487 45.9034 13.8149 44.2741 13.8149 42.2642C13.8149 40.2542 15.4489 38.625 17.4644 38.625H29.3255C31.3412 38.625 32.975 40.2544 32.975 42.2642C32.9752 44.2739 31.3412 45.9034 29.3255 45.9034Z" fill="#6EAECD"/>
<path d="M29.3253 38.625H24.8242C26.8399 38.625 28.4737 40.2544 28.4737 42.2642C28.4737 44.2742 26.8398 45.9034 24.8242 45.9034H29.3253C31.341 45.9034 32.9748 44.2741 32.9748 42.2642C32.975 40.2544 31.341 38.625 29.3253 38.625Z" fill="#5388B4"/>
<path d="M32.0173 17.3019H14.773C12.7573 17.3019 11.1235 15.6725 11.1235 13.6627V12.207H35.6668V13.6627C35.6668 15.6724 34.0328 17.3019 32.0173 17.3019Z" fill="#634E9B"/>
<path d="M17.2822 38.6231C17.2822 35.2564 20.0191 32.5273 23.3952 32.5273C26.7713 32.5273 29.5081 35.2565 29.5081 38.6231" fill="#EE3446"/>
<path d="M23.34 32.5286C25.4432 32.5286 27.1482 30.8284 27.1482 28.7311C27.1482 26.6338 25.4432 24.9336 23.34 24.9336C21.2367 24.9336 19.5317 26.6338 19.5317 28.7311C19.5317 30.8284 21.2367 32.5286 23.34 32.5286Z" fill="#42A555"/>
<path d="M23.424 24.9329C25.5272 24.9329 27.2322 23.2327 27.2322 21.1354C27.2322 19.0381 25.5272 17.3379 23.424 17.3379C21.3207 17.3379 19.6157 19.0381 19.6157 21.1354C19.6157 23.2327 21.3207 24.9329 23.424 24.9329Z" fill="#42A555"/>
<path d="M23.3408 24.9336C22.8104 24.9336 22.3055 25.0423 21.8467 25.2377C23.2072 25.817 24.161 27.1629 24.161 28.7314C24.161 30.3 23.2072 31.6458 21.8467 32.2252C22.3053 32.4206 22.8104 32.5293 23.3408 32.5293C25.444 32.5293 27.149 30.829 27.149 28.7314C27.1493 26.6338 25.4441 24.9336 23.3408 24.9336Z" fill="#427451"/>
<path d="M23.4238 17.3379C22.8934 17.3379 22.3885 17.4466 21.9297 17.642C23.2902 18.2213 24.244 19.5672 24.244 21.1357C24.244 22.7043 23.2902 24.0501 21.9297 24.6293C22.3885 24.8247 22.8934 24.9334 23.4238 24.9334C25.527 24.9334 27.232 23.2332 27.232 21.1359C27.2322 19.0381 25.5271 17.3379 23.4238 17.3379Z" fill="#427451"/>
<path d="M27.1493 12.2068H19.5325L15.7757 1.67867C15.4836 0.860256 16.0924 0 16.9635 0H29.2335C30.083 0 30.6894 0.82052 30.4377 1.62952L27.1493 12.2068Z" fill="#FFDB6C"/>
<path d="M26.8913 0.000324357L23.0962 12.2071H27.1494L30.438 1.62952C30.6894 0.82052 30.0831 0 29.2337 0H26.8913V0.000324357V0.000324357Z" fill="#FFB04C"/>
</svg>
