<svg width="101" height="72" viewBox="0 0 101 72" fill="none" xmlns="http://www.w3.org/2000/svg">
<path d="M0 60.9228C0 63.8606 1.18234 66.6782 3.28691 68.7556C5.39149 70.8329 8.2459 72 11.2222 72H89.7778C92.7541 72 95.6085 70.8329 97.7131 68.7556C99.8177 66.6782 101 63.8606 101 60.9228V59.5381H0V60.9228Z" fill="#750787"/>
<path d="M0 47.2709H101V60.0098H0V47.2709Z" fill="#004DFF"/>
<path d="M0 35.5291H101V47.9909H0V35.5291Z" fill="#008026"/>
<path d="M0 23.5381H101V36H0V23.5381Z" fill="#FFED00"/>
<path d="M0 11.5472H101V24.0091H0V11.5472Z" fill="#FF8C00"/>
<path d="M89.7778 0H11.2222C8.2459 0 5.39149 1.16706 3.28691 3.24445C1.18234 5.32183 0 8.13937 0 11.0772L0 11.9911H101V11.0772C101 8.13937 99.8177 5.32183 97.7131 3.24445C95.6085 1.16706 92.7541 0 89.7778 0Z" fill="#E40303"/>
<path d="M74.9128 27.7403C74.9128 34.6599 70.9286 41.802 62.9835 48.9839C59.378 52.2404 55.4523 55.1202 51.267 57.5788C51.0317 57.708 50.768 57.7757 50.5 57.7757C50.2313 57.7757 49.9668 57.7076 49.7311 57.5777C49.2436 57.3043 43.3222 53.9261 37.5248 48.5643C31.7149 43.1908 26.0872 35.8779 26.0872 27.7403C26.0872 24.9033 26.9757 22.1383 28.6266 19.8369C30.2776 17.5356 32.6072 15.8147 35.2854 14.9178C37.9635 14.0209 40.8546 13.9933 43.5493 14.839C46.2439 15.6847 48.6056 17.3609 50.2997 19.6303L50.5 19.8987L50.7003 19.6303C52.3944 17.3609 54.7561 15.6847 57.4508 14.839C60.1454 13.9933 63.0365 14.0209 65.7147 14.9178C68.3929 15.8147 70.7225 17.5356 72.3734 19.8369C74.0243 22.1383 74.9128 24.9033 74.9128 27.7403Z" fill="white" stroke="black" stroke-width="0.5"/>
</svg>
