<svg width="75" height="76" viewBox="0 0 75 76" fill="none" xmlns="http://www.w3.org/2000/svg">
<g clip-path="url(#clip0_3664_38549)">
<path d="M5.17228 75.3457H2.58607L1.29297 37.3457H7.75849L5.17228 75.3457Z" fill="#7D5C3E"/>
<path d="M72.4136 75.3457H69.8274L67.2412 37.3457H73.7067L72.4136 75.3457Z" fill="#7D5C3E"/>
<path d="M69.8277 32.1035C69.8277 32.2123 32.3277 50.4483 32.3277 50.4483L3.87939 32.1035H69.8277Z" fill="#EA6248"/>
<path d="M3.87931 32.1035L12.0078 37.3449H0V32.1035H3.87931Z" fill="#553323"/>
<path d="M69.8275 32.1035H74.9999V37.3449H59.2124C65.2059 34.4137 69.8275 32.1415 69.8275 32.1035Z" fill="#553323"/>
<path d="M16.8102 28.1719H6.46533V32.1029H16.8102V28.1719Z" fill="#C7CAC7"/>
<path d="M5.17236 28.1719H18.1034" stroke="#949493" stroke-width="2" stroke-miterlimit="10" stroke-linecap="round"/>
<path d="M69.8277 28.1719H59.4829V32.1029H69.8277V28.1719Z" fill="#C7CAC7"/>
<path d="M58.1895 28.1719H71.1205" stroke="#949493" stroke-width="2" stroke-miterlimit="10" stroke-linecap="round"/>
<path d="M38.793 20.3109V9.82812" stroke="#88C057" stroke-width="2" stroke-miterlimit="10" stroke-linecap="round"/>
<path d="M38.7932 17.689L36.207 15.0684" stroke="#88C057" stroke-width="2" stroke-miterlimit="10" stroke-linecap="round"/>
<path d="M38.793 15.0699L41.3792 12.4492" stroke="#88C057" stroke-width="2" stroke-miterlimit="10" stroke-linecap="round"/>
<path d="M34.946 20.3105C34.1249 22.3979 33.6206 22.5276 33.6206 25.5519C33.6206 32.0643 35.9366 32.1036 38.793 32.1036C41.6495 32.1036 43.9654 32.0643 43.9654 25.5519C43.9654 22.5276 43.4611 22.3979 42.64 20.3105H34.946Z" fill="#694F87"/>
<path d="M38.7929 0.654297H34.9136V7.20602C34.9136 9.36809 36.6593 11.1371 38.7929 11.1371V0.654297Z" fill="#DD352E"/>
<path d="M38.793 3.27539H42.6723V5.89608C42.6723 8.05815 40.9266 9.82711 38.793 9.82711V3.27539Z" fill="#B02721"/>
</g>
<defs>
<clipPath id="clip0_3664_38549">
<rect width="75" height="76" fill="white"/>
</clipPath>
</defs>
</svg>
