<svg width="22" height="22" viewBox="0 0 22 22" fill="none" xmlns="http://www.w3.org/2000/svg">
<path d="M9.99999 21.9498V19.9498C7.91665 19.7165 6.12932 18.8541 4.63799 17.3628C3.14599 15.8708 2.28332 14.0831 2.04999 11.9998H0.0499878V9.9998H2.04999C2.28332 7.91647 3.14599 6.1288 4.63799 4.6368C6.12932 3.14547 7.91665 2.28314 9.99999 2.0498V0.0498047H12V2.0498C14.0833 2.28314 15.871 3.14547 17.363 4.6368C18.8543 6.1288 19.7167 7.91647 19.95 9.9998H21.95V11.9998H19.95C19.7167 14.0831 18.8543 15.8708 17.363 17.3628C15.871 18.8541 14.0833 19.7165 12 19.9498V21.9498H9.99999ZM11 17.9998C12.9333 17.9998 14.5833 17.3165 15.95 15.9498C17.3167 14.5831 18 12.9331 18 10.9998C18 9.06647 17.3167 7.41647 15.95 6.0498C14.5833 4.68314 12.9333 3.9998 11 3.9998C9.06665 3.9998 7.41665 4.68314 6.04999 6.0498C4.68332 7.41647 3.99999 9.06647 3.99999 10.9998C3.99999 12.9331 4.68332 14.5831 6.04999 15.9498C7.41665 17.3165 9.06665 17.9998 11 17.9998ZM11 14.9998C9.89999 14.9998 8.95832 14.6081 8.17499 13.8248C7.39165 13.0415 6.99999 12.0998 6.99999 10.9998C6.99999 9.8998 7.39165 8.95814 8.17499 8.1748C8.95832 7.39147 9.89999 6.9998 11 6.9998C12.1 6.9998 13.0417 7.39147 13.825 8.1748C14.6083 8.95814 15 9.8998 15 10.9998C15 12.0998 14.6083 13.0415 13.825 13.8248C13.0417 14.6081 12.1 14.9998 11 14.9998ZM11 12.9998C11.55 12.9998 12.021 12.8038 12.413 12.4118C12.8043 12.0205 13 11.5498 13 10.9998C13 10.4498 12.8043 9.9788 12.413 9.5868C12.021 9.19547 11.55 8.9998 11 8.9998C10.45 8.9998 9.97932 9.19547 9.58799 9.5868C9.19599 9.9788 8.99999 10.4498 8.99999 10.9998C8.99999 11.5498 9.19599 12.0205 9.58799 12.4118C9.97932 12.8038 10.45 12.9998 11 12.9998Z" fill="#0A0A0A"/>
</svg>
