<svg width="239" height="297" viewBox="0 0 239 297" fill="none" xmlns="http://www.w3.org/2000/svg">
<path d="M4.18055 1.29636L4.87575 1.15778C5.40212 1.05286 5.9377 1.00119 6.47442 1.00351L231.982 1.98578C233.552 1.99261 235.029 2.72919 235.98 3.97888C236.642 4.84857 237.003 5.90936 237.011 7.00211L237.667 100.662V102.871C237.667 103.165 237.587 103.453 237.435 103.704C237.001 104.425 236.086 104.691 235.333 104.316L234.667 103.984L232.085 102.441C231.586 102.142 231.055 101.898 230.502 101.715L227.333 100.662L223.162 99.363C222.392 99.1231 221.59 99.0011 220.783 99.0011H216.667L212.878 99.5045C212.075 99.6113 211.293 99.8393 210.558 100.181L206.667 101.991L204.013 103.578C203.561 103.848 203.137 104.162 202.747 104.516L199.667 107.306L196.98 110.252C196.551 110.723 196.179 111.243 195.873 111.802L194.676 113.989C194.448 114.405 194.258 114.841 194.107 115.292L192.667 119.598L191.846 123.418C191.727 123.97 191.667 124.534 191.667 125.099V127.33C191.667 128.15 191.793 128.965 192.04 129.747L193.408 134.061C193.58 134.605 193.81 135.129 194.094 135.624L196.333 139.53L199.232 143.286C199.521 143.661 199.843 144.009 200.194 144.327L202.781 146.67C203.148 147.003 203.546 147.302 203.969 147.561L206.954 149.392C207.428 149.682 207.931 149.923 208.454 150.109L211.481 151.186C212.047 151.388 212.635 151.525 213.232 151.595L216.969 152.033C217.653 152.114 218.346 152.105 219.028 152.008L222.03 151.581C222.454 151.52 222.872 151.426 223.281 151.299L228 149.829L231.161 148.516C231.718 148.285 232.244 147.985 232.728 147.624L234.011 146.665C234.437 146.347 234.954 146.175 235.485 146.175C236.232 146.175 236.939 146.513 237.406 147.096L237.431 147.126C237.799 147.585 237.997 148.157 237.991 148.745L237.082 236.08C237.037 240.466 233.468 243.997 229.083 243.997L141.27 243.997C139.642 243.997 139.025 246.125 140.4 246.996C140.576 247.108 140.729 247.253 140.851 247.423L143.438 251.032C143.811 251.553 144.121 252.117 144.36 252.712L146.309 257.568C146.547 258.161 146.713 258.78 146.803 259.413L147.52 264.411C147.617 265.092 147.627 265.783 147.548 266.466L146.775 273.138C146.703 273.76 146.558 274.372 146.344 274.96L144.396 280.298C144.134 281.017 143.769 281.696 143.314 282.312L140.015 286.773C139.563 287.384 139.026 287.928 138.42 288.388L133.425 292.181C132.703 292.73 131.892 293.152 131.028 293.428L124.191 295.619C123.402 295.871 122.579 296 121.75 296H116L108.807 295.173C107.833 295.061 106.888 294.771 106.019 294.317L101.017 291.706C100.562 291.468 100.132 291.188 99.7315 290.869L94.8423 286.971C94.0656 286.352 93.411 285.593 92.9121 284.734L90.4531 280.501C90.1523 279.983 89.9105 279.433 89.7324 278.861L87.3622 271.25C87.1224 270.48 87.0004 269.678 87.0004 268.871V263.348C87.0004 262.749 87.0676 262.153 87.2007 261.569L88.3655 256.461C88.5651 255.586 88.9107 254.75 89.3877 253.989L93.6671 247.166C94.5353 245.79 93.5469 243.997 91.9203 243.997H9.30589C4.89172 243.997 1.31169 240.422 1.3059 236.008L1 2.99326C1.86991 2.12671 2.97637 1.53638 4.18055 1.29636Z" fill="#FCF5E9"/>
<path d="M1 5.3187L1 2.99325M1 2.99325V2.99325C1.86991 2.1267 2.97637 1.53637 4.18055 1.29635L4.87575 1.15778C5.40212 1.05286 5.9377 1.00118 6.47442 1.00352L231.982 1.98578C233.552 1.99262 235.029 2.72919 235.98 3.97887V3.97887C236.642 4.84858 237.003 5.90937 237.011 7.00211L237.667 100.662V102.871C237.667 103.165 237.587 103.453 237.435 103.704V103.704C237.001 104.425 236.086 104.691 235.333 104.316L234.667 103.984L232.085 102.441C231.586 102.142 231.055 101.898 230.502 101.715L227.333 100.662L223.162 99.363C222.392 99.1231 221.59 99.0011 220.783 99.0011H216.667L212.878 99.5045C212.075 99.6113 211.293 99.8393 210.558 100.181L206.667 101.991L204.013 103.578C203.561 103.848 203.137 104.162 202.747 104.516L199.667 107.306L196.98 110.252C196.551 110.723 196.179 111.243 195.873 111.802L194.676 113.989C194.448 114.405 194.258 114.841 194.107 115.292L192.667 119.598L191.846 123.418C191.727 123.97 191.667 124.534 191.667 125.099V127.33C191.667 128.15 191.793 128.965 192.04 129.747L193.408 134.061C193.58 134.605 193.81 135.129 194.094 135.624L196.333 139.53L199.232 143.286C199.521 143.661 199.843 144.009 200.194 144.327L202.781 146.67C203.148 147.003 203.546 147.302 203.969 147.561L206.954 149.392C207.428 149.682 207.931 149.923 208.454 150.109L211.481 151.186C212.047 151.388 212.635 151.525 213.232 151.595L216.969 152.033C217.653 152.114 218.346 152.105 219.028 152.008L222.03 151.581C222.454 151.52 222.872 151.426 223.281 151.299L228 149.829L231.161 148.516C231.718 148.285 232.244 147.985 232.728 147.624L234.011 146.665C234.437 146.347 234.954 146.175 235.485 146.175V146.175C236.232 146.175 236.939 146.513 237.406 147.096L237.431 147.126C237.799 147.585 237.997 148.157 237.991 148.745L237.082 236.08C237.037 240.466 233.468 243.997 229.083 243.997L141.27 243.997C139.642 243.997 139.025 246.125 140.4 246.996V246.996C140.576 247.108 140.729 247.253 140.851 247.423L143.438 251.032C143.811 251.553 144.121 252.117 144.36 252.712L146.309 257.568C146.547 258.161 146.713 258.78 146.803 259.413L147.52 264.411C147.617 265.092 147.627 265.783 147.548 266.466L146.775 273.138C146.703 273.76 146.558 274.372 146.344 274.96L144.396 280.298C144.134 281.017 143.769 281.696 143.314 282.312L140.015 286.773C139.563 287.384 139.026 287.928 138.42 288.388L133.425 292.181C132.703 292.73 131.892 293.152 131.028 293.428L124.191 295.619C123.402 295.871 122.579 296 121.75 296L116 296L108.807 295.173C107.833 295.061 106.888 294.771 106.019 294.317L101.017 291.706C100.562 291.468 100.132 291.188 99.7315 290.869L94.8423 286.971C94.0656 286.352 93.411 285.593 92.9121 284.734L90.4531 280.501C90.1523 279.983 89.9105 279.433 89.7324 278.861L87.3622 271.25C87.1224 270.48 87.0004 269.678 87.0004 268.871V263.348C87.0004 262.749 87.0676 262.153 87.2007 261.569L88.3655 256.461C88.5651 255.586 88.9107 254.75 89.3877 253.989L93.6671 247.166V247.166C94.5353 245.79 93.5469 243.997 91.9203 243.997H9.30589C4.89172 243.997 1.31169 240.422 1.3059 236.008L1 2.99325Z" stroke="black" stroke-dasharray="2 2"/>
</svg>
