<svg width="469" height="356" viewBox="0 0 469 356" fill="none" xmlns="http://www.w3.org/2000/svg">
<path d="M210.77 1.00034L85 1.00095C80.5817 1.00095 77 4.58267 77 9.00095V159.868C77 160.571 76.6312 161.222 76.0286 161.584C75.1573 162.107 74.0326 161.893 73.4131 161.088L70.1107 156.795C69.7052 156.268 69.2354 155.793 68.7123 155.382L62.5 150.501L55.5303 146.401C54.5224 145.808 53.3967 145.444 52.2326 145.333L43.5 144.501H35.6742C34.8956 144.501 34.1211 144.615 33.3754 144.838L25.5296 147.192C24.8463 147.397 24.1934 147.693 23.5884 148.071L17.1355 152.104C16.7128 152.368 16.3156 152.671 15.9493 153.009L10.6487 157.902C10.2176 158.3 9.83148 158.744 9.49747 159.227L5.88553 164.444C5.62897 164.815 5.40417 165.206 5.21359 165.615L2.48361 171.465C2.16284 172.152 1.94144 172.882 1.82611 173.631L1.09302 178.396C1.0311 178.799 1 179.206 1 179.613V186.501L1.86938 193.891C1.95602 194.627 2.14471 195.348 2.42996 196.033L4.5 201.001L7.55417 206.237C7.85049 206.745 8.2019 207.218 8.60205 207.649L14.0733 213.541C14.3573 213.847 14.6649 214.131 14.9931 214.388L20.596 218.791C21.1956 219.262 21.8594 219.645 22.5674 219.928L28.3976 222.26C28.7986 222.42 29.2118 222.548 29.6333 222.642L37.1427 224.31C37.7125 224.437 38.2945 224.501 38.8782 224.501H45.0152C45.6693 224.501 46.3209 224.421 46.9554 224.262L53.2414 222.691C53.7459 222.564 54.237 222.389 54.7075 222.168L61.5724 218.937C62.1883 218.648 62.7646 218.28 63.2875 217.845L68.5 213.501L73.6663 207.904C74.1601 207.369 74.9482 207.225 75.5994 207.551C76.1516 207.827 76.5013 208.39 76.5034 209.008L76.9728 347.016C76.9879 351.429 80.5725 354.996 84.9848 354.989L384.243 354.538C388.657 354.532 392.231 350.952 392.231 346.538V188.501C392.231 187.889 393.021 187.642 393.37 188.145L395 190.501L398 194.001L403.5 199.001L409.257 202.986C409.751 203.328 410.282 203.614 410.839 203.837L414.252 205.202C414.75 205.401 415.265 205.549 415.792 205.645L420.5 206.501L424.375 207.664C425.121 207.887 425.896 208.001 426.674 208.001H430.015C430.669 208.001 431.321 207.921 431.955 207.762L437 206.501L440.949 205.711C441.647 205.572 442.322 205.34 442.958 205.022L446 203.501L449.961 201.301C450.32 201.101 450.663 200.874 450.987 200.622L455 197.501L458.032 194.469C458.343 194.158 458.629 193.821 458.885 193.462L461 190.501L463.457 187.225C463.818 186.744 464.123 186.224 464.368 185.674L466 182.001L467.518 177.826C467.837 176.949 468 176.024 468 175.092V169.001V164.163C468 163.722 467.964 163.283 467.891 162.848L467.142 158.354C467.048 157.787 466.892 157.232 466.679 156.698L465 152.501L462.913 147.909C462.639 147.306 462.291 146.739 461.877 146.222L458.5 142.001L455.504 138.577C455.169 138.194 454.798 137.843 454.395 137.531L451.125 134.987C450.709 134.664 450.263 134.382 449.791 134.147L444.5 131.501L438.05 129.197C437.684 129.067 437.309 128.963 436.928 128.887L433.277 128.156C432.76 128.053 432.235 128.001 431.708 128.001H425.5L418.58 128.866C417.863 128.956 417.162 129.142 416.495 129.42L411.5 131.501L406.688 134.126C406.231 134.375 405.798 134.669 405.398 135.003L400 139.501L396 143.501C394.721 145.029 392.231 144.124 392.231 142.131V9.00034C392.231 4.58206 388.65 1.00034 384.231 1.00034H254.438C252.639 1.00034 252.033 3.40396 253.618 4.25641C253.694 4.29733 253.766 4.34387 253.836 4.39566L256.902 6.69354C257.317 7.00479 257.701 7.35571 258.048 7.74133L261.794 11.9009L263.9 14.3563C264.391 14.9282 264.798 15.5665 265.11 16.2523L267.011 20.4317L269.099 25.4384C269.288 25.8912 269.434 26.3603 269.537 26.8398L270.628 31.9248C270.746 32.4761 270.805 33.0383 270.805 33.6021V37.9673L270.392 42.9221C270.352 43.4094 270.266 43.8919 270.138 44.3636L268.908 48.8679L267.257 53.4051C267.094 53.8549 266.89 54.2891 266.649 54.7025L263.988 59.2607C263.79 59.5987 263.569 59.9218 263.324 60.2273L260.322 63.9774C260.039 64.3304 259.727 64.6587 259.389 64.9589L255.629 68.2993L251.172 71.5381C250.667 71.9053 250.121 72.212 249.544 72.452L244.721 74.4604L239.504 75.8822L233.427 76.7498C233.052 76.8033 232.674 76.8301 232.296 76.8301H227.784C227.377 76.8301 226.971 76.799 226.569 76.7372L221.677 75.9852C221.231 75.9167 220.792 75.8106 220.365 75.6681L216.739 74.4604L212.315 72.4508C211.788 72.2115 211.289 71.9156 210.825 71.5686L207.728 69.2471L204.389 66.7444C204.086 66.5174 203.799 66.2692 203.532 66.0016L201.088 63.5599L198.167 59.8061C197.902 59.4656 197.665 59.1041 197.458 58.7253L194.923 54.0812L193.267 49.9444C193.106 49.5433 192.979 49.1299 192.885 48.7082L192.077 45.0764L191.258 40.5733C191.172 40.1008 191.129 39.6215 191.129 39.1412V35.7863C191.129 35.3453 191.165 34.9051 191.238 34.4702L192.077 29.4365L192.885 25.8047C192.979 25.383 193.106 24.9695 193.267 24.5685L194.923 20.4317L197.294 16.1663L200.14 11.9009L203.399 8.23712C203.755 7.83701 204.15 7.47363 204.578 7.1525L207.728 4.79181L211.001 2.45569C211.032 2.43335 211.065 2.41348 211.1 2.3963C211.795 2.04874 211.548 1.00034 210.77 1.00034Z" fill="#FCF5E9" stroke="black" stroke-dasharray="2 2"/>
</svg>
