<svg width="1056" height="401" viewBox="0 0 1056 401" fill="none" xmlns="http://www.w3.org/2000/svg">
<path opacity="0.5" d="M1055.5 142V9C1055.5 4.58172 1051.92 1 1047.5 1L9.02476 1C4.59685 1 1.01121 4.59677 1.02486 9.02466L1.97578 317.485C1.98942 321.909 5.59117 325.482 10.0152 325.461L502.22 323.036C505.573 323.019 507.744 319.488 506.244 316.488V316.488C506.082 316.164 505.959 315.821 505.879 315.468L503.699 305.875C503.567 305.294 503.5 304.699 503.5 304.102V298.86C503.5 298.288 503.561 297.718 503.683 297.16L505.756 287.623C505.918 286.878 506.185 286.16 506.55 285.491L509 281L511.621 275.758C511.873 275.254 512.177 274.778 512.529 274.338L516 270L520.056 265.944C520.352 265.648 520.67 265.377 521.008 265.131L526 261.5L531.07 258.542C531.687 258.182 532.35 257.907 533.04 257.723L539.5 256L545.112 254.705C545.702 254.569 546.306 254.5 546.911 254.5H551.089C551.694 254.5 552.298 254.569 552.888 254.705L558.5 256L563.453 257.801C563.817 257.934 564.171 258.092 564.512 258.276L569.764 261.104C570.253 261.367 570.714 261.681 571.138 262.04L577 267L580.854 270.425C581.283 270.807 581.671 271.234 582.009 271.699L585.5 276.5L588.53 281.262C588.842 281.752 589.1 282.276 589.299 282.823L591 287.5L592.295 293.112C592.431 293.702 592.5 294.306 592.5 294.911V300.152C592.5 300.716 592.44 301.278 592.322 301.829L591 308L589 314V314C587.316 318.33 590.51 323 595.157 323H882.196C884.021 323 885.5 324.479 885.5 326.304V326.304C885.5 327.077 885.229 327.825 884.734 328.419L880.5 333.5L873.5 340L870.132 343.789C869.712 344.261 869.35 344.782 869.052 345.339L865.5 352L862.493 360.161C862.167 361.047 862 361.983 862 362.927V366.573C862 367.517 862.167 368.453 862.493 369.339L865.5 377.5L868.906 384.737C869.299 385.573 869.834 386.334 870.487 386.987L875.582 392.082C876.19 392.69 876.892 393.196 877.661 393.581L884.715 397.107C885.237 397.368 885.786 397.571 886.352 397.713L894.545 399.761C895.179 399.92 895.831 400 896.485 400H903.348C904.112 400 904.872 399.891 905.605 399.675L911.898 397.824C912.629 397.609 913.325 397.291 913.966 396.879L919.503 393.32C919.834 393.107 920.149 392.87 920.445 392.611L926.586 387.237C927.516 386.423 928.245 385.405 928.715 384.263L931.22 378.179C931.406 377.727 931.551 377.259 931.651 376.781L933.177 369.535C933.39 368.521 933.405 367.476 933.219 366.456L931.651 357.833C931.551 357.279 931.392 356.738 931.178 356.218L928.343 349.332C928.115 348.779 927.826 348.253 927.481 347.765L922 340L918.659 335.657C917.583 334.258 917 332.543 917 330.779V329.454C917 328.18 917.377 326.934 918.084 325.874V325.874C919.281 324.078 921.296 323 923.454 323H1047.5C1051.92 323 1055.5 319.418 1055.5 315L1055.5 182" stroke="black" stroke-dasharray="2 2"/>
</svg>
