<svg width="102" height="73" viewBox="0 0 102 73" fill="none" xmlns="http://www.w3.org/2000/svg">
<rect x="0.5" y="0.5" width="62.2085" height="40.0001" fill="white" stroke="#BEBEBE"/>
<rect x="38.5" y="32.5" width="62.2085" height="40.0001" fill="white" stroke="#BEBEBE"/>
<path fill-rule="evenodd" clip-rule="evenodd" d="M63.1916 61.6139V62.7777V63.9415H62.6742V63.6589C62.5101 63.8685 62.2611 64 61.9227 64C61.2554 64 60.7324 63.4889 60.7324 62.7777C60.7324 62.0671 61.2554 61.5554 61.9227 61.5554C62.2611 61.5554 62.5101 61.6869 62.6742 61.8965V61.6139H63.1916ZM61.987 62.0325C61.5392 62.0325 61.2651 62.3686 61.2651 62.7777C61.2651 63.1868 61.5392 63.5229 61.987 63.5229C62.415 63.5229 62.7038 63.2013 62.7038 62.7777C62.7038 62.3541 62.415 62.0325 61.987 62.0325ZM80.6754 62.7777C80.6754 62.3686 80.9495 62.0325 81.3973 62.0325C81.8258 62.0325 82.1141 62.3541 82.1141 62.7777C82.1141 63.2013 81.8258 63.5229 81.3973 63.5229C80.9495 63.5229 80.6754 63.1868 80.6754 62.7777ZM82.6024 60.6792V62.7777V63.9415H82.0845V63.6589C81.9204 63.8685 81.6714 64 81.3329 64C80.6657 64 80.1426 63.4889 80.1426 62.7777C80.1426 62.0671 80.6657 61.5554 81.3329 61.5554C81.6714 61.5554 81.9204 61.6869 82.0845 61.8965V60.6792H82.6024ZM69.6138 62.0085C69.9472 62.0085 70.1614 62.2131 70.2161 62.5731H68.9814C69.0366 62.237 69.2452 62.0085 69.6138 62.0085ZM68.4389 62.7777C68.4389 62.052 68.9266 61.5554 69.6241 61.5554C70.2907 61.5554 70.7489 62.052 70.754 62.7777C70.754 62.8457 70.7489 62.9092 70.7437 62.9722H68.9768C69.0514 63.3914 69.3551 63.5424 69.6885 63.5424C69.9272 63.5424 70.1813 63.4543 70.3808 63.2988L70.6343 63.6739C70.3455 63.9125 70.0172 64 69.6588 64C68.9466 64 68.4389 63.5179 68.4389 62.7777ZM75.8714 62.7777C75.8714 62.3686 76.1455 62.0325 76.5933 62.0325C77.0212 62.0325 77.3101 62.3541 77.3101 62.7777C77.3101 63.2013 77.0212 63.5229 76.5933 63.5229C76.1455 63.5229 75.8714 63.1868 75.8714 62.7777ZM77.7979 61.6139V62.7777V63.9415H77.2805V63.6589C77.1158 63.8685 76.8674 64 76.5289 64C75.8617 64 75.3386 63.4889 75.3386 62.7777C75.3386 62.0671 75.8617 61.5554 76.5289 61.5554C76.8674 61.5554 77.1158 61.6869 77.2805 61.8965V61.6139H77.7979ZM72.9494 62.7777C72.9494 63.4839 73.452 64 74.2189 64C74.5773 64 74.8161 63.922 75.0748 63.7224L74.8263 63.3133C74.632 63.4499 74.428 63.5229 74.2035 63.5229C73.7904 63.5179 73.4867 63.2258 73.4867 62.7777C73.4867 62.3296 73.7904 62.0375 74.2035 62.0325C74.428 62.0325 74.632 62.1055 74.8263 62.2421L75.0748 61.833C74.8161 61.6334 74.5773 61.5554 74.2189 61.5554C73.452 61.5554 72.9494 62.0715 72.9494 62.7777ZM78.9927 61.8965C79.1271 61.692 79.3214 61.5554 79.62 61.5554C79.7249 61.5554 79.8742 61.5749 79.9887 61.6189L79.8291 62.096C79.7197 62.052 79.6103 62.0375 79.5055 62.0375C79.167 62.0375 78.9978 62.2515 78.9978 62.6367V63.9415H78.4799V61.6139H78.9927V61.8965ZM65.7505 61.799C65.5015 61.6384 65.1585 61.5554 64.7802 61.5554C64.1773 61.5554 63.7893 61.838 63.7893 62.3006C63.7893 62.6802 64.0782 62.9143 64.6104 62.9873L64.8548 63.0213C65.1386 63.0603 65.2725 63.1333 65.2725 63.2648C65.2725 63.4449 65.0833 63.5474 64.73 63.5474C64.3716 63.5474 64.1129 63.4354 63.9386 63.3038L63.6947 63.6979C63.9785 63.9025 64.3369 64 64.7249 64C65.4121 64 65.8104 63.6834 65.8104 63.2403C65.8104 62.8312 65.497 62.6172 64.979 62.5442L64.7352 62.5096C64.5112 62.4806 64.3317 62.4371 64.3317 62.2811C64.3317 62.1105 64.501 62.0085 64.7847 62.0085C65.0884 62.0085 65.3825 62.1206 65.5266 62.2081L65.7505 61.799ZM71.7996 61.8965C71.9335 61.692 72.1278 61.5554 72.4264 61.5554C72.5312 61.5554 72.6805 61.5749 72.795 61.6189L72.6355 62.096C72.5261 62.052 72.4167 62.0375 72.3118 62.0375C71.9734 62.0375 71.8041 62.2515 71.8041 62.6367V63.9415H71.2868V61.6139H71.7996V61.8965ZM68.0109 61.6139H67.1647V60.9077H66.6417V61.6139H66.159V62.0765H66.6417V63.1383C66.6417 63.6784 66.8559 64 67.4679 64C67.6924 64 67.9511 63.932 68.1152 63.82L67.9659 63.3863C67.8115 63.4738 67.6422 63.5179 67.5078 63.5179C67.2491 63.5179 67.1647 63.3618 67.1647 63.1283V62.0765H68.0109V61.6139ZM60.2748 62.4806V63.9415H59.7517V62.6462C59.7517 62.2515 59.5825 62.0325 59.2292 62.0325C58.8856 62.0325 58.6468 62.2471 58.6468 62.6512V63.9415H58.1238V62.6462C58.1238 62.2515 57.95 62.0325 57.6064 62.0325C57.2525 62.0325 57.0235 62.2471 57.0235 62.6512V63.9415H56.501V61.6139H57.0189V61.901C57.2132 61.6284 57.4617 61.5554 57.7158 61.5554C58.0793 61.5554 58.338 61.7115 58.5021 61.9695C58.7215 61.6429 59.0349 61.5504 59.3386 61.5554C59.9164 61.5604 60.2748 61.9305 60.2748 62.4806Z" fill="#231F20"/>
<path d="M73.4207 57.6589H65.5791V43.8741H73.4207V57.6589Z" fill="#FF5F00"/>
<path d="M66.0769 50.7668C66.0769 47.9705 67.4154 45.4796 69.4997 43.8744C67.9755 42.7006 66.0518 42 63.9613 42C59.012 42 55 45.9249 55 50.7668C55 55.6086 59.012 59.5336 63.9613 59.5336C66.0518 59.5336 67.9755 58.833 69.4997 57.6591C67.4154 56.0539 66.0769 53.5631 66.0769 50.7668Z" fill="#EB001B"/>
<path d="M84.0003 50.7668C84.0003 55.6086 79.9883 59.5336 75.039 59.5336C72.9484 59.5336 71.0248 58.833 69.5 57.6591C71.5849 56.0539 72.9234 53.5631 72.9234 50.7668C72.9234 47.9705 71.5849 45.4796 69.5 43.8744C71.0248 42.7006 72.9484 42 75.039 42C79.9883 42 84.0003 45.9249 84.0003 50.7668Z" fill="#F79E1B"/>
<path fill-rule="evenodd" clip-rule="evenodd" d="M22.0004 26.9066H18.5387L15.9428 17.5973C15.8196 17.1691 15.558 16.7905 15.1731 16.6121C14.2128 16.1637 13.1545 15.8068 12 15.6268V15.2684H17.5766C18.3463 15.2684 18.9235 15.8068 19.0197 16.4321L20.3666 23.1472L23.8267 15.2684H27.1922L22.0004 26.9066ZM29.1163 26.9066H25.847L28.5391 15.2684H31.8084L29.1163 26.9066ZM36.0381 18.4925C36.1343 17.8657 36.7116 17.5073 37.385 17.5073C38.4433 17.4173 39.5961 17.5973 40.5582 18.0441L41.1354 15.5384C40.1733 15.18 39.1151 15 38.1547 15C34.9816 15 32.6726 16.6121 32.6726 18.8494C32.6726 20.5514 34.3081 21.4451 35.4626 21.9835C36.7116 22.5203 37.1926 22.8787 37.0964 23.4156C37.0964 24.2208 36.1343 24.5792 35.174 24.5792C34.0195 24.5792 32.865 24.3108 31.8084 23.8624L31.2312 26.3697C32.3857 26.8166 33.6347 26.9965 34.7891 26.9965C38.3471 27.085 40.5582 25.4745 40.5582 23.0572C40.5582 20.013 36.0381 19.8346 36.0381 18.4925ZM52 26.9066L49.4041 15.2684H46.6158C46.0386 15.2684 45.4613 15.6268 45.2689 16.1637L40.462 26.9066H43.8275L44.4993 25.2061H48.6345L49.0193 26.9066H52ZM47.0968 18.4026L48.0572 22.7888H45.3651L47.0968 18.4026Z" fill="#172B85"/>
</svg>
