<svg width="98" height="64" viewBox="0 0 98 64" fill="none" xmlns="http://www.w3.org/2000/svg">
<rect x="0.5" y="0.5" width="97" height="62.5676" fill="white" stroke="#BEBEBE"/>
<path fill-rule="evenodd" clip-rule="evenodd" d="M37.4069 46.8786V48.8888V50.8989H36.497V50.4108C36.2084 50.7728 35.7705 51 35.1753 51C34.0019 51 33.082 50.1172 33.082 48.8888C33.082 47.6613 34.0019 46.7775 35.1753 46.7775C35.7705 46.7775 36.2084 47.0047 36.497 47.3667V46.8786H37.4069ZM35.2885 47.6016C34.5009 47.6016 34.0189 48.1821 34.0189 48.8887C34.0189 49.5954 34.5009 50.1759 35.2885 50.1759C36.0411 50.1759 36.5491 49.6204 36.5491 48.8887C36.5491 48.1571 36.0411 47.6016 35.2885 47.6016ZM68.1542 48.8887C68.1542 48.1821 68.6362 47.6016 69.4238 47.6016C70.1774 47.6016 70.6844 48.1571 70.6844 48.8887C70.6844 49.6204 70.1774 50.1759 69.4238 50.1759C68.6362 50.1759 68.1542 49.5954 68.1542 48.8887ZM71.5432 45.2641V48.8887V50.8989H70.6323V50.4108C70.3437 50.7728 69.9058 51 69.3106 51C68.1372 51 67.2173 50.1172 67.2173 48.8887C67.2173 47.6613 68.1372 46.7775 69.3106 46.7775C69.9058 46.7775 70.3437 47.0047 70.6323 47.3667V45.2641H71.5432ZM48.7012 47.5602C49.2874 47.5602 49.6642 47.9135 49.7603 48.5354H47.5889C47.6861 47.9549 48.0528 47.5602 48.7012 47.5602ZM46.6349 48.8888C46.6349 47.6353 47.4927 46.7775 48.7192 46.7775C49.8916 46.7775 50.6973 47.6353 50.7063 48.8888C50.7063 49.0062 50.6973 49.116 50.6882 49.2247H47.5808C47.7121 49.9487 48.2462 50.2096 48.8324 50.2096C49.2523 50.2096 49.6992 50.0575 50.0499 49.7889L50.4958 50.4368C49.9878 50.8489 49.4106 51 48.7803 51C47.5277 51 46.6349 50.1672 46.6349 48.8888ZM59.7058 48.8887C59.7058 48.1821 60.1878 47.6016 60.9755 47.6016C61.728 47.6016 62.236 48.1571 62.236 48.8887C62.236 49.6204 61.728 50.1759 60.9755 50.1759C60.1878 50.1759 59.7058 49.5954 59.7058 48.8887ZM63.0938 46.8786V48.8888V50.8989H62.184V50.4108C61.8944 50.7728 61.4575 51 60.8622 51C59.6888 51 58.7689 50.1172 58.7689 48.8888C58.7689 47.6613 59.6888 46.7775 60.8622 46.7775C61.4575 46.7775 61.8944 47.0047 62.184 47.3667V46.8786H63.0938ZM54.5672 48.8888C54.5672 50.1085 55.451 51 56.7998 51C57.4301 51 57.8499 50.8652 58.3049 50.5206L57.868 49.8139C57.5263 50.0498 57.1675 50.1759 56.7727 50.1759C56.0462 50.1672 55.5121 49.6628 55.5121 48.8888C55.5121 48.1147 56.0462 47.6103 56.7727 47.6016C57.1675 47.6016 57.5263 47.7277 57.868 47.9636L58.3049 47.2569C57.8499 46.9123 57.4301 46.7775 56.7998 46.7775C55.451 46.7775 54.5672 47.669 54.5672 48.8888ZM65.195 47.3667C65.4315 47.0134 65.7732 46.7775 66.2983 46.7775C66.4826 46.7775 66.7452 46.8112 66.9466 46.8873L66.666 47.7113C66.4736 47.6353 66.2812 47.6103 66.0968 47.6103C65.5016 47.6103 65.204 47.9799 65.204 48.6452V50.8989H64.2931V46.8786H65.195V47.3667ZM41.9071 47.1982C41.4692 46.9209 40.866 46.7775 40.2006 46.7775C39.1404 46.7775 38.458 47.2656 38.458 48.0647C38.458 48.7203 38.966 49.1246 39.902 49.2507L40.3319 49.3095C40.8309 49.3769 41.0664 49.503 41.0664 49.7302C41.0664 50.0411 40.7337 50.2183 40.1124 50.2183C39.4821 50.2183 39.0272 50.0248 38.7205 49.7976L38.2917 50.4782C38.7907 50.8315 39.421 51 40.1034 51C41.3119 51 42.0123 50.4532 42.0123 49.6878C42.0123 48.9812 41.4612 48.6115 40.5503 48.4854L40.1214 48.4257C39.7276 48.3756 39.412 48.3005 39.412 48.031C39.412 47.7364 39.7096 47.5602 40.2086 47.5602C40.7427 47.5602 41.2598 47.7537 41.5133 47.9048L41.9071 47.1982ZM52.5451 47.3667C52.7806 47.0134 53.1223 46.7775 53.6474 46.7775C53.8317 46.7775 54.0943 46.8112 54.2957 46.8873L54.0151 47.7113C53.8227 47.6353 53.6303 47.6103 53.4459 47.6103C52.8507 47.6103 52.5531 47.9799 52.5531 48.6452V50.8989H51.6432V46.8786H52.5451V47.3667ZM45.8822 46.8786H44.3941V45.6588H43.4742V46.8786H42.6255V47.6776H43.4742V49.5116C43.4742 50.4445 43.851 51 44.9272 51C45.322 51 45.777 50.8825 46.0656 50.689L45.803 49.94C45.5315 50.0912 45.2339 50.1672 44.9974 50.1672C44.5424 50.1672 44.3941 49.8977 44.3941 49.4943V47.6776H45.8822V46.8786ZM32.2773 48.3756V50.8989H31.3574V48.6616C31.3574 47.9799 31.0598 47.6016 30.4385 47.6016C29.8343 47.6016 29.4144 47.9722 29.4144 48.6702V50.8989H28.4945V48.6616C28.4945 47.9799 28.1889 47.6016 27.5846 47.6016C26.9623 47.6016 26.5595 47.9722 26.5595 48.6702V50.8989H25.6406V46.8786H26.5515V47.3744C26.8932 46.9036 27.3301 46.7775 27.777 46.7775C28.4163 46.7775 28.8713 47.0471 29.1599 47.4928C29.5457 46.9287 30.0968 46.7688 30.6309 46.7775C31.647 46.7862 32.2773 47.4254 32.2773 48.3756Z" fill="#231F20"/>
<path d="M55.3959 40.0472H41.6055V16.2371H55.3959V40.0472Z" fill="#FF5F00"/>
<path d="M42.4801 28.1427C42.4801 23.3127 44.8339 19.0103 48.4995 16.2376C45.819 14.2101 42.436 13 38.7594 13C30.0555 13 23 19.7795 23 28.1427C23 36.5058 30.0555 43.2853 38.7594 43.2853C42.436 43.2853 45.819 42.0752 48.4995 40.0477C44.8339 37.275 42.4801 32.9726 42.4801 28.1427Z" fill="#EB001B"/>
<path d="M74 28.1427C74 36.5058 66.9445 43.2853 58.2406 43.2853C54.564 43.2853 51.181 42.0752 48.4995 40.0477C52.1661 37.275 54.5199 32.9726 54.5199 28.1427C54.5199 23.3127 52.1661 19.0103 48.4995 16.2376C51.181 14.2101 54.564 13 58.2406 13C66.9445 13 74 19.7795 74 28.1427Z" fill="#F79E1B"/>
</svg>
