<svg width="98" height="64" viewBox="0 0 98 64" fill="none" xmlns="http://www.w3.org/2000/svg">
<rect x="0.5" y="0.5" width="97" height="62.5676" fill="white" stroke="#BEBEBE"/>
<path fill-rule="evenodd" clip-rule="evenodd" d="M33.7699 39.5855H28.4978L24.5443 25.2023C24.3567 24.5406 23.9582 23.9557 23.3721 23.68C21.9095 22.9873 20.2978 22.4359 18.5396 22.1578V21.6041H27.0326C28.2047 21.6041 29.0838 22.4359 29.2304 23.402L31.2816 33.7771L36.5512 21.6041H41.6769L33.7699 39.5855ZM44.6073 39.5855H39.6282L43.7282 21.6041H48.7073L44.6073 39.5855ZM55.149 26.5854C55.2955 25.617 56.1746 25.0632 57.2003 25.0632C58.812 24.9242 60.5677 25.2023 62.0329 25.8926L62.912 22.0212C61.4468 21.4674 59.8351 21.1893 58.3724 21.1893C53.5398 21.1893 50.0234 23.68 50.0234 27.1368C50.0234 29.7665 52.5142 31.1473 54.2724 31.9791C56.1746 32.8086 56.9072 33.3623 56.7607 34.1918C56.7607 35.4359 55.2955 35.9897 53.8329 35.9897C52.0746 35.9897 50.3164 35.575 48.7073 34.8822L47.8281 38.756C49.5864 39.4464 51.4886 39.7245 53.2468 39.7245C58.6655 39.8612 62.0329 37.3729 62.0329 33.638C62.0329 28.9347 55.149 28.659 55.149 26.5854ZM79.4585 39.5855L75.505 21.6041H71.2585C70.3794 21.6041 69.5003 22.1578 69.2072 22.9873L61.8864 39.5855H67.012L68.0351 36.9582H74.3328L74.9189 39.5855H79.4585ZM71.9911 26.4465L73.4537 33.2234H69.3537L71.9911 26.4465Z" fill="#172B85"/>
</svg>
