<svg width="30" height="41" viewBox="0 0 30 41" fill="none" xmlns="http://www.w3.org/2000/svg">
<path d="M0.933608 26.771C0.933608 26.771 0.349469 27.8499 0.304781 28.5234C0.260093 29.1969 0.710167 34.6808 1.6965 35.8937C2.68283 37.1067 5.69609 40.2987 14.5922 40.3881C23.4884 40.4775 28.0274 36.4332 28.5222 35.6256C29.017 34.818 29.6458 31.0419 29.6905 28.0765C29.7352 25.1111 13.9187 27.1763 13.9187 27.1763L0.933608 26.771Z" fill="#FBB75A"/>
<path d="M14.4136 33.9605C22.3234 34.1839 29.6459 29.332 29.6459 29.332L29.4225 31.758C29.4225 31.758 23.4023 36.3864 14.5477 36.1629C5.69304 35.9395 0.573051 31.758 0.573051 31.758L0.349609 29.6448C0.349609 29.6448 7.49653 33.7625 14.4136 33.9605Z" fill="#F2A05B"/>
<path d="M15.4026 15.0863C12.0318 15.1023 1.87804 15.8939 0.843823 20.2095C-0.19039 24.5251 -0.056325 28.5694 0.12562 28.9269C0.304373 29.2876 0.706566 28.6651 1.65459 29.0163C2.86756 29.4663 2.77818 32.7445 4.98068 33.3287C7.18317 33.9128 7.22785 30.9027 9.74316 31.0815C12.2585 31.2602 11.0902 34.6342 14.4163 34.6757C17.8317 34.7204 16.5645 31.3368 18.9553 31.0368C21.3206 30.7368 20.0789 34.4076 23.3603 33.9128C26.6417 33.418 26.2618 28.7481 27.9408 28.2534C29.2145 27.8799 29.1059 29.1312 29.7092 29.0769C30.204 29.0322 30.0093 22.1853 29.5592 20.6596C29.1091 19.1338 24.8829 15.0416 15.4026 15.0863Z" fill="url(#paint0_radial_3727_14032)"/>
<path d="M5.17865 24.7259C2.78783 23.7172 2.01536 22.7628 1.62913 22.2776C1.361 21.9392 0.955611 21.8052 0.728978 22.0765C0.505537 22.3446 0.617258 22.6383 0.863043 22.9288C1.10883 23.2224 2.21007 24.9046 5.04139 25.8271C7.53116 26.6379 9.17505 26.7496 9.80388 26.772C10.5029 26.7975 10.7934 25.9197 9.87091 25.8048C8.81435 25.6739 7.78652 25.8271 5.17865 24.7259ZM12.3607 26.1272C11.7478 26.1112 11.5212 26.4559 11.5212 26.7273C11.5212 27.056 11.8053 27.238 12.3 27.2667C12.7948 27.2954 13.0789 26.9667 13.0789 26.7432C13.0821 26.5166 12.9448 26.1399 12.3607 26.1272Z" fill="#FDFFFF"/>
<path d="M2.68442 28.2554C2.40352 28.53 2.52163 28.8492 2.65569 29.0151C2.87594 29.2865 3.27175 29.3312 3.47604 29.1716C3.70906 28.9928 3.68033 28.6608 3.5335 28.4406C3.34517 28.1533 2.96212 27.9809 2.68442 28.2554ZM3.46966 29.4365C3.08342 29.6535 3.25579 30.1355 3.46327 30.5314C3.90696 31.374 4.04741 32.0603 4.55813 32.3987C5.07524 32.7402 5.71364 32.504 5.65299 32.1497C5.55723 31.5847 5.2093 32.0124 4.90925 31.2974C4.78477 31.0006 4.5294 30.525 4.23255 29.8834C4.06018 29.5067 3.85908 29.2162 3.46966 29.4365ZM12.4648 31.7124C12.0849 31.9837 12.3147 32.67 12.7935 33.2095C13.2723 33.7489 13.9458 34.183 14.68 33.9883C15.2482 33.8383 15.2035 33.2094 14.8141 33.0307C14.4247 32.8519 13.9618 32.9573 13.5405 32.4019C13.3362 32.1305 13.0489 31.2942 12.4648 31.7124ZM21.4854 31.1219C21.1087 31.3996 21.463 31.9773 21.6961 32.3763C21.9291 32.7753 22.6984 33.5414 23.1484 33.0882C23.4772 32.7562 22.858 32.354 22.5675 31.9199C22.3504 31.5911 21.9865 30.7484 21.4854 31.1219ZM20.8374 30.0813C20.5884 30.2632 20.6267 30.5505 20.7161 30.7101C20.8374 30.9208 21.2268 31.0102 21.4503 30.8154C21.6673 30.6271 21.5396 30.3207 21.4215 30.1707C21.3034 30.0206 21.0034 29.96 20.8374 30.0813Z" fill="#FCE9CA"/>
<path d="M22.2406 12.5488C22.2406 12.5488 19.7732 15.9515 19.9296 16.6282C20.0509 17.1612 20.6255 17.7326 21.8544 17.8156C23.0833 17.8986 23.8526 17.3272 24.0282 16.7846C24.2644 16.0632 23.4951 13.7649 23.2174 13.3085C22.8248 12.6605 22.4704 12.5679 22.2406 12.5488ZM27.3415 15.6195L24.6889 19.335C24.6889 19.335 24.7687 20.149 25.5667 20.5001C26.3998 20.864 28.1012 20.8863 28.5895 20.1745C29.145 19.3669 28.9056 17.9784 28.6247 17.1389C28.4076 16.4813 27.9479 15.5493 27.3415 15.6195ZM22.8503 19.817L20.2839 23.7591C20.2839 23.7591 20.2552 24.7359 21.4139 25.0072C22.3332 25.2211 24.0218 25.2306 24.6506 24.6912C25.2794 24.1517 25.2283 23.0665 24.6857 21.9269C24.092 20.6884 23.211 19.5233 22.8503 19.817ZM16.4599 20.7842L13.0987 24.8508C13.0987 24.8508 13.0317 25.636 13.8616 26.0191C14.9277 26.5138 16.5684 26.4883 17.4015 26.0414C18.1325 25.6488 18.2442 24.4039 17.9793 23.6251C17.7622 22.9898 17.4622 22.4504 17.3505 22.1567C17.2387 21.8663 16.8621 20.9629 16.4599 20.7842ZM9.22359 19.4116L6.36035 23.8836C6.36035 23.8836 6.44973 24.9274 7.5414 25.1413C8.48304 25.3264 10.0344 25.4349 10.5738 24.7582C11.1133 24.0815 11.1356 22.3642 10.6185 21.1512C10.1014 19.9415 9.65132 19.5712 9.22359 19.4116ZM4.87606 15.1949L4.49302 15.0577L1.93941 19.0924C1.93941 19.0924 1.86599 19.8042 2.45971 20.1841C3.0215 20.5448 4.80903 20.7235 5.77302 20.2511C6.7402 19.7787 6.66997 18.1954 5.99646 16.8356C5.37402 15.5748 4.87606 15.1949 4.87606 15.1949ZM9.56194 12.2168L7.08175 16.4973C7.08175 16.4973 7.19027 17.0527 8.04573 17.2953C8.88523 17.5347 9.98329 17.49 10.5451 17.0559C11.1101 16.6218 11.2601 15.6674 11.0015 14.5597C10.826 13.8032 10.1461 12.4339 9.56194 12.2168Z" fill="#EE5B4A"/>
<path d="M7.11321 20.9712C6.58015 22.1203 5.83322 23.8248 6.68548 24.3866C7.53775 24.9484 8.7986 24.0483 9.24548 22.3629C9.69236 20.6775 9.76259 19.8348 9.33486 19.4741C8.91032 19.1198 7.80907 19.4677 7.11321 20.9712ZM4.22125 14.9255C3.61477 14.9638 2.91891 15.9022 2.57098 16.8247C2.22305 17.7472 1.81766 18.8932 1.96449 19.2634C2.11133 19.6337 3.11043 20.0838 3.53816 19.2985C3.96589 18.5133 3.8797 17.4631 3.97546 16.9269C4.14464 15.982 4.87561 15.1968 4.87561 15.1968C4.87561 15.1968 4.62663 14.8999 4.22125 14.9255ZM9.02842 12.0303C8.59431 12.0559 8.18254 12.2378 7.81227 13.4508C7.61117 14.1147 7.04299 14.884 6.98873 15.6086C6.93446 16.3364 7.09725 16.5247 7.09725 16.5247C7.09725 16.5247 8.13785 16.7258 8.54324 15.915C8.93266 15.1393 8.81137 14.3477 8.94224 13.9806C9.07311 13.6104 9.67002 12.2665 9.67002 12.2665C9.67002 12.2665 9.40827 12.0112 9.02842 12.0303Z" fill="#FD6F42"/>
<path d="M22.1332 12.526C21.6767 12.5037 21.0096 13.0687 20.585 14.0773C20.1573 15.086 19.8987 16.1809 19.9179 16.5033C19.937 16.8257 21.6224 16.864 22.2161 15.8904C22.5896 15.2775 22.5705 13.6337 22.529 13.2378C22.4907 12.8388 22.6088 12.5484 22.1332 12.526ZM27.1989 15.6063C26.8063 15.6702 25.8806 15.8968 25.1337 17.5088C24.6676 18.5142 24.5272 19.4814 24.8655 19.6219C25.2039 19.7623 26.1264 19.9028 26.5477 19.3761C26.9691 18.8494 27.4351 17.4162 27.5404 16.7012C27.6426 15.9926 27.7128 15.5233 27.1989 15.6063ZM20.3775 24.0301C20.8819 24.4897 21.8427 24.0556 22.1874 23.647C22.7141 23.0182 23.1546 21.7031 23.1769 20.7838C23.1929 20.1166 23.3461 19.74 22.762 19.7719C22.5609 19.7847 22.0087 19.8836 21.3703 20.8285C20.8627 21.5754 20.5723 22.1659 20.4031 22.8969C20.2594 23.5034 20.2307 23.896 20.3775 24.0301ZM15.7938 20.5571C15.4682 20.5444 14.849 20.7359 14.2106 21.7924C13.569 22.849 12.8412 24.5567 13.154 25.0834C13.47 25.6101 14.2425 25.6676 15.0309 25.342C15.8162 25.0164 16.3556 23.88 16.4003 23.4204C16.445 22.9607 16.7482 20.9944 16.4897 20.8029C16.2311 20.6146 16.0747 20.5699 15.7938 20.5571Z" fill="#FF6E45"/>
<path d="M27.954 8.22582C27.954 12.6723 20.8486 16.6144 15.3105 16.6144C9.77232 16.6144 2.72754 12.4329 2.72754 7.98642C2.72754 3.53994 9.67337 0 15.2083 0C20.7433 0 27.954 3.77935 27.954 8.22582Z" fill="url(#paint1_radial_3727_14032)"/>
<path d="M17.8958 9.85066C18.0075 9.69425 20.111 9.86982 20.2993 9.9177C20.3887 9.94004 20.3664 17.9616 20.2547 18.0286C20.1589 18.0861 19.7822 18.434 19.064 18.434C18.3458 18.434 17.9404 18.1882 17.8064 18.0956C17.6723 18.0063 17.784 10.0071 17.8958 9.85066Z" fill="#FEA8A8"/>
<path d="M14.032 11.8298C13.9458 11.9032 13.9203 19.6502 13.9873 19.7172C14.0543 19.7843 14.5044 20.1897 15.379 20.1673C16.2568 20.145 16.659 19.829 16.7261 19.7619C16.7931 19.6949 16.7707 11.8298 16.7037 11.7851C16.6367 11.7372 14.1661 11.7149 14.032 11.8298Z" fill="#EC7FAE"/>
<path d="M10.2572 10.1666C10.1486 10.2304 10.1454 18.0987 10.1901 18.1658C10.2348 18.2328 10.886 18.4594 11.4925 18.4594C12.099 18.4594 12.6831 18.3254 12.7501 18.2583C12.8172 18.1913 12.7725 10.2592 12.7054 10.1698C12.6384 10.0804 10.3689 10.0996 10.2572 10.1666Z" fill="#93C7EE"/>
<path d="M15.4033 4.70508C15.5373 4.70508 15.7193 5.76163 15.9651 6.36812C16.2109 6.9746 17.1334 8.48123 16.7727 9.78357C16.38 11.2104 14.1552 11.4881 13.6732 9.62717C13.3349 8.32482 14.4808 6.9746 14.7745 6.36812C14.9755 5.94996 15.3107 4.70508 15.4033 4.70508Z" fill="url(#paint2_radial_3727_14032)"/>
<path d="M19.0181 3.06445C19.0181 3.06445 18.6861 4.57747 18.2775 5.22226C17.6934 6.14475 17.3231 7.40559 17.7828 8.43661C18.3669 9.73896 20.7066 9.67192 20.7481 7.44709C20.7705 6.27881 20.2598 5.65956 19.8959 4.99881C19.6469 4.54874 19.1745 3.10914 19.0181 3.06445Z" fill="url(#paint3_radial_3727_14032)"/>
<path d="M11.5823 3.3125C11.5823 3.3125 10.9758 4.81913 10.5928 5.38093C10.2097 5.94272 9.52983 7.26741 9.91925 8.32396C10.3917 9.60396 12.4824 9.75718 12.8846 8.07818C13.1528 6.95459 12.5686 6.10232 12.1664 5.17983C11.9143 4.59888 11.5823 3.3125 11.5823 3.3125Z" fill="url(#paint4_radial_3727_14032)"/>
<defs>
<radialGradient id="paint0_radial_3727_14032" cx="0" cy="0" r="1" gradientUnits="userSpaceOnUse" gradientTransform="translate(15.5099 19.9398) rotate(91.1173) scale(14.6145 31.8148)">
<stop offset="0.445" stop-color="#FEEAC9"/>
<stop offset="0.565" stop-color="#FEE7C2"/>
<stop offset="0.741" stop-color="#FEDEAE"/>
<stop offset="0.952" stop-color="#FFCF8D"/>
<stop offset="1" stop-color="#FFCB85"/>
</radialGradient>
<radialGradient id="paint1_radial_3727_14032" cx="0" cy="0" r="1" gradientUnits="userSpaceOnUse" gradientTransform="translate(15.3427 8.3068) scale(12.4565 7.66948)">
<stop offset="0.034" stop-color="#FFE265" stop-opacity="0.7"/>
<stop offset="0.112" stop-color="#FFE575" stop-opacity="0.643"/>
<stop offset="0.417" stop-color="#FFF0B0" stop-opacity="0.422"/>
<stop offset="0.677" stop-color="#FFF8DB" stop-opacity="0.234"/>
<stop offset="0.88" stop-color="#FFFDF5" stop-opacity="0.087"/>
<stop offset="1" stop-color="white" stop-opacity="0"/>
</radialGradient>
<radialGradient id="paint2_radial_3727_14032" cx="0" cy="0" r="1" gradientUnits="userSpaceOnUse" gradientTransform="translate(15.3806 11.4013) scale(6.20144 6.20145)">
<stop offset="0.17" stop-color="#FF9616"/>
<stop offset="0.654" stop-color="#FFD429"/>
</radialGradient>
<radialGradient id="paint3_radial_3727_14032" cx="0" cy="0" r="1" gradientUnits="userSpaceOnUse" gradientTransform="translate(19.306 9.75715) scale(6.07888 6.07887)">
<stop offset="0.17" stop-color="#FF9616"/>
<stop offset="0.654" stop-color="#FFD429"/>
</radialGradient>
<radialGradient id="paint4_radial_3727_14032" cx="0" cy="0" r="1" gradientUnits="userSpaceOnUse" gradientTransform="translate(11.5223 9.75462) scale(6.01791 6.01791)">
<stop offset="0.17" stop-color="#FF9616"/>
<stop offset="0.654" stop-color="#FFD429"/>
</radialGradient>
</defs>
</svg>
