<svg width="40" height="40" viewBox="0 0 40 40" fill="none" xmlns="http://www.w3.org/2000/svg">
<path opacity="0.8" d="M18.6094 15.6875L20.5469 26.75L22.4844 37.8125C22.9219 40.25 38.1094 37.625 37.6719 35.125L36.8594 30.625C38.4219 29.4375 39.3594 27.375 39.4844 25.625C39.6094 23.8125 39.2344 20.3125 38.6094 18.5625C38.1094 17.1875 36.1719 17.375 34.5469 17.75L33.7344 13.125L18.6094 15.6875ZM36.4844 28.25L34.9844 19.75C35.9219 19.5625 36.8594 19.5625 37.1094 20.25C37.6094 21.8125 37.6719 24.25 37.6094 25.875C37.4844 26.75 37.1094 27.5625 36.4844 28.25ZM19.9219 16.875L32.9844 14.5625L36.3594 33.5625C36.7344 35.5625 23.6719 37.875 23.2969 35.875L19.9219 16.875Z" fill="#BCBCBC"/>
<path d="M33.4219 21.3125L21.7344 23.375L23.7969 35.1875C24.1094 37 35.7969 34.9375 35.4844 33.125L33.4219 21.3125Z" fill="#FDB73E"/>
<path d="M17.4222 16.5632C17.2347 13.9382 20.5472 12.0632 22.9847 13.1257C23.7972 10.8757 26.6722 10.8757 27.9222 12.0007C28.9222 11.4382 31.1722 11.0632 32.3597 12.3132C34.7972 11.3132 36.8597 15.1882 32.9847 15.6257C27.3597 14.6882 21.0472 25.9382 21.0472 25.9382C19.9847 26.1257 18.5472 25.6257 18.8597 23.9382C18.2347 24.0007 17.2347 22.9382 17.4847 21.9382C14.9222 21.2507 15.1097 17.2507 17.4222 16.5632Z" fill="#D8D2B8"/>
<path d="M17.9222 16.8119C17.7347 13.8744 21.6097 12.8119 23.3597 13.4994C23.9847 11.8119 26.4847 11.0619 27.9222 12.4369C28.6722 11.9369 31.0472 11.4369 32.1722 12.6244C34.7972 11.5619 36.0472 15.7494 32.4222 15.6869L33.4222 21.3119L24.9222 22.8119C24.8597 23.4369 23.9847 24.0619 22.9222 23.8744C23.1097 24.9369 22.0472 25.8744 21.0472 25.9994C19.8597 26.1244 18.9222 24.9994 19.4222 23.6869C18.2972 23.6869 17.7972 22.6869 18.0472 21.8119C15.6097 21.1869 15.6097 17.3119 17.9222 16.8119Z" fill="white"/>
<path d="M29.9223 23.1248C31.2348 22.8748 32.5473 23.7498 32.7348 24.9998C32.9848 26.3123 32.0473 27.4998 30.7348 27.7498C29.4223 27.9998 28.1098 27.1248 27.9223 25.8748C27.6723 24.6248 28.6098 23.3748 29.9223 23.1248Z" fill="#FEE0AF"/>
<path d="M27.7904 31.6621C28.8102 31.4823 29.5008 30.5648 29.3329 29.613C29.165 28.6612 28.2022 28.0355 27.1824 28.2153C26.1626 28.3952 25.472 29.3126 25.6399 30.2644C25.8078 31.2162 26.7706 31.842 27.7904 31.6621Z" fill="#FEE0AF"/>
<path d="M31.5621 32.0479C32.242 31.9281 32.7009 31.3074 32.5871 30.6615C32.4733 30.0156 31.8299 29.5891 31.15 29.7089C30.4701 29.8287 30.0112 30.4494 30.125 31.0953C30.2388 31.7412 30.8822 32.1677 31.5621 32.0479Z" fill="#FEE0AF"/>
<path d="M28.9846 32.9997C29.4846 32.9372 29.9221 33.1872 29.9846 33.6872C30.0471 34.1247 29.7346 34.5622 29.2971 34.6247C28.7971 34.6872 28.3596 34.4372 28.2971 33.9372C28.1721 33.5622 28.4846 33.1247 28.9846 32.9997Z" fill="#FEE0AF"/>
<path opacity="0.8" d="M7.6247 6.9375L6.74971 12.0625C4.93721 11.625 2.81221 11.5 2.31221 13C1.56221 14.9375 1.12471 18.8125 1.24971 20.75C1.37471 22.75 2.43721 24.9375 4.18721 26.25L3.31221 31.25C2.81221 33.9375 19.4997 36.875 19.9997 34.1875L24.3122 9.875L7.6247 6.9375ZM3.43721 21.1875C3.31221 19.375 3.37471 16.6875 3.99971 15C4.24971 14.25 5.24971 14.1875 6.31221 14.4375L4.62471 23.75C3.93721 23 3.49971 22.0625 3.43721 21.1875ZM19.1872 32.125C18.8122 34.3125 4.43721 31.8125 4.87471 29.625L8.5622 8.6875L22.9372 11.1875L19.1872 32.125Z" fill="#BCBCBC"/>
<path d="M8.00026 16.0625L20.8128 18.3125L18.5628 31.3125C18.1878 33.25 5.37526 31 5.75026 29.0625L8.00026 16.0625Z" fill="#FDB73E"/>
<path d="M25.6249 10.8756C25.8124 7.9381 22.1874 5.9381 19.4999 7.0631C18.6249 4.6256 15.4374 4.5631 14.0624 5.8756C12.9374 5.2506 10.4374 4.8131 9.18741 6.2506C6.49991 5.1256 4.24991 9.4381 8.49991 9.8756C14.7499 8.8131 21.6249 21.2506 21.6249 21.2506C22.8124 21.4381 24.3749 20.8756 23.9999 19.0006C24.6874 19.1256 25.7499 17.8756 25.5624 16.8131C28.3124 16.0631 28.1249 11.6256 25.6249 10.8756Z" fill="#D8D2B8"/>
<path d="M24.9998 11.1877C25.1873 7.93772 20.9373 6.75022 19.0623 7.56272C18.3748 5.75022 15.6248 4.87522 13.9998 6.37522C13.1873 5.81272 10.6248 5.25022 9.37477 6.56272C6.49977 5.43772 5.06227 10.0002 9.06227 9.93772L7.99977 16.1252L17.3748 17.7502C17.4373 18.4377 18.4373 19.1252 19.5623 18.9377C19.3123 20.1252 20.4998 21.1877 21.6248 21.3127C22.8748 21.4377 23.9998 20.1877 23.3748 18.8127C24.6248 18.8127 25.1248 17.6877 24.8748 16.7502C27.5623 15.9377 27.5623 11.6877 24.9998 11.1877Z" fill="white"/>
<path d="M20.4375 9.3116C20.5625 8.1866 19.6875 6.81161 17.625 7.24911C17.375 6.74911 16.8125 6.4991 15.9375 6.9991C16.9375 6.9991 17.25 7.3116 17.4375 7.8116C19.5 7.8116 19.6875 9.6866 19.6875 9.6866C19.6875 9.6866 20.5625 9.7491 20.8125 10.8741C21.1875 10.3741 21.125 9.6241 20.4375 9.3116ZM21.5625 13.9366C20.0625 12.4991 18.5625 13.1241 18.0625 14.1241C17.3125 13.9991 16.875 14.5616 16.8125 15.1241C17.6875 14.3116 18.4375 14.7491 18.4375 14.7491C18.4375 14.7491 19.625 13.3116 21.375 14.4366C21.8125 14.0616 22.25 14.0616 23.0625 14.5616C22.625 13.7491 22.0625 13.6866 21.5625 13.9366Z" fill="#D8D2B8"/>
<path d="M11.8127 18.0619C10.3127 17.8119 8.9377 18.7494 8.6877 20.1244C8.4377 21.5619 9.4377 22.8744 10.9377 23.1869C12.4377 23.4369 13.8127 22.4994 14.0627 21.1244C14.3127 19.6869 13.3127 18.3744 11.8127 18.0619Z" fill="#FEE0AF"/>
<path d="M16.5272 25.9297C16.7127 24.8758 15.9535 23.8615 14.8317 23.6641C13.7098 23.4667 12.6501 24.161 12.4647 25.2149C12.2792 26.2687 13.0384 27.2831 14.1602 27.4805C15.2821 27.6778 16.3418 26.9835 16.5272 25.9297Z" fill="#FEE0AF"/>
<path d="M10.4381 25.3747C9.68809 25.2497 9.00059 25.6872 8.87559 26.4372C8.75059 27.1247 9.25059 27.8122 10.0006 27.9372C10.7506 28.0622 11.4381 27.6247 11.5631 26.8747C11.6881 26.1872 11.1881 25.4997 10.4381 25.3747ZM12.8756 28.9997C12.3756 28.9372 11.8756 29.2497 11.7506 29.7497C11.6881 30.2497 12.0006 30.6872 12.5006 30.8122C13.0006 30.8747 13.5006 30.5622 13.6256 30.0622C13.7506 29.5622 13.4381 29.0622 12.8756 28.9997Z" fill="#FEE0AF"/>
<path d="M27.8125 9.25L33.8125 4.0625L30.9375 2L27.8125 9.25ZM30.5625 10.3125L36.25 11.5625V8.5625L30.5625 10.3125ZM25.8125 7.3125L27.25 1.25H24.1875L25.8125 7.3125Z" fill="#001723"/>
</svg>
