<svg width="18" height="21" viewBox="0 0 18 21" fill="none" xmlns="http://www.w3.org/2000/svg">
<path d="M16.1869 13.2L16.1877 13.1977C17.3661 11.7747 18.0028 10.0366 18 8.25C17.9972 6.06276 17.0481 3.96584 15.3608 2.41922C13.6736 0.872603 11.3861 0.00258035 9 0M16.1869 13.2L16.1815 13.1955L15.726 12.8159L15.726 12.8159L15.726 12.8159L15.7258 12.8161L15.7253 12.8167L15.7233 12.8191L15.7155 12.8285L15.6873 12.8622L15.6588 12.8963M16.1869 13.2L15.6229 12.9954L15.6237 12.9932L15.6588 12.8963M16.1869 13.2C16.1869 13.2 15.9406 13.4955 15.9046 13.5352L9.40866 20.5582L8.99999 20.1164M15.6588 12.8963L15.6592 12.8953L15.7256 12.8151C16.818 11.4959 17.4026 9.89237 17.4 8.25094L17.4 8.25077C17.3974 6.24005 16.5253 4.30061 14.9554 2.86151C13.3839 1.42096 11.243 0.602583 9 0.6M15.6588 12.8963L15.5994 12.9674C15.5666 13.0065 15.5331 13.0464 15.5058 13.0787L15.4714 13.1191C15.465 13.1265 15.4615 13.1306 15.4601 13.1322M9 0.6C9.00022 0.6 9.00043 0.6 9.00065 0.6L9 0M9 0.6C8.99978 0.6 8.99957 0.6 8.99935 0.6L9 0M9 0.6C6.75704 0.602583 4.6161 1.42096 3.04459 2.86151C1.47466 4.30061 0.602597 6.24005 0.600009 8.25077L0.600009 8.25096C0.597383 9.8932 1.18221 11.4975 2.27521 12.8173M9 0C6.61392 0.00258035 4.32637 0.872603 2.63915 2.41922C0.951939 3.96584 0.0028245 6.06276 9.57508e-06 8.25C-0.00284824 10.0374 0.634084 11.7763 1.8131 13.2M2.27521 12.8173L2.27515 12.8172L2.27512 12.8172L2.27512 12.8172L1.8131 13.2M2.27521 12.8173L1.8131 13.2M2.27521 12.8173L2.27527 12.8174L2.27577 12.818L2.27777 12.8204L2.28549 12.8297L2.31352 12.8635L2.40119 12.9687C2.43403 13.008 2.46743 13.0477 2.49473 13.0799C2.52075 13.1106 2.53349 13.1252 2.53612 13.1283C2.53676 13.129 2.53681 13.1291 2.5363 13.1286L2.53912 13.1316L2.53911 13.1316L8.99999 20.1164M1.8131 13.2C1.8131 13.2 2.05855 13.4962 2.09864 13.539L8.59134 20.5582L8.99999 20.1164M8.99999 20.1164L15.4601 13.1322M15.4601 13.1322C15.4596 13.1328 15.4594 13.1331 15.4594 13.1331C15.4594 13.1331 15.4596 13.1329 15.4599 13.1325L15.9046 13.5352L15.4642 13.1278L15.4601 13.1322ZM12.8727 8.25082V8.25C12.8727 7.52575 12.6381 6.82268 12.206 6.22986C11.7745 5.63781 11.1668 5.18374 10.4654 4.91743C9.76424 4.65121 8.99529 4.58219 8.2539 4.71738C7.51242 4.85257 6.82482 5.18733 6.2804 5.68639C5.73543 6.18594 5.35755 6.82897 5.20381 7.53749C5.04994 8.24659 5.1295 8.98093 5.42963 9.64512C5.72937 10.3085 6.23297 10.8669 6.86839 11.2561C7.50341 11.645 8.24509 11.85 9 11.85L9.00069 11.85C10.0112 11.8488 10.9893 11.4808 11.7184 10.8125C12.4492 10.1426 12.8714 9.22267 12.8727 8.25082Z" stroke="black" stroke-width="1.2"/>
</svg>
