<svg width="21" height="19" viewBox="0 0 21 19" fill="none" xmlns="http://www.w3.org/2000/svg">
<path d="M10.0655 19C8.07473 19 6.12867 18.4428 4.47341 17.399C2.81814 16.3551 1.52803 14.8714 0.766194 13.1355C0.00436115 11.3996 -0.194969 9.48946 0.19341 7.64665C0.581789 5.80383 1.54043 4.11109 2.94812 2.78249C4.3558 1.45389 6.1493 0.549104 8.10181 0.182544C10.0543 -0.184015 12.0782 0.00411618 13.9174 0.723149C15.7566 1.44218 17.3286 2.65982 18.4346 4.22209C19.5406 5.78435 20.131 7.62108 20.131 9.5C20.131 12.0196 19.0705 14.4359 17.1829 16.2175C15.2952 17.9991 12.735 19 10.0655 19ZM10.0655 1.35715C8.35912 1.35715 6.69107 1.83472 5.27227 2.72947C3.85348 3.62421 2.74766 4.89595 2.09466 6.38387C1.44167 7.87178 1.27081 9.50903 1.60371 11.0886C1.9366 12.6682 2.7583 14.1191 3.96488 15.2579C5.17147 16.3967 6.70875 17.1722 8.38234 17.4864C10.0559 17.8006 11.7906 17.6393 13.3671 17.023C14.9436 16.4067 16.291 15.363 17.239 14.0239C18.187 12.6848 18.693 11.1105 18.693 9.5C18.693 7.34038 17.7841 5.26922 16.1661 3.74213C14.5481 2.21505 12.3537 1.35715 10.0655 1.35715Z" fill="black"/>
<path d="M13.3647 13.5712L9.3457 9.77794V3.39258H10.7836V9.21472L14.3785 12.6144L13.3647 13.5712Z" fill="black"/>
</svg>
