<svg width="74" height="80" viewBox="0 0 74 80" fill="none" xmlns="http://www.w3.org/2000/svg">
<g filter="url(#filter0_dd_6604_13103)">
<rect x="10" y="12" width="54" height="54" rx="10" fill="white"/>
</g>
<path d="M42.016 22.5H31.984C25.6416 22.5 20.5 27.6416 20.5 33.984V44.016C20.5 50.3584 25.6416 55.5 31.984 55.5H42.016C48.3584 55.5 53.5 50.3584 53.5 44.016V33.984C53.5 27.6416 48.3584 22.5 42.016 22.5Z" fill="#F8DE40"/>
<path d="M32.3604 35.766C32.359 35.8234 32.3395 35.879 32.3047 35.9247C32.2699 35.9704 32.2215 36.004 32.1665 36.0206C32.1114 36.0373 32.0526 36.0361 31.9983 36.0173C31.9439 35.9985 31.8969 35.963 31.8639 35.916C31.6394 35.5781 31.3491 35.2888 31.0104 35.0655C30.5848 34.7828 30.0852 34.6321 29.5742 34.6321C29.0632 34.6321 28.5636 34.7828 28.1379 35.0655C27.7979 35.2894 27.5066 35.5797 27.2814 35.919C27.2485 35.966 27.2015 36.0015 27.1471 36.0203C27.0928 36.0391 27.0339 36.0403 26.9789 36.0236C26.9239 36.007 26.8755 35.9734 26.8407 35.9277C26.8058 35.882 26.7863 35.8264 26.7849 35.769C26.7788 35.2134 26.9618 34.6722 27.3039 34.2345C27.5745 33.8915 27.9192 33.6142 28.3123 33.4236C28.7054 33.2331 29.1366 33.134 29.5734 33.134C30.0103 33.134 30.4415 33.2331 30.8345 33.4236C31.2276 33.6142 31.5724 33.8915 31.8429 34.2345C32.183 34.6721 32.3654 35.2117 32.3604 35.766Z" fill="#864E20"/>
<path d="M47.2151 35.766C47.2137 35.8234 47.1941 35.879 47.1593 35.9247C47.1245 35.9704 47.0761 36.004 47.0211 36.0206C46.9661 36.0373 46.9072 36.0361 46.8529 36.0173C46.7985 35.9985 46.7515 35.963 46.7186 35.916C46.4941 35.5785 46.2044 35.2893 45.8666 35.0655C45.4406 34.7827 44.9408 34.6319 44.4296 34.6319C43.9183 34.6319 43.4185 34.7827 42.9926 35.0655C42.6525 35.2894 42.3612 35.5797 42.1361 35.919C42.1031 35.966 42.0561 36.0015 42.0017 36.0203C41.9474 36.0391 41.8885 36.0403 41.8335 36.0236C41.7785 36.007 41.7301 35.9734 41.6953 35.9277C41.6605 35.882 41.641 35.8264 41.6396 35.769C41.6334 35.2134 41.8164 34.6722 42.1586 34.2345C42.4291 33.8915 42.7739 33.6142 43.1669 33.4236C43.56 33.2331 43.9912 33.134 44.4281 33.134C44.8649 33.134 45.2961 33.2331 45.6892 33.4236C46.0822 33.6142 46.427 33.8915 46.6976 34.2345C47.0377 34.6721 47.22 35.2117 47.2151 35.766Z" fill="#864E20"/>
<path d="M53.5 41.907C51.4604 44.9614 48.6896 47.4576 45.4396 49.1685C42.1896 50.8794 38.5635 51.7508 34.891 51.7035C26.578 51.7035 25.0465 50.2035 21.178 47.91C21.9801 50.1328 23.448 52.0542 25.3817 53.4124C27.3154 54.7706 29.6209 55.4996 31.984 55.5H42.016C45.0617 55.5 47.9827 54.2901 50.1364 52.1364C52.2901 49.9827 53.5 47.0617 53.5 44.016V41.907Z" fill="#E7C930"/>
<path d="M42.4495 40.4895C40.8024 41.4832 38.9232 42.0268 37 42.066C35.0768 42.0268 33.1976 41.4832 31.5505 40.4895C31.006 40.128 30.8335 40.167 30.8335 40.296C30.8335 41.88 33.916 42.858 37 42.858C40.084 42.858 43.1665 41.88 43.1665 40.296C43.1665 40.167 43 40.128 42.4495 40.4895Z" fill="#864E20"/>
<path d="M38.704 43.7745C38.1865 44.0751 37.5986 44.2334 37 44.2334C36.4015 44.2334 35.8136 44.0751 35.296 43.7745C34.894 43.4745 34.918 44.346 35.8075 44.5785C36.1927 44.7231 36.597 44.81 37.0075 44.8365C37.4181 44.81 37.8224 44.7231 38.2075 44.5785C39.082 44.346 39.1 43.47 38.704 43.7745Z" fill="#E7C930"/>
<defs>
<filter id="filter0_dd_6604_13103" x="0" y="0" width="74" height="80" filterUnits="userSpaceOnUse" color-interpolation-filters="sRGB">
<feFlood flood-opacity="0" result="BackgroundImageFix"/>
<feColorMatrix in="SourceAlpha" type="matrix" values="0 0 0 0 0 0 0 0 0 0 0 0 0 0 0 0 0 0 127 0" result="hardAlpha"/>
<feOffset dy="4"/>
<feGaussianBlur stdDeviation="5"/>
<feComposite in2="hardAlpha" operator="out"/>
<feColorMatrix type="matrix" values="0 0 0 0 0 0 0 0 0 0 0 0 0 0 0 0 0 0 0.04 0"/>
<feBlend mode="normal" in2="BackgroundImageFix" result="effect1_dropShadow_6604_13103"/>
<feColorMatrix in="SourceAlpha" type="matrix" values="0 0 0 0 0 0 0 0 0 0 0 0 0 0 0 0 0 0 127 0" result="hardAlpha"/>
<feOffset dy="-2"/>
<feGaussianBlur stdDeviation="5"/>
<feComposite in2="hardAlpha" operator="out"/>
<feColorMatrix type="matrix" values="0 0 0 0 0 0 0 0 0 0 0 0 0 0 0 0 0 0 0.04 0"/>
<feBlend mode="normal" in2="effect1_dropShadow_6604_13103" result="effect2_dropShadow_6604_13103"/>
<feBlend mode="normal" in="SourceGraphic" in2="effect2_dropShadow_6604_13103" result="shape"/>
</filter>
</defs>
</svg>
