<svg width="28" height="14" viewBox="0 0 28 14" fill="none" xmlns="http://www.w3.org/2000/svg">
<path d="M11.9875 7C11.4431 7 10.9958 6.79583 10.6458 6.3875C10.2958 5.97917 10.1694 5.50278 10.2667 4.95833L10.6167 2.85833C10.7722 2.02222 11.1662 1.337 11.7985 0.802667C12.4301 0.267556 13.1639 0 14 0C14.8556 0 15.5995 0.267556 16.2318 0.802667C16.8634 1.337 17.2569 2.02222 17.4125 2.85833L17.7625 4.95833C17.8597 5.50278 17.7333 5.97917 17.3833 6.3875C17.0333 6.79583 16.5861 7 16.0417 7H11.9875ZM12.6875 4.66667H15.3417L15.1083 3.2375C15.0694 2.96528 14.9431 2.74633 14.7292 2.58067C14.5153 2.41578 14.2722 2.33333 14 2.33333C13.7278 2.33333 13.4894 2.41578 13.2848 2.58067C13.0811 2.74633 12.9597 2.96528 12.9208 3.2375L12.6875 4.66667ZM3.61667 8.1375C3.16944 8.15694 2.78561 8.06944 2.46517 7.875C2.14394 7.68056 1.93472 7.37917 1.8375 6.97083C1.79861 6.79583 1.78889 6.62083 1.80833 6.44583C1.82778 6.27083 1.87639 6.10556 1.95417 5.95C1.95417 5.96944 1.94444 5.93056 1.925 5.83333C1.84722 5.73611 1.78422 5.62917 1.736 5.5125C1.687 5.39583 1.65278 5.26944 1.63333 5.13333C1.59444 4.9 1.62361 4.67639 1.72083 4.4625C1.81806 4.24861 1.94444 4.06389 2.1 3.90833L2.15833 3.85C2.19722 3.48056 2.34811 3.16944 2.611 2.91667C2.87311 2.66389 3.19861 2.5375 3.5875 2.5375C3.64583 2.5375 3.83056 2.57639 4.14167 2.65417L4.22917 2.625C4.32639 2.52778 4.45278 2.45467 4.60833 2.40567C4.76389 2.35744 4.92917 2.33333 5.10417 2.33333C5.31806 2.33333 5.50783 2.36717 5.6735 2.43483C5.83839 2.50328 5.96944 2.60556 6.06667 2.74167C6.08611 2.74167 6.10089 2.74672 6.111 2.75683C6.12033 2.76617 6.13472 2.77083 6.15417 2.77083C6.42639 2.79028 6.66478 2.87272 6.86933 3.01817C7.07311 3.16439 7.22361 3.36389 7.32083 3.61667C7.35972 3.75278 7.37411 3.88422 7.364 4.011C7.35467 4.137 7.33056 4.25833 7.29167 4.375C7.29167 4.39444 7.30139 4.43333 7.32083 4.49167C7.45694 4.62778 7.56389 4.77828 7.64167 4.94317C7.71944 5.10883 7.75833 5.27917 7.75833 5.45417C7.75833 5.53194 7.7 5.73611 7.58333 6.06667C7.56389 6.10556 7.56389 6.14444 7.58333 6.18333L7.64167 6.65C7.64167 7.05833 7.47172 7.40833 7.13183 7.7C6.79117 7.99167 6.37778 8.1375 5.89167 8.1375H3.61667ZM23.3333 8.16667C22.6917 8.16667 22.1422 7.938 21.6848 7.48067C21.2283 7.02411 21 6.475 21 5.83333C21 5.6 21.0338 5.38144 21.1015 5.17767C21.1699 4.97311 21.2625 4.77361 21.3792 4.57917L20.5625 3.85C20.3681 3.69444 20.3342 3.5 20.461 3.26667C20.587 3.03333 20.7667 2.91667 21 2.91667H23.3333C23.975 2.91667 24.5245 3.14494 24.9818 3.6015C25.4384 4.05883 25.6667 4.60833 25.6667 5.25V5.83333C25.6667 6.475 25.4384 7.02411 24.9818 7.48067C24.5245 7.938 23.975 8.16667 23.3333 8.16667ZM0 14V12.1625C0 11.3069 0.432833 10.6213 1.2985 10.1057C2.16339 9.59078 3.28611 9.33333 4.66667 9.33333C4.91944 9.33333 5.1625 9.338 5.39583 9.34733C5.62917 9.35744 5.85278 9.38194 6.06667 9.42083C5.79444 9.80972 5.59028 10.2278 5.45417 10.675C5.31806 11.1222 5.25 11.5986 5.25 12.1042V14H0ZM7 14V12.1042C7 10.8403 7.64672 9.81944 8.94017 9.04167C10.2328 8.26389 11.9194 7.875 14 7.875C16.1 7.875 17.7917 8.26389 19.075 9.04167C20.3583 9.81944 21 10.8403 21 12.1042V14H7ZM23.3333 9.33333C24.7333 9.33333 25.8611 9.59078 26.7167 10.1057C27.5722 10.6213 28 11.3069 28 12.1625V14H22.75V12.1042C22.75 11.5986 22.6866 11.1222 22.5598 10.675C22.4338 10.2278 22.2444 9.80972 21.9917 9.42083C22.2056 9.38194 22.4245 9.35744 22.6485 9.34733C22.8717 9.338 23.1 9.33333 23.3333 9.33333ZM14 10.2083C12.8917 10.2083 11.9 10.3542 11.025 10.6458C10.15 10.9375 9.63472 11.2778 9.47917 11.6667H18.55C18.375 11.2778 17.8547 10.9375 16.989 10.6458C16.1241 10.3542 15.1278 10.2083 14 10.2083Z" fill="#1C1B1F"/>
</svg>
