<svg width="1280" height="458" viewBox="0 0 1280 458" fill="none" xmlns="http://www.w3.org/2000/svg">
<path d="M-2 15.7017C-2 15.7017 45.8452 -18.3174 70 15.7016C97.271 54.1094 57.7825 178.535 89.5 213.374C111.409 237.439 184 227.85 184 227.85L569.5 255.803C569.5 255.803 788.5 522.361 942 418.533C1095.5 314.705 972 205.886 965 167.45C958 129.014 1084 111.543 1084 111.543C1084 111.543 1137.68 70.372 1177 72.6073C1249.29 76.7172 1283 239 1283 239" stroke="black" stroke-dasharray="2 2"/>
<ellipse cx="79" cy="54.6367" rx="10" ry="9.98343" fill="#1C1C20"/>
<ellipse cx="781" cy="424.023" rx="10" ry="9.98343" fill="#1C1C20"/>
<ellipse cx="1250" cy="144.488" rx="10" ry="9.98343" fill="#1C1C20"/>
<mask id="mask0_754_809" style="mask-type:alpha" maskUnits="userSpaceOnUse" x="86" y="205" width="33" height="33">
<rect width="23.9926" height="23.9676" transform="matrix(0.902615 0.430449 -0.431613 0.902059 96.3447 205.386)" fill="#D9D9D9"/>
</mask>
<g mask="url(#mask0_754_809)">
<path d="M91.3335 222.529C90.8372 222.293 90.4968 221.914 90.3124 221.393C90.1276 220.872 90.1538 220.364 90.3909 219.869L95.5632 209.066C95.8003 208.571 96.18 208.231 96.7024 208.047C97.2245 207.863 97.7337 207.889 98.23 208.125L112.667 215.006C113.164 215.242 113.504 215.621 113.689 216.143C113.873 216.663 113.847 217.171 113.61 217.666L108.438 228.469C108.201 228.964 107.821 229.304 107.299 229.489C106.777 229.672 106.267 229.646 105.771 229.41L91.3335 222.529ZM101.569 219.668L96.5058 211.726L92.1955 220.729L106.633 227.609L110.943 218.607L101.569 219.668ZM102.431 217.867L111.805 216.806L97.3679 209.926L102.431 217.867ZM96.5058 211.726L97.3679 209.926L92.1955 220.729L96.5058 211.726Z" fill="#1D1F1B"/>
</g>
<mask id="mask1_754_809" style="mask-type:alpha" maskUnits="userSpaceOnUse" x="893" y="425" width="32" height="32">
<rect width="23.9954" height="23.9648" transform="matrix(0.940872 -0.338763 0.339759 0.940513 893.641 433.79)" fill="#D9D9D9"/>
</mask>
<g mask="url(#mask1_754_809)">
<path d="M904.674 448.518C904.157 448.704 903.648 448.68 903.147 448.445C902.645 448.21 902.301 447.834 902.114 447.318L898.042 436.055C897.855 435.539 897.88 435.031 898.116 434.531C898.351 434.03 898.727 433.687 899.245 433.501L914.295 428.087C914.812 427.901 915.322 427.926 915.823 428.161C916.324 428.396 916.668 428.771 916.855 429.288L920.927 440.55C921.114 441.067 921.089 441.575 920.854 442.075C920.618 442.575 920.242 442.918 919.724 443.104L904.674 448.518ZM909.824 439.241L900.602 437.255L903.996 446.641L919.046 441.227L915.652 431.841L909.824 439.241ZM909.145 437.364L914.973 429.964L899.923 435.378L909.145 437.364ZM900.602 437.255L899.923 435.378L903.996 446.641L900.602 437.255Z" fill="#1C1B1F"/>
</g>
<mask id="mask2_754_809" style="mask-type:alpha" maskUnits="userSpaceOnUse" x="1171" y="60" width="31" height="30">
<rect width="23.9974" height="23.9629" transform="matrix(0.966252 0.2576 -0.258399 0.966038 1177.9 60.3304)" fill="#D9D9D9"/>
</mask>
<g mask="url(#mask2_754_809)">
<path d="M1176.6 78.1538C1176.07 78.0122 1175.66 77.7024 1175.39 77.2245C1175.11 76.7457 1175.04 76.2413 1175.18 75.7112L1178.28 64.1444C1178.42 63.6142 1178.73 63.211 1179.21 62.9347C1179.69 62.6576 1180.2 62.5898 1180.73 62.7314L1196.19 66.8498C1196.72 66.9913 1197.12 67.3015 1197.4 67.7802C1197.68 68.2582 1197.74 68.7622 1197.6 69.2924L1194.51 80.8591C1194.36 81.3893 1194.05 81.7929 1193.57 82.07C1193.09 82.3463 1192.59 82.4137 1192.06 82.2721L1176.6 78.1538ZM1186.13 73.4657L1179.7 66.587L1177.12 76.226L1192.57 80.3443L1195.15 70.7054L1186.13 73.4657ZM1186.65 71.5379L1195.67 68.7776L1180.21 64.6592L1186.65 71.5379ZM1179.7 66.587L1180.21 64.6592L1177.12 76.226L1179.7 66.587Z" fill="#1C1B1F"/>
</g>
<mask id="mask3_754_809" style="mask-type:alpha" maskUnits="userSpaceOnUse" x="60" y="14" width="34" height="34">
<rect width="23.9873" height="23.9729" transform="matrix(0.825509 0.564389 -0.565665 0.824635 73.8799 14.0235)" fill="#1A191E"/>
</mask>
<g mask="url(#mask3_754_809)">
<path d="M71.3951 32.8466L72.4401 26.91L69.3147 21.7517L75.2652 22.7943L80.4355 19.6762L79.3906 25.6128L82.5159 30.7711L76.5654 29.7286L71.3951 32.8466ZM76.8656 39.0027L77.3881 36.0343L75.8254 33.4552L78.8007 33.9765L81.3858 32.4174L80.8634 35.3857L82.426 37.9649L79.4508 37.4436L76.8656 39.0027Z" fill="#1A191E"/>
</g>
<mask id="mask4_754_809" style="mask-type:alpha" maskUnits="userSpaceOnUse" x="744" y="402" width="35" height="34">
<rect width="23.9873" height="23.9729" transform="matrix(0.825509 0.564389 -0.565665 0.824635 758.561 402.06)" fill="#D9D9D9"/>
</mask>
<g mask="url(#mask4_754_809)">
<path d="M756.076 420.627L757.121 414.69L753.995 409.532L759.946 410.574L765.116 407.456L764.071 413.393L767.197 418.551L761.246 417.509L756.076 420.627ZM761.546 426.783L762.069 423.814L760.506 421.235L763.481 421.756L766.067 420.197L765.544 423.166L767.107 425.745L764.131 425.224L761.546 426.783Z" fill="#1C1B1F"/>
</g>
<mask id="mask5_754_809" style="mask-type:alpha" maskUnits="userSpaceOnUse" x="1243" y="155" width="35" height="35">
<rect width="23.9802" height="23.9801" transform="matrix(0.708744 0.705466 -0.70664 0.707573 1260.66 155.181)" fill="#D9D9D9"/>
</mask>
<g mask="url(#mask5_754_809)">
<path d="M1254.32 173.108L1256.44 167.461L1254.31 161.82L1259.97 163.928L1265.62 161.804L1263.51 167.45L1265.64 173.091L1259.98 170.983L1254.32 173.108ZM1258.58 180.156L1259.63 177.333L1258.57 174.512L1261.4 175.566L1264.22 174.504L1263.17 177.327L1264.23 180.148L1261.4 179.094L1258.58 180.156Z" fill="#1C1B1F"/>
</g>
</svg>
