<svg width="368" height="427" viewBox="0 0 368 427" fill="none" xmlns="http://www.w3.org/2000/svg">
<path d="M9 426H359C363.418 426 367 422.418 367 418V76.7632C367 72.3223 363.383 68.7313 358.942 68.7635L210.507 69.8392C208.842 69.8513 208.001 67.8387 209.179 66.6624C209.256 66.5858 209.325 66.5027 209.388 66.4139L212.624 61.7975L214.555 58.3267C214.852 57.7924 215.087 57.2259 215.255 56.6381L216.904 50.8729L218.126 45.5871C218.262 44.9964 218.331 44.3921 218.331 43.7859V40.4234L217.856 35.1986L216.904 30.9238L215.373 25.9534C215.127 25.1554 214.758 24.4008 214.279 23.7171L211.672 19.9992L208.237 15.2819C207.991 14.9441 207.719 14.6261 207.423 14.3308L204.147 11.0592C203.774 10.687 203.366 10.3526 202.927 10.0607L198.49 7.10649C198.083 6.83591 197.653 6.6031 197.204 6.41099L191.22 3.84988L184.561 1.94996L178.961 1.15109C178.258 1.05081 177.545 1.04456 176.84 1.13252L171.313 1.82251C170.635 1.90713 169.97 2.07824 169.336 2.33166L163.157 4.79984L156.973 8.12471L152.935 10.9478C152.458 11.2813 152.018 11.6659 151.625 12.0948L146.985 17.1493L143.25 22.5361C142.888 23.0596 142.588 23.6244 142.36 24.2188L140.63 28.709C140.428 29.2341 140.282 29.7791 140.194 30.3349L138.997 37.9026C138.932 38.3159 138.899 38.7336 138.899 39.152V44.7688C138.899 45.3533 138.963 45.936 139.09 46.5065L140.633 53.4381C140.745 53.9434 140.906 54.4366 141.114 54.9107L143.812 61.068C144.024 61.5531 144.284 62.0159 144.588 62.4497L147.461 66.5473C148.581 67.8531 147.654 69.8722 145.933 69.8722H10.3523C5.96326 69.8722 2.39377 73.4084 2.35266 77.7972L1.06448 215.346C1.04785 217.125 3.42468 217.737 4.26883 216.171C4.3092 216.096 4.3551 216.024 4.40619 215.956L6.71466 212.883C7.02637 212.468 7.37775 212.084 7.76382 211.737L11.9398 207.984L14.4071 205.872C14.979 205.383 15.6172 204.976 16.3026 204.665L20.5013 202.759L25.5295 200.667C25.9816 200.479 26.45 200.333 26.9288 200.23L32.0404 199.136C32.5906 199.019 33.1517 198.959 33.7144 198.959H38.1001L43.0768 199.373C43.5631 199.414 44.0447 199.499 44.5156 199.627L49.0399 200.859L53.5966 202.514C54.046 202.677 54.4798 202.88 54.8928 203.121L59.4721 205.788C59.81 205.985 60.1331 206.207 60.4386 206.451L64.2054 209.46C64.5586 209.742 64.8871 210.054 65.1877 210.391L68.5413 214.159L71.7924 218.623C72.1605 219.128 72.468 219.675 72.7087 220.252L74.7246 225.083L76.1515 230.308L77.0222 236.394C77.0759 236.769 77.1028 237.148 77.1028 237.527V242.045C77.1028 242.453 77.0716 242.86 77.0095 243.263L76.2549 248.161C76.1861 248.608 76.0796 249.048 75.9366 249.476L74.7246 253.107L72.7074 257.539C72.4674 258.066 72.1709 258.566 71.823 259.029L69.4925 262.132L66.9802 265.477C66.7528 265.78 66.5042 266.066 66.2363 266.333L63.7848 268.781L60.0157 271.709C59.6751 271.973 59.3138 272.21 58.9351 272.416L54.272 274.956L50.1173 276.616C49.7168 276.776 49.304 276.903 48.8829 276.997L45.2347 277.806L40.7115 278.627C40.2399 278.713 39.7616 278.756 39.2823 278.756H35.9074C35.4674 278.756 35.0281 278.72 34.594 278.647L29.5385 277.806L25.8904 276.997C25.4694 276.903 25.0565 276.776 24.656 276.616L20.5013 274.956L16.2205 272.581L11.9398 269.731L8.26132 266.466C7.86078 266.111 7.49692 265.716 7.17526 265.288L4.80511 262.132L2.46066 258.854C2.43817 258.823 2.41818 258.79 2.40088 258.755C2.05157 258.057 1 258.306 1 259.086V418C1 422.418 4.58173 426 9 426Z" fill="#FCF5E9" stroke="black" stroke-dasharray="2 2"/>
</svg>
