<svg width="368" height="356" viewBox="0 0 368 356" fill="none" xmlns="http://www.w3.org/2000/svg">
<path d="M141.923 355.001H8H6.13495C5.08813 355.001 4.08423 354.585 3.34418 353.845C2.79373 353.294 2.41852 352.593 2.26581 351.829L1.65536 348.777C1.55203 348.26 1.5 347.735 1.5 347.208V193.301C1.5 191.96 3.22061 191.409 4 192.5L5 194L7.07025 196.484C7.35623 196.827 7.6705 197.146 8.00967 197.437L11 200L15.5 203L18.5 205L22.5 207L26.5 208.5L31 209.5L34.7527 209.917C35.2498 209.972 35.751 209.981 36.2497 209.942L42 209.5L45.4359 209.071C45.8115 209.024 46.1833 208.95 46.5485 208.85L50.566 207.755C51.1864 207.586 51.7841 207.342 52.3463 207.03L56 205L60.5 202.5L64.0452 199.841C64.348 199.614 64.6343 199.366 64.902 199.098L67.5318 196.468C67.8434 196.157 68.1287 195.82 68.3848 195.461L70.5 192.5L73.0926 188.611C73.3636 188.205 73.5969 187.774 73.7893 187.325L75 184.5L76.2684 180.272C76.4224 179.759 76.5244 179.231 76.573 178.697L77 174V168.5L76.5 163.5L76.1102 159.991C76.037 159.333 75.8824 158.686 75.6497 158.066L74.5 155L72.5 151L70.8976 148.196C70.6332 147.733 70.3232 147.298 69.9723 146.897L67 143.5L63 139.5L58.779 136.123C58.2617 135.709 57.6949 135.361 57.0918 135.087L52.5 133L47.0955 131.198C46.6991 131.066 46.293 130.965 45.8809 130.897L41.1531 130.109C40.7184 130.036 40.2785 130 39.8379 130H35L29.258 130.442C28.7538 130.48 28.2544 130.567 27.7666 130.7L23.9036 131.754C23.3033 131.917 22.7241 132.151 22.1777 132.449L17.5 135L13 138L7.95798 142.125C7.6532 142.375 7.36966 142.649 7.11035 142.945L4.99155 145.367C4.39087 146.053 3.43689 146.312 2.57153 146.024C1.63571 145.712 1.00952 144.83 1.02353 143.844L2.9472 8.5062C2.98053 6.16202 4.09198 3.9639 5.96014 2.54752C7.28366 1.5441 8.89896 1.00098 10.5598 1.00098L359.231 1.00034C363.65 1.00034 367.231 4.58206 367.231 9.00034V346.551C367.231 350.96 363.665 354.537 359.256 354.551L213.5 355.001H211.448C210.573 355.001 209.787 354.469 209.462 353.657C209.177 352.942 209.297 352.128 209.778 351.527L211 350L213.054 346.714C213.35 346.239 213.596 345.735 213.788 345.208L215.5 340.5L216.773 337.106C216.924 336.703 217.042 336.288 217.127 335.866L218 331.5L218.435 326.275C218.478 325.76 218.471 325.241 218.414 324.727L218 321L217 316L215.843 312.145C215.616 311.386 215.277 310.665 214.837 310.006L212.5 306.5L210.319 303.01C210.107 302.67 209.869 302.347 209.609 302.044L207 299L203.196 295.196C202.734 294.734 202.216 294.33 201.656 293.993L198 291.8C197.667 291.6 197.32 291.425 196.961 291.276L191.5 289L185 287L179.653 286.109C179.218 286.036 178.779 286 178.338 286H174.985C174.331 286 173.679 286.08 173.045 286.239L170.674 286.832C170.226 286.944 169.788 287.094 169.365 287.282L165.5 289L160.216 291.202C159.74 291.4 159.284 291.644 158.855 291.93L155 294.5L151.432 297.622C151.144 297.874 150.875 298.146 150.626 298.436L148 301.5L144 306.5L141.568 310.554C141.191 311.182 140.902 311.858 140.71 312.565L139.5 317L138.609 322.347C138.536 322.782 138.5 323.221 138.5 323.662V328.152C138.5 328.716 138.56 329.278 138.678 329.829L140 336L141.923 341.5L144.76 347.494C144.92 347.831 145.104 348.156 145.311 348.466L147.146 351.22C147.668 352.001 147.692 353.014 147.208 353.82C146.769 354.553 145.977 355.001 145.123 355.001H141.923Z" fill="#FCF5E9" stroke="black" stroke-dasharray="2 2"/>
</svg>
