<svg width="78" height="82" viewBox="0 0 78 82" fill="none" xmlns="http://www.w3.org/2000/svg">
<path opacity="0.5" d="M1 21L4.76855 16.5L8.76855 12.5L14.1662 8.00194C14.5668 7.66811 14.9991 7.37425 15.4569 7.12455L20.2686 4.5L25.2639 2.41861C25.9306 2.14082 26.6318 1.95459 27.3485 1.865L34.2686 1H40.4764C41.0032 1 41.5287 1.05204 42.0453 1.15535L45.6963 1.88556C46.0773 1.96175 46.4522 2.0656 46.8181 2.19627L53.2686 4.5L58.56 7.14574C59.0312 7.38134 59.478 7.6629 59.8938 7.98634L63.1639 10.5297C63.5661 10.8425 63.9375 11.193 64.273 11.5765L67.2686 15L70.6454 19.221C71.0592 19.7383 71.4072 20.3051 71.6814 20.9082L73.7686 25.5L75.4474 29.6971C75.6609 30.2308 75.8162 30.786 75.9107 31.353L76.6597 35.8469C76.7321 36.2816 76.7686 36.7215 76.7686 37.1621L76.7686 42V48.0906C76.7686 49.023 76.6056 49.9483 76.2869 50.8245L74.7686 55L73.1361 58.6731C72.8918 59.2226 72.5864 59.7429 72.2256 60.2239L69.7686 63.5L67.6534 66.4612C67.3973 66.8198 67.112 67.1566 66.8004 67.4682L63.7686 70.5L59.7556 73.6212C59.4314 73.8734 59.0882 74.1002 58.7292 74.2996L54.7686 76.5L51.7268 78.0209C51.0908 78.3389 50.4153 78.5707 49.718 78.7101L45.7686 79.5L40.724 80.7611C40.0894 80.9198 39.4378 81 38.7837 81H35.4427C34.6641 81 33.8897 80.8863 33.1439 80.6626L29.2686 79.5L24.5609 78.6441C24.034 78.5483 23.5181 78.3998 23.0208 78.2009L19.6079 76.8357C19.0501 76.6126 18.5192 76.3274 18.0253 75.9855L12.2686 72L6.76855 67L3.76855 63.5L2.13823 61.1445C1.7897 60.641 1 60.8876 1 61.5V61.5" stroke="black" stroke-dasharray="2 2"/>
</svg>
