<svg width="239" height="270" viewBox="0 0 239 270" fill="none" xmlns="http://www.w3.org/2000/svg">
<path d="M228.127 1L9 1C4.58172 1 1 4.5817 1 8.99997L1 86.46C1 87.2795 1.98501 87.6963 2.57323 87.1257C2.60781 87.0921 2.64497 87.0613 2.68434 87.0335L5.39824 85.119C5.93115 84.743 6.50803 84.4336 7.11604 84.1977L11.0762 82.6612L14.3544 81.5255C15.1967 81.2337 16.0818 81.0847 16.9732 81.0847L21.1226 81.0847C21.575 81.0847 22.0266 81.1231 22.4724 81.1994L26.3543 81.8639C27.001 81.9746 27.6317 82.1644 28.232 82.4292L30.9035 83.607L35.779 86.4447L39.4364 89.1737C39.8144 89.4558 40.1667 89.7707 40.4893 90.1149L42.7087 92.483C43.0719 92.8706 43.3957 93.2934 43.6751 93.7452L45.7555 97.1086C46.0379 97.5652 46.2737 98.0491 46.4592 98.5529L47.5813 101.601C47.7305 102.006 47.8466 102.422 47.9286 102.846L48.6352 106.502C48.7319 107.002 48.7805 107.511 48.7805 108.02L48.7805 112.208C48.7805 112.688 48.7373 113.167 48.6514 113.64L47.9677 117.397C47.8599 117.99 47.6854 118.569 47.4475 119.123L46.5196 121.283C46.294 121.808 46.0128 122.308 45.6807 122.773L43.2549 126.172L40.4893 129.123C40.1667 129.467 39.8144 129.782 39.4364 130.064L35.779 132.793L31.8372 135.087C31.2175 135.448 30.5522 135.724 29.8591 135.907L27.3281 136.576L22.4724 137.408C22.0266 137.484 21.575 137.522 21.1226 137.522L16.7148 137.522C15.9927 137.522 15.274 137.425 14.5781 137.232L9.91572 135.94C9.17635 135.735 8.47031 135.424 7.81928 135.018L4.41638 132.896C4.30602 132.828 4.20331 132.747 4.10996 132.657C2.94716 131.529 1 132.353 1 133.973L1 217.57C1 221.988 4.58173 225.57 9.00001 225.57L102.775 225.57C103.834 225.57 104.356 226.858 103.595 227.595C103.546 227.643 103.5 227.695 103.46 227.751L101.356 230.662L100.278 232.542C99.9672 233.084 99.721 233.66 99.5443 234.259L98.5734 237.551L97.8636 240.53C97.7189 241.138 97.6458 241.76 97.6458 242.384V244.14L97.955 247.435L98.5734 250.13L99.4216 252.801C99.6791 253.611 100.064 254.375 100.562 255.065L101.975 257.019L104.07 259.81C104.322 260.145 104.6 260.461 104.901 260.753L106.666 262.462C107.042 262.826 107.453 263.153 107.892 263.437L110.335 265.014C110.739 265.275 111.165 265.498 111.608 265.682L115.27 267.203L119.599 268.401L122.9 268.858C123.583 268.952 124.274 268.958 124.958 268.875L127.881 268.521C128.541 268.441 129.189 268.279 129.81 268.039L133.513 266.604L137.533 264.507L139.903 262.9C140.383 262.575 140.826 262.198 141.224 261.777L144.026 258.816L146.242 255.716C146.619 255.189 146.93 254.618 147.169 254.016L148.035 251.837C148.248 251.3 148.402 250.741 148.495 250.171L149.179 245.977C149.248 245.552 149.283 245.122 149.283 244.69V241.751C149.283 241.149 149.215 240.549 149.08 239.962L148.224 236.231C148.106 235.714 147.936 235.211 147.718 234.727L146.214 231.399C145.993 230.909 145.723 230.442 145.408 230.006L143.717 227.667C142.997 226.853 143.575 225.57 144.662 225.57L230 225.57C234.418 225.57 238 221.988 238 217.57L238 137.545C238 136.514 236.811 135.938 236.002 136.576L233.592 138.135C233.249 138.357 232.89 138.552 232.517 138.719L229.521 140.06C229.076 140.26 228.613 140.418 228.138 140.533L224.951 141.306L220.4 141.936L215.525 141.936L210.324 141.306L206.74 140.504C206.313 140.408 205.895 140.278 205.49 140.114L202.73 138.998C202.376 138.855 202.033 138.687 201.703 138.495L198.948 136.892L196.213 134.77C195.87 134.503 195.549 134.209 195.253 133.891L192.772 131.216L190.497 128.064L188.872 125.226L187.641 122.36C187.379 121.751 187.194 121.111 187.09 120.456L186.695 117.966C186.63 117.552 186.597 117.133 186.597 116.713V112.929V109.461L186.597 105.362L187.081 101.837C187.191 101.039 187.421 100.262 187.762 99.5321L188.872 97.1647L190.497 94.327L191.771 92.3492C192.005 91.9868 192.267 91.6438 192.556 91.3237L194.397 89.2823L196.55 87.1948C196.848 86.9053 197.168 86.6396 197.508 86.4L199.817 84.771C200.319 84.4166 200.861 84.1213 201.431 83.8909L204.474 82.6612L209.349 81.0847L212.851 80.1141C213.547 79.9213 214.266 79.8235 214.988 79.8235H218.775H222.441C223.029 79.8235 223.615 79.8883 224.189 80.0167L226.787 80.5984C227.295 80.7121 227.791 80.8752 228.267 81.0852L230.544 82.0891C230.932 82.26 231.305 82.4614 231.661 82.6914L234.052 84.2376C235.387 85.2587 237.311 84.289 237.285 82.6086L236.126 8.8743C236.057 4.50558 232.496 1 228.127 1Z" fill="#FCF5E9" stroke="black" stroke-dasharray="2 2"/>
</svg>
