<svg width="30" height="30" viewBox="0 0 30 30" fill="none" xmlns="http://www.w3.org/2000/svg">
<path d="M15 29.9C6.77073 29.9 0.1 23.2293 0.1 15C0.1 6.77073 6.77073 0.1 15 0.1C23.2293 0.1 29.9 6.77073 29.9 15C29.9 23.2293 23.2293 29.9 15 29.9ZM22.4257 16.6C22.3999 18.1286 21.7814 19.5891 20.6985 20.6719C19.59 21.7804 17.2784 22.9769 15 22.9769C13.2806 22.9769 12.0098 22.6904 11.0248 22.2608C10.04 21.8313 9.33562 21.2564 8.75115 20.6719C7.66827 19.5891 7.0498 18.1286 7.02392 16.6H22.4257ZM15 27.1C18.2091 27.1 21.2868 25.8252 23.556 23.556C25.8252 21.2868 27.1 18.2091 27.1 15C27.1 11.7909 25.8252 8.7132 23.556 6.44401C21.2868 4.17482 18.2091 2.9 15 2.9C11.7909 2.9 8.7132 4.17482 6.44401 6.44401C4.17482 8.7132 2.9 11.7909 2.9 15C2.9 18.2091 4.17482 21.2868 6.44401 23.556C8.7132 25.8252 11.7909 27.1 15 27.1ZM12.7703 12.7703C12.7357 12.8049 12.7099 12.8095 12.6877 12.8069C12.6586 12.8034 12.6175 12.7848 12.5625 12.7388C12.4519 12.6463 12.3297 12.4819 12.1924 12.2898C12.1794 12.2717 12.1664 12.2533 12.1532 12.2348C12.0308 12.063 11.8993 11.8786 11.7642 11.7332C11.6186 11.5766 11.4451 11.4385 11.25 11.4385C11.0549 11.4385 10.8814 11.5766 10.7358 11.7332C10.6007 11.8786 10.4692 12.063 10.3468 12.2348C10.3337 12.2533 10.3206 12.2717 10.3076 12.2898C10.1703 12.4819 10.0481 12.6463 9.93753 12.7388C9.88254 12.7848 9.84135 12.8034 9.81229 12.8069C9.7901 12.8095 9.7643 12.8049 9.72972 12.7703C9.32652 12.3671 9.1 11.8202 9.1 11.25C9.1 10.6798 9.32652 10.1329 9.72972 9.72972C10.1329 9.32652 10.6798 9.1 11.25 9.1C11.8202 9.1 12.3671 9.32652 12.7703 9.72972C13.1735 10.1329 13.4 10.6798 13.4 11.25C13.4 11.8202 13.1735 12.3671 12.7703 12.7703ZM20.2703 12.7703C20.2357 12.8049 20.2099 12.8095 20.1877 12.8069C20.1586 12.8034 20.1175 12.7848 20.0625 12.7388C19.9519 12.6463 19.8297 12.4819 19.6924 12.2898C19.6794 12.2717 19.6664 12.2533 19.6532 12.2348C19.5308 12.063 19.3993 11.8786 19.2642 11.7332C19.1186 11.5766 18.9451 11.4385 18.75 11.4385C18.5549 11.4385 18.3814 11.5766 18.2358 11.7332C18.1007 11.8786 17.9692 12.063 17.8468 12.2348C17.8336 12.2533 17.8206 12.2717 17.8076 12.2898C17.6703 12.4819 17.5481 12.6463 17.4375 12.7388C17.3825 12.7848 17.3414 12.8034 17.3123 12.8069C17.2901 12.8095 17.2643 12.8049 17.2297 12.7703C16.8265 12.3671 16.6 11.8202 16.6 11.25C16.6 10.6798 16.8265 10.1329 17.2297 9.72972C17.6329 9.32652 18.1798 9.1 18.75 9.1C19.3202 9.1 19.8671 9.32652 20.2703 9.72972C20.6735 10.1329 20.9 10.6798 20.9 11.25C20.9 11.8202 20.6735 12.3671 20.2703 12.7703Z" fill="#39A772" stroke="#74EDB3" stroke-width="0.2"/>
</svg>
