<svg width="126" height="126" viewBox="0 0 126 126" fill="none" xmlns="http://www.w3.org/2000/svg">
<circle cx="63" cy="63" r="63" fill="#EEFCEC"/>
<circle cx="63" cy="63" r="63" fill="#EEFCEC"/>
<circle cx="63" cy="63" r="63" fill="#E7F0F4"/>
<path d="M65.533 87.9257C63.2748 87.9257 61.449 86.124 61.449 83.8658C61.449 81.6316 63.2748 79.8298 65.533 79.8298C67.7912 79.8298 69.617 81.6316 69.617 83.8658C69.617 86.124 67.7912 87.9257 65.533 87.9257ZM73.6529 60.2267C68.1756 65.632 68.3197 66.8091 68.0555 73.0312H63.491C63.7553 66.1845 65.2928 62.533 70.7221 57.5361C73.3646 55.0617 75.3826 52.0828 75.3826 48.3832C75.3826 42.7136 70.7221 38.7978 65.1486 38.7978C57.365 38.7978 53.4973 42.7376 53.6414 49.9447H49.125C49.1971 39.8548 54.9867 35.0261 65.3648 35.0261C73.2926 35.0261 79.875 39.9269 79.875 48.1429C79.875 53.4041 77.3045 56.8394 73.6529 60.2267Z" fill="black"/>
</svg>
