<svg width="126" height="126" viewBox="0 0 126 126" fill="none" xmlns="http://www.w3.org/2000/svg">
<circle cx="63" cy="63" r="63" fill="#EEFCEC"/>
<circle cx="63" cy="63" r="63" fill="#EEFCEC"/>
<circle cx="63" cy="63" r="63" fill="#F2F0DF"/>
<path d="M63.0001 89.1602C58.0993 89.1602 53.0384 87.8094 47.9454 85.1611C43.9575 83.0816 39.9376 80.2023 35.9978 76.5943C29.3513 70.498 25.2513 64.4551 25.0751 64.2063C24.3864 63.1932 24.3864 61.8068 25.0751 60.7937C25.2513 60.5449 29.3513 54.502 35.9978 48.4057C39.9376 44.7977 43.9575 41.9184 47.9454 39.8389C53.0384 37.1906 58.0993 35.8398 63.0001 35.8398C67.9009 35.8398 72.9618 37.1906 78.0548 39.8389C82.0427 41.9184 86.0626 44.7977 90.0024 48.4057C96.6489 54.502 100.765 60.5449 100.925 60.7937C101.614 61.8068 101.614 63.1932 100.925 64.2063C100.749 64.4551 96.6489 70.498 90.0024 76.5943C86.0626 80.2023 82.0427 83.0816 78.0548 85.1611C72.9618 87.8094 67.9009 89.1602 63.0001 89.1602ZM30.4243 62.5C34.4442 67.7787 47.7212 83.4727 63.0001 83.4727C78.311 83.4727 91.556 67.7787 95.5759 62.5C91.556 57.2213 78.279 41.5273 63.0001 41.5273C47.6892 41.5273 34.4442 57.2213 30.4243 62.5Z" fill="black"/>
<path d="M63 75.2969C56.6418 75.2969 51.4688 69.5561 51.4688 62.5C51.4688 55.4439 56.6418 49.7031 63 49.7031C69.3582 49.7031 74.5312 55.4439 74.5312 62.5C74.5312 69.5561 69.3582 75.2969 63 75.2969ZM63 55.3906C59.4605 55.3906 56.5938 58.5721 56.5938 62.5C56.5938 66.4279 59.4605 69.6094 63 69.6094C66.5395 69.6094 69.4062 66.4279 69.4062 62.5C69.4062 58.5721 66.5395 55.3906 63 55.3906Z" fill="black"/>
</svg>
