<svg width="126" height="126" viewBox="0 0 126 126" fill="none" xmlns="http://www.w3.org/2000/svg">
<circle cx="63" cy="63" r="63" fill="#EEFCEC"/>
<circle cx="63" cy="63" r="63" fill="#EEFCEC"/>
<circle cx="63" cy="63" r="63" fill="#F3F1FF"/>
<path d="M90.1689 41.5089L80.9643 50.7223L76.971 46.7289C76.2924 46.0503 75.1875 46.0503 74.5089 46.7289C73.8304 47.4075 73.8304 48.5124 74.5089 49.191L79.729 54.411C80.0683 54.7503 80.5119 54.9243 80.9643 54.9243C81.408 54.9243 81.8518 54.7503 82.1911 54.411L92.6311 43.971C93.3097 43.2924 93.3097 42.1875 92.6311 41.5089C91.9525 40.8304 90.8475 40.8304 90.1689 41.5089Z" fill="black"/>
<path d="M82.81 27.7541C78.4252 27.7541 74.3884 29.233 71.1607 31.7125C66.6976 30.8164 62.6956 28.3457 59.8246 24.6395C59.1721 23.7868 57.7366 23.7868 57.0754 24.6395C53.4127 29.3809 47.8882 32.104 41.92 32.104H33.22C30.3403 32.104 28 34.4443 28 37.324V67.0606C28 84.5303 40.9891 99.4072 58.2151 101.687C58.2934 101.695 58.3717 101.695 58.45 101.695C58.5196 101.695 58.5979 101.695 58.6762 101.687C75.9022 99.4072 88.9 84.5303 88.9 67.0606C88.9 67.0084 88.8826 66.9562 88.8826 66.8954H88.9V65.0335C96.469 62.4757 101.95 55.3157 101.95 46.8941C101.95 36.3323 93.3631 27.7541 82.81 27.7541ZM85.42 67.0606C85.42 82.7119 73.8403 96.0577 58.45 98.2066C43.051 96.0577 31.48 82.7119 31.48 67.0606V37.324C31.48 36.3583 32.2543 35.584 33.22 35.584H41.92C48.2623 35.584 54.1783 32.9828 58.45 28.3892C61.147 31.2863 64.4965 33.3916 68.194 34.5487C67.0456 35.9059 66.0799 37.4285 65.3404 39.0728C63.2698 38.3072 61.2775 37.3067 59.4244 36.0539C58.8328 35.6537 58.0585 35.6537 57.4756 36.0539C52.8733 39.1597 47.488 40.8041 41.92 40.8041H38.44C37.4743 40.8041 36.7 41.5784 36.7 42.5441V67.1302C36.7 79.8496 45.7132 90.716 58.1368 92.9693C58.2412 92.9866 58.3456 92.9954 58.45 92.9954C58.5457 92.9954 58.6501 92.9866 58.7545 92.9693C71.1781 90.716 80.2 79.8496 80.2 67.1302V65.8426C81.0526 65.9644 81.9226 66.0253 82.81 66.0253C83.6887 66.0253 84.5587 65.9644 85.42 65.8426V66.8954H85.4287C85.4287 66.9562 85.42 67.0084 85.42 67.0606ZM76.72 65.0335V67.1302C76.72 78.0574 69.0553 87.41 58.45 89.4893C47.836 87.41 40.18 78.0574 40.18 67.1302V44.284H41.92C47.8012 44.284 53.491 42.6572 58.45 39.5687C60.277 40.7084 62.2084 41.6392 64.2094 42.3787C63.8527 43.823 63.67 45.3368 63.67 46.8941C63.67 55.3157 69.1423 62.4757 76.72 65.0335ZM82.81 62.5453C74.1709 62.5453 67.15 55.5245 67.15 46.8941C67.15 38.255 74.1709 31.234 82.81 31.234C91.4404 31.234 98.47 38.255 98.47 46.8941C98.47 55.5245 91.4404 62.5453 82.81 62.5453Z" fill="black"/>
</svg>
