<svg width="116" height="116" viewBox="0 0 116 116" fill="none" xmlns="http://www.w3.org/2000/svg">
<circle cx="58" cy="58" r="58" fill="#EEFCEC"/>
<circle cx="58" cy="58" r="58" fill="#EEFCEC"/>
<circle cx="58" cy="58" r="58" fill="#EEFCEC"/>
<path d="M87.6014 29.6583C87.1972 28.934 86.4309 28.4839 85.6015 28.4839H29.3986C28.5692 28.4839 27.8029 28.934 27.3981 29.6588L20.4265 42.1606C20.0262 42.8777 20.0356 43.7281 20.4514 44.4358C20.8667 45.1441 21.6048 45.5665 22.4258 45.5665H26.7319V78.4628H24.5761C23.3138 78.4628 22.2865 79.4901 22.2865 80.7529V84.2257C22.2865 85.4886 23.3138 86.5159 24.5761 86.5159H90.424C91.6863 86.5159 92.7136 85.4886 92.7136 84.2257V80.7529C92.7136 79.4901 91.6863 78.4628 90.424 78.4628H88.2682V45.5665H92.5737C93.3942 45.5665 94.1323 45.1441 94.5481 44.4363C94.9639 43.7286 94.9739 42.8783 94.5741 42.1606L87.6014 29.6583ZM64.7105 54.0962H79.5737V78.4628H64.7105C64.7099 74.7278 64.709 53.9419 64.7105 54.0962ZM90.4489 80.7529V84.2257C90.4489 84.2396 90.4378 84.2512 90.424 84.2512L24.5512 84.2257L24.5761 80.7275L90.4489 80.7529ZM86.0035 78.4628H81.8384V52.9638C81.8384 52.3385 81.3314 51.8315 80.7061 51.8315H63.5781C62.9528 51.8315 62.4458 52.3385 62.4458 52.9638V78.4628H28.9966V45.5665H86.0035V78.4628ZM92.5737 43.3018L22.4043 43.2636L29.3986 30.7486L85.6236 30.7613L92.5858 43.3007C92.5858 43.3007 92.5825 43.3018 92.5737 43.3018Z" fill="#010101"/>
<path d="M34.2925 70.5558H55.2847C55.9101 70.5558 56.4171 70.0487 56.4171 69.4234V54.6055C56.4171 53.9802 55.9101 53.4731 55.2847 53.4731H34.2925C33.6672 53.4731 33.1602 53.9802 33.1602 54.6055V69.4234C33.1602 70.0487 33.6672 70.5558 34.2925 70.5558ZM54.1524 68.291H45.9213V55.7379H54.1524V68.291ZM35.4249 55.7379H43.6565V68.291H35.4249V55.7379Z" fill="#010101"/>
<path d="M69.3653 65.1465H67.0508V67.4112H69.3653V65.1465Z" fill="#010101"/>
</svg>
