<svg width="126" height="126" viewBox="0 0 126 126" fill="none" xmlns="http://www.w3.org/2000/svg">
<circle cx="63" cy="63" r="63" fill="#EEFCEC"/>
<circle cx="63" cy="63" r="63" fill="#EEFCEC"/>
<circle cx="63" cy="63" r="63" fill="#EEFCEC"/>
<path d="M95.8565 36.584H91.5645V34.364C91.5645 31.404 76.1725 26.076 63.0005 32.736C49.9765 26.076 34.4365 31.404 34.4365 34.364V36.584H30.1445C28.6645 36.584 27.4805 37.768 27.4805 39.248V77.728C27.4805 79.208 28.6645 80.392 30.1445 80.392H42.7245L49.2365 90.752C50.1245 92.232 49.6805 93.268 49.8285 94.896C49.8285 98.004 52.3445 100.372 55.3045 100.372C55.3045 100.372 55.3045 100.372 55.4525 100.372L68.6245 100.224C70.1045 100.224 71.4365 99.632 72.4725 98.596C74.3965 96.524 73.9525 94.156 74.1005 93.86C74.1005 92.676 74.5445 91.64 75.4325 90.752C76.4685 89.864 77.0605 88.532 77.0605 87.052V80.392H95.5605C97.0405 80.392 98.2245 79.208 98.2245 77.728V39.248C98.5205 37.768 97.3365 36.584 95.8565 36.584ZM88.6045 35.252V71.364C85.0525 71.512 81.0565 71.956 77.2085 72.548V71.808C77.2085 69.292 75.1365 67.368 72.6205 67.368C71.5845 67.368 70.5485 67.812 69.8085 68.404C68.9205 67.516 67.7365 66.924 66.5525 66.924C65.8125 66.924 65.0725 67.072 64.4805 67.516V35.252C72.0285 31.404 80.9085 31.404 88.6045 35.252ZM37.3965 35.252C44.9445 31.404 53.8245 31.404 61.5205 35.252V66.776C61.2245 66.628 60.7805 66.628 60.4845 66.628C59.8925 66.628 59.4485 66.776 58.8565 66.924L58.7085 57.156C58.7085 55.972 58.2645 54.788 57.3765 54.048C56.4885 53.16 55.4525 52.716 54.1205 52.716C52.7885 52.716 51.6045 53.308 50.7165 54.344H42.7245C41.8365 54.344 41.2445 54.936 41.2445 55.824C41.2445 56.712 41.8365 57.304 42.7245 57.304H49.6805V61.152H42.8725C41.9845 61.152 41.3925 61.744 41.3925 62.632C41.3925 63.52 41.9845 64.112 42.8725 64.112H49.6805V72.4L48.9405 70.92C47.6085 68.404 44.3525 67.516 41.8365 68.848C40.6525 69.44 39.7645 70.476 39.4685 71.66C38.7285 71.66 38.1365 71.512 37.3965 71.512V35.252ZM30.4405 77.58V39.544H34.4365V72.844C34.4365 73.584 35.0285 74.324 35.9165 74.324C37.1005 74.324 38.2845 74.472 39.3205 74.472C39.4685 74.916 39.6165 75.36 39.9125 75.952L40.9485 77.58H30.4405ZM73.6565 88.68C72.1765 90.012 71.2885 91.936 71.2885 94.008C71.2885 94.452 71.5845 95.636 70.5485 96.672C70.1045 97.116 69.3645 97.412 68.7725 97.412L55.6005 97.56C53.9725 97.56 52.9365 96.376 52.9365 95.044C52.7885 93.564 53.3805 91.64 51.9005 89.272C50.8645 87.792 55.4525 94.748 42.4285 74.472C41.8365 73.436 42.2805 71.956 43.3165 71.364C44.5005 70.772 45.8325 71.216 46.4245 72.252L49.9765 78.912C50.2725 79.356 50.8645 79.8 51.6045 79.652C52.3445 79.504 52.7885 78.912 52.7885 78.172L52.6405 62.484V57.156C52.6405 56.86 52.6405 56.564 52.7885 56.416C53.0845 55.972 53.5285 55.528 54.1205 55.528C54.5645 55.528 55.0085 55.676 55.3045 55.972C55.6005 56.268 55.7485 56.712 55.7485 57.008L55.8965 70.92V74.324C55.8965 74.768 56.0445 75.064 56.3405 75.36C56.6365 75.656 56.9325 75.804 57.3765 75.804C58.2645 75.804 58.8565 75.064 58.8565 74.324V70.92C58.8565 70.032 59.5965 69.44 60.4845 69.44C61.3725 69.44 62.1125 70.18 62.1125 70.92C62.1125 71.364 62.1125 74.916 62.1125 74.768C62.1125 75.656 62.7045 76.248 63.5925 76.248C64.4805 76.248 65.0725 75.656 65.0725 74.768C65.0725 74.62 65.0725 71.068 65.0725 71.364C65.0725 70.476 65.8125 69.884 66.7005 69.884C67.5885 69.884 68.3285 70.624 68.3285 71.364C68.3285 71.956 68.3285 75.36 68.3285 75.212C68.3285 76.1 68.9205 76.692 69.8085 76.692C70.6965 76.692 71.2885 76.1 71.2885 75.212C71.2885 75.064 71.2885 71.512 71.2885 71.808C71.2885 70.92 72.0285 70.328 72.9165 70.328C73.8045 70.328 74.5445 71.068 74.5445 71.808C74.5445 73.14 74.6925 85.424 74.6925 87.052C74.3965 87.792 74.1005 88.236 73.6565 88.68ZM95.5605 77.58H77.2085V75.656C80.6125 75.064 84.6085 74.62 90.0845 74.324C90.8245 74.324 91.5645 73.584 91.5645 72.844V39.544H95.5605V77.58Z" fill="black"/>
<path d="M42.8726 43.688H55.1566C56.0446 43.688 56.6366 43.096 56.6366 42.208C56.6366 41.32 56.0446 40.728 55.1566 40.728H42.8726C41.9846 40.728 41.3926 41.32 41.3926 42.208C41.3926 43.096 42.1326 43.688 42.8726 43.688ZM42.8726 50.496H55.1566C56.0446 50.496 56.6366 49.904 56.6366 49.016C56.6366 48.128 56.0446 47.536 55.1566 47.536H42.8726C41.9846 47.536 41.3926 48.128 41.3926 49.016C41.3926 49.904 42.1326 50.496 42.8726 50.496ZM70.9926 43.688H83.2766C84.1646 43.688 84.7566 43.096 84.7566 42.208C84.7566 41.32 84.1646 40.728 83.2766 40.728H70.9926C70.1046 40.728 69.5126 41.32 69.5126 42.208C69.5126 43.096 70.2526 43.688 70.9926 43.688ZM70.9926 50.496H83.2766C84.1646 50.496 84.7566 49.904 84.7566 49.016C84.7566 48.128 84.1646 47.536 83.2766 47.536H70.9926C70.1046 47.536 69.5126 48.128 69.5126 49.016C69.5126 49.904 70.2526 50.496 70.9926 50.496ZM70.9926 57.304H83.2766C84.1646 57.304 84.7566 56.712 84.7566 55.824C84.7566 54.936 84.1646 54.344 83.2766 54.344H70.9926C70.1046 54.344 69.5126 54.936 69.5126 55.824C69.5126 56.564 70.2526 57.304 70.9926 57.304ZM70.9926 63.964H83.2766C84.1646 63.964 84.7566 63.372 84.7566 62.484C84.7566 61.596 84.1646 61.004 83.2766 61.004H70.9926C70.1046 61.004 69.5126 61.596 69.5126 62.484C69.5126 63.372 70.2526 63.964 70.9926 63.964Z" fill="black"/>
</svg>
