<svg width="26" height="26" viewBox="0 0 26 26" fill="none" xmlns="http://www.w3.org/2000/svg">
<path d="M22.75 6.17386H2.4375V5.34777L20.3125 3.89386V5.34777H22.75V2.86951C22.75 1.05211 21.3021 -0.22337 19.5341 0.0327176L3.2175 2.40194C1.44788 2.65968 0 4.35647 0 6.17386V22.6956C0 23.572 0.34241 24.4125 0.951903 25.0322C1.5614 25.6519 2.38805 26 3.25 26H22.75C23.612 26 24.4386 25.6519 25.0481 25.0322C25.6576 24.4125 26 23.572 26 22.6956V9.47822C26 8.60185 25.6576 7.76137 25.0481 7.14169C24.4386 6.522 23.612 6.17386 22.75 6.17386ZM20.3125 17.749C19.9923 17.7489 19.6752 17.6847 19.3795 17.56C19.0837 17.4353 18.8149 17.2526 18.5886 17.0223C18.3622 16.792 18.1827 16.5187 18.0603 16.2179C17.9379 15.9171 17.8749 15.5947 17.875 15.2691C17.8751 14.9435 17.9383 14.6212 18.0609 14.3205C18.1836 14.0197 18.3632 13.7465 18.5897 13.5164C18.8162 13.2862 19.0851 13.1037 19.381 12.9792C19.6768 12.8547 19.9939 12.7907 20.3141 12.7908C20.9608 12.7911 21.5809 13.0525 22.038 13.5175C22.4952 13.9826 22.7518 14.6133 22.7516 15.2708C22.7514 15.9283 22.4943 16.5587 22.0369 17.0235C21.5795 17.4883 20.9592 17.7492 20.3125 17.749Z" fill="black"/>
</svg>
