<svg width="126" height="126" viewBox="0 0 126 126" fill="none" xmlns="http://www.w3.org/2000/svg">
<circle cx="63" cy="63" r="63" fill="#EEFCEC"/>
<circle cx="63" cy="63" r="63" fill="#EEFCEC"/>
<circle cx="63" cy="63" r="63" fill="#F2F0DF"/>
<path fill-rule="evenodd" clip-rule="evenodd" d="M52.3952 59.5001C59.0827 59.5001 64.4993 54.0835 64.4993 47.3959C64.4993 40.7084 59.0827 35.2917 52.3952 35.2917C45.7076 35.2917 40.291 40.7084 40.291 47.3959C40.291 54.0835 45.7076 59.5001 52.3952 59.5001ZM61.041 47.3959C61.041 52.1734 57.1727 56.0417 52.3952 56.0417C47.6177 56.0417 43.7493 52.1734 43.7493 47.3959C43.7493 42.6184 47.6177 38.7501 52.3952 38.7501C57.1727 38.7501 61.041 42.6184 61.041 47.3959ZM29.916 83.7084V74.0251C29.916 66.6658 44.8927 62.9584 52.3952 62.9584C57.3859 62.9584 65.684 64.5989 70.6809 67.8637C74.2425 66.9006 78.1487 66.4167 80.9264 66.4167C84.139 66.4167 88.45 67.0638 92.009 68.3719C93.7852 69.025 95.4841 69.882 96.7694 70.9926C98.0639 72.1111 99.0827 73.6232 99.0827 75.5238V83.7084H29.916ZM33.3743 74.0251C33.3743 73.4762 33.626 72.7258 34.6992 71.7505C35.7936 70.7561 37.478 69.7905 39.6111 68.9491C43.8808 67.2651 49.0693 66.4167 52.3952 66.4167C55.7211 66.4167 60.9096 67.2651 65.1793 68.9491C67.3124 69.7905 68.9967 70.7561 70.0911 71.7505C71.1642 72.7258 71.416 73.4762 71.416 74.0251V80.2501H33.3743V74.0251ZM73.7559 70.6864C76.3713 70.1457 78.9956 69.8751 80.9264 69.8751C83.7735 69.8751 87.6761 70.4639 90.8157 71.6179C92.3887 72.1961 93.6605 72.8769 94.5083 73.6096C95.3473 74.3344 95.6243 74.9709 95.6243 75.5238V80.2501H74.8743V74.0251C74.8743 72.8131 74.4682 71.7 73.7559 70.6864ZM90.4368 53.448C90.4368 58.7024 86.1809 62.9584 80.9264 62.9584C75.672 62.9584 71.416 58.7024 71.416 53.448C71.416 48.1934 75.672 43.9376 80.9264 43.9376C86.1809 43.9376 90.4368 48.1934 90.4368 53.448ZM80.9264 59.5001C84.271 59.5001 86.9785 56.7926 86.9785 53.448C86.9785 50.1034 84.271 47.3959 80.9264 47.3959C77.5819 47.3959 74.8743 50.1034 74.8743 53.448C74.8743 56.7926 77.5819 59.5001 80.9264 59.5001Z" fill="black"/>
</svg>
