<svg width="22" height="22" viewBox="0 0 22 22" fill="none" xmlns="http://www.w3.org/2000/svg">
<path d="M10.9997 14.4552C13.0247 14.4552 14.6663 12.8372 14.6663 10.8414C14.6663 8.84551 13.0247 7.22754 10.9997 7.22754C8.97463 7.22754 7.33301 8.84551 7.33301 10.8414C7.33301 12.8372 8.97463 14.4552 10.9997 14.4552Z" fill="#454444"/>
<path d="M11.9163 3.67638V1.80713H10.083V3.67638C8.46995 3.87937 6.9709 4.60439 5.82103 5.73769C4.67117 6.87098 3.93555 8.34843 3.72959 9.93825H1.83301V11.7452H3.72959C3.93525 13.3351 4.67077 14.8127 5.82069 15.9461C6.97061 17.0794 8.46983 17.8043 10.083 18.007V19.8763H11.9163V18.007C13.5296 17.8045 15.0289 17.0796 16.1788 15.9462C17.3288 14.8129 18.0643 13.3352 18.2698 11.7452H20.1663V9.93825H18.2698C18.0641 8.34832 17.3286 6.8707 16.1787 5.73735C15.0287 4.604 13.5295 3.87908 11.9163 3.67638ZM10.9997 16.2625C7.96642 16.2625 5.49967 13.8313 5.49967 10.8417C5.49967 7.85217 7.96642 5.42096 10.9997 5.42096C14.0329 5.42096 16.4997 7.85217 16.4997 10.8417C16.4997 13.8313 14.0329 16.2625 10.9997 16.2625Z" fill="#454444"/>
</svg>
