<svg width="19" height="21" viewBox="0 0 19 21" fill="none" xmlns="http://www.w3.org/2000/svg">
<path d="M18.4496 1.32957C18.4318 1.1395 18.2259 0.997014 17.9897 1.01141C17.7536 1.02577 17.5766 1.19147 17.5944 1.38153C17.6859 2.35631 17.5563 3.77807 16.4193 5.01576C15.2808 6.2552 13.666 6.6864 12.7984 6.9181C11.5136 7.26111 10.3343 7.35048 9.24038 7.32739C9.33624 7.16091 9.39015 6.97564 9.39015 6.78037C9.39015 6.17239 8.87105 5.66015 8.17089 5.51561V5.06563H10.4605C11.3275 5.06563 12.0328 4.49793 12.0328 3.80018V3.43206C12.0328 3.24142 11.8409 3.08696 11.604 3.08696H9.5172L10.3752 0.859448C10.4536 0.656093 10.4085 0.44113 10.2516 0.269767C10.0946 0.0984045 9.85289 0.000131346 9.58834 0.000131346H7.31325C7.07643 0.000131346 6.88445 0.154596 6.88445 0.345236C6.88445 0.535876 7.07643 0.690341 7.31325 0.690341H9.54253L8.61935 3.087H6.85138L5.58803 0.229449C5.50868 0.0498832 5.2633 -0.0437143 5.04029 0.0199829C4.81713 0.0838851 4.70068 0.281293 4.78003 0.460859L5.9411 3.08692H3.91403C3.67721 3.08692 3.48524 3.24138 3.48524 3.43202V3.80014C3.48524 4.49789 4.19055 5.06559 5.05757 5.06559H7.31335V5.52743C6.63974 5.68607 6.14607 6.18757 6.14607 6.78037C6.14607 6.87647 6.15937 6.97006 6.18403 7.0603C4.48114 6.86691 3.00034 6.77307 1.77893 7.68263C1.4465 7.93024 0.661894 8.61364 0.556556 9.60929C0.549421 9.67672 0.400561 11.2698 2.00296 12.134C2.64121 12.4782 3.30305 12.5736 3.8407 12.5736C4.05535 12.5736 4.25003 12.5584 4.4156 12.5378C4.54 12.8258 4.79022 13.0667 5.11312 13.2179C3.52703 13.9266 2.45102 15.2886 2.45102 16.8493C2.45102 17.6218 2.71836 18.3721 3.21402 19.0213H2.0077C0.900651 19.0213 0 19.7462 0 20.6372V20.6549C0 20.8455 0.191974 21 0.428794 21H15.0893C15.3262 21 15.5181 20.8455 15.5181 20.6549V20.6372C15.5181 19.7462 14.6175 19.0213 13.5104 19.0213H4.26103C3.64562 18.4075 3.3086 17.6422 3.3086 16.8493C3.3086 14.9412 5.23741 13.3889 7.60822 13.3889C9.97902 13.3889 11.9079 14.9412 11.9079 16.8493C11.9079 17.2127 11.8384 17.5704 11.7012 17.9126C11.6285 18.0939 11.7523 18.2884 11.9777 18.3469C12.2032 18.4054 12.4447 18.3058 12.5174 18.1244C12.682 17.7136 12.7655 17.2846 12.7655 16.8493C12.7655 15.3354 11.7531 14.0085 10.2447 13.2833C10.8002 13.0879 11.1895 12.6417 11.1895 12.1234C11.1895 11.5539 10.7195 11.0712 10.0754 10.9129C9.96572 10.3436 9.5384 9.85793 8.94444 9.57644C9.20511 9.3447 9.36411 9.03762 9.36411 8.70117C9.36411 8.44892 9.27452 8.21329 9.1199 8.01342C10.3175 8.04479 11.6381 7.95509 13.0683 7.57324C13.9579 7.33572 15.8088 6.84144 17.1089 5.42616C18.4708 3.94357 18.5335 2.22309 18.4496 1.32957ZM4.05678 19.7115C4.05861 19.7115 4.0604 19.7117 4.06223 19.7117C4.06437 19.7117 4.06646 19.7115 4.0686 19.7115H13.5105C14.0015 19.7115 14.4216 19.9603 14.5863 20.3097H0.931942C1.0966 19.9604 1.51673 19.7115 2.0077 19.7115H4.05678ZM5.05752 4.37538C4.66348 4.37538 4.34283 4.11731 4.34283 3.80018V3.77717H6.54882H8.93537H11.1752V3.80018C11.1752 4.11735 10.8546 4.37538 10.4606 4.37538H5.05752ZM7.66142 6.17174C7.68761 6.17576 7.71452 6.17805 7.74215 6.17805C7.7769 6.17805 7.81054 6.17436 7.84295 6.16809C8.22944 6.19844 8.53262 6.46135 8.53262 6.78033C8.53262 6.98352 8.40898 7.16349 8.21976 7.27559C7.86522 7.24815 7.51995 7.213 7.18304 7.17547C7.07133 7.0685 7.00371 6.93069 7.00371 6.78033C7.00365 6.47025 7.29037 6.21374 7.66142 6.17174ZM7.74215 8.08577C8.1637 8.08577 8.50662 8.36176 8.50662 8.70104C8.50662 9.04028 8.1637 9.31628 7.74215 9.31628C7.32064 9.31632 6.97772 9.04028 6.97772 8.70104C6.97772 8.3618 7.32064 8.08577 7.74215 8.08577ZM4.3678 11.8434C3.95669 11.9037 3.18645 11.9413 2.48037 11.5605C1.29326 10.9203 1.40976 9.68012 1.41109 9.66765C1.49089 8.91252 2.10228 8.38206 2.36137 8.18913C3.38204 7.42899 4.68259 7.58136 6.48262 7.7921C6.51075 7.79542 6.53929 7.79874 6.56762 7.80202C6.29059 8.03634 6.12008 8.35286 6.12008 8.70104C6.12008 9.04254 6.28402 9.35364 6.55157 9.58649C5.96902 9.86945 5.55098 10.3504 5.44264 10.9128C4.90733 11.0443 4.49271 11.4 4.3678 11.8434ZM9.61724 11.5481C10.0113 11.5481 10.3319 11.8062 10.3319 12.1233C10.3319 12.4405 10.0113 12.6985 9.61724 12.6985H5.90084C5.50675 12.6985 5.18615 12.4405 5.18615 12.1233C5.18615 11.8062 5.50675 11.5481 5.90084 11.5481H9.61724ZM9.18233 10.8579H6.33585C6.52033 10.3659 7.08845 10.0066 7.75906 10.0066C8.42967 10.0066 8.99775 10.3659 9.18233 10.8579Z" fill="#262626"/>
</svg>
