<svg width="12" height="13" viewBox="0 0 12 13" fill="none" xmlns="http://www.w3.org/2000/svg">
<path d="M5.86145 0C4.43769 0.00159736 3.07273 0.540183 2.06598 1.49761C1.05923 2.45504 0.492896 3.75313 0.491217 5.10714C0.489511 6.21364 0.869564 7.29011 1.57307 8.17143C1.57307 8.17143 1.71954 8.35482 1.74346 8.38129L5.86145 13L9.98139 8.37896C10.0029 8.35436 10.1498 8.17143 10.1498 8.17143L10.1503 8.17004C10.8535 7.28911 11.2334 6.21313 11.2317 5.10714C11.23 3.75313 10.6637 2.45504 9.65692 1.49761C8.65017 0.540183 7.28521 0.00159736 5.86145 0ZM5.86145 6.96429C5.47522 6.96429 5.09766 6.85537 4.77653 6.6513C4.45539 6.44724 4.20509 6.15719 4.05729 5.81784C3.90948 5.47849 3.87081 5.10508 3.94616 4.74483C4.02151 4.38458 4.2075 4.05367 4.4806 3.79394C4.75371 3.53422 5.10167 3.35734 5.48047 3.28568C5.85928 3.21403 6.25193 3.2508 6.60876 3.39137C6.96559 3.53193 7.27058 3.76996 7.48515 4.07537C7.69973 4.38078 7.81426 4.73983 7.81426 5.10714C7.81362 5.5995 7.60767 6.07151 7.24158 6.41966C6.8755 6.76781 6.37917 6.96367 5.86145 6.96429Z" fill="#1A191E"/>
</svg>
