<svg width="682" height="568" viewBox="0 0 682 568" fill="none" xmlns="http://www.w3.org/2000/svg">
<path d="M403.046 6.10352e-05H204.868C174.045 6.10352e-05 149.059 25.0865 149.059 56.0323V510.698C149.059 541.644 174.045 566.731 204.868 566.731H403.046C433.869 566.731 458.856 541.644 458.856 510.698V56.0323C458.856 25.0865 433.869 6.10352e-05 403.046 6.10352e-05Z" fill="#3F3D56"/>
<path d="M453.629 56.035V510.698C453.614 524.162 448.28 537.071 438.796 546.592C429.313 556.113 416.456 561.469 403.045 561.484H204.87C191.459 561.469 178.602 556.113 169.119 546.592C159.636 537.071 154.301 524.162 154.286 510.698V56.035C154.301 42.5704 159.636 29.6618 169.119 20.1409C178.602 10.62 191.459 5.26431 204.87 5.24872H230.785V14.2363C230.785 18.3051 232.395 22.2072 235.261 25.0843C238.126 27.9614 242.013 29.5778 246.065 29.5781H361.85C365.902 29.5778 369.789 27.9614 372.655 25.0843C375.52 22.2072 377.13 18.3051 377.13 14.2363V5.24872H403.045C416.456 5.26431 429.313 10.62 438.796 20.1409C448.28 29.6618 453.614 42.5705 453.629 56.035Z" fill="white"/>
<path d="M147.633 114.968C146.625 114.967 145.659 114.564 144.946 113.849C144.234 113.134 143.833 112.164 143.832 111.152V103.519C143.832 102.507 144.232 101.536 144.945 100.82C145.658 100.105 146.625 99.7026 147.633 99.7026C148.641 99.7026 149.608 100.105 150.321 100.82C151.034 101.536 151.434 102.507 151.434 103.519V111.152C151.433 112.164 151.032 113.134 150.32 113.849C149.607 114.564 148.641 114.967 147.633 114.968Z" fill="#3F3D56"/>
<path d="M147.633 154.105C146.625 154.104 145.659 153.702 144.946 152.986C144.234 152.271 143.833 151.301 143.832 150.289V129.278C143.832 128.266 144.232 127.295 144.945 126.58C145.658 125.864 146.625 125.462 147.633 125.462C148.641 125.462 149.608 125.864 150.321 126.58C151.034 127.295 151.434 128.266 151.434 129.278V150.289C151.433 151.301 151.032 152.271 150.32 152.986C149.607 153.702 148.641 154.104 147.633 154.105Z" fill="#3F3D56"/>
<path d="M147.633 185.572C146.625 185.57 145.659 185.168 144.946 184.453C144.234 183.737 143.833 182.767 143.832 181.755V160.745C143.832 159.733 144.232 158.762 144.945 158.046C145.658 157.33 146.625 156.928 147.633 156.928C148.641 156.928 149.608 157.33 150.321 158.046C151.034 158.762 151.434 159.733 151.434 160.745V181.755C151.433 182.767 151.032 183.737 150.32 184.453C149.607 185.168 148.641 185.57 147.633 185.572Z" fill="#3F3D56"/>
<path d="M459.331 168.397C458.323 168.396 457.357 167.994 456.644 167.278C455.932 166.563 455.531 165.593 455.53 164.581V113.314C455.53 112.302 455.93 111.331 456.643 110.616C457.356 109.9 458.323 109.498 459.331 109.498C460.339 109.498 461.306 109.9 462.019 110.616C462.731 111.331 463.132 112.302 463.132 113.314V164.581C463.131 165.593 462.73 166.563 462.017 167.278C461.305 167.994 460.339 168.396 459.331 168.397Z" fill="#3F3D56"/>
<path d="M312.123 17.5026H282.663C282.033 17.5026 281.429 17.2513 280.983 16.804C280.538 16.3567 280.288 15.75 280.288 15.1174C280.288 14.4848 280.538 13.8781 280.983 13.4308C281.429 12.9835 282.033 12.7322 282.663 12.7322H312.123C312.753 12.7322 313.357 12.9835 313.803 13.4308C314.248 13.8781 314.498 14.4848 314.498 15.1174C314.498 15.75 314.248 16.3567 313.803 16.804C313.357 17.2513 312.753 17.5026 312.123 17.5026Z" fill="white"/>
<path d="M327.327 17.0263C328.377 17.0263 329.228 16.172 329.228 15.1181C329.228 14.0643 328.377 13.21 327.327 13.21C326.278 13.21 325.427 14.0643 325.427 15.1181C325.427 16.172 326.278 17.0263 327.327 17.0263Z" fill="white"/>
<path d="M219.462 27.7398H193.804C192.544 27.7398 191.336 27.2372 190.444 26.3426C189.553 25.448 189.053 24.2346 189.053 22.9694C189.053 21.7042 189.553 20.4908 190.444 19.5961C191.336 18.7015 192.544 18.1989 193.804 18.1989H219.462C220.722 18.1989 221.931 18.7015 222.822 19.5961C223.713 20.4908 224.214 21.7042 224.214 22.9694C224.214 24.2346 223.713 25.448 222.822 26.3426C221.931 27.2372 220.722 27.7398 219.462 27.7398Z" fill="#E6E6E6"/>
<path d="M387.665 27.2635C390.027 27.2635 391.941 25.3412 391.941 22.97C391.941 20.5989 390.027 18.6766 387.665 18.6766C385.303 18.6766 383.388 20.5989 383.388 22.97C383.388 25.3412 385.303 27.2635 387.665 27.2635Z" fill="#E6E6E6"/>
<path d="M400.969 27.2635C403.331 27.2635 405.245 25.3412 405.245 22.97C405.245 20.5989 403.331 18.6766 400.969 18.6766C398.607 18.6766 396.693 20.5989 396.693 22.97C396.693 25.3412 398.607 27.2635 400.969 27.2635Z" fill="#E6E6E6"/>
<path d="M414.273 27.2635C416.635 27.2635 418.55 25.3412 418.55 22.97C418.55 20.5989 416.635 18.6766 414.273 18.6766C411.911 18.6766 409.997 20.5989 409.997 22.97C409.997 25.3412 411.911 27.2635 414.273 27.2635Z" fill="#E6E6E6"/>
<path d="M385.072 311.851H207.621C203.052 311.845 198.672 310.021 195.441 306.777C192.211 303.534 190.393 299.136 190.388 294.549V276.677C190.393 272.09 192.211 267.692 195.441 264.449C198.672 261.205 203.052 259.381 207.621 259.375H385.072C389.641 259.381 394.021 261.205 397.252 264.449C400.482 267.692 402.299 272.09 402.305 276.677V294.549C402.299 299.136 400.482 303.534 397.252 306.777C394.021 310.021 389.641 311.845 385.072 311.851ZM207.621 261.284C203.556 261.288 199.659 262.912 196.785 265.797C193.91 268.683 192.294 272.596 192.289 276.677V294.549C192.294 298.63 193.91 302.543 196.785 305.429C199.659 308.314 203.556 309.938 207.621 309.942H385.072C389.137 309.938 393.034 308.315 395.908 305.429C398.783 302.543 400.399 298.63 400.404 294.549V276.677C400.399 272.596 398.783 268.683 395.908 265.797C393.034 262.912 389.137 261.288 385.072 261.284H207.621Z" fill="#E6E6E6"/>
<path d="M316.787 360.356H291.129C289.868 360.356 288.66 359.854 287.769 358.959C286.878 358.064 286.377 356.851 286.377 355.586C286.377 354.321 286.878 353.107 287.769 352.213C288.66 351.318 289.868 350.815 291.129 350.815H316.787C318.047 350.815 319.255 351.318 320.146 352.213C321.037 353.107 321.538 354.321 321.538 355.586C321.538 356.851 321.037 358.064 320.146 358.959C319.255 359.854 318.047 360.356 316.787 360.356Z" fill="#E6E6E6"/>
<path d="M322.681 498.699H285.234C284.323 498.7 283.42 498.52 282.578 498.171C281.736 497.822 280.97 497.309 280.325 496.662C279.681 496.016 279.169 495.248 278.82 494.402C278.471 493.557 278.291 492.651 278.291 491.736C278.291 490.821 278.471 489.915 278.82 489.07C279.169 488.225 279.681 487.457 280.325 486.81C280.97 486.164 281.736 485.651 282.578 485.302C283.42 484.952 284.323 484.773 285.234 484.774H322.681C324.52 484.774 326.284 485.507 327.584 486.813C328.885 488.119 329.616 489.89 329.616 491.736C329.616 493.583 328.885 495.354 327.584 496.659C326.284 497.965 324.52 498.699 322.681 498.699Z" fill="#24BA0E"/>
<path d="M385.971 427.142H208.519C203.95 427.137 199.57 425.312 196.34 422.069C193.109 418.825 191.292 414.428 191.287 409.841V391.968C191.292 387.381 193.109 382.984 196.34 379.74C199.57 376.497 203.95 374.672 208.519 374.667H385.971C390.539 374.672 394.919 376.497 398.15 379.74C401.381 382.984 403.198 387.381 403.203 391.968V409.841C403.198 414.428 401.381 418.825 398.15 422.069C394.919 425.312 390.539 427.137 385.971 427.142ZM208.519 376.575C204.454 376.58 200.557 378.203 197.683 381.089C194.809 383.975 193.192 387.887 193.187 391.968V409.841C193.192 413.922 194.809 417.834 197.683 420.72C200.557 423.606 204.454 425.229 208.519 425.234H385.971C390.035 425.229 393.932 423.606 396.807 420.72C399.681 417.834 401.298 413.922 401.302 409.841V391.968C401.298 387.887 399.681 383.975 396.807 381.089C393.932 378.203 390.035 376.58 385.971 376.575H208.519Z" fill="#E6E6E6"/>
<path d="M458.66 268.183L325.043 315.614L325.268 316.254L458.885 268.824L458.66 268.183Z" fill="white"/>
<path d="M236.296 542.26C235.749 542.286 235.208 542.142 234.746 541.848C234.284 541.554 233.923 541.125 233.712 540.618C233.501 540.111 233.45 539.552 233.566 539.015C233.683 538.479 233.96 537.991 234.362 537.618L234.545 536.888C234.521 536.83 234.497 536.771 234.472 536.713C233.922 535.408 232.999 534.295 231.821 533.514C230.642 532.733 229.26 532.319 227.848 532.324C226.436 532.33 225.057 532.754 223.884 533.543C222.712 534.333 221.798 535.453 221.257 536.762C219.095 541.989 216.343 547.225 215.666 552.751C215.367 555.194 215.493 557.67 216.038 560.069C210.961 548.951 208.325 536.867 208.308 524.636C208.307 521.566 208.477 518.499 208.817 515.449C209.098 512.949 209.487 510.466 209.986 508.001C212.707 494.627 218.549 482.091 227.033 471.424C231.139 469.175 234.459 465.716 236.547 461.513C237.303 460.003 237.838 458.39 238.134 456.726C237.671 456.787 236.387 449.705 236.737 449.27C236.091 448.287 234.936 447.798 234.231 446.838C230.725 442.066 225.894 442.899 223.373 449.384C217.986 452.114 217.934 456.641 221.239 460.995C223.342 463.765 223.631 467.513 225.476 470.478C225.286 470.722 225.089 470.959 224.899 471.203C221.429 475.683 218.404 480.493 215.869 485.565C216.486 479.883 215.75 474.135 213.722 468.794C211.667 463.816 207.815 459.624 204.422 455.321C200.348 450.152 191.992 452.407 191.274 458.96C191.267 459.023 191.26 459.087 191.254 459.15C191.758 459.435 192.251 459.738 192.734 460.059C193.34 460.465 193.81 461.046 194.081 461.726C194.353 462.405 194.414 463.151 194.256 463.866C194.099 464.58 193.729 465.231 193.197 465.731C192.665 466.232 191.995 466.559 191.274 466.671L191.201 466.682C191.38 468.505 191.697 470.312 192.15 472.087C187.798 488.984 197.193 495.138 210.609 495.415C210.905 495.567 211.193 495.72 211.49 495.865C208.942 503.112 207.344 510.662 206.736 518.323C206.392 522.843 206.412 527.384 206.797 531.901L206.774 531.741C205.802 526.718 203.134 522.186 199.219 518.91C193.405 514.115 185.191 512.349 178.918 508.495C178.252 508.065 177.476 507.836 176.684 507.834C175.892 507.832 175.116 508.058 174.447 508.484C173.779 508.91 173.245 509.52 172.91 510.241C172.575 510.961 172.453 511.763 172.557 512.552C172.565 512.608 172.574 512.664 172.582 512.72C173.517 513.102 174.428 513.543 175.308 514.039C175.812 514.324 176.305 514.627 176.788 514.948C177.394 515.354 177.864 515.935 178.136 516.615C178.407 517.294 178.468 518.04 178.311 518.755C178.153 519.469 177.784 520.119 177.252 520.62C176.72 521.12 176.049 521.448 175.329 521.559L175.255 521.571C175.202 521.578 175.156 521.586 175.103 521.594C176.701 525.424 178.943 528.949 181.732 532.015C184.453 546.765 196.14 548.165 208.642 543.869H208.65C210.021 549.854 212.009 555.679 214.58 561.251H235.765C235.841 561.015 235.909 560.771 235.977 560.534C234.016 560.658 232.048 560.54 230.115 560.184C231.687 558.247 233.259 556.296 234.831 554.359C234.866 554.323 234.899 554.285 234.93 554.245C235.727 553.254 236.532 552.27 237.329 551.279L237.329 551.278C237.372 548.24 237.025 545.21 236.296 542.261L236.296 542.26Z" fill="#F2F2F2"/>
<path d="M306.919 226.543C342.271 226.543 370.929 197.879 370.929 162.52C370.929 127.161 342.271 98.4971 306.919 98.4971C271.567 98.4971 242.909 127.161 242.909 162.52C242.909 197.879 271.567 226.543 306.919 226.543Z" fill="#24BA0E"/>
<path d="M300.576 186.944C299.136 186.947 297.734 186.481 296.582 185.617L296.511 185.563L281.467 174.053C280.771 173.519 280.186 172.853 279.747 172.092C279.307 171.332 279.022 170.493 278.907 169.622C278.792 168.752 278.85 167.867 279.077 167.019C279.304 166.171 279.695 165.375 280.229 164.679C280.763 163.982 281.43 163.397 282.19 162.958C282.95 162.518 283.789 162.233 284.659 162.118C285.53 162.003 286.414 162.06 287.262 162.287C288.11 162.514 288.905 162.906 289.602 163.44L299.346 170.914L322.371 140.869C322.905 140.172 323.571 139.588 324.33 139.149C325.09 138.709 325.929 138.424 326.799 138.309C327.669 138.194 328.553 138.252 329.401 138.479C330.249 138.706 331.043 139.097 331.74 139.631L331.742 139.633L331.599 139.831L331.746 139.633C333.151 140.713 334.07 142.306 334.301 144.063C334.533 145.82 334.059 147.598 332.982 149.005L305.899 184.329C305.273 185.143 304.467 185.801 303.545 186.254C302.623 186.706 301.609 186.939 300.582 186.936L300.576 186.944Z" fill="white"/>
<path d="M540.16 514.628C540.919 513.396 541.813 512.254 542.824 511.221C543.241 510.787 543.681 510.378 544.134 509.98C546.892 507.516 550.254 505.833 553.874 505.106C557.495 504.379 561.242 504.632 564.733 505.841C568.223 507.049 571.33 509.169 573.733 511.983C576.136 514.796 577.75 518.201 578.408 521.848C581.454 510.54 573.524 499.4 565.551 490.844C557.574 482.291 548.457 472.908 548.503 461.187C548.525 454.666 551.704 448.848 556.502 444.534C556.65 444.404 556.798 444.273 556.949 444.147C562.749 439.157 570.21 436.547 577.843 436.838C592.024 437.6 604.406 447.167 613.005 458.516C626.846 476.776 632.911 502.407 623.222 523.193C614.699 541.475 596.521 552.331 577.969 561.058C575.379 562.277 572.794 563.46 570.214 564.605C570.197 564.609 570.178 564.622 570.161 564.626C570.036 564.681 569.912 564.736 569.796 564.792C569.263 565.028 568.731 565.264 568.203 565.497L568.447 565.657L569.21 566.153C568.946 565.992 568.684 565.836 568.42 565.676C568.341 565.627 568.258 565.581 568.179 565.532C559.068 560.044 549.829 554.238 543.535 545.671C537.006 536.775 534.382 524.032 540.16 514.628Z" fill="#F1F1F1"/>
<path d="M600.951 493.971C602.969 498.578 604.307 503.456 604.922 508.451C605.406 512.905 605.224 517.407 604.382 521.806C602.573 530.848 598.627 539.321 592.876 546.513C588.538 551.974 583.529 556.861 577.969 561.061C575.379 562.28 572.794 563.462 570.213 564.607C570.196 564.612 570.178 564.624 570.161 564.628C570.037 564.683 569.912 564.738 569.796 564.794C569.263 565.03 568.731 565.266 568.203 565.499L568.447 565.66L569.21 566.155C568.946 565.995 568.684 565.839 568.419 565.678C568.341 565.629 568.258 565.583 568.179 565.534C570.184 558.494 570.479 551.073 569.039 543.894C567.599 536.716 564.465 529.988 559.901 524.275C555.313 518.635 549.461 514.162 542.824 511.223C543.241 510.789 543.681 510.38 544.134 509.982C546.691 511.16 549.139 512.564 551.449 514.175C559.712 519.908 565.917 528.16 569.145 537.708C572.027 546.371 572.387 555.679 570.183 564.54C570.64 564.24 571.099 563.932 571.546 563.626C580.034 557.879 587.857 550.979 593.75 542.516C598.832 535.364 602.084 527.067 603.22 518.356C604.349 508.84 601.978 499.483 597.745 490.993C593.072 481.909 587.183 473.51 580.243 466.028C573.272 458.34 565.39 451.536 556.772 445.77C556.578 445.639 556.442 445.437 556.391 445.207C556.341 444.978 556.38 444.738 556.502 444.536C556.594 444.353 556.755 444.214 556.949 444.149C557.047 444.124 557.15 444.121 557.25 444.142C557.35 444.162 557.444 444.204 557.525 444.266C558.588 444.979 559.643 445.698 560.685 446.438C569.363 452.606 577.245 459.833 584.148 467.952C590.818 475.778 596.889 484.473 600.951 493.971Z" fill="white"/>
<path d="M415.183 135.682C422.498 135.682 428.429 129.728 428.429 122.385C428.429 115.041 422.498 109.087 415.183 109.087C407.867 109.087 401.936 115.041 401.936 122.385C401.936 129.728 407.867 135.682 415.183 135.682Z" fill="#F1F1F1"/>
<path d="M579.896 313.629C584.356 313.629 587.972 309.999 587.972 305.522C587.972 301.044 584.356 297.415 579.896 297.415C575.436 297.415 571.82 301.044 571.82 305.522C571.82 309.999 575.436 313.629 579.896 313.629Z" fill="#F1F1F1"/>
<path d="M348.096 567.05H629.512C629.708 567.05 629.896 566.972 630.035 566.833C630.173 566.694 630.251 566.505 630.251 566.308C630.251 566.112 630.173 565.923 630.035 565.784C629.896 565.645 629.708 565.567 629.512 565.567H348.096C347.9 565.567 347.712 565.645 347.574 565.784C347.435 565.923 347.357 566.112 347.357 566.308C347.357 566.505 347.435 566.694 347.574 566.833C347.712 566.972 347.9 567.05 348.096 567.05Z" fill="#CBCBCB"/>
<path d="M598.456 178.26C598.826 175.627 598.22 172.948 596.754 170.733C595.288 168.518 593.063 166.92 590.502 166.241C587.94 165.562 585.219 165.85 582.855 167.051C580.491 168.251 578.647 170.28 577.674 172.754L554.838 199.034L561.538 217.82L584.504 187.113C586.003 187.595 587.589 187.741 589.15 187.541C590.711 187.341 592.209 186.8 593.539 185.956C594.869 185.112 595.999 183.986 596.849 182.656C597.698 181.326 598.247 179.826 598.456 178.26Z" fill="#FFE6DE"/>
<path d="M503.796 280.514L579.601 199.304L569.376 182.986L474.298 263.704L503.796 280.514Z" fill="#3F3D56"/>
<path d="M486.878 231.172C501.564 231.172 513.469 219.222 513.469 204.48C513.469 189.738 501.564 177.788 486.878 177.788C472.193 177.788 460.288 189.738 460.288 204.48C460.288 219.222 472.193 231.172 486.878 231.172Z" fill="#2F2E41"/>
<path d="M489.015 189.401C494.737 183.576 501.661 179.081 509.3 176.233C514.204 174.409 519.541 173.283 524.667 174.318C529.794 175.354 534.642 178.914 536.072 183.963C537.242 188.092 536.034 192.537 534.219 196.423C532.404 200.31 529.981 203.914 528.513 207.945C527.016 212.059 526.566 216.483 527.203 220.816C527.841 225.148 529.547 229.252 532.165 232.755C534.784 236.259 538.232 239.05 542.198 240.876C546.164 242.701 550.521 243.504 554.874 243.211C549.837 243.889 545.194 246.265 540.271 247.529C535.348 248.794 529.537 248.708 525.878 245.168C522.007 241.422 521.929 235.331 522.117 229.936C522.395 221.918 522.673 213.899 522.951 205.88C523.093 201.791 523.215 197.57 521.745 193.753C520.276 189.936 516.785 186.594 512.708 186.629C509.619 186.655 506.885 188.534 504.407 190.387C501.93 192.239 499.307 194.216 496.23 194.492C493.153 194.767 489.639 192.481 489.87 189.389L489.015 189.401Z" fill="#2F2E41"/>
<path d="M385.885 383.705C383.333 384.417 380.608 384.164 378.229 382.995C375.85 381.825 373.98 379.82 372.975 377.359C371.97 374.898 371.899 372.153 372.776 369.643C373.652 367.133 375.416 365.034 377.732 363.742L400.703 337.581L420.133 341.794L392.806 368.663C393.477 370.092 393.829 371.651 393.836 373.23C393.842 374.81 393.504 376.372 392.844 377.806C392.184 379.24 391.219 380.512 390.017 381.531C388.815 382.55 387.404 383.292 385.885 383.705H385.885Z" fill="#FFE6DE"/>
<path d="M461.462 290.048L404.208 362.191L386.755 354.148L454.051 248.977L461.462 290.048Z" fill="#3F3D56"/>
<path d="M415.778 507.89L402.133 507.675L403.774 554.361H415.776L415.778 507.89Z" fill="#FFE6DE"/>
<path d="M418.838 550.427L395.201 550.426H395.2C391.205 550.426 387.374 552.019 384.549 554.855C381.724 557.69 380.137 561.536 380.137 565.546V566.038L418.837 566.039L418.838 550.427Z" fill="#2F2E41"/>
<path d="M506.125 495.507L491.218 505.114L521.035 541.122L531.135 534.613L506.125 495.507Z" fill="#FFE6DE"/>
<path d="M531.594 529.643L511.704 542.461C508.342 544.628 505.975 548.047 505.124 551.965C504.273 555.884 505.008 559.981 507.166 563.355L507.43 563.769L539.997 542.781L531.594 529.643Z" fill="#2F2E41"/>
<path d="M511.435 352.949C511.435 352.949 478.315 242.527 467.672 241.034C457.028 239.542 439.879 269.367 439.879 269.367C417.644 297.845 394.716 390.091 394.716 390.091C394.716 390.091 432.937 392.492 460.877 407.414C488.817 422.336 521.79 406.658 521.79 406.658L511.435 352.949Z" fill="#3F3D56"/>
<path opacity="0.1" d="M511.435 352.948C511.435 352.948 478.315 242.526 467.672 241.034C457.028 239.542 444.234 269.67 444.234 269.67C433.155 315.64 394.716 390.09 394.716 390.09C394.716 390.09 432.937 392.491 460.877 407.413C488.817 422.335 521.79 406.658 521.79 406.658L511.435 352.948Z" fill="black"/>
<path d="M484.263 319.91V375.397L490.768 455.773L523.267 516.572L507.756 527.694L463.439 469.861L445.91 412.436L418.383 539.557L397.701 538.074L412.064 361.823L439.32 312.213L484.263 319.91Z" fill="#2F2E41"/>
<path d="M450.87 266.244C440.529 276.624 450.131 287.746 450.131 287.746L438.313 314.438L484.847 327.043L501.108 254.1L490.029 242.237C467.87 241.496 467.858 241.035 467.858 241.035C463.976 244.849 450.87 266.244 450.87 266.244Z" fill="#8F7EF3"/>
<path d="M502.982 246.542C500.869 244.976 498.467 243.847 495.916 243.219C493.364 242.592 490.714 242.478 488.119 242.886C485.524 243.294 483.035 244.215 480.796 245.595C478.558 246.975 476.615 248.787 475.079 250.927C463.381 267.277 452.564 293.679 467.468 326.608C491.399 379.48 512.224 406.547 520.69 406.544C521.059 406.547 521.427 406.489 521.778 406.372C526.989 404.597 534.523 395.746 535.887 387.945C536.376 385.153 536.26 381.264 532.933 378.594C523.379 370.923 506.226 347.037 500.876 315.597C497.918 298.225 503.653 282.401 508.984 272.186C511.236 267.959 511.895 263.059 510.84 258.384C509.785 253.709 507.086 249.572 503.24 246.732L502.982 246.542Z" fill="#3F3D56"/>
<path d="M488.246 228.551C497.731 223.346 501.217 211.407 496.032 201.886C490.847 192.364 478.954 188.865 469.468 194.07C459.983 199.275 456.497 211.213 461.682 220.735C466.867 230.257 478.76 233.756 488.246 228.551Z" fill="#FFE6DE"/>
<path d="M451.33 209.823H479.593L479.883 205.75L481.333 209.823H485.685L486.259 201.75L489.131 209.823H497.552V209.423C497.546 203.803 495.319 198.414 491.36 194.44C487.4 190.465 482.032 188.23 476.433 188.224H472.448C466.849 188.23 461.481 190.465 457.522 194.44C453.563 198.414 451.336 203.803 451.33 209.423V209.823Z" fill="#2F2E41"/>
<path d="M493.282 224.464L505.344 220.536V191.133H482.561L483.125 191.698C490.973 199.566 499.701 227.479 493.282 224.464Z" fill="#2F2E41"/>
</svg>
