<svg width="24" height="24" viewBox="0 0 24 24" fill="none" xmlns="http://www.w3.org/2000/svg">
<path d="M12 24C18.6274 24 24 18.6274 24 12C24 5.37258 18.6274 0 12 0C5.37258 0 0 5.37258 0 12C0 18.6274 5.37258 24 12 24Z" fill="#F3F1FF"/>
<path d="M11.8648 18.8069L13.4709 16.4004L11.8648 18.8069ZM11.8648 18.8069C11.8252 18.8663 11.7716 18.915 11.7087 18.9487C11.6457 18.9824 11.5754 19 11.5041 19C11.4327 19 11.3624 18.9824 11.2995 18.9487C11.2366 18.915 11.1829 18.8663 11.1433 18.8069H11.8648ZM13.4709 16.1504H13.3372L13.263 16.2617L11.6569 18.6682L11.6568 18.6683C11.6401 18.6934 11.6173 18.714 11.5907 18.7283C11.5641 18.7425 11.5343 18.75 11.5041 18.75C11.4738 18.75 11.4441 18.7425 11.4174 18.7283C11.3908 18.714 11.3681 18.6934 11.3513 18.6683V18.6682L9.7461 16.2617L9.6719 16.1504H9.5381H6.3008C5.7199 16.1504 5.25 15.6812 5.25 15.0996V7.3008C5.25 6.7192 5.7199 6.25 6.3008 6.25H16.7073C17.2883 6.25 17.7581 6.7192 17.7581 7.3008V15.0996C17.7581 15.6812 17.2883 16.1504 16.7073 16.1504H13.4709ZM10.9145 13.7476L11.1035 13.9364L11.2794 13.7354L14.6199 9.9179L14.7845 9.7298L14.5964 9.5651L13.9443 8.9945L13.7561 8.8299L13.5915 9.018L11.0375 11.9371L9.8199 10.7187L9.6431 10.5418L9.4663 10.7186L8.8523 11.3326L8.6755 11.5094L8.8523 11.6862L10.9145 13.7476Z" stroke="black" stroke-width="0.5"/>
</svg>
