<svg width="24" height="24" viewBox="0 0 24 24" fill="none" xmlns="http://www.w3.org/2000/svg">
<path d="M12 24C18.6274 24 24 18.6274 24 12C24 5.37258 18.6274 0 12 0C5.37258 0 0 5.37258 0 12C0 18.6274 5.37258 24 12 24Z" fill="#F2F0DF"/>
<path d="M11.7107 16.895C10.9086 16.895 10.0803 16.672 9.24667 16.235C8.59397 15.893 7.93597 15.418 7.29117 14.823C6.20337 13.818 5.53227 12.822 5.50347 12.781C5.39077 12.614 5.39077 12.386 5.50347 12.219C5.53227 12.178 6.20337 11.182 7.29117 10.177C7.93597 9.582 8.59397 9.10701 9.24667 8.76501C10.0803 8.32801 10.9086 8.10501 11.7107 8.10501C12.5128 8.10501 13.3412 8.32801 14.1747 8.76501C14.8274 9.10701 15.4854 9.582 16.1302 10.177C17.2181 11.182 17.8917 12.178 17.918 12.219C18.0307 12.386 18.0307 12.614 17.918 12.781C17.8891 12.822 17.2181 13.818 16.1302 14.823C15.4854 15.418 14.8274 15.893 14.1747 16.235C13.3412 16.672 12.5128 16.895 11.7107 16.895ZM6.37897 12.5C7.03687 13.37 9.20997 15.957 11.7107 15.957C14.2167 15.957 16.3845 13.37 17.0424 12.5C16.3845 11.63 14.2114 9.043 11.7107 9.043C9.20477 9.043 7.03687 11.63 6.37897 12.5Z" fill="black"/>
<path d="M11.7106 14.609C10.6699 14.609 9.82324 13.663 9.82324 12.5C9.82324 11.337 10.6699 10.391 11.7106 10.391C12.7512 10.391 13.5979 11.337 13.5979 12.5C13.5979 13.663 12.7512 14.609 11.7106 14.609ZM11.7106 11.328C11.1313 11.328 10.6621 11.853 10.6621 12.5C10.6621 13.147 11.1313 13.672 11.7106 13.672C12.2899 13.672 12.7591 13.147 12.7591 12.5C12.7591 11.853 12.2899 11.328 11.7106 11.328Z" fill="black"/>
</svg>
