<svg width="24" height="24" viewBox="0 0 24 24" fill="none" xmlns="http://www.w3.org/2000/svg">
<path d="M12 24C18.6274 24 24 18.6274 24 12C24 5.37258 18.6274 0 12 0C5.37258 0 0 5.37258 0 12C0 18.6274 5.37258 24 12 24Z" fill="#F3F1FF"/>
<path d="M18.5567 7.194H17.7686V6.818C17.7686 6.317 14.9419 5.414 12.523 6.543C10.1312 5.414 7.2774 6.317 7.2774 6.818V7.194H6.4892C6.2174 7.194 6 7.395 6 7.646V14.164C6 14.415 6.2174 14.615 6.4892 14.615H8.7994L9.9953 16.37C10.1584 16.621 10.0769 16.797 10.104 17.072C10.104 17.599 10.5661 18 11.1097 18C11.1097 18 11.1097 18 11.1369 18L13.5558 17.975C13.8276 17.975 14.0722 17.875 14.2624 17.699C14.6158 17.348 14.5342 16.947 14.5614 16.897C14.5614 16.696 14.643 16.521 14.806 16.37C14.9963 16.22 15.105 15.994 15.105 15.744V14.615H18.5024C18.7742 14.615 18.9916 14.415 18.9916 14.164V7.646C19.046 7.395 18.8285 7.194 18.5567 7.194ZM17.225 6.969V13.086C16.5727 13.111 15.8388 13.186 15.1322 13.287V13.161C15.1322 12.735 14.7517 12.409 14.2896 12.409C14.0994 12.409 13.9091 12.484 13.7732 12.585C13.6102 12.434 13.3927 12.334 13.1753 12.334C13.0394 12.334 12.9035 12.359 12.7948 12.434V6.969C14.1809 6.317 15.8117 6.317 17.225 6.969ZM7.821 6.969C9.2071 6.317 10.8379 6.317 12.2512 6.969V12.309C12.1968 12.284 12.1153 12.284 12.0609 12.284C11.9522 12.284 11.8707 12.309 11.762 12.334L11.7348 10.679C11.7348 10.479 11.6533 10.278 11.4902 10.153C11.3271 10.002 11.1369 9.92701 10.8922 9.92701C10.6476 9.92701 10.4302 10.027 10.2671 10.203H8.7994C8.6364 10.203 8.5277 10.303 8.5277 10.454C8.5277 10.604 8.6364 10.704 8.7994 10.704H10.0769V11.356H8.8266C8.6636 11.356 8.5548 11.456 8.5548 11.607C8.5548 11.757 8.6636 11.858 8.8266 11.858H10.0769V13.262L9.941 13.011C9.6964 12.585 9.0984 12.434 8.6364 12.66C8.4189 12.76 8.2559 12.936 8.2015 13.136C8.0656 13.136 7.9569 13.111 7.821 13.111V6.969ZM6.5436 14.139V7.696H7.2774V13.337C7.2774 13.462 7.3861 13.588 7.5492 13.588C7.7666 13.588 7.9841 13.613 8.1743 13.613C8.2015 13.688 8.2287 13.763 8.283 13.863L8.4733 14.139H6.5436ZM14.4799 16.019C14.2081 16.245 14.045 16.571 14.045 16.922C14.045 16.997 14.0994 17.198 13.9091 17.373C13.8276 17.448 13.6917 17.499 13.583 17.499L11.164 17.524C10.8651 17.524 10.6748 17.323 10.6748 17.097C10.6476 16.847 10.7563 16.521 10.4846 16.12C10.2943 15.869 11.1369 17.047 8.7451 13.613C8.6364 13.437 8.7179 13.186 8.9082 13.086C9.1256 12.986 9.3702 13.061 9.4789 13.237L10.1312 14.365C10.1856 14.44 10.2943 14.515 10.4302 14.49C10.5661 14.465 10.6476 14.365 10.6476 14.239L10.6204 11.582V10.679C10.6204 10.629 10.6204 10.579 10.6476 10.554C10.702 10.479 10.7835 10.404 10.8922 10.404C10.9738 10.404 11.0553 10.429 11.1097 10.479C11.164 10.529 11.1912 10.604 11.1912 10.654L11.2184 13.011V13.588C11.2184 13.663 11.2456 13.713 11.2999 13.763C11.3543 13.813 11.4086 13.838 11.4902 13.838C11.6533 13.838 11.762 13.713 11.762 13.588V13.011C11.762 12.86 11.8979 12.76 12.0609 12.76C12.224 12.76 12.3599 12.886 12.3599 13.011C12.3599 13.086 12.3599 13.688 12.3599 13.663C12.3599 13.813 12.4686 13.913 12.6317 13.913C12.7948 13.913 12.9035 13.813 12.9035 13.663C12.9035 13.638 12.9035 13.036 12.9035 13.086C12.9035 12.936 13.0394 12.835 13.2025 12.835C13.3655 12.835 13.5014 12.961 13.5014 13.086C13.5014 13.186 13.5014 13.763 13.5014 13.738C13.5014 13.888 13.6102 13.989 13.7732 13.989C13.9363 13.989 14.045 13.888 14.045 13.738C14.045 13.713 14.045 13.111 14.045 13.161C14.045 13.011 14.1809 12.911 14.344 12.911C14.5071 12.911 14.643 13.036 14.643 13.161C14.643 13.387 14.6701 15.468 14.6701 15.744C14.6158 15.869 14.5614 15.944 14.4799 16.019ZM18.5024 14.139H15.1322V13.813C15.7573 13.713 16.4911 13.638 17.4968 13.588C17.6327 13.588 17.7686 13.462 17.7686 13.337V7.696H18.5024V14.139Z" fill="black"/>
</svg>
