<svg width="7" height="10" viewBox="0 0 7 10" fill="none" xmlns="http://www.w3.org/2000/svg">
<path fill-rule="evenodd" clip-rule="evenodd" d="M3.12501 0.624965C2.46197 0.624965 1.82608 0.888358 1.35724 1.3572C0.888395 1.82604 0.625002 2.46193 0.625002 3.12497C0.625002 3.78802 0.888395 4.4239 1.35724 4.89275C1.82608 5.36159 2.46197 5.62498 3.12501 5.62498C3.78805 5.62498 4.42394 5.36159 4.89278 4.89275C5.36163 4.4239 5.62502 3.78802 5.62502 3.12497C5.62502 2.46193 5.36163 1.82604 4.89278 1.3572C4.42394 0.888358 3.78805 0.624965 3.12501 0.624965ZM2.4688e-10 3.12497C7.59758e-06 2.52023 0.175483 1.92848 0.505144 1.42149C0.834805 0.914501 1.30449 0.514054 1.85723 0.268717C2.40997 0.0233793 3.02203 -0.0563082 3.61916 0.0393188C4.2163 0.134946 4.77286 0.401779 5.22135 0.807456C5.66983 1.21313 5.99098 1.74023 6.14583 2.32481C6.30069 2.90939 6.2826 3.52634 6.09376 4.10085C5.90492 4.67535 5.55344 5.18272 5.08195 5.56142C4.61046 5.94012 4.03922 6.17389 3.43751 6.23436V7.49999H4.68752C4.7704 7.49999 4.84988 7.53291 4.90849 7.59152C4.96709 7.65013 5.00002 7.72961 5.00002 7.81249C5.00002 7.89537 4.96709 7.97486 4.90849 8.03346C4.84988 8.09207 4.7704 8.12499 4.68752 8.12499H3.43751V9.6875C3.43751 9.77038 3.40459 9.84986 3.34598 9.90847C3.28738 9.96708 3.20789 10 3.12501 10C3.04213 10 2.96265 9.96708 2.90404 9.90847C2.84543 9.84986 2.81251 9.77038 2.81251 9.6875V8.12499H1.56251C1.47963 8.12499 1.40014 8.09207 1.34153 8.03346C1.28293 7.97486 1.25 7.89537 1.25 7.81249C1.25 7.72961 1.28293 7.65013 1.34153 7.59152C1.40014 7.53291 1.47963 7.49999 1.56251 7.49999H2.81251V6.23436C2.04169 6.15689 1.32711 5.79586 0.807428 5.22132C0.287741 4.64678 -9.73233e-06 3.89968 2.4688e-10 3.12497Z" fill="black"/>
</svg>
