<svg width="10" height="10" viewBox="0 0 10 10" fill="none" xmlns="http://www.w3.org/2000/svg">
<path fill-rule="evenodd" clip-rule="evenodd" d="M6.07152 0.714269C5.9768 0.714269 5.88596 0.676643 5.81899 0.609667C5.75201 0.542691 5.71438 0.451853 5.71438 0.357135C5.71438 0.262417 5.75201 0.171578 5.81899 0.104602C5.88596 0.0376266 5.9768 0 6.07152 0H9.64287C9.73758 0 9.82842 0.0376266 9.8954 0.104602C9.96237 0.171578 10 0.262417 10 0.357135V3.92848C10 4.0232 9.96237 4.11404 9.8954 4.18101C9.82842 4.24799 9.73758 4.28562 9.64287 4.28562C9.54815 4.28562 9.45731 4.24799 9.39033 4.18101C9.32336 4.11404 9.28573 4.0232 9.28573 3.92848V1.21926L6.33651 4.16848C6.91636 4.87788 7.20138 5.78301 7.13263 6.69666C7.06387 7.61031 6.64659 8.46258 5.9671 9.07722C5.28761 9.69185 4.39788 10.0218 3.48194 9.99888C2.56599 9.97594 1.6939 9.60185 1.04602 8.95398C0.39815 8.3061 0.0240588 7.43401 0.00112056 6.51806C-0.0218177 5.60212 0.308152 4.71239 0.922785 4.0329C1.53742 3.35341 2.38969 2.93613 3.30334 2.86737C4.21699 2.79862 5.12212 3.08364 5.83152 3.66349L8.78074 0.714269H6.07152ZM3.57158 3.57135C2.81383 3.57135 2.08712 3.87236 1.55132 4.40817C1.01551 4.94397 0.714497 5.67068 0.714497 6.42843C0.714497 7.18617 1.01551 7.91288 1.55132 8.44868C2.08712 8.98449 2.81383 9.2855 3.57158 9.2855C4.32932 9.2855 5.05603 8.98449 5.59183 8.44868C6.12764 7.91288 6.42865 7.18617 6.42865 6.42843C6.42865 5.67068 6.12764 4.94397 5.59183 4.40817C5.05603 3.87236 4.32932 3.57135 3.57158 3.57135Z" fill="black"/>
</svg>
