<svg width="21" height="21" viewBox="0 0 21 21" fill="none" xmlns="http://www.w3.org/2000/svg">
<path d="M2.04167 0.833374H18.9583M2.04167 0.833374H1.4375M2.04167 0.833374L3.25 10.5M18.9583 0.833374H19.5625M18.9583 0.833374L17.75 10.5M3.25 10.5L4.19371 18.0497C4.26676 18.6343 4.55084 19.1721 4.99253 19.5619C5.43423 19.9518 6.00312 20.1668 6.59225 20.1667H14.4078C14.9969 20.1668 15.5658 19.9518 16.0075 19.5619C16.4492 19.1721 16.7332 18.6343 16.8063 18.0497L17.75 10.5M3.25 10.5L5.75367 9.66629C6.1028 9.54984 6.47392 9.51467 6.83871 9.56346C7.2035 9.61225 7.55233 9.74372 7.85858 9.94783L9.15996 10.8142C9.55684 11.0787 10.0231 11.2198 10.5 11.2198C10.9769 11.2198 11.4432 11.0787 11.84 10.8142L13.1414 9.94783C13.4476 9.74352 13.7964 9.61184 14.1611 9.56284C14.5259 9.51383 14.8971 9.54881 15.2463 9.66508L17.75 10.5" stroke="black" stroke-width="1.5" stroke-linecap="round" stroke-linejoin="round"/>
</svg>
