<svg width="33" height="43" viewBox="0 0 33 43" fill="none" xmlns="http://www.w3.org/2000/svg">
<path d="M31.2839 19.5356C30.3928 17.5301 29.0975 15.7301 27.4789 14.2481L26.1433 13.0227C26.0979 12.9822 26.0433 12.9535 25.9843 12.939C25.9253 12.9246 25.8636 12.9248 25.8047 12.9398C25.7458 12.9547 25.6914 12.9839 25.6464 13.0248C25.6014 13.0656 25.5671 13.1169 25.5466 13.1741L24.9499 14.8861C24.5781 15.9602 23.8942 17.0571 22.9258 18.1357C22.8615 18.2046 22.7881 18.2229 22.7376 18.2275C22.6871 18.2321 22.6091 18.2229 22.5402 18.1587C22.476 18.1036 22.4438 18.021 22.4484 17.9384C22.6183 15.1753 21.7921 12.0588 19.9837 8.66689C18.4874 5.84872 16.4082 3.65019 13.8104 2.11718L11.9147 1.00185C11.6669 0.854975 11.3502 1.04775 11.364 1.33691L11.4649 3.54003C11.5338 5.0455 11.3594 6.37656 10.9463 7.48271C10.4414 8.83671 9.71621 10.0943 8.78906 11.2234C8.14384 12.0081 7.41253 12.7179 6.60889 13.3394C4.67338 14.8272 3.09955 16.7337 2.00527 18.916C0.913689 21.1174 0.345082 23.541 0.34375 25.9981C0.34375 28.1645 0.770605 30.2621 1.61514 32.2403C2.4306 34.145 3.6074 35.8735 5.08047 37.3305C6.56758 38.7992 8.29336 39.9559 10.2165 40.7591C12.2085 41.5944 14.3198 42.0167 16.5 42.0167C18.6802 42.0167 20.7915 41.5944 22.7835 40.7637C24.7019 39.9651 26.4464 38.8006 27.9195 37.3351C29.4066 35.8663 30.5725 34.1497 31.3849 32.2449C32.2281 30.2721 32.6607 28.1482 32.6562 26.0027C32.6562 23.7629 32.1973 21.5873 31.2839 19.5356Z" fill="black"/>
</svg>
