<svg width="28" height="35" viewBox="0 0 28 35" fill="none" xmlns="http://www.w3.org/2000/svg">
<path d="M26.3553 16.0455L26.3551 16.0452C25.6116 14.3993 24.5305 12.9215 23.179 11.7044L23.1786 11.704L22.2202 10.8391L21.7938 12.0426C21.7937 12.0428 21.7936 12.043 21.7935 12.0432C21.4437 13.0371 20.8093 14.0283 19.9374 14.9833L19.9309 14.9905L19.9309 14.9904C19.7652 15.1649 19.5705 15.2117 19.4496 15.2225C19.31 15.235 19.0928 15.2101 18.9036 15.041C18.7261 14.8868 18.6432 14.6643 18.6553 14.4498L18.6555 14.4468C18.795 12.2151 18.1182 9.65337 16.5792 6.81418L16.5787 6.81342C15.3242 4.48934 13.5865 2.68448 11.4184 1.42606C11.4184 1.42605 11.4183 1.42604 11.4183 1.42602L10.0646 0.642612L10.1364 2.18301L10.1364 2.18306C10.1984 3.51615 10.043 4.72198 9.65502 5.74388L26.3553 16.0455ZM26.3553 16.0455C27.1173 17.7292 27.5 19.5131 27.5 21.3513L27.5 21.3523C27.5037 23.1118 27.143 24.8538 26.4397 26.4722L26.4395 26.4726C25.7617 28.0357 24.7891 29.4446 23.547 30.6512L23.5457 30.6525C22.3156 31.8561 20.8584 32.813 19.2554 33.4693L19.2551 33.4694C17.5897 34.1526 15.8247 34.5 14 34.5C12.1753 34.5 10.4106 34.1526 8.74576 33.4659L8.7451 33.4656M26.3553 16.0455L8.7451 33.4656M7.702 9.07529L7.70178 9.07555C7.11858 9.77316 6.45772 10.404 5.73167 10.9562L5.73053 10.9571C4.11355 12.1797 2.79937 13.7456 1.88577 15.5373C0.975254 17.3437 0.501154 19.3319 0.5 21.3474L7.702 9.07529ZM7.702 9.07529C8.54047 8.07096 9.19739 6.95091 9.65493 5.74411L7.702 9.07529ZM8.7451 33.4656C7.13836 32.8056 5.69661 31.8554 4.45319 30.6475M8.7451 33.4656L4.45319 30.6475M4.45319 30.6475C3.22314 29.4509 2.24089 28.0317 1.56036 26.4685L4.45319 30.6475ZM1.56015 26.468C0.855944 24.8454 0.500037 23.1257 0.5 21.3476L1.56015 26.468Z" stroke="#272F3D"/>
</svg>
