<svg width="29" height="46" viewBox="0 0 29 46" fill="none" xmlns="http://www.w3.org/2000/svg">
<path d="M28.3226 3.7178C28.2957 3.31543 27.9849 3.01378 27.6282 3.04425C27.2717 3.07465 27.0043 3.42544 27.0312 3.82782C27.1694 5.89144 26.9737 8.90134 25.2568 11.5215C23.5375 14.1455 21.0991 15.0583 19.789 15.5488C17.8489 16.275 16.068 16.4642 14.4162 16.4153C14.5609 16.0629 14.6423 15.6707 14.6423 15.2573C14.6423 13.9702 13.8585 12.8857 12.8012 12.5798V11.6271H16.2586C17.5679 11.6271 18.6329 10.4253 18.6329 8.94814V8.16884C18.6329 7.76525 18.343 7.43824 17.9854 7.43824H14.8342L16.1299 2.72255C16.2482 2.29204 16.1801 1.83696 15.9431 1.47418C15.7061 1.1114 15.3411 0.903354 14.9416 0.903354H11.5061C11.1485 0.903354 10.8586 1.23036 10.8586 1.63395C10.8586 2.03754 11.1485 2.36454 11.5061 2.36454H14.8724L13.4784 7.43833H10.8086L8.9009 1.38883C8.78108 1.00868 8.41054 0.810532 8.07378 0.94538C7.73679 1.08066 7.56095 1.49858 7.68077 1.87872L9.43405 7.43815H6.37307C6.01545 7.43815 5.72556 7.76516 5.72556 8.16875V8.94806C5.72556 10.4252 6.79063 11.627 8.09987 11.627H11.5062V12.6048C10.489 12.9406 9.74357 14.0023 9.74357 15.2573C9.74357 15.4607 9.76365 15.6589 9.8009 15.8499C7.22943 15.4405 4.99333 15.2418 3.14893 17.1674C2.64695 17.6916 1.46215 19.1383 1.30308 21.2462C1.2923 21.3889 1.06752 24.7616 3.48723 26.591C4.45102 27.3197 5.45044 27.5218 6.26233 27.5218C6.58646 27.5218 6.88043 27.4896 7.13046 27.4458C7.31831 28.0556 7.69616 28.5656 8.18375 28.8856C5.78866 30.3861 4.16382 33.2695 4.16382 36.5734C4.16382 38.2087 4.56753 39.7972 5.316 41.1717H3.49439C1.82268 41.1717 0.462646 42.7063 0.462646 44.5924V44.63C0.462646 45.0336 0.752538 45.3606 1.11015 45.3606H23.2484C23.606 45.3606 23.8959 45.0336 23.8959 44.63V44.5924C23.8959 42.7062 22.536 41.1717 20.8642 41.1717H6.89706C5.96774 39.8722 5.45883 38.2521 5.45883 36.5734C5.45883 32.534 8.37145 29.2476 11.9515 29.2476C15.5315 29.2476 18.4442 32.534 18.4442 36.5734C18.4442 37.3427 18.3393 38.1 18.1321 38.8244C18.0224 39.2083 18.2093 39.6201 18.5497 39.7439C18.8901 39.8678 19.2549 39.6568 19.3647 39.2728C19.6132 38.4032 19.7392 37.495 19.7392 36.5734C19.7392 33.3684 18.2104 30.5593 15.9328 29.0242C16.7715 28.6105 17.3595 27.6657 17.3595 26.5685C17.3595 25.3629 16.6498 24.341 15.6771 24.006C15.5115 22.8007 14.8662 21.7725 13.9693 21.1766C14.3629 20.686 14.603 20.0359 14.603 19.3236C14.603 18.7896 14.4677 18.2908 14.2342 17.8677C16.0427 17.9341 18.0369 17.7442 20.1966 16.9358C21.5399 16.433 24.3348 15.3866 26.298 12.3904C28.3547 9.2517 28.4493 5.60941 28.3226 3.7178ZM6.58862 42.6327C6.59139 42.6327 6.59408 42.6332 6.59685 42.6332C6.60008 42.6332 6.60324 42.6329 6.60647 42.6327H20.8643C21.6057 42.6327 22.2401 43.1596 22.4888 43.8991H1.86993C2.11858 43.1597 2.753 42.6327 3.49439 42.6327H6.58862ZM8.09979 10.1659C7.50477 10.1659 7.02057 9.61952 7.02057 8.94814V8.89943H10.3517H13.9556H17.3379V8.94814C17.3379 9.6196 16.8538 10.1659 16.2587 10.1659H8.09979ZM12.0318 13.9688C12.0714 13.9773 12.112 13.9822 12.1537 13.9822C12.2062 13.9822 12.257 13.9743 12.306 13.9611C12.8896 14.0253 13.3474 14.5819 13.3474 15.2572C13.3474 15.6873 13.1607 16.0684 12.875 16.3057C12.3396 16.2476 11.8182 16.1732 11.3095 16.0937C11.1408 15.8673 11.0387 15.5755 11.0387 15.2572C11.0386 14.6007 11.4715 14.0577 12.0318 13.9688ZM12.1537 18.0208C12.7903 18.0208 13.3081 18.6051 13.3081 19.3234C13.3081 20.0416 12.7903 20.6258 12.1537 20.6258C11.5172 20.6259 10.9994 20.0416 10.9994 19.3234C10.9994 18.6052 11.5172 18.0208 12.1537 18.0208ZM7.05828 25.9758C6.43748 26.1035 5.27437 26.183 4.20815 25.3769C2.41555 24.0215 2.59147 21.3961 2.59347 21.3697C2.71398 19.7711 3.63722 18.6481 4.02846 18.2396C5.56973 16.6304 7.53363 16.953 10.2518 17.3991C10.2943 17.4062 10.3374 17.4132 10.3801 17.4201C9.96181 17.9162 9.70432 18.5863 9.70432 19.3234C9.70432 20.0463 9.95188 20.7049 10.3559 21.1979C9.47622 21.7969 8.84495 22.8151 8.68135 24.0056C7.87301 24.2841 7.2469 25.0372 7.05828 25.9758ZM14.9852 25.3507C15.5803 25.3507 16.0645 25.897 16.0645 26.5685C16.0645 27.2399 15.5803 27.7862 14.9852 27.7862H9.37325C8.77816 27.7862 8.29403 27.2399 8.29403 26.5685C8.29403 25.897 8.77816 25.3507 9.37325 25.3507H14.9852ZM14.3285 23.8895H10.0301C10.3087 22.8478 11.1666 22.0872 12.1793 22.0872C13.1919 22.0872 14.0498 22.848 14.3285 23.8895Z" fill="#262626"/>
</svg>
