<svg width="69" height="69" viewBox="0 0 69 69" fill="none" xmlns="http://www.w3.org/2000/svg">
<rect width="69" height="69" rx="12" fill="#FFE68D"/>
<path d="M27.086 44.26C25.6647 44.26 24.304 44.0607 23.004 43.662C21.704 43.246 20.6727 42.7173 19.91 42.076L21.08 39.45C21.808 40.022 22.7093 40.4987 23.784 40.88C24.8587 41.2613 25.9593 41.452 27.086 41.452C28.0393 41.452 28.8107 41.348 29.4 41.14C29.9893 40.932 30.4227 40.6547 30.7 40.308C30.9773 39.944 31.116 39.5367 31.116 39.086C31.116 38.5313 30.9167 38.0893 30.518 37.76C30.1193 37.4133 29.5993 37.1447 28.958 36.954C28.334 36.746 27.632 36.5553 26.852 36.382C26.0893 36.2087 25.318 36.0093 24.538 35.784C23.7753 35.5413 23.0733 35.238 22.432 34.874C21.808 34.4927 21.2967 33.99 20.898 33.366C20.4993 32.742 20.3 31.9447 20.3 30.974C20.3 29.986 20.56 29.0847 21.08 28.27C21.6173 27.438 22.4233 26.7793 23.498 26.294C24.59 25.7913 25.968 25.54 27.632 25.54C28.724 25.54 29.8073 25.6787 30.882 25.956C31.9567 26.2333 32.8927 26.632 33.69 27.152L32.624 29.778C31.8093 29.2927 30.9687 28.9373 30.102 28.712C29.2353 28.4693 28.4033 28.348 27.606 28.348C26.67 28.348 25.9073 28.4607 25.318 28.686C24.746 28.9113 24.3213 29.206 24.044 29.57C23.784 29.934 23.654 30.35 23.654 30.818C23.654 31.3727 23.8447 31.8233 24.226 32.17C24.6247 32.4993 25.136 32.7593 25.76 32.95C26.4013 33.1407 27.112 33.3313 27.892 33.522C28.672 33.6953 29.4433 33.8947 30.206 34.12C30.986 34.3453 31.688 34.64 32.312 35.004C32.9533 35.368 33.4647 35.862 33.846 36.486C34.2447 37.11 34.444 37.8987 34.444 38.852C34.444 39.8227 34.1753 40.724 33.638 41.556C33.118 42.3707 32.312 43.0293 31.22 43.532C30.128 44.0173 28.75 44.26 27.086 44.26ZM41.0196 44.26C39.8582 44.26 38.7836 44.0347 37.7956 43.584C36.8249 43.1333 36.0276 42.4833 35.4036 41.634L37.3276 39.32C37.8302 40.0133 38.3762 40.5333 38.9656 40.88C39.5722 41.2267 40.2309 41.4 40.9416 41.4C42.8309 41.4 43.7756 40.282 43.7756 38.046V28.634H37.3016V25.8H47.1556V37.864C47.1556 40.0133 46.6269 41.6167 45.5696 42.674C44.5296 43.7313 43.0129 44.26 41.0196 44.26Z" fill="#D17B3C"/>
</svg>
