<svg width="18" height="18" viewBox="0 0 18 18" fill="none" xmlns="http://www.w3.org/2000/svg">
<path d="M17 8.71917C17.003 9.91779 16.7289 11.1002 16.2 12.1701C15.5728 13.4521 14.6086 14.5305 13.4155 15.2843C12.2223 16.0382 10.8473 16.4378 9.44443 16.4383C8.27122 16.4414 7.11387 16.1614 6.06666 15.621L1 17.3464L2.68889 12.1701C2.15994 11.1002 1.88583 9.91779 1.88889 8.71917C1.88943 7.28591 2.28054 5.88111 3.01841 4.66212C3.75629 3.44313 4.81178 2.4581 6.06666 1.81735C7.11387 1.27694 8.27122 0.996901 9.44443 1.00003H9.88888C11.7416 1.10445 13.4916 1.9034 14.8037 3.2439C16.1157 4.58439 16.8978 6.37223 17 8.2651V8.71917Z" fill="#8F7EF3" stroke="#8F7EF3" stroke-linecap="round" stroke-linejoin="round"/>
<path d="M5.83594 6.23047L10.9554 6.23033" stroke="white" stroke-linecap="round"/>
<line x1="5.76758" y1="9.21777" x2="13.3009" y2="9.21777" stroke="white" stroke-linecap="round"/>
<path d="M5.83594 12.043H12.3776" stroke="white" stroke-linecap="round"/>
</svg>
