<svg width="23" height="25" viewBox="0 0 23 25" fill="none" xmlns="http://www.w3.org/2000/svg">
<path d="M1.06968 2.2573C1.42383 1.79645 1.87953 1.42352 2.40132 1.16752C2.92311 0.911512 3.49692 0.779336 4.07813 0.781271H4.68267L7.41704 11.3281H22.0469V12.8906C22.0469 15.1603 21.1379 17.1936 19.4875 18.6161C17.9258 19.9619 15.7828 20.7031 13.4531 20.7031H11.5916L11.9822 24.2188H2.125V12.209L0.395948 5.53982C0.248217 4.97771 0.232153 4.3891 0.349007 3.81978C0.465858 3.25046 0.712477 2.71576 1.06968 2.2573ZM3.6875 22.6563H10.2365L9.8459 19.1406H13.4531C17.593 19.1406 20.4844 16.5705 20.4844 12.8906H3.6875V22.6563ZM1.90845 5.14768L3.51079 11.3281H5.80288L3.49331 2.42014C2.92335 2.57471 2.4373 2.94775 2.14059 3.45835C1.84388 3.96896 1.76053 4.57595 1.90845 5.14768Z" fill="black"/>
</svg>
