<svg width="27" height="20" viewBox="0 0 27 20" fill="none" xmlns="http://www.w3.org/2000/svg">
<path d="M19.8538 13.2879C18.1599 11.8061 15.9475 10.9091 13.5241 10.9091C11.1008 10.9091 8.88839 11.8061 7.19143 13.2909C7.14457 13.3334 7.11588 13.3925 7.11139 13.4557C7.10689 13.519 7.12693 13.5816 7.16732 13.6303L8.25241 14.9303C8.33982 15.0333 8.49354 15.0455 8.59602 14.9576C9.91019 13.7939 11.6343 13.0909 13.5241 13.0909C15.414 13.0909 17.1381 13.7939 18.4523 14.9545C18.5548 15.0424 18.7085 15.0303 18.7959 14.9273L19.881 13.6273C19.9654 13.5273 19.9533 13.3758 19.8538 13.2879ZM23.3925 9.04242C20.7189 6.80303 17.2798 5.45455 13.5241 5.45455C9.76852 5.45455 6.32938 6.80303 3.65282 9.04242C3.60386 9.08394 3.57321 9.14324 3.56757 9.20739C3.56192 9.27154 3.58173 9.33533 3.62268 9.38485L4.70777 10.6848C4.79217 10.7879 4.94589 10.8 5.04536 10.7152C7.34515 8.79394 10.302 7.63636 13.5241 7.63636C16.7463 7.63636 19.7031 8.79394 21.9999 10.7152C22.1024 10.8 22.2531 10.7879 22.3375 10.6848L23.4226 9.38485C23.507 9.28182 23.4949 9.12727 23.3925 9.04242ZM26.91 4.8303C23.2508 1.81212 18.5668 0 13.4639 0C8.39407 0 3.74023 1.78788 0.0901067 4.7697C0.0650292 4.78995 0.0442363 4.81505 0.0289529 4.84351C0.0136695 4.87196 0.0042044 4.90321 0.00111478 4.9354C-0.00197485 4.96759 0.00137356 5.00008 0.0109629 5.03095C0.0205521 5.06182 0.0361883 5.09045 0.0569509 5.11515L1.14204 6.41515C1.22644 6.51515 1.37715 6.5303 1.47661 6.44848C4.75299 3.77879 8.92155 2.18182 13.4639 2.18182C18.0393 2.18182 22.235 3.80303 25.5204 6.50606C25.6229 6.59091 25.7736 6.57576 25.858 6.47273L26.9431 5.17273C27.0305 5.0697 27.0154 4.91515 26.91 4.8303ZM11.565 18.0606C11.565 18.575 11.7682 19.0683 12.13 19.432C12.4917 19.7957 12.9824 20 13.494 20C14.0056 20 14.4963 19.7957 14.858 19.432C15.2198 19.0683 15.4231 18.575 15.4231 18.0606C15.4231 17.5462 15.2198 17.053 14.858 16.6892C14.4963 16.3255 14.0056 16.1212 13.494 16.1212C12.9824 16.1212 12.4917 16.3255 12.13 16.6892C11.7682 17.053 11.565 17.5462 11.565 18.0606Z" fill="black"/>
</svg>
