<svg width="30" height="35" viewBox="0 0 30 35" fill="none" xmlns="http://www.w3.org/2000/svg">
<path d="M7.14069 19.4946C0.808533 12.0572 16.8426 15.107 20.2667 9.71947C23.6908 4.33194 29.4739 7.72966 29.4739 7.72966" stroke="black" stroke-width="1.5"/>
<path d="M2.3575 32.6543H19.5326C20.8345 32.6543 21.8901 33.6903 21.8901 34.9684V35.0007H0V34.9684C0 33.6904 1.05556 32.6543 2.3575 32.6543Z" fill="#634E9B"/>
<path d="M5.42535 32.6533C4.32673 31.4316 3.66016 29.8268 3.66016 28.069C3.66016 24.2414 6.82112 21.1387 10.7203 21.1387C14.6195 21.1387 17.7805 24.2415 17.7805 28.069C17.7805 29.8266 17.1139 31.4315 16.0153 32.6532" fill="#FFDB6C"/>
<path d="M10.7199 21.1387C10.2336 21.1387 9.75889 21.187 9.30012 21.2789C12.5189 21.9238 14.9406 24.7188 14.9406 28.069C14.9406 29.8266 14.2741 31.4315 13.1754 32.6532H5.4248L16.0148 32.6532C17.1134 31.4315 17.78 29.8266 17.78 28.0689C17.78 24.2414 14.619 21.1387 10.7199 21.1387Z" fill="#FFB04C"/>
<path d="M13.7193 21.139H8.17026C7.22724 21.139 6.46289 20.3887 6.46289 19.4631C6.46289 18.5374 7.22732 17.7871 8.17026 17.7871H13.7193C14.6623 17.7871 15.4267 18.5375 15.4267 19.4631C15.4267 20.3886 14.6623 21.139 13.7193 21.139Z" fill="#6EAECD"/>
<path d="M13.7191 17.7871H11.6133C12.5563 17.7871 13.3206 18.5375 13.3206 19.4631C13.3206 20.3887 12.5562 21.139 11.6133 21.139H13.7191C14.6621 21.139 15.4264 20.3887 15.4264 19.4631C15.4265 18.5375 14.6621 17.7871 13.7191 17.7871Z" fill="#5388B4"/>
<path d="M14.979 7.96742H6.91147C5.96845 7.96742 5.2041 7.21705 5.2041 6.29146V5.62109H16.6863V6.29146C16.6863 7.21698 15.9219 7.96742 14.979 7.96742Z" fill="#634E9B"/>
<path d="M14.5023 5.62109V6.29146C14.5023 7.21713 13.7379 7.96742 12.7949 7.96742H14.9789C15.9219 7.96742 16.6863 7.21706 16.6863 6.29146V5.62109H14.5023Z" fill="#4C3A7A"/>
<path d="M8.08496 17.7877C8.08496 16.2372 9.36537 14.9805 10.9448 14.9805C12.5243 14.9805 13.8047 16.2373 13.8047 17.7877" fill="#EE3446"/>
<path d="M10.9448 14.9805C10.6376 14.9805 10.3419 15.0286 10.0645 15.1166C11.213 15.4811 12.044 16.5389 12.044 17.7877H13.8048C13.8047 16.2373 12.5244 14.9805 10.9448 14.9805Z" fill="#BA2C53"/>
<path d="M10.9193 14.9801C11.9033 14.9801 12.701 14.1971 12.701 13.2313C12.701 12.2654 11.9033 11.4824 10.9193 11.4824C9.93536 11.4824 9.1377 12.2654 9.1377 13.2313C9.1377 14.1971 9.93536 14.9801 10.9193 14.9801Z" fill="#42A555"/>
<path d="M10.9584 11.4821C11.9424 11.4821 12.74 10.6991 12.74 9.73323C12.74 8.76737 11.9424 7.98438 10.9584 7.98438C9.97442 7.98438 9.17676 8.76737 9.17676 9.73323C9.17676 10.6991 9.97442 11.4821 10.9584 11.4821Z" fill="#42A555"/>
<path d="M10.9197 11.4824C10.6716 11.4824 10.4354 11.5325 10.2207 11.6225C10.8572 11.8893 11.3034 12.5091 11.3034 13.2314C11.3034 13.9538 10.8572 14.5736 10.2207 14.8404C10.4353 14.9304 10.6716 14.9804 10.9197 14.9804C11.9036 14.9804 12.7013 14.1974 12.7013 13.2314C12.7015 12.2654 11.9037 11.4824 10.9197 11.4824Z" fill="#427451"/>
<path d="M10.9588 7.98438C10.7106 7.98438 10.4744 8.03442 10.2598 8.12442C10.8963 8.39123 11.3425 9.01103 11.3425 9.73338C11.3425 10.4557 10.8963 11.0755 10.2598 11.3423C10.4744 11.4323 10.7106 11.4823 10.9588 11.4823C11.9427 11.4823 12.7404 10.6993 12.7404 9.73346C12.7405 8.76738 11.9428 7.98438 10.9588 7.98438Z" fill="#427451"/>
<path d="M12.7013 5.62153H9.13792L7.38033 0.773071C7.24367 0.396171 7.52849 0 7.93604 0H13.6764C14.0738 0 14.3575 0.377871 14.2398 0.750439L12.7013 5.62153Z" fill="#FFDB6C"/>
<path d="M12.5802 0.000149375L10.8047 5.62168H12.7009L14.2394 0.750439C14.3571 0.377871 14.0734 0 13.676 0H12.5802V0.000149375Z" fill="#FFB04C"/>
<path d="M19.533 32.6543H15.9961C17.298 32.6543 18.3536 33.6903 18.3536 34.9684V35.0007H21.8905V34.9684C21.8905 33.6904 20.835 32.6543 19.533 32.6543Z" fill="#4C3A7A"/>
</svg>
