<svg width="126" height="126" viewBox="0 0 126 126" fill="none" xmlns="http://www.w3.org/2000/svg">
<circle cx="63" cy="63" r="63" fill="#EEFCEC"/>
<circle cx="63" cy="63" r="63" fill="#EEFCEC"/>
<circle cx="63" cy="63" r="63" fill="#EEFCEC"/>
<path d="M77.2656 82.2656V85.5469C77.2656 88.2539 75.0508 90.4688 72.3438 90.4688H41.9922L41.1719 91.125L30.5078 99.3281V90.4688H23.9453C21.2383 90.4688 19.0234 88.2539 19.0234 85.5469V51.0938C19.0234 48.3867 21.2383 46.1719 23.9453 46.1719H42.8125V42.8906H23.9453C19.4336 42.8906 15.7422 46.582 15.7422 51.0938V85.5469C15.7422 90.0586 19.4336 93.75 23.9453 93.75H27.2266V106.055L43.1406 93.75H72.3438C76.8555 93.75 80.5469 90.0586 80.5469 85.5469V82.2656H77.2656Z" fill="black"/>
<path d="M101.055 33.0469C103.762 33.0469 105.977 35.2617 105.977 37.9688V72.4219C105.977 75.1289 103.762 77.3438 101.055 77.3438H94.4922V86.2852L83.8281 78.082L83.0078 77.3438H52.6562C49.9492 77.3438 47.7344 75.1289 47.7344 72.4219V37.9688C47.7344 35.2617 49.9492 33.0469 52.6562 33.0469H101.055ZM101.055 29.7656H52.6562C48.1445 29.7656 44.4531 33.457 44.4531 37.9688V72.4219C44.4531 76.9336 48.1445 80.625 52.6562 80.625H81.8594L97.7734 92.9297V80.625H101.055C105.566 80.625 109.258 76.9336 109.258 72.4219V37.9688C109.258 33.457 105.566 29.7656 101.055 29.7656Z" fill="black"/>
</svg>
