<svg width="126" height="126" viewBox="0 0 126 126" fill="none" xmlns="http://www.w3.org/2000/svg">
<circle cx="63" cy="63" r="63" fill="#EEFCEC"/>
<circle cx="63" cy="63" r="63" fill="#EEFCEC"/>
<circle cx="63" cy="63" r="63" fill="#F3F1FF"/>
<path d="M40.5 49.5C35.55 49.5 31.5 45.45 31.5 40.5C31.5 35.55 35.55 31.5 40.5 31.5C45.45 31.5 49.5 35.55 49.5 40.5C49.5 45.45 45.45 49.5 40.5 49.5ZM40.5 33.75C36.675 33.75 33.75 36.675 33.75 40.5C33.75 44.325 36.675 47.25 40.5 47.25C44.325 47.25 47.25 44.325 47.25 40.5C47.25 36.675 44.325 33.75 40.5 33.75Z" fill="black"/>
<path d="M40.4992 45C39.3742 45 38.2492 44.55 37.3492 43.65C36.8992 43.2 36.8992 42.525 37.3492 42.075C37.7992 41.625 38.4742 41.625 38.9242 42.075C39.8242 42.975 41.1742 42.975 42.0742 42.075C42.5242 41.625 43.1992 41.625 43.6492 42.075C44.0992 42.525 44.0992 43.2 43.6492 43.65C42.7492 44.55 41.6242 45 40.4992 45Z" fill="black"/>
<path d="M37.8008 39.375C38.4221 39.375 38.9258 38.8713 38.9258 38.25C38.9258 37.6287 38.4221 37.125 37.8008 37.125C37.1795 37.125 36.6758 37.6287 36.6758 38.25C36.6758 38.8713 37.1795 39.375 37.8008 39.375Z" fill="black"/>
<path d="M43.4258 39.375C44.0471 39.375 44.5508 38.8713 44.5508 38.25C44.5508 37.6287 44.0471 37.125 43.4258 37.125C42.8045 37.125 42.3008 37.6287 42.3008 38.25C42.3008 38.8713 42.8045 39.375 43.4258 39.375Z" fill="black"/>
<path d="M40.5 72C35.55 72 31.5 67.95 31.5 63C31.5 58.05 35.55 54 40.5 54C45.45 54 49.5 58.05 49.5 63C49.5 67.95 45.45 72 40.5 72ZM40.5 56.25C36.675 56.25 33.75 59.175 33.75 63C33.75 66.825 36.675 69.75 40.5 69.75C44.325 69.75 47.25 66.825 47.25 63C47.25 59.175 44.325 56.25 40.5 56.25Z" fill="black"/>
<path d="M42.9754 66.375H38.0254C37.3504 66.375 36.9004 65.925 36.9004 65.25C36.9004 64.575 37.3504 64.125 38.0254 64.125H42.7504C43.4254 64.125 43.8754 64.575 43.8754 65.25C43.8754 65.925 43.4254 66.375 42.9754 66.375Z" fill="black"/>
<path d="M37.8008 61.875C38.4221 61.875 38.9258 61.3713 38.9258 60.75C38.9258 60.1287 38.4221 59.625 37.8008 59.625C37.1795 59.625 36.6758 60.1287 36.6758 60.75C36.6758 61.3713 37.1795 61.875 37.8008 61.875Z" fill="black"/>
<path d="M43.4258 61.875C44.0471 61.875 44.5508 61.3713 44.5508 60.75C44.5508 60.1287 44.0471 59.625 43.4258 59.625C42.8045 59.625 42.3008 60.1287 42.3008 60.75C42.3008 61.3713 42.8045 61.875 43.4258 61.875Z" fill="black"/>
<path d="M40.5 94.5C35.55 94.5 31.5 90.45 31.5 85.5C31.5 80.55 35.55 76.5 40.5 76.5C45.45 76.5 49.5 80.55 49.5 85.5C49.5 90.45 45.45 94.5 40.5 94.5ZM40.5 78.75C36.675 78.75 33.75 81.675 33.75 85.5C33.75 89.325 36.675 92.25 40.5 92.25C44.325 92.25 47.25 89.325 47.25 85.5C47.25 81.675 44.325 78.75 40.5 78.75Z" fill="black"/>
<path d="M42.9742 90C42.7492 90 42.2992 90 42.0742 89.775C41.1742 88.875 39.8242 88.875 38.9242 89.775C38.4742 90.225 37.7992 90.225 37.3492 89.775C36.8992 89.325 36.8992 88.65 37.3492 88.2C38.9242 86.625 42.0742 86.625 43.6492 88.2C44.0992 88.65 44.0992 89.325 43.6492 89.775C43.4242 90 43.1992 90 42.9742 90Z" fill="black"/>
<path d="M37.8008 84.375C38.4221 84.375 38.9258 83.8713 38.9258 83.25C38.9258 82.6287 38.4221 82.125 37.8008 82.125C37.1795 82.125 36.6758 82.6287 36.6758 83.25C36.6758 83.8713 37.1795 84.375 37.8008 84.375Z" fill="black"/>
<path d="M43.4258 84.375C44.0471 84.375 44.5508 83.8713 44.5508 83.25C44.5508 82.6287 44.0471 82.125 43.4258 82.125C42.8045 82.125 42.3008 82.6287 42.3008 83.25C42.3008 83.8713 42.8045 84.375 43.4258 84.375Z" fill="black"/>
<path d="M66.375 47.25H55.125C54.45 47.25 54 46.8 54 46.125V34.875C54 34.2 54.45 33.75 55.125 33.75H66.375C67.05 33.75 67.5 34.2 67.5 34.875V46.125C67.5 46.8 67.05 47.25 66.375 47.25ZM56.25 45H65.25V36H56.25V45Z" fill="black"/>
<path d="M61.65 43.875C61.425 43.875 60.975 43.875 60.75 43.65L57.6 40.5C57.15 40.05 57.15 39.375 57.6 38.925C58.05 38.475 58.725 38.475 59.175 38.925L61.65 41.4L68.85 34.2C69.3 33.75 69.975 33.75 70.425 34.2C70.875 34.65 70.875 35.325 70.425 35.775L62.55 43.65C62.325 43.65 62.1 43.875 61.65 43.875ZM66.375 69.75H55.125C54.45 69.75 54 69.3 54 68.625V57.375C54 56.7 54.45 56.25 55.125 56.25H66.375C67.05 56.25 67.5 56.7 67.5 57.375V68.625C67.5 69.3 67.05 69.75 66.375 69.75ZM56.25 67.5H65.25V58.5H56.25V67.5ZM66.375 92.25H55.125C54.45 92.25 54 91.8 54 91.125V79.875C54 79.2001 54.45 78.75 55.125 78.75H66.375C67.05 78.75 67.5 79.2001 67.5 79.875V91.125C67.5 91.8 67.05 92.25 66.375 92.25ZM56.25 90H65.25V81H56.25V90ZM93.375 83.25H73.125C72.45 83.25 72 82.8 72 82.125C72 81.4501 72.45 81 73.125 81H93.375C94.05 81 94.5 81.4501 94.5 82.125C94.5 82.8 94.05 83.25 93.375 83.25ZM86.625 87.75H73.125C72.45 87.75 72 87.3 72 86.625C72 85.9501 72.45 85.5 73.125 85.5H86.625C87.3 85.5 87.75 85.9501 87.75 86.625C87.75 87.3 87.3 87.75 86.625 87.75ZM93.375 60.75H73.125C72.45 60.75 72 60.3 72 59.625C72 58.95 72.45 58.5 73.125 58.5H93.375C94.05 58.5 94.5 58.95 94.5 59.625C94.5 60.3 94.05 60.75 93.375 60.75ZM86.625 65.25H73.125C72.45 65.25 72 64.8 72 64.125C72 63.45 72.45 63 73.125 63H86.625C87.3 63 87.75 63.45 87.75 64.125C87.75 64.8 87.3 65.25 86.625 65.25ZM93.375 38.25H73.125C72.45 38.25 72 37.8 72 37.125C72 36.45 72.45 36 73.125 36H93.375C94.05 36 94.5 36.45 94.5 37.125C94.5 37.8 94.05 38.25 93.375 38.25ZM86.625 42.75H73.125C72.45 42.75 72 42.3 72 41.625C72 40.95 72.45 40.5 73.125 40.5H86.625C87.3 40.5 87.75 40.95 87.75 41.625C87.75 42.3 87.3 42.75 86.625 42.75Z" fill="black"/>
</svg>
