<svg width="116" height="116" viewBox="0 0 116 116" fill="none" xmlns="http://www.w3.org/2000/svg">
<circle cx="58" cy="58" r="58" fill="#EEFCEC"/>
<circle cx="58" cy="58" r="58" fill="#EEFCEC"/>
<circle cx="58" cy="58" r="58" fill="#F2F0DF"/>
<path d="M77.1625 60.2312C78.6334 58.9931 79.688 57.3326 80.1834 55.4748C80.6788 53.6171 80.5911 51.6519 79.9321 49.8457C79.2731 48.0395 78.0746 46.4796 76.4992 45.3775C74.9238 44.2753 73.0477 43.6841 71.125 43.6841C69.2023 43.6841 67.3262 44.2753 65.7508 45.3775C64.1754 46.4796 62.9769 48.0395 62.3179 49.8457C61.6589 51.6519 61.5712 53.6171 62.0666 55.4748C62.562 57.3326 63.6166 58.9931 65.0875 60.2312C64.6688 60.4467 64.2619 60.6846 63.8687 60.9437C62.1922 57.3889 59.3275 54.5308 55.7688 52.8625C58.1415 51.3202 59.9522 49.0522 60.9309 46.3968C61.9095 43.7415 62.0037 40.8409 61.1993 38.1276C60.395 35.4143 58.7352 33.0337 56.4675 31.3407C54.1998 29.6477 51.4456 28.733 48.6156 28.733C45.7856 28.733 43.0315 29.6477 40.7637 31.3407C38.496 33.0337 36.8363 35.4143 36.0319 38.1276C35.2276 40.8409 35.3218 43.7415 36.3004 46.3968C37.279 49.0522 39.0897 51.3202 41.4625 52.8625C38.5618 54.2222 36.1081 56.3795 34.3882 59.0823C32.6683 61.785 31.7532 64.9214 31.75 68.125V79.375C31.75 79.8723 31.9475 80.3492 32.2992 80.7008C32.6508 81.0525 33.1277 81.25 33.625 81.25H82.375C82.8723 81.25 83.3492 81.0525 83.7008 80.7008C84.0525 80.3492 84.25 79.8723 84.25 79.375V71.875C84.2481 69.4712 83.5862 67.1142 82.3364 65.0609C81.0865 63.0076 79.2968 61.337 77.1625 60.2312ZM65.5 53.125C65.5 52.0125 65.8299 50.9249 66.448 49.9999C67.0661 49.0749 67.9446 48.3539 68.9724 47.9282C70.0002 47.5024 71.1312 47.391 72.2224 47.6081C73.3135 47.8251 74.3158 48.3609 75.1025 49.1475C75.8891 49.9342 76.4249 50.9365 76.6419 52.0276C76.859 53.1188 76.7476 54.2498 76.3218 55.2776C75.8961 56.3054 75.1751 57.1839 74.2501 57.802C73.3251 58.4201 72.2375 58.75 71.125 58.75C69.6332 58.75 68.2024 58.1574 67.1475 57.1025C66.0926 56.0476 65.5 54.6168 65.5 53.125ZM39.25 41.875C39.25 40.0208 39.7998 38.2082 40.83 36.6665C41.8601 35.1248 43.3243 33.9232 45.0373 33.2136C46.7504 32.5041 48.6354 32.3184 50.454 32.6801C52.2725 33.0419 53.943 33.9348 55.2541 35.2459C56.5652 36.557 57.4581 38.2275 57.8199 40.046C58.1816 41.8646 57.9959 43.7496 57.2864 45.4627C56.5768 47.1757 55.3752 48.6399 53.8335 49.67C52.2918 50.7002 50.4792 51.25 48.625 51.25C46.1386 51.25 43.754 50.2623 41.9959 48.5041C40.2377 46.746 39.25 44.3614 39.25 41.875ZM59.875 77.5H35.5V68.125C35.5 64.644 36.8828 61.3056 39.3442 58.8442C41.8056 56.3828 45.144 55 48.625 55C52.106 55 55.4444 56.3828 57.9058 58.8442C60.3672 61.3056 61.75 64.644 61.75 68.125V77.5H59.875ZM80.5 77.5H65.5V68.125C65.5037 66.979 65.3906 65.8356 65.1625 64.7125C66.8224 63.2872 68.9372 62.5025 71.125 62.5C73.6114 62.5 75.996 63.4877 77.7541 65.2459C79.5123 67.004 80.5 69.3886 80.5 71.875V77.5Z" fill="black"/>
</svg>
