<svg width="116" height="116" viewBox="0 0 116 116" fill="none" xmlns="http://www.w3.org/2000/svg">
<circle cx="58" cy="58" r="58" fill="#E7F0F4"/>
<path d="M84.5104 67.99C84.5104 63.975 81.2254 60.69 77.2104 60.69C73.1954 60.69 69.9104 63.975 69.9104 67.99C69.9104 72.005 73.1954 75.29 77.2104 75.29C81.2254 75.29 84.5104 72.005 84.5104 67.99ZM77.2104 72.37C74.8014 72.37 72.8304 70.399 72.8304 67.99C72.8304 65.581 74.8014 63.61 77.2104 63.61C79.6194 63.61 81.5904 65.581 81.5904 67.99C81.5904 70.399 79.6194 72.37 77.2104 72.37ZM77.2104 75.29C74.4364 75.29 71.8084 76.166 69.6914 77.699C67.7204 72.881 62.9754 69.45 57.5004 69.45C52.0254 69.45 47.2804 72.881 45.3094 77.699C43.1924 76.239 40.5644 75.29 37.7904 75.29C30.5634 75.29 24.6504 81.203 24.6504 88.43V89.89C24.6504 90.693 25.3074 91.35 26.1104 91.35H88.8904C89.6934 91.35 90.3504 90.693 90.3504 89.89V88.43C90.3504 81.203 84.4374 75.29 77.2104 75.29ZM44.3604 82.59V88.43H27.5704C27.5704 82.809 32.1694 78.21 37.7904 78.21C40.3454 78.21 42.6814 79.159 44.5064 80.765C44.4334 81.349 44.3604 81.933 44.3604 82.59ZM67.7204 88.43H47.2804V82.59C47.2804 76.969 51.8794 72.37 57.5004 72.37C63.1214 72.37 67.7204 76.969 67.7204 82.59V88.43ZM70.6404 88.43V82.59C70.6404 81.933 70.5674 81.349 70.4944 80.765C72.3194 79.232 74.6554 78.21 77.2104 78.21C82.8314 78.21 87.4304 82.809 87.4304 88.43H70.6404ZM45.0904 67.99C45.0904 63.975 41.8054 60.69 37.7904 60.69C33.7754 60.69 30.4904 63.975 30.4904 67.99C30.4904 72.005 33.7754 75.29 37.7904 75.29C41.8054 75.29 45.0904 72.005 45.0904 67.99ZM37.7904 72.37C35.3814 72.37 33.4104 70.399 33.4104 67.99C33.4104 65.581 35.3814 63.61 37.7904 63.61C40.1994 63.61 42.1704 65.581 42.1704 67.99C42.1704 70.399 40.1994 72.37 37.7904 72.37ZM64.8004 62.15C64.8004 58.135 61.5154 54.85 57.5004 54.85C53.4854 54.85 50.2004 58.135 50.2004 62.15C50.2004 66.165 53.4854 69.45 57.5004 69.45C61.5154 69.45 64.8004 66.165 64.8004 62.15ZM57.5004 66.53C55.0914 66.53 53.1204 64.559 53.1204 62.15C53.1204 59.741 55.0914 57.77 57.5004 57.77C59.9094 57.77 61.8804 59.741 61.8804 62.15C61.8804 64.559 59.9094 66.53 57.5004 66.53ZM30.4174 40.615L29.3224 47.258C29.2494 47.842 29.4684 48.353 29.9064 48.718C30.3444 49.01 31.0014 49.083 31.4394 48.791L37.0604 45.725L42.6814 48.791C42.9004 48.937 43.1194 48.937 43.4114 48.937C43.7034 48.937 43.9954 48.864 44.2144 48.645C44.6524 48.353 44.9444 47.769 44.7984 47.185L43.7034 40.542L47.2804 36.892L50.8574 40.542L49.7624 47.185C49.6894 47.769 49.9084 48.28 50.3464 48.645C50.7844 48.937 51.4414 49.01 51.8794 48.718L57.5004 45.652L63.1214 48.718C63.3404 48.864 63.5594 48.864 63.8514 48.864C64.1434 48.864 64.4354 48.791 64.6544 48.572C65.0924 48.28 65.3844 47.696 65.2384 47.112L64.1434 40.469L67.7204 36.819L71.2974 40.469L70.2024 47.112C70.1294 47.696 70.3484 48.207 70.7864 48.572C71.2244 48.864 71.8814 48.937 72.3194 48.645L77.9404 45.579L83.5614 48.645C83.7804 48.791 83.9994 48.791 84.2914 48.791C84.5834 48.791 84.8754 48.718 85.0944 48.499C85.5324 48.207 85.8244 47.623 85.6784 47.039L84.5834 40.396L89.1824 35.651C89.5474 35.286 89.6934 34.702 89.5474 34.191C89.4014 33.68 88.8904 33.315 88.3794 33.242L82.1014 32.293L79.2544 26.307C79.0354 26.015 78.5244 25.65 77.9404 25.65C77.3564 25.65 76.8454 26.015 76.6264 26.453L73.7794 32.439L67.7204 33.461L61.6614 32.512L58.8144 26.526C58.5954 26.015 58.0844 25.65 57.5004 25.65C56.9164 25.65 56.4054 26.015 56.1864 26.453L53.3394 32.439L47.2804 33.461L41.2214 32.512L38.3744 26.526C38.1554 26.015 37.6444 25.65 37.0604 25.65C36.4764 25.65 35.9654 26.015 35.7464 26.453L32.8994 32.439L26.6214 33.388C26.1104 33.461 25.5994 33.826 25.4534 34.337C25.3074 34.848 25.3804 35.432 25.8184 35.797L30.4174 40.615ZM75.0204 35.286C75.5314 35.213 75.8964 34.921 76.1154 34.483L77.9404 30.541L79.7654 34.483C79.9844 34.921 80.3494 35.213 80.8604 35.286L85.0944 35.943L81.9554 39.155C81.5904 39.52 81.4444 39.958 81.5904 40.396L82.3204 44.849L78.6704 42.805C78.4514 42.659 78.2324 42.659 77.9404 42.659C77.6484 42.659 77.4294 42.732 77.2104 42.805L73.5604 44.849L74.2904 40.396C74.3634 39.958 74.2174 39.447 73.9254 39.155L70.7864 35.943L75.0204 35.286ZM54.5804 35.286C55.0914 35.213 55.4564 34.921 55.6754 34.483L57.5004 30.541L59.3254 34.483C59.5444 34.921 59.9094 35.213 60.4204 35.286L64.6544 35.943L61.5154 39.155C61.1504 39.52 61.0044 39.958 61.1504 40.396L61.8804 44.849L58.2304 42.805C58.0114 42.659 57.7924 42.659 57.5004 42.659C57.2084 42.659 56.9894 42.732 56.7704 42.805L53.1204 44.849L53.8504 40.396C53.9234 39.958 53.7774 39.447 53.4854 39.155L50.3464 35.943L54.5804 35.286ZM34.1404 35.286C34.6514 35.213 35.0164 34.921 35.2354 34.483L37.0604 30.541L38.8854 34.483C39.1044 34.921 39.4694 35.213 39.9804 35.286L44.2144 35.943L41.0754 39.155C40.7104 39.52 40.5644 39.958 40.7104 40.396L41.4404 44.849L37.7904 42.805C37.5714 42.659 37.3524 42.659 37.0604 42.659C36.7684 42.659 36.5494 42.732 36.3304 42.805L32.6804 44.849L33.4104 40.396C33.4834 39.958 33.3374 39.447 33.0454 39.155L29.9064 35.943L34.1404 35.286Z" fill="black"/>
</svg>
