<svg width="116" height="116" viewBox="0 0 116 116" fill="none" xmlns="http://www.w3.org/2000/svg">
<circle cx="58" cy="58" r="58" fill="#EEFCEC"/>
<circle cx="58" cy="58" r="58" fill="#EEFCEC"/>
<circle cx="58" cy="58" r="58" fill="#EEFCEC"/>
<path d="M40.5368 31.1111C39.4383 31.1167 38.3864 31.5555 37.6096 32.3323C36.8328 33.109 36.394 34.161 36.3885 35.2594V37.6081C36.3854 37.6414 36.3837 37.6749 36.3832 37.7083V41.6667H19.4257C18.3272 41.6722 17.2753 42.1111 16.4985 42.8878C15.7217 43.6646 15.2829 44.7165 15.2773 45.815V79.7458C15.2773 82.0206 17.151 83.8889 19.4257 83.8889H77.1012C79.376 83.8889 81.2496 82.0206 81.2496 79.7458V73.3333H98.2123C100.487 73.3333 102.361 71.465 102.361 69.1903V35.2594C102.355 34.161 101.916 33.109 101.14 32.3323C100.363 31.5555 99.3108 31.1167 98.2123 31.1111H40.5368ZM40.5368 33.75H98.2123C98.4118 33.7457 98.61 33.7818 98.7951 33.8561C98.9801 33.9304 99.1483 34.0415 99.2893 34.1825C99.4303 34.3235 99.5414 34.4916 99.6157 34.6767C99.69 34.8618 99.7261 35.06 99.7218 35.2594V36.3889H39.0273V35.2594C39.023 35.06 39.0591 34.8618 39.1334 34.6767C39.2078 34.4916 39.3188 34.3235 39.4598 34.1825C39.6009 34.0415 39.769 33.9304 39.9541 33.8561C40.1392 33.7818 40.3374 33.7457 40.5368 33.75ZM39.0273 39.0278H99.7218V44.3056H81.3472L81.3261 43.0996C81.3206 42.7542 81.1798 42.4248 80.9341 42.1821C80.6884 41.9393 80.3573 41.8026 80.0119 41.8013L78.075 41.796C77.756 41.7133 77.4281 41.6698 77.0986 41.6667H39.0273V39.0278ZM19.4257 44.3056H37.6973L77.7187 44.4296C77.9882 44.5459 78.2169 44.7397 78.3757 44.9864C78.5346 45.2332 78.6164 45.5216 78.6107 45.815V79.7458C78.6143 79.9448 78.5777 80.1425 78.503 80.3269C78.4284 80.5114 78.3172 80.6789 78.1763 80.8193C78.0353 80.9598 77.8674 81.0704 77.6827 81.1444C77.498 81.2184 77.3002 81.2543 77.1012 81.25H19.4257C19.2267 81.2543 19.029 81.2184 18.8442 81.1444C18.6595 81.0704 18.4916 80.9598 18.3507 80.8193C18.2097 80.6789 18.0986 80.5114 18.0239 80.3269C17.9493 80.1425 17.9126 79.9448 17.9162 79.7458V45.815C17.9119 45.6156 17.948 45.4174 18.0223 45.2323C18.0967 45.0472 18.2077 44.8791 18.3487 44.738C18.4898 44.597 18.6579 44.486 18.843 44.4117C19.0281 44.3373 19.2263 44.3012 19.4257 44.3056ZM81.2496 46.9444H99.7218V69.1903C99.7254 69.3892 99.6888 69.5869 99.6141 69.7714C99.5395 69.9558 99.4283 70.1233 99.2874 70.2638C99.1464 70.4043 98.9785 70.5148 98.7938 70.5888C98.6091 70.6628 98.4113 70.6987 98.2123 70.6944H81.2496V62.6089C82.1649 62.7967 83.1096 62.788 84.0213 62.5833C84.933 62.3786 85.7908 61.9825 86.5379 61.4214C87.6436 62.2579 89 62.7778 90.4857 62.7778C94.1142 62.7778 97.0829 59.809 97.0829 56.1806C97.0829 52.5521 94.1142 49.5833 90.4857 49.5833C89.0026 49.5833 87.6462 50.0953 86.5432 50.9292C85.379 50.043 83.9529 49.5695 82.4898 49.5833C82.0676 49.5833 81.656 49.6361 81.2469 49.7232V46.9444H81.2496ZM82.5215 52.2169V52.2222C83.3396 52.2222 84.0389 52.6313 84.6828 53.1194C84.1919 54.0378 83.8885 55.0722 83.8885 56.1806C83.8885 57.3074 84.2051 58.3524 84.7065 59.2839C83.8093 59.8988 82.7485 60.1019 81.6665 59.846L81.7589 52.3832C82.0148 52.3278 82.2603 52.2196 82.5241 52.2169H82.5215ZM90.4857 52.2222C92.6865 52.2222 94.444 53.9797 94.444 56.1806C94.444 58.3814 92.6865 60.1389 90.4857 60.1389C89.3985 60.1389 88.4194 59.7088 87.7069 59.0094L87.5697 58.8511L87.5169 58.7878L87.5064 58.7719C87.1999 58.4213 86.9578 58.0193 86.7912 57.5844L86.7807 57.5475C86.6165 57.1103 86.5307 56.6476 86.5273 56.1806V56.17C86.5273 55.7029 86.6197 55.2464 86.7807 54.8136L86.7912 54.774C86.9548 54.3412 87.1976 53.9375 87.5064 53.5839L87.5169 53.5681L87.5697 53.5047L87.7069 53.3464C88.4194 52.6471 89.3958 52.2222 90.4857 52.2222ZM48.2635 52.2275C42.45 52.2275 37.7079 56.9643 37.7079 62.7778C37.7079 68.5913 42.45 73.3333 48.2635 73.3333C54.0769 73.3333 58.819 68.5913 58.819 62.7778C58.8134 59.9805 57.6994 57.2994 55.7209 55.3219C53.7424 53.3444 51.0608 52.2317 48.2635 52.2275ZM29.7912 54.8611V57.5H35.069V54.8611H29.7912ZM61.4579 54.8611V57.5H66.7357V54.8611H61.4579ZM48.2635 54.8664C52.6519 54.8664 56.1801 58.3946 56.1801 62.7831C56.1829 63.8232 55.98 64.8537 55.5831 65.8151C55.1861 66.7766 54.603 67.6501 53.8673 68.3853C53.1315 69.1206 52.2576 69.7031 51.2959 70.0994C50.3342 70.4957 49.3036 70.6979 48.2635 70.6944C47.2233 70.6979 46.1927 70.4957 45.231 70.0994C44.2693 69.7031 43.3954 69.1206 42.6596 68.3853C41.9239 67.6501 41.3408 66.7766 40.9438 65.8151C40.5469 64.8537 40.344 63.8232 40.3468 62.7831C40.3468 58.3946 43.875 54.8664 48.2635 54.8664ZM24.5135 61.4583V64.0972H32.4301V61.4583H24.5135ZM64.0968 61.4583V64.0972H72.0135V61.4583H64.0968ZM29.7912 68.0556V70.6944H35.069V68.0556H29.7912ZM61.4579 68.0556V70.6944H66.7357V68.0556H61.4579Z" fill="black"/>
</svg>
