<svg width="116" height="116" viewBox="0 0 116 116" fill="none" xmlns="http://www.w3.org/2000/svg">
<circle cx="58" cy="58" r="58" fill="#F3F1FF"/>
<path fill-rule="evenodd" clip-rule="evenodd" d="M90.459 85.125H25.5423C23.73 85.125 21.9919 84.4314 20.7104 83.1968C19.4289 81.9622 18.709 80.2877 18.709 78.5417V43.9792C18.709 42.2332 19.4289 40.5587 20.7104 39.324C21.9919 38.0894 23.73 37.3958 25.5423 37.3958H51.1673V30.8125C51.1673 29.0665 51.8873 27.392 53.1688 26.1574C54.4503 24.9228 56.1883 24.2292 58.0007 24.2292C59.813 24.2292 61.551 24.9228 62.8325 26.1574C64.114 27.392 64.834 29.0665 64.834 30.8125V37.3958H90.459C92.2713 37.3958 94.0094 38.0894 95.2909 39.324C96.5724 40.5587 97.2923 42.2332 97.2923 43.9792V78.5417C97.2923 80.2877 96.5724 81.9622 95.2909 83.1968C94.0094 84.4314 92.2713 85.125 90.459 85.125ZM46.0662 72.7615V72.7681C46.0594 72.7681 46.0355 71.4827 46.0355 71.4827C46.0355 71.4827 48.0274 70.4935 49.5051 69.2147C50.3712 68.5284 50.771 66.9731 50.771 66.9731C51.005 65.6104 51.1776 62.238 51.1776 60.8786C51.1776 57.4849 49.4129 53.8344 44.3323 53.8344V53.8212V53.8328C39.2517 53.8328 37.487 57.4849 37.487 60.8769C37.487 62.2364 37.6612 65.6087 37.8936 66.9715C37.8936 66.9715 38.2933 68.5268 39.1594 69.2131C40.6372 70.4919 42.6291 71.481 42.6291 71.481C42.6291 71.481 42.6052 72.7664 42.5983 72.7664V72.7598C42.5983 72.7598 42.6479 74.646 42.6479 75.2072C42.6479 77.4488 40.316 78.5285 38.8502 78.5285H38.8451C34.4154 78.7145 33.3699 80.1348 33.3614 80.148C33.0914 80.566 32.7156 80.9808 32.3722 81.8333H56.2957C55.9524 80.9808 55.5765 80.566 55.3015 80.1513C55.2929 80.1365 54.2474 78.7178 49.8177 78.5318H49.8126C48.3486 78.5318 46.015 77.4538 46.015 75.2105C46.015 74.6476 46.0662 72.7615 46.0662 72.7615V72.7615ZM61.4173 30.8125C61.4173 29.9395 61.0573 29.1022 60.4166 28.4849C59.7759 27.8676 58.9068 27.5208 58.0007 27.5208C57.0945 27.5208 56.2255 27.8676 55.5847 28.4849C54.944 29.1022 54.584 29.9395 54.584 30.8125V40.6875C54.584 41.5605 54.944 42.3977 55.5847 43.0151C56.2255 43.6324 57.0945 43.9792 58.0007 43.9792C58.9068 43.9792 59.7759 43.6324 60.4166 43.0151C61.0573 42.3977 61.4173 41.5605 61.4173 40.6875V30.8125ZM93.8757 43.9792C93.8757 43.1062 93.5157 42.2689 92.8749 41.6516C92.2342 41.0343 91.3651 40.6875 90.459 40.6875H64.834C64.834 42.4335 64.114 44.108 62.8325 45.3426C61.551 46.5772 59.813 47.2708 58.0007 47.2708C56.1883 47.2708 54.4503 46.5772 53.1688 45.3426C51.8873 44.108 51.1673 42.4335 51.1673 40.6875H25.5423C24.6362 40.6875 23.7671 41.0343 23.1264 41.6516C22.4856 42.2689 22.1257 43.1062 22.1257 43.9792V78.5417C22.1257 79.4147 22.4856 80.2519 23.1264 80.8692C23.7671 81.4865 24.6362 81.8333 25.5423 81.8333H28.6122C29.0068 80.8639 29.7329 79.2839 30.5939 78.1467C30.6366 78.1236 32.0425 75.2846 39.1321 75.2006C39.1424 75.1661 39.1492 73.4857 39.1697 73.5104C38.5299 73.1164 37.9289 72.6668 37.3742 72.1673C36.9386 71.9106 35.3909 70.4738 34.8937 67.9162C34.7451 67.0241 34.0601 62.8157 34.0601 61.0596C34.0601 55.8407 36.2211 50.5576 44.2298 50.5576H44.4365C52.4452 50.5576 54.6062 55.8407 54.6062 61.0596C54.6062 62.8157 53.9212 67.0241 53.7725 67.9162C53.2754 70.4738 51.7277 71.9106 51.292 72.1673C50.7384 72.6681 50.1373 73.1177 49.4966 73.5104C49.5188 73.4857 49.5256 75.1677 49.5342 75.2006C56.6254 75.2846 58.0314 78.1236 58.0724 78.1467C58.9334 79.2839 59.6594 80.8639 60.0541 81.8333H90.459C91.3651 81.8333 92.2342 81.4865 92.8749 80.8692C93.5157 80.2519 93.8757 79.4147 93.8757 78.5417V43.9792ZM85.334 58.7917H64.834C64.3809 58.7917 63.9464 58.6183 63.626 58.3096C63.3056 58.001 63.1257 57.5823 63.1257 57.1458C63.1257 56.7093 63.3056 56.2907 63.626 55.982C63.9464 55.6734 64.3809 55.5 64.834 55.5H85.334C85.7871 55.5 86.2216 55.6734 86.542 55.982C86.8623 56.2907 87.0423 56.7093 87.0423 57.1458C87.0423 57.5823 86.8623 58.001 86.542 58.3096C86.2216 58.6183 85.7871 58.7917 85.334 58.7917ZM64.834 65.375H68.2507C68.7037 65.375 69.1383 65.5484 69.4586 65.857C69.779 66.1657 69.959 66.5843 69.959 67.0208C69.959 67.4573 69.779 67.876 69.4586 68.1846C69.1383 68.4933 68.7037 68.6667 68.2507 68.6667H64.834C64.3809 68.6667 63.9464 68.4933 63.626 68.1846C63.3056 67.876 63.1257 67.4573 63.1257 67.0208C63.1257 66.5843 63.3056 66.1657 63.626 65.857C63.9464 65.5484 64.3809 65.375 64.834 65.375ZM64.834 71.9583H75.084C75.5371 71.9583 75.9716 72.1317 76.292 72.4404C76.6123 72.749 76.7923 73.1677 76.7923 73.6042C76.7923 74.0407 76.6123 74.4593 76.292 74.7679C75.9716 75.0766 75.5371 75.25 75.084 75.25H64.834C64.3809 75.25 63.9464 75.0766 63.626 74.7679C63.3056 74.4593 63.1257 74.0407 63.1257 73.6042C63.1257 73.1677 63.3056 72.749 63.626 72.4404C63.9464 72.1317 64.3809 71.9583 64.834 71.9583ZM71.6673 67.0208C71.6673 66.5843 71.8473 66.1657 72.1677 65.857C72.4881 65.5484 72.9226 65.375 73.3757 65.375H80.209C80.6621 65.375 81.0966 65.5484 81.417 65.857C81.7373 66.1657 81.9173 66.5843 81.9173 67.0208C81.9173 67.4573 81.7373 67.876 81.417 68.1846C81.0966 68.4933 80.6621 68.6667 80.209 68.6667H73.3757C72.9226 68.6667 72.4881 68.4933 72.1677 68.1846C71.8473 67.876 71.6673 67.4573 71.6673 67.0208V67.0208ZM56.2923 30.8125H59.709V34.1042H56.2923V30.8125Z" fill="black"/>
</svg>
