<svg width="116" height="116" viewBox="0 0 116 116" fill="none" xmlns="http://www.w3.org/2000/svg">
<circle cx="58" cy="58" r="58" fill="#EEFCEC"/>
<circle cx="58" cy="58" r="58" fill="#EEFCEC"/>
<circle cx="58" cy="58" r="58" fill="#F3F1FF"/>
<path d="M90.0726 31.6192C89.9118 31.4339 89.7149 31.2833 89.4939 31.1768C89.2729 31.0704 89.0325 31.0102 88.7874 31C88.6074 31 70.8198 30.28 59.1486 20.5996C58.8257 20.3321 58.4195 20.1857 58.0002 20.1857C57.5808 20.1857 57.1747 20.3321 56.8518 20.5996C45.1806 30.3052 27.4002 31 27.213 31C26.9688 31.0084 26.7289 31.0664 26.5078 31.1704C26.2868 31.2745 26.0892 31.4225 25.9272 31.6054C25.7652 31.7883 25.6421 32.0023 25.5655 32.2342C25.4888 32.4662 25.4602 32.7114 25.4814 32.9548C25.4814 32.9548 27.1482 52.1932 27.8574 60.1564C28.5774 68.0008 29.8698 82.5916 57.2262 95.6128C57.4684 95.7265 57.7326 95.7854 58.0002 95.7854C58.2677 95.7854 58.532 95.7265 58.7742 95.6128C86.1342 82.5916 87.441 68.0008 88.143 60.1564C88.863 52.1932 90.519 32.9548 90.519 32.9548C90.5381 32.7136 90.5085 32.471 90.4318 32.2415C90.3551 32.0121 90.2329 31.8004 90.0726 31.6192ZM84.5574 59.854C83.9238 66.9064 82.7574 79.9672 58.0002 92.002C33.243 79.9672 32.0802 66.9064 31.443 59.854C30.867 53.374 29.643 39.478 29.2254 34.4884C39.5514 33.7073 49.4832 30.1909 58.0002 24.3004C66.5172 30.1909 76.449 33.7073 86.775 34.4884C86.343 39.478 85.1334 53.3848 84.5574 59.854ZM55.437 61.456L64.599 50.5156C64.9055 50.149 65.345 49.9191 65.821 49.8766C66.297 49.834 66.7703 49.9823 67.137 50.2888C67.5036 50.5953 67.7335 51.0349 67.776 51.5108C67.8185 51.9868 67.6702 52.4602 67.3638 52.8268L56.7618 65.4808C56.5929 65.6835 56.3816 65.8467 56.1427 65.9586C55.9038 66.0706 55.6432 66.1287 55.3794 66.1288H55.347C55.0776 66.1233 54.8129 66.0573 54.5723 65.9358C54.3318 65.8143 54.1217 65.6404 53.9574 65.4268L48.597 58.4788C48.4436 58.2927 48.3292 58.0777 48.2605 57.8465C48.1918 57.6153 48.1703 57.3727 48.1973 57.133C48.2242 56.8934 48.299 56.6616 48.4173 56.4514C48.5355 56.2412 48.6948 56.0569 48.8857 55.9095C49.0765 55.7621 49.2951 55.6545 49.5283 55.5932C49.7615 55.5318 50.0047 55.518 50.2434 55.5525C50.4821 55.587 50.7114 55.6691 50.9178 55.7939C51.1241 55.9188 51.3032 56.0838 51.4446 56.2792L55.437 61.456Z" fill="black"/>
</svg>
