<svg width="116" height="116" viewBox="0 0 116 116" fill="none" xmlns="http://www.w3.org/2000/svg">
<circle cx="58" cy="58" r="58" fill="#EEFCEC"/>
<circle cx="58" cy="58" r="58" fill="#EEFCEC"/>
<circle cx="58" cy="58" r="58" fill="#F2F0DF"/>
<path fill-rule="evenodd" clip-rule="evenodd" d="M47.2923 27.1667H84.2923C84.7012 27.1667 85.0933 27.0043 85.3824 26.7152C85.6716 26.426 85.834 26.0339 85.834 25.625C85.834 25.2162 85.6716 24.824 85.3824 24.5349C85.0933 24.2458 84.7012 24.0834 84.2923 24.0834H47.2923C46.8834 24.0834 46.4913 24.2458 46.2022 24.5349C45.9131 24.824 45.7507 25.2162 45.7507 25.625C45.7507 26.0339 45.9131 26.426 46.2022 26.7152C46.4913 27.0043 46.8834 27.1667 47.2923 27.1667ZM47.2923 34.875H56.5423C56.9512 34.875 57.3433 34.7126 57.6324 34.4235C57.9216 34.1344 58.084 33.7422 58.084 33.3334C58.084 32.9245 57.9216 32.5324 57.6324 32.2432C57.3433 31.9541 56.9512 31.7917 56.5423 31.7917H47.2923C46.8834 31.7917 46.4913 31.9541 46.2022 32.2432C45.9131 32.5324 45.7507 32.9245 45.7507 33.3334C45.7507 33.7422 45.9131 34.1344 46.2022 34.4235C46.4913 34.7126 46.8834 34.875 47.2923 34.875ZM71.959 37.9584H62.709C62.3001 37.9584 61.908 38.1208 61.6189 38.4099C61.3297 38.699 61.1673 39.0912 61.1673 39.5C61.1673 39.9089 61.3297 40.301 61.6189 40.5902C61.908 40.8793 62.3001 41.0417 62.709 41.0417H71.959C72.3679 41.0417 72.76 40.8793 73.0491 40.5902C73.3382 40.301 73.5006 39.9089 73.5006 39.5C73.5006 39.0912 73.3382 38.699 73.0491 38.4099C72.76 38.1208 72.3679 37.9584 71.959 37.9584ZM68.8757 34.875H71.959C72.3679 34.875 72.76 34.7126 73.0491 34.4235C73.3382 34.1344 73.5006 33.7422 73.5006 33.3334C73.5006 32.9245 73.3382 32.5324 73.0491 32.2432C72.76 31.9541 72.3679 31.7917 71.959 31.7917H68.8757C68.4668 31.7917 68.0746 31.9541 67.7855 32.2432C67.4964 32.5324 67.334 32.9245 67.334 33.3334C67.334 33.7422 67.4964 34.1344 67.7855 34.4235C68.0746 34.7126 68.4668 34.875 68.8757 34.875ZM50.3757 37.9584H47.2923C46.8834 37.9584 46.4913 38.1208 46.2022 38.4099C45.9131 38.699 45.7507 39.0912 45.7507 39.5C45.7507 39.9089 45.9131 40.301 46.2022 40.5902C46.4913 40.8793 46.8834 41.0417 47.2923 41.0417H50.3757C50.7845 41.0417 51.1767 40.8793 51.4658 40.5902C51.7549 40.301 51.9173 39.9089 51.9173 39.5C51.9173 39.0912 51.7549 38.699 51.4658 38.4099C51.1767 38.1208 50.7845 37.9584 50.3757 37.9584ZM39.584 31.7917V42.5834C39.584 42.9923 39.7464 43.3844 40.0355 43.6735C40.3246 43.9626 40.7168 44.125 41.1257 44.125C41.5345 44.125 41.9267 43.9626 42.2158 43.6735C42.5049 43.3844 42.6673 42.9923 42.6673 42.5834V31.7917C42.6673 31.3828 42.5049 30.9907 42.2158 30.7016C41.9267 30.4125 41.5345 30.25 41.1257 30.25C40.7168 30.25 40.3246 30.4125 40.0355 30.7016C39.7464 30.9907 39.584 31.3828 39.584 31.7917ZM79.6673 84.2084V56.4584C79.6673 56.0495 79.5049 55.6574 79.2158 55.3683C78.9267 55.0791 78.5345 54.9167 78.1256 54.9167C77.7168 54.9167 77.3246 55.0791 77.0355 55.3683C76.7464 55.6574 76.584 56.0495 76.584 56.4584V84.2084C76.584 84.6173 76.7464 85.0094 77.0355 85.2985C77.3246 85.5876 77.7168 85.75 78.1256 85.75C78.5345 85.75 78.9267 85.5876 79.2158 85.2985C79.5049 85.0094 79.6673 84.6173 79.6673 84.2084ZM79.6673 44.125V31.7917C79.6673 31.3828 79.5049 30.9907 79.2158 30.7016C78.9267 30.4125 78.5345 30.25 78.1256 30.25C77.7168 30.25 77.3246 30.4125 77.0355 30.7016C76.7464 30.9907 76.584 31.3828 76.584 31.7917V44.125C76.584 44.5339 76.7464 44.926 77.0355 45.2152C77.3246 45.5043 77.7168 45.6667 78.1256 45.6667C78.5345 45.6667 78.9267 45.5043 79.2158 45.2152C79.5049 44.926 79.6673 44.5339 79.6673 44.125Z" fill="black"/>
<path d="M78.1243 51.8333C77.2729 51.8333 76.5827 51.1431 76.5827 50.2917C76.5827 49.4402 77.2729 48.75 78.1243 48.75C78.9758 48.75 79.666 49.4402 79.666 50.2917C79.666 51.1431 78.9758 51.8333 78.1243 51.8333Z" fill="black"/>
<path fill-rule="evenodd" clip-rule="evenodd" d="M79.6673 31.7917C79.6673 29.2387 81.7393 27.1667 84.2923 27.1667C84.7012 27.1667 85.0933 27.0043 85.3824 26.7152C85.6716 26.426 85.834 26.0339 85.834 25.625C85.834 25.2162 85.6716 24.824 85.3824 24.5349C85.0933 24.2458 84.7012 24.0834 84.2923 24.0834C80.0373 24.0834 76.584 27.5367 76.584 31.7917C76.584 32.2006 76.7464 32.5927 77.0355 32.8818C77.3246 33.171 77.7168 33.3334 78.1256 33.3334C78.5345 33.3334 78.9267 33.171 79.2158 32.8818C79.5049 32.5927 79.6673 32.2006 79.6673 31.7917ZM42.6673 31.7917C42.6673 29.2387 44.7393 27.1667 47.2923 27.1667C47.7012 27.1667 48.0933 27.0043 48.3824 26.7152C48.6716 26.426 48.834 26.0339 48.834 25.625C48.834 25.2162 48.6716 24.824 48.3824 24.5349C48.0933 24.2458 47.7012 24.0834 47.2923 24.0834C43.0373 24.0834 39.584 27.5367 39.584 31.7917C39.584 32.2006 39.7464 32.5927 40.0355 32.8818C40.3246 33.171 40.7168 33.3334 41.1257 33.3334C41.5345 33.3334 41.9267 33.171 42.2158 32.8818C42.5049 32.5927 42.6673 32.2006 42.6673 31.7917ZM39.584 84.2084C39.584 88.4634 43.0373 91.9167 47.2923 91.9167C47.7012 91.9167 48.0933 91.7543 48.3824 91.4652C48.6716 91.176 48.834 90.7839 48.834 90.375C48.834 89.9662 48.6716 89.574 48.3824 89.2849C48.0933 88.9958 47.7012 88.8334 47.2923 88.8334C44.7393 88.8334 42.6673 86.7614 42.6673 84.2084C42.6673 83.7995 42.5049 83.4074 42.2158 83.1183C41.9267 82.8291 41.5345 82.6667 41.1257 82.6667C40.7168 82.6667 40.3246 82.8291 40.0355 83.1183C39.7464 83.4074 39.584 83.7995 39.584 84.2084ZM76.584 84.2084C76.584 88.4634 80.0373 91.9167 84.2923 91.9167C84.7012 91.9167 85.0933 91.7543 85.3824 91.4652C85.6716 91.176 85.834 90.7839 85.834 90.375C85.834 89.9662 85.6716 89.574 85.3824 89.2849C85.0933 88.9958 84.7012 88.8334 84.2923 88.8334C81.7393 88.8334 79.6673 86.7614 79.6673 84.2084C79.6673 83.7995 79.5049 83.4074 79.2158 83.1183C78.9267 82.8291 78.5345 82.6667 78.1256 82.6667C77.7168 82.6667 77.3246 82.8291 77.0355 83.1183C76.7464 83.4074 76.584 83.7995 76.584 84.2084Z" fill="black"/>
<path fill-rule="evenodd" clip-rule="evenodd" d="M47.291 91.9167H84.291C84.6999 91.9167 85.092 91.7543 85.3811 91.4652C85.6703 91.176 85.8327 90.7839 85.8327 90.375C85.8327 89.9662 85.6703 89.574 85.3811 89.2849C85.092 88.9958 84.6999 88.8334 84.291 88.8334H47.291C46.8821 88.8334 46.49 88.9958 46.2009 89.2849C45.9118 89.574 45.7493 89.9662 45.7493 90.375C45.7493 90.7839 45.9118 91.176 46.2009 91.4652C46.49 91.7543 46.8821 91.9167 47.291 91.9167ZM41.1243 47.2084C34.3179 47.2084 28.791 52.7352 28.791 59.5417C28.791 66.3497 34.3179 71.875 41.1243 71.875C47.9324 71.875 53.4577 66.3497 53.4577 59.5417C53.4577 52.7352 47.9324 47.2084 41.1243 47.2084ZM41.1243 50.2917C46.2319 50.2917 50.3743 54.4357 50.3743 59.5417C50.3743 64.6492 46.2319 68.7917 41.1243 68.7917C36.0183 68.7917 31.8743 64.6492 31.8743 59.5417C31.8743 54.4357 36.0183 50.2917 41.1243 50.2917Z" fill="black"/>
<path fill-rule="evenodd" clip-rule="evenodd" d="M41.1243 54.1459C39.6935 54.1467 38.3216 54.7154 37.3098 55.7272C36.2981 56.7389 35.7293 58.1109 35.7285 59.5417C35.7285 62.5187 38.1458 64.9375 41.1243 64.9375C44.1013 64.9375 46.5202 62.5187 46.5202 59.5417C46.5202 56.5632 44.1013 54.1459 41.1243 54.1459ZM41.1243 57.2292C41.723 57.2511 42.2899 57.5043 42.7058 57.9356C43.1216 58.3669 43.3539 58.9426 43.3539 59.5417C43.3539 60.1408 43.1216 60.7166 42.7058 61.1478C42.2899 61.5791 41.723 61.8323 41.1243 61.8542C40.5256 61.8323 39.9588 61.5791 39.5429 61.1478C39.1271 60.7166 38.8948 60.1408 38.8948 59.5417C38.8948 58.9426 39.1271 58.3669 39.5429 57.9356C39.9588 57.5043 40.5256 57.2511 41.1243 57.2292ZM50.7443 65.6852C50.6203 65.4702 50.4462 65.2883 50.2367 65.155C50.0273 65.0217 49.7888 64.941 49.5415 64.9197C49.2942 64.8983 49.0454 64.937 48.8162 65.0324C48.587 65.1279 48.3843 65.2773 48.2253 65.4679C47.3582 66.5087 46.2727 67.3461 45.0458 67.9205C43.8189 68.4949 42.4806 68.7923 41.1259 68.7917L40.9887 68.7902C40.7161 68.7861 40.4473 68.8543 40.2097 68.9879C39.9721 69.1216 39.7742 69.3158 39.6362 69.5509C39.4981 69.786 39.4248 70.0534 39.4238 70.326C39.4228 70.5986 39.4941 70.8666 39.6305 71.1027L47.197 84.2084C47.3413 84.4593 47.5533 84.6645 47.8088 84.8004C48.0644 84.9363 48.353 84.9975 48.6417 84.9769C48.9304 84.9563 49.2075 84.8547 49.4411 84.6839C49.6747 84.5131 49.8555 84.2799 49.9627 84.011L51.6986 79.6728L56.3236 80.3388C56.61 80.3799 56.9021 80.3396 57.1667 80.2225C57.4312 80.1054 57.6575 79.9162 57.8196 79.6766C57.9817 79.437 58.0731 79.1566 58.0833 78.8675C58.0936 78.5784 58.0223 78.2922 57.8776 78.0417L50.7443 65.6852ZM43.5031 71.6453C45.5591 71.242 47.4779 70.3202 49.0778 68.9675L53.6196 76.8346L50.9371 76.4476C50.5949 76.3988 50.2463 76.4663 49.9472 76.6394C49.648 76.8124 49.4157 77.081 49.2875 77.4019L48.2792 79.9179L43.5031 71.6453Z" fill="black"/>
<path fill-rule="evenodd" clip-rule="evenodd" d="M34.0256 65.4678C33.8664 65.2776 33.6636 65.1285 33.4345 65.0332C33.2054 64.938 32.9567 64.8994 32.7095 64.9208C32.4623 64.9421 32.2239 65.0227 32.0145 65.1558C31.8051 65.2889 31.6308 65.4705 31.5066 65.6852L24.3733 78.0417C24.2292 78.2923 24.1584 78.5783 24.169 78.8671C24.1796 79.156 24.271 79.436 24.433 79.6755C24.5949 79.9149 24.8209 80.104 25.0851 80.2212C25.3493 80.3385 25.6411 80.3792 25.9273 80.3387L30.5523 79.6727L32.2882 84.011C32.3954 84.2799 32.5762 84.5131 32.8098 84.6839C33.0434 84.8547 33.3205 84.9562 33.6092 84.9768C33.8979 84.9974 34.1865 84.9363 34.4421 84.8003C34.6976 84.6644 34.9097 84.4592 35.0539 84.2083L42.6204 71.1026C42.7568 70.8666 42.8281 70.5986 42.8271 70.326C42.8261 70.0534 42.7528 69.7859 42.6148 69.5509C42.4767 69.3158 42.2788 69.1215 42.0412 68.9879C41.8036 68.8543 41.5348 68.786 41.2622 68.7901L41.125 68.7917C39.7703 68.7923 38.432 68.4949 37.2051 67.9204C35.9782 67.346 34.8927 66.5087 34.0256 65.4678ZM38.7478 71.6453L33.9717 79.9179L32.9634 77.4019C32.8352 77.0809 32.6029 76.8124 32.3038 76.6393C32.0046 76.4663 31.656 76.3987 31.3139 76.4476L28.6314 76.8345L33.1731 68.9674C34.773 70.3202 36.6918 71.2419 38.7478 71.6453Z" fill="black"/>
<path d="M62.7077 34.8751C63.5591 34.8751 64.2493 34.1849 64.2493 33.3334C64.2493 32.482 63.5591 31.7917 62.7077 31.7917C61.8562 31.7917 61.166 32.482 61.166 33.3334C61.166 34.1849 61.8562 34.8751 62.7077 34.8751Z" fill="black"/>
<path d="M56.5423 41.0417C55.6909 41.0417 55.0007 40.3515 55.0007 39.5C55.0007 38.6486 55.6909 37.9584 56.5423 37.9584C57.3938 37.9584 58.084 38.6486 58.084 39.5C58.084 40.3515 57.3938 41.0417 56.5423 41.0417Z" fill="black"/>
</svg>
