<svg width="30" height="25" viewBox="0 0 30 25" fill="none" xmlns="http://www.w3.org/2000/svg">
<path d="M9.05262 12.5C7.40392 12.5465 6.05544 13.1417 5.00718 14.2857H2.96157C2.12704 14.2857 1.42481 14.0974 0.854885 13.7207C0.284962 13.344 0 12.793 0 12.0675C0 8.78441 0.630987 7.14286 1.89296 7.14286C1.95402 7.14286 2.17538 7.24051 2.55702 7.43583C2.93867 7.63114 3.43481 7.82878 4.04544 8.02874C4.65607 8.2287 5.26161 8.32868 5.86207 8.32868C6.54394 8.32868 7.22073 8.22173 7.89242 8.00781C7.84154 8.35193 7.81609 8.65885 7.81609 8.92857C7.81609 10.2214 8.22827 11.4118 9.05262 12.5ZM25.4023 21.3867C25.4023 22.5028 25.0308 23.384 24.2879 24.0304C23.545 24.6768 22.5578 25 21.3263 25H7.98402C6.75257 25 5.76539 24.6768 5.02245 24.0304C4.27951 23.384 3.90805 22.5028 3.90805 21.3867C3.90805 20.8938 3.92586 20.4125 3.96148 19.9428C3.9971 19.4731 4.06834 18.9662 4.1752 18.4222C4.28206 17.8781 4.41691 17.3735 4.57974 16.9085C4.74258 16.4435 4.96139 15.99 5.23617 15.5483C5.51096 15.1065 5.82645 14.7298 6.18265 14.4182C6.53885 14.1067 6.97393 13.8579 7.48788 13.6719C8.00183 13.4859 8.56921 13.3929 9.19001 13.3929C9.29179 13.3929 9.5106 13.4928 9.84644 13.6928C10.1823 13.8928 10.5538 14.116 10.9608 14.3624C11.3679 14.6089 11.9124 14.8321 12.5943 15.0321C13.2762 15.232 13.9631 15.332 14.6552 15.332C15.3472 15.332 16.0342 15.232 16.7161 15.0321C17.3979 14.8321 17.9424 14.6089 18.3495 14.3624C18.7566 14.116 19.1281 13.8928 19.4639 13.6928C19.7997 13.4928 20.0186 13.3929 20.1203 13.3929C20.7411 13.3929 21.3085 13.4859 21.8225 13.6719C22.3364 13.8579 22.7715 14.1067 23.1277 14.4182C23.4839 14.7298 23.7994 15.1065 24.0742 15.5483C24.349 15.99 24.5678 16.4435 24.7306 16.9085C24.8934 17.3735 25.0283 17.8781 25.1351 18.4222C25.242 18.9662 25.3132 19.4731 25.3489 19.9428C25.3845 20.4125 25.4023 20.8938 25.4023 21.3867ZM9.77011 3.57143C9.77011 4.55729 9.38847 5.399 8.62518 6.09654C7.86189 6.79408 6.94085 7.14286 5.86207 7.14286C4.78329 7.14286 3.86225 6.79408 3.09896 6.09654C2.33567 5.399 1.95402 4.55729 1.95402 3.57143C1.95402 2.58557 2.33567 1.74386 3.09896 1.04632C3.86225 0.348772 4.78329 0 5.86207 0C6.94085 0 7.86189 0.348772 8.62518 1.04632C9.38847 1.74386 9.77011 2.58557 9.77011 3.57143ZM20.5172 8.92857C20.5172 10.4074 19.9448 11.6699 18.7998 12.7162C17.6549 13.7626 16.2733 14.2857 14.6552 14.2857C13.037 14.2857 11.6554 13.7626 10.5105 12.7162C9.36557 11.6699 8.7931 10.4074 8.7931 8.92857C8.7931 7.44978 9.36557 6.18722 10.5105 5.1409C11.6554 4.09459 13.037 3.57143 14.6552 3.57143C16.2733 3.57143 17.6549 4.09459 18.7998 5.1409C19.9448 6.18722 20.5172 7.44978 20.5172 8.92857ZM29.3103 12.0675C29.3103 12.793 29.0254 13.344 28.4555 13.7207C27.8855 14.0974 27.1833 14.2857 26.3488 14.2857H24.3032C23.2549 13.1417 21.9064 12.5465 20.2577 12.5C21.0821 11.4118 21.4943 10.2214 21.4943 8.92857C21.4943 8.65885 21.4688 8.35193 21.4179 8.00781C22.0896 8.22173 22.7664 8.32868 23.4483 8.32868C24.0487 8.32868 24.6543 8.2287 25.2649 8.02874C25.8755 7.82878 26.3717 7.63114 26.7533 7.43583C27.135 7.24051 27.3563 7.14286 27.4174 7.14286C28.6794 7.14286 29.3103 8.78441 29.3103 12.0675ZM27.3563 3.57143C27.3563 4.55729 26.9747 5.399 26.2114 6.09654C25.4481 6.79408 24.5271 7.14286 23.4483 7.14286C22.3695 7.14286 21.4485 6.79408 20.6852 6.09654C19.9219 5.399 19.5402 4.55729 19.5402 3.57143C19.5402 2.58557 19.9219 1.74386 20.6852 1.04632C21.4485 0.348772 22.3695 0 23.4483 0C24.5271 0 25.4481 0.348772 26.2114 1.04632C26.9747 1.74386 27.3563 2.58557 27.3563 3.57143Z" fill="#272F3D"/>
</svg>
