<svg width="26" height="25" viewBox="0 0 26 25" fill="none" xmlns="http://www.w3.org/2000/svg">
<path d="M25.8621 20.7845C25.8621 22.0866 25.4151 23.1147 24.5212 23.8688C23.6273 24.6229 22.4395 25 20.9578 25H4.90424C3.42256 25 2.23477 24.6229 1.34086 23.8688C0.446953 23.1147 0 22.0866 0 20.7845C0 20.2094 0.0214287 19.6479 0.0642873 19.0999C0.107146 18.552 0.192863 17.9606 0.321439 17.3258C0.450014 16.6911 0.612264 16.1024 0.808189 15.5599C1.00411 15.0174 1.26739 14.4884 1.59801 13.973C1.92863 13.4576 2.30824 13.0181 2.73682 12.6546C3.16541 12.2911 3.6889 12.0009 4.30728 11.7839C4.92567 11.5668 5.60835 11.4583 6.35531 11.4583C6.47776 11.4583 6.74104 11.575 7.14513 11.8083C7.54923 12.0416 7.99618 12.302 8.48599 12.5895C8.9758 12.8771 9.63093 13.1375 10.4514 13.3708C11.2718 13.6041 12.0984 13.7207 12.931 13.7207C13.7637 13.7207 14.5903 13.6041 15.4107 13.3708C16.2311 13.1375 16.8863 12.8771 17.3761 12.5895C17.8659 12.302 18.3128 12.0416 18.7169 11.8083C19.121 11.575 19.3843 11.4583 19.5068 11.4583C20.2537 11.4583 20.9364 11.5668 21.5548 11.7839C22.1732 12.0009 22.6967 12.2911 23.1252 12.6546C23.5538 13.0181 23.9334 13.4576 24.2641 13.973C24.5947 14.4884 24.858 15.0174 25.0539 15.5599C25.2498 16.1024 25.4121 16.6911 25.5406 17.3258C25.6692 17.9606 25.7549 18.552 25.7978 19.0999C25.8406 19.6479 25.8621 20.2094 25.8621 20.7845ZM19.9843 6.25C19.9843 7.97526 19.2955 9.44824 17.9179 10.6689C16.5403 11.8896 14.878 12.5 12.931 12.5C10.984 12.5 9.32173 11.8896 7.94414 10.6689C6.56654 9.44824 5.87774 7.97526 5.87774 6.25C5.87774 4.52474 6.56654 3.05176 7.94414 1.83105C9.32173 0.610351 10.984 0 12.931 0C14.878 0 16.5403 0.610351 17.9179 1.83105C19.2955 3.05176 19.9843 4.52474 19.9843 6.25Z" fill="#272F3D"/>
</svg>
