<svg width="116" height="151" viewBox="0 0 116 151" fill="none" xmlns="http://www.w3.org/2000/svg">
<path d="M57.6163 150.026C46.5368 150.026 36.712 148.133 28.1419 144.345C19.6192 140.509 12.8957 135.23 7.97144 128.507C3.04719 121.783 0.537724 114.042 0.443027 105.282H35.8123C35.9544 108.455 36.9724 111.272 38.8663 113.734C40.7603 116.149 43.3408 118.043 46.6078 119.416C49.8748 120.789 53.5917 121.475 57.7584 121.475C61.925 121.475 65.5945 120.741 68.7669 119.274C71.9866 117.758 74.4961 115.699 76.2953 113.095C78.0945 110.443 78.9705 107.413 78.9231 104.004C78.9705 100.595 77.9998 97.5644 76.0112 94.9128C74.0226 92.2613 71.2053 90.2017 67.5595 88.7339C63.961 87.2661 59.6997 86.5322 54.7754 86.5322H40.6419V61.5322H54.7754C59.0841 61.5322 62.872 60.8219 66.1391 59.4015C69.4534 57.981 72.0339 55.9924 73.8805 53.4356C75.7271 50.8314 76.6267 47.8484 76.5794 44.4867C76.6267 41.2197 75.8455 38.3551 74.2356 35.893C72.6731 33.3835 70.4714 31.4422 67.6305 30.0691C64.837 28.696 61.5936 28.0094 57.9004 28.0094C54.0178 28.0094 50.4904 28.696 47.318 30.0691C44.193 31.4422 41.7072 33.3835 39.8606 35.893C38.0141 38.4024 37.0434 41.3144 36.9487 44.6287H3.35496C3.44966 35.964 5.86443 28.3409 10.5993 21.7594C15.3341 15.1306 21.7735 9.94598 29.9175 6.20545C38.1087 2.46492 47.4364 0.594655 57.9004 0.594655C68.3171 0.594655 77.479 2.41757 85.3862 6.0634C93.2934 9.70924 99.4487 14.6808 103.852 20.9782C108.256 27.2282 110.457 34.3068 110.457 42.214C110.505 50.4053 107.829 57.1524 102.432 62.4555C97.0813 67.7585 90.1921 71.0255 81.7641 72.2566V73.393C93.033 74.7187 101.532 78.3645 107.261 84.3305C113.038 90.2964 115.902 97.7537 115.855 106.703C115.855 115.131 113.369 122.612 108.398 129.146C103.473 135.633 96.6078 140.746 87.801 144.487C79.0415 148.18 68.98 150.026 57.6163 150.026Z" fill="#F2E1C8"/>
</svg>
