<svg width="1280" height="1173" viewBox="0 0 1280 1173" fill="none" xmlns="http://www.w3.org/2000/svg">
<g clip-path="url(#clip0_301_2)">
<path d="M6.5 0C6.5 0 76 311 193.5 384.5C311 458 691 436 764.5 474C838 512 764.5 770 875 912C985.5 1054 1186 1080.5 1285 1082L1296.5 1075.5L1819.5 836L1939 1110" stroke="#D8A356" stroke-opacity="0.8" stroke-dasharray="7 7"/>
<path d="M-4 20C-4 20 65.5 331 183 404.5C300.5 478 680.5 456 754 494C827.5 532 754 790 864.5 932C975 1074 1175.5 1100.5 1274.5 1102L1286 1095.5L1809 856L1928.5 1130" stroke="#D8A356" stroke-opacity="0.8" stroke-dasharray="7 7"/>
<ellipse cx="299" cy="409.983" rx="10" ry="9.98343" fill="#F2E1C8"/>
<ellipse cx="1244" cy="1107.96" rx="10" ry="9.98343" fill="#F2E1C8"/>
<mask id="mask0_301_2" style="mask-type:alpha" maskUnits="userSpaceOnUse" x="889" y="973" width="34" height="34">
<rect width="23.9873" height="23.9729" transform="matrix(0.825509 0.564389 -0.565665 0.824635 902.562 973)" fill="#D9D9D9"/>
</mask>
<g mask="url(#mask0_301_2)">
<path d="M900.077 991.567L901.122 985.63L897.996 980.472L903.947 981.514L909.117 978.396L908.072 984.333L911.198 989.491L905.247 988.449L900.077 991.567ZM905.547 997.723L906.07 994.754L904.507 992.175L907.482 992.696L910.067 991.137L909.545 994.106L911.108 996.685L908.132 996.164L905.547 997.723Z" fill="#F2E1C8"/>
</g>
<mask id="mask1_301_2" style="mask-type:alpha" maskUnits="userSpaceOnUse" x="803" y="850" width="34" height="34">
<rect width="23.9873" height="23.9729" transform="matrix(0.825509 0.564389 -0.565665 0.824635 816.562 850)" fill="#D9D9D9"/>
</mask>
<g mask="url(#mask1_301_2)">
<path d="M814.077 868.567L815.122 862.63L811.996 857.472L817.947 858.514L823.117 855.396L822.072 861.333L825.198 866.491L819.247 865.449L814.077 868.567ZM819.547 874.723L820.07 871.754L818.507 869.175L821.482 869.696L824.067 868.137L823.545 871.106L825.108 873.685L822.132 873.164L819.547 874.723Z" fill="#F2E1C8"/>
</g>
<mask id="mask2_301_2" style="mask-type:alpha" maskUnits="userSpaceOnUse" x="223" y="426" width="34" height="34">
<rect width="23.9873" height="23.9729" transform="matrix(0.825509 0.564389 -0.565665 0.824635 236.561 426)" fill="#D9D9D9"/>
</mask>
<g mask="url(#mask2_301_2)">
<path d="M234.076 444.567L235.121 438.63L231.996 433.472L237.946 434.514L243.117 431.396L242.072 437.333L245.197 442.491L239.247 441.449L234.076 444.567ZM239.547 450.723L240.069 447.755L238.507 445.175L241.482 445.697L244.067 444.138L243.545 447.106L245.107 449.685L242.132 449.164L239.547 450.723Z" fill="#F2E1C8"/>
</g>
<mask id="mask3_301_2" style="mask-type:alpha" maskUnits="userSpaceOnUse" x="94" y="319" width="35" height="34">
<rect width="23.9873" height="23.9729" transform="matrix(0.825509 0.564389 -0.565665 0.824635 108.56 319)" fill="#D9D9D9"/>
</mask>
<g mask="url(#mask3_301_2)">
<path d="M106.076 337.567L107.12 331.63L103.995 326.472L109.946 327.514L115.116 324.396L114.071 330.333L117.196 335.491L111.246 334.449L106.076 337.567ZM111.546 343.723L112.069 340.755L110.506 338.175L113.481 338.697L116.066 337.138L115.544 340.106L117.106 342.685L114.131 342.164L111.546 343.723Z" fill="#F2E1C8"/>
</g>
<mask id="mask4_301_2" style="mask-type:alpha" maskUnits="userSpaceOnUse" x="57" y="172" width="34" height="34">
<rect width="23.9873" height="23.9729" transform="matrix(0.825509 0.564389 -0.565665 0.824635 70.5605 172)" fill="#D9D9D9"/>
</mask>
<g mask="url(#mask4_301_2)">
<path d="M68.0758 190.567L69.1207 184.63L65.9954 179.472L71.9459 180.514L77.1162 177.396L76.0712 183.333L79.1966 188.491L73.2461 187.449L68.0758 190.567ZM73.5463 196.723L74.0688 193.755L72.5061 191.175L75.4813 191.697L78.0665 190.138L77.544 193.106L79.1067 195.685L76.1315 195.164L73.5463 196.723Z" fill="#F2E1C8"/>
</g>
<mask id="mask5_301_2" style="mask-type:alpha" maskUnits="userSpaceOnUse" x="1036" y="1046" width="34" height="34">
<rect width="23.9873" height="23.9729" transform="matrix(0.825509 0.564389 -0.565665 0.824635 1049.56 1046)" fill="#D9D9D9"/>
</mask>
<g mask="url(#mask5_301_2)">
<path d="M1047.08 1064.57L1048.12 1058.63L1045 1053.47L1050.95 1054.51L1056.12 1051.4L1055.07 1057.33L1058.2 1062.49L1052.25 1061.45L1047.08 1064.57ZM1052.55 1070.72L1053.07 1067.75L1051.51 1065.18L1054.48 1065.7L1057.07 1064.14L1056.55 1067.11L1058.11 1069.68L1055.13 1069.16L1052.55 1070.72Z" fill="#F2E1C8"/>
</g>
</g>
<defs>
<clipPath id="clip0_301_2">
<rect width="1280" height="1173" fill="white"/>
</clipPath>
</defs>
</svg>
