<svg width="428" height="592" viewBox="0 0 428 592" fill="none" xmlns="http://www.w3.org/2000/svg">
<g clip-path="url(#clip0_302_298)">
<path d="M-520.5 -439C-520.5 -439 -451 -128 -333.5 -54.5C-216 19 164 -3 237.5 35C311 73 237.5 331 348 473C458.5 615 659 641.5 758 643L769.5 636.5L1292.5 397L1412 671" stroke="#D8A356" stroke-opacity="0.8" stroke-dasharray="7 7"/>
<path d="M-531 -419C-531 -419 -461.5 -108 -344 -34.5C-226.5 39 153.5 17 227 55C300.5 93 227 351 337.5 493C448 635 648.5 661.5 747.5 663L759 656.5L1282 417L1401.5 691" stroke="#D8A356" stroke-opacity="0.8" stroke-dasharray="7 7"/>
</g>
<defs>
<clipPath id="clip0_302_298">
<rect width="428" height="592" fill="white"/>
</clipPath>
</defs>
</svg>
