<svg width="53" height="72" viewBox="0 0 53 72" fill="none" xmlns="http://www.w3.org/2000/svg">
<path d="M26.2614 71.9545C21.3523 71.9545 16.9886 71.1136 13.1705 69.4318C9.375 67.75 6.375 65.4091 4.17045 62.4091C1.96591 59.4091 0.795455 55.9432 0.659091 52.0114H13.4773C13.5909 53.8977 14.2159 55.5455 15.3523 56.9545C16.4886 58.3409 18 59.4205 19.8864 60.1932C21.7727 60.9659 23.8864 61.3523 26.2273 61.3523C28.7273 61.3523 30.9432 60.9205 32.875 60.0568C34.8068 59.1705 36.3182 57.9432 37.4091 56.375C38.5 54.8068 39.0341 53 39.0114 50.9545C39.0341 48.8409 38.4886 46.9773 37.375 45.3636C36.2614 43.75 34.6477 42.4886 32.5341 41.5795C30.4432 40.6705 27.9205 40.2159 24.9659 40.2159H18.7955V30.4659H24.9659C27.3977 30.4659 29.5227 30.0455 31.3409 29.2045C33.1818 28.3636 34.625 27.1818 35.6705 25.6591C36.7159 24.1136 37.2273 22.3295 37.2045 20.3068C37.2273 18.3295 36.7841 16.6136 35.875 15.1591C34.9886 13.6818 33.7273 12.5341 32.0909 11.7159C30.4773 10.8977 28.5795 10.4886 26.3977 10.4886C24.2614 10.4886 22.2841 10.875 20.4659 11.6477C18.6477 12.4205 17.1818 13.5227 16.0682 14.9545C14.9545 16.3636 14.3636 18.0455 14.2955 20H2.125C2.21591 16.0909 3.34091 12.6591 5.5 9.70455C7.68182 6.72727 10.5909 4.40909 14.2273 2.75C17.8636 1.06818 21.9432 0.22727 26.4659 0.22727C31.125 0.22727 35.1705 1.10227 38.6023 2.85227C42.0568 4.57954 44.7273 6.90909 46.6136 9.84091C48.5 12.7727 49.4432 16.0114 49.4432 19.5568C49.4659 23.4886 48.3068 26.7841 45.9659 29.4432C43.6477 32.1023 40.6023 33.8409 36.8295 34.6591V35.2045C41.7386 35.8864 45.5 37.7045 48.1136 40.6591C50.75 43.5909 52.0568 47.2386 52.0341 51.6023C52.0341 55.5114 50.9205 59.0114 48.6932 62.1023C46.4886 65.1705 43.4432 67.5795 39.5568 69.3295C35.6932 71.0795 31.2614 71.9545 26.2614 71.9545Z" fill="#F4CF97"/>
</svg>
