<svg width="24" height="24" viewBox="0 0 24 24" fill="none" xmlns="http://www.w3.org/2000/svg">
<path d="M12 24C18.6274 24 24 18.6274 24 12C24 5.37258 18.6274 0 12 0C5.37258 0 0 5.37258 0 12C0 18.6274 5.37258 24 12 24Z" fill="#F2F0DF"/>
<path d="M17 12.184C17.0021 12.989 16.8136 13.783 16.45 14.502C16.0188 15.363 15.3559 16.087 14.5356 16.593C13.7154 17.1 12.77 17.368 11.8055 17.368C10.999 17.371 10.2033 17.182 9.4833 16.82L6 17.978L7.1611 14.502C6.7975 13.783 6.609 12.989 6.6111 12.184C6.6115 11.222 6.8804 10.278 7.3877 9.46001C7.8949 8.64101 8.6206 7.97902 9.4833 7.54902C10.2033 7.18602 10.999 6.99802 11.8055 7.00002H12.1111C13.3849 7.07002 14.588 7.60702 15.49 8.50702C16.3921 9.40702 16.9297 10.608 17 11.879V12.184Z" stroke="black" stroke-width="0.6" stroke-linecap="round" stroke-linejoin="round"/>
<path d="M9.32422 10.512H12.8438" stroke="black" stroke-width="0.6" stroke-linecap="round"/>
<path d="M9.23462 12.555H14.5012" stroke="black" stroke-width="0.6" stroke-linecap="round"/>
<path d="M9.32422 14.418H13.8216" stroke="black" stroke-width="0.6" stroke-linecap="round"/>
</svg>
