<svg width="24" height="24" viewBox="0 0 24 24" fill="none" xmlns="http://www.w3.org/2000/svg">
<path d="M12 24C18.6274 24 24 18.6274 24 12C24 5.37258 18.6274 0 12 0C5.37258 0 0 5.37258 0 12C0 18.6274 5.37258 24 12 24Z" fill="#E7F0F4"/>
<path d="M11.9348 16.032C11.5309 16.032 11.2043 15.724 11.2043 15.338C11.2043 14.957 11.5309 14.649 11.9348 14.649C12.3387 14.649 12.6652 14.957 12.6652 15.338C12.6652 15.724 12.3387 16.032 11.9348 16.032ZM13.3871 11.303C12.4074 12.225 12.4332 12.426 12.3859 13.489H11.5695C11.6168 12.32 11.8918 11.696 12.8629 10.843C13.3355 10.421 13.6965 9.912 13.6965 9.28C13.6965 8.312 12.8629 7.64401 11.866 7.64401C10.4738 7.64401 9.782 8.317 9.8078 9.547H9C9.0129 7.824 10.0484 7 11.9047 7C13.3227 7 14.5 7.83701 14.5 9.23901C14.5 10.138 14.0402 10.724 13.3871 11.303Z" fill="black"/>
</svg>
