<svg width="24" height="24" viewBox="0 0 24 24" fill="none" xmlns="http://www.w3.org/2000/svg">
<path d="M12 24C18.6274 24 24 18.6274 24 12C24 5.37258 18.6274 0 12 0C5.37258 0 0 5.37258 0 12C0 18.6274 5.37258 24 12 24Z" fill="#EEFCEC"/>
<path d="M16.7361 6.228C16.6658 6.087 16.5325 6 16.3883 6H6.61179C6.46749 6 6.33419 6.087 6.26379 6.228L5.05109 8.655C4.98149 8.795 4.98309 8.96 5.05539 9.097C5.12769 9.235 5.25598 9.317 5.39888 9.317H6.14788V15.703H5.77288C5.55328 15.703 5.37458 15.903 5.37458 16.148V16.822C5.37458 17.067 5.55328 17.267 5.77288 17.267H17.2271C17.4467 17.267 17.6254 17.067 17.6254 16.822V16.148C17.6254 15.903 17.4467 15.703 17.2271 15.703H16.8521V9.317H17.6011C17.7438 9.317 17.8722 9.235 17.9445 9.097C18.0168 8.96 18.0186 8.795 17.949 8.655L16.7361 6.228ZM12.7543 10.973H15.3397V15.703H12.7543C12.7542 14.978 12.754 10.943 12.7543 10.973ZM17.2315 16.148V16.822C17.2315 16.825 17.2295 16.827 17.2271 16.827L5.76858 16.822L5.77288 16.143L17.2315 16.148ZM16.4582 15.703H15.7337V10.753C15.7337 10.631 15.6455 10.533 15.5367 10.533H12.5573C12.4485 10.533 12.3603 10.631 12.3603 10.753V15.703H6.54188V9.317H16.4582V15.703ZM17.6011 8.877L5.39508 8.869L6.61179 6.44L16.3921 6.442L17.6032 8.877C17.6032 8.877 17.6026 8.877 17.6011 8.877Z" fill="#010101"/>
<path d="M7.46263 14.168H11.1142C11.223 14.168 11.3112 14.07 11.3112 13.948V11.071C11.3112 10.95 11.223 10.852 11.1142 10.852H7.46263C7.35383 10.852 7.26562 10.95 7.26562 11.071V13.948C7.26562 14.07 7.35383 14.168 7.46263 14.168ZM10.9172 13.728H9.48543V11.291H10.9172V13.728ZM7.65963 11.291H9.09153V13.728H7.65963V11.291Z" fill="#010101"/>
</svg>
