<svg width="23" height="22" viewBox="0 0 23 22" fill="none" xmlns="http://www.w3.org/2000/svg">
<path d="M14.3354 17.1007H14.0679L13.9195 17.3232L11.2015 21.3957L11.2014 21.3959C11.1801 21.4279 11.1511 21.4542 11.1172 21.4723C11.0833 21.4905 11.0454 21.5 11.0069 21.5C10.9684 21.5 10.9305 21.4905 10.8966 21.4723C10.8627 21.4542 10.8337 21.4279 10.8124 21.3959L10.8123 21.3958L8.09583 17.3233L7.94738 17.1007H7.67987H2.20138C1.26068 17.1007 0.5 16.3411 0.5 15.3994V2.20138C0.5 1.25964 1.26067 0.5 2.20138 0.5H19.8124C20.7531 0.5 21.5138 1.25964 21.5138 2.20138V15.3994C21.5138 16.3411 20.7531 17.1007 19.8124 17.1007H14.3354ZM9.95484 13.1656L10.3327 13.5434L10.6846 13.1413L16.3377 6.68097L16.667 6.30468L16.2907 5.97542L15.1871 5.00975L14.8108 4.68048L14.4815 5.0568L10.2136 9.93481L8.21111 7.93107L7.85756 7.5773L7.5039 7.93096L6.46485 8.97002L6.11122 9.32364L6.46492 9.6772L9.95484 13.1656Z" stroke="#B8B6B6"/>
</svg>
