<svg width="21" height="21" viewBox="0 0 21 21" fill="none" xmlns="http://www.w3.org/2000/svg">
<path d="M20.0374 9.97224C20.041 11.3654 19.7149 12.7398 19.0855 13.9833C18.3393 15.4735 17.1921 16.7269 15.7724 17.6031C14.3528 18.4794 12.7167 18.9438 11.0475 18.9444C9.65157 18.9481 8.27452 18.6226 7.0285 17.9944L1 20L3.0095 13.9833C2.38014 12.7398 2.05399 11.3654 2.05763 9.97224C2.05828 8.30632 2.52364 6.67348 3.40159 5.2566C4.27953 3.83973 5.5354 2.69479 7.0285 1.95003C8.27452 1.3219 9.65157 0.996398 11.0475 1.00003H11.5763C13.7808 1.12141 15.863 2.05005 17.4241 3.60815C18.9853 5.16626 19.9158 7.24432 20.0374 9.44446V9.97224Z" fill="black" stroke="black" stroke-linecap="round" stroke-linejoin="round"/>
<path d="M6.75391 7.0791L12.8452 7.07894" stroke="white" stroke-width="1.5" stroke-linecap="round"/>
<line x1="6.82812" y1="10.3828" x2="15.4814" y2="10.3828" stroke="white" stroke-width="1.5" stroke-linecap="round"/>
<path d="M6.75391 13.835H14.5374" stroke="white" stroke-width="1.5" stroke-linecap="round"/>
</svg>
