<svg width="42" height="32" viewBox="0 0 42 32" fill="none" xmlns="http://www.w3.org/2000/svg">
<path d="M34.4016 29.3027H20.5984C19.9883 29.3027 19.4031 29.0652 18.9717 28.6423C18.5403 28.2194 18.2979 27.6459 18.2979 27.0479V18.0285H16.7642C16.6106 18.028 16.4607 17.9823 16.3339 17.8973C16.2072 17.8123 16.1093 17.692 16.0532 17.5519C15.997 17.4118 15.985 17.2584 16.0188 17.1115C16.0526 16.9646 16.1306 16.8311 16.2428 16.7282L25.9663 7.9043C26.3917 7.5176 26.9505 7.30273 27.5307 7.30273C28.1109 7.30273 28.6696 7.5176 29.095 7.9043L38.7572 16.7282C38.8694 16.8311 38.9474 16.9646 38.9812 17.1115C39.015 17.2584 39.003 17.4118 38.9468 17.5519C38.8907 17.692 38.7928 17.8123 38.6661 17.8973C38.5393 17.9823 38.3894 18.028 38.2358 18.0285H36.7021V27.0479C36.7021 27.6459 36.4597 28.2194 36.0283 28.6423C35.5969 29.0652 35.0117 29.3027 34.4016 29.3027ZM18.7197 16.5253H19.0647C19.2681 16.5253 19.4632 16.6045 19.607 16.7454C19.7508 16.8864 19.8316 17.0776 19.8316 17.2769V27.0479C19.8316 27.2472 19.9124 27.4384 20.0562 27.5794C20.2 27.7203 20.395 27.7995 20.5984 27.7995H34.4016C34.605 27.7995 34.8 27.7203 34.9438 27.5794C35.0876 27.4384 35.1684 27.2472 35.1684 27.0479V17.2769C35.1684 17.0776 35.2492 16.8864 35.393 16.7454C35.5368 16.6045 35.7319 16.5253 35.9353 16.5253H36.2803L28.0215 9.00917C27.8797 8.88027 27.6934 8.80865 27.5 8.80865C27.3066 8.80865 27.1203 8.88027 26.9785 9.00917L18.7197 16.5253Z" fill="#B8B6B6"/>
<line x1="24.5" y1="28.3027" x2="24.5" y2="20.3027" stroke="#B8B6B6"/>
<line x1="25" y1="20.8027" x2="30" y2="20.8027" stroke="#B8B6B6"/>
<line x1="30.5" y1="28.3027" x2="30.5" y2="20.3027" stroke="#B8B6B6"/>
</svg>
