<svg width="74" height="80" viewBox="0 0 74 80" fill="none" xmlns="http://www.w3.org/2000/svg">
<g filter="url(#filter0_dd_6604_13112)">
<rect x="10" y="12" width="54" height="54" rx="10" fill="white"/>
</g>
<path d="M42.016 22.5H31.984C25.6416 22.5 20.5 27.6416 20.5 33.984V44.016C20.5 50.3584 25.6416 55.5 31.984 55.5H42.016C48.3584 55.5 53.5 50.3584 53.5 44.016V33.984C53.5 27.6416 48.3584 22.5 42.016 22.5Z" fill="#F8DE40"/>
<path d="M53.5 41.907C51.4604 44.9614 48.6896 47.4576 45.4396 49.1685C42.1896 50.8794 38.5635 51.7508 34.891 51.7035C26.578 51.7035 25.0465 50.2035 21.178 47.91C21.9801 50.1328 23.448 52.0542 25.3817 53.4124C27.3154 54.7706 29.6209 55.4996 31.984 55.5H42.016C45.0617 55.5 47.9827 54.2901 50.1364 52.1364C52.2901 49.9827 53.5 47.0617 53.5 44.016V41.907Z" fill="#E7C930"/>
<path d="M32.3606 33.4125C32.3592 33.3551 32.3397 33.2995 32.3048 33.2538C32.27 33.208 32.2216 33.1745 32.1666 33.1579C32.1116 33.1412 32.0527 33.1424 31.9984 33.1612C31.944 33.18 31.897 33.2155 31.8641 33.2625C31.6395 33.6004 31.3492 33.8897 31.0106 34.113C30.5851 34.3962 30.0854 34.5473 29.5743 34.5473C29.0632 34.5473 28.5635 34.3962 28.1381 34.113C27.7983 33.8887 27.5071 33.5985 27.2816 33.2595C27.2486 33.2125 27.2016 33.177 27.1472 33.1582C27.0929 33.1394 27.0341 33.1382 26.979 33.1549C26.924 33.1715 26.8756 33.205 26.8408 33.2508C26.806 33.2965 26.7865 33.3521 26.7851 33.4095C26.779 33.9646 26.962 34.5053 27.3041 34.9425C27.5744 35.2858 27.9191 35.5632 28.3122 35.754C28.7054 35.9448 29.1366 36.0439 29.5736 36.0439C30.0105 36.0439 30.4418 35.9448 30.8349 35.754C31.228 35.5632 31.5727 35.2858 31.8431 34.9425C32.1833 34.5055 32.3656 33.9663 32.3606 33.4125Z" fill="#864E20"/>
<path d="M47.215 33.4125C47.2136 33.3551 47.1941 33.2995 47.1593 33.2538C47.1245 33.208 47.0761 33.1745 47.0211 33.1579C46.9661 33.1412 46.9072 33.1424 46.8529 33.1612C46.7985 33.18 46.7515 33.2155 46.7185 33.2625C46.4941 33.6 46.2044 33.8892 45.8665 34.113C45.4408 34.3962 44.9409 34.5472 44.4295 34.5472C43.9182 34.5472 43.4183 34.3962 42.9925 34.113C42.6528 33.8887 42.3616 33.5985 42.136 33.2595C42.1031 33.2125 42.0561 33.177 42.0017 33.1582C41.9474 33.1394 41.8885 33.1382 41.8335 33.1549C41.7785 33.1715 41.7301 33.205 41.6953 33.2508C41.6605 33.2965 41.641 33.3521 41.6395 33.4095C41.6335 33.9646 41.8165 34.5053 42.1585 34.9425C42.4289 35.2858 42.7736 35.5632 43.1667 35.754C43.5598 35.9448 43.9911 36.0439 44.428 36.0439C44.865 36.0439 45.2963 35.9448 45.6894 35.754C46.0825 35.5632 46.4272 35.2858 46.6975 34.9425C47.0377 34.5055 47.2201 33.9663 47.215 33.4125Z" fill="#864E20"/>
<path d="M40.768 41.0489C39.5881 40.4986 38.3019 40.2135 37 40.2135C35.698 40.2135 34.4119 40.4986 33.232 41.0489C32.344 41.6024 32.3965 40.0079 34.3615 39.5879C35.2186 39.3242 36.1046 39.1661 37 39.1169C37.8954 39.1661 38.7814 39.3242 39.6385 39.5879C41.6035 40.0079 41.65 41.6024 40.768 41.0489Z" fill="#864E20"/>
<path d="M38.611 42.4035C38.1065 42.1683 37.5566 42.0465 37 42.0465C36.4434 42.0465 35.8935 42.1683 35.389 42.4035C35.0095 42.6405 35.032 41.9535 35.872 41.7795C36.2385 41.6669 36.6173 41.5994 37 41.5785C37.3828 41.5994 37.7616 41.6669 38.128 41.7795C38.968 41.9595 38.9905 42.6405 38.611 42.4035Z" fill="#E7C930"/>
<defs>
<filter id="filter0_dd_6604_13112" x="0" y="0" width="74" height="80" filterUnits="userSpaceOnUse" color-interpolation-filters="sRGB">
<feFlood flood-opacity="0" result="BackgroundImageFix"/>
<feColorMatrix in="SourceAlpha" type="matrix" values="0 0 0 0 0 0 0 0 0 0 0 0 0 0 0 0 0 0 127 0" result="hardAlpha"/>
<feOffset dy="4"/>
<feGaussianBlur stdDeviation="5"/>
<feComposite in2="hardAlpha" operator="out"/>
<feColorMatrix type="matrix" values="0 0 0 0 0 0 0 0 0 0 0 0 0 0 0 0 0 0 0.04 0"/>
<feBlend mode="normal" in2="BackgroundImageFix" result="effect1_dropShadow_6604_13112"/>
<feColorMatrix in="SourceAlpha" type="matrix" values="0 0 0 0 0 0 0 0 0 0 0 0 0 0 0 0 0 0 127 0" result="hardAlpha"/>
<feOffset dy="-2"/>
<feGaussianBlur stdDeviation="5"/>
<feComposite in2="hardAlpha" operator="out"/>
<feColorMatrix type="matrix" values="0 0 0 0 0 0 0 0 0 0 0 0 0 0 0 0 0 0 0.04 0"/>
<feBlend mode="normal" in2="effect1_dropShadow_6604_13112" result="effect2_dropShadow_6604_13112"/>
<feBlend mode="normal" in="SourceGraphic" in2="effect2_dropShadow_6604_13112" result="shape"/>
</filter>
</defs>
</svg>
