<svg width="74" height="80" viewBox="0 0 74 80" fill="none" xmlns="http://www.w3.org/2000/svg">
<g filter="url(#filter0_dd_6604_13121)">
<rect x="10" y="12" width="54" height="54" rx="10" fill="white"/>
</g>
<path d="M42.016 22.5H31.984C25.6416 22.5 20.5 27.6416 20.5 33.984V44.016C20.5 50.3584 25.6416 55.5 31.984 55.5H42.016C48.3584 55.5 53.5 50.3584 53.5 44.016V33.984C53.5 27.6416 48.3584 22.5 42.016 22.5Z" fill="#F8DE40"/>
<path d="M53.5 41.907C51.4604 44.9614 48.6896 47.4576 45.4396 49.1685C42.1896 50.8794 38.5635 51.7508 34.891 51.7035C26.578 51.7035 25.0465 50.2035 21.178 47.91C21.9801 50.1328 23.448 52.0542 25.3817 53.4124C27.3154 54.7706 29.6209 55.4996 31.984 55.5H42.016C45.0617 55.5 47.9827 54.2901 50.1364 52.1364C52.2901 49.9827 53.5 47.0617 53.5 44.016V41.907Z" fill="#E7C930"/>
<path d="M43.999 39.8745H30.001C29.8972 39.8742 29.7945 39.8957 29.6996 39.9376C29.6047 39.9796 29.5197 40.041 29.4501 40.118C29.3805 40.1949 29.3278 40.2857 29.2956 40.3843C29.2634 40.483 29.2523 40.5873 29.263 40.6905C29.4475 42.453 30.5755 46.4535 37 46.4535C43.4245 46.4535 44.5525 42.453 44.737 40.6905C44.7477 40.5873 44.7366 40.483 44.7044 40.3843C44.6722 40.2857 44.6195 40.1949 44.5499 40.118C44.4803 40.041 44.3953 39.9796 44.3004 39.9376C44.2055 39.8957 44.1028 39.8742 43.999 39.8745Z" fill="#864E20"/>
<path d="M37 46.4536C38.5295 46.504 40.0495 46.1957 41.4385 45.5536C41.0222 44.9086 40.3722 44.45 39.625 44.2741C37.609 43.8241 37 44.4376 37 44.4376C37 44.4376 36.391 43.8286 34.375 44.2741C33.6278 44.45 32.9778 44.9086 32.5615 45.5536C33.9505 46.1957 35.4706 46.504 37 46.4536Z" fill="#CF4054"/>
<path d="M42.016 22.5H31.984C25.6416 22.5 20.5 27.6416 20.5 33.984V44.016C20.5 50.3584 25.6416 55.5 31.984 55.5H42.016C48.3584 55.5 53.5 50.3584 53.5 44.016V33.984C53.5 27.6416 48.3584 22.5 42.016 22.5Z" fill="#F8DE40"/>
<path d="M53.5 41.907C51.4604 44.9614 48.6896 47.4576 45.4396 49.1685C42.1896 50.8794 38.5635 51.7508 34.891 51.7035C26.578 51.7035 25.0465 50.2035 21.178 47.91C21.9801 50.1328 23.448 52.0542 25.3817 53.4124C27.3154 54.7706 29.6209 55.4996 31.984 55.5H42.016C45.0617 55.5 47.9827 54.2901 50.1364 52.1364C52.2901 49.9827 53.5 47.0617 53.5 44.016V41.907Z" fill="#E7C930"/>
<path d="M43.999 39.8745H30.001C29.8972 39.8742 29.7945 39.8957 29.6996 39.9376C29.6047 39.9796 29.5197 40.041 29.4501 40.118C29.3805 40.1949 29.3278 40.2857 29.2956 40.3843C29.2634 40.483 29.2523 40.5873 29.263 40.6905C29.4475 42.453 30.5755 46.4535 37 46.4535C43.4245 46.4535 44.5525 42.453 44.737 40.6905C44.7477 40.5873 44.7366 40.483 44.7044 40.3843C44.6722 40.2857 44.6195 40.1949 44.5499 40.118C44.4803 40.041 44.3953 39.9796 44.3004 39.9376C44.2055 39.8957 44.1028 39.8742 43.999 39.8745Z" fill="#864E20"/>
<path d="M37 46.4536C38.5295 46.504 40.0495 46.1957 41.4385 45.5536C41.0222 44.9086 40.3722 44.45 39.625 44.2741C37.609 43.8241 37 44.4376 37 44.4376C37 44.4376 36.391 43.8286 34.375 44.2741C33.6278 44.45 32.9778 44.9086 32.5615 45.5536C33.9505 46.1957 35.4706 46.504 37 46.4536Z" fill="#CF4054"/>
<path d="M51.7019 25.6013C51.7019 25.8012 51.6947 26.0037 51.6803 26.2086C51.2982 31.2249 46.2508 33.9992 45.2125 33.9992C44.6717 33.9992 38.723 31 38.723 25.6013C38.6895 25.1387 38.7488 24.674 38.8971 24.2366C39.0454 23.7991 39.2796 23.3985 39.5846 23.0601C39.8897 22.7217 40.2591 22.4529 40.6693 22.2708C41.0795 22.0887 41.5217 21.9972 41.9677 22.0021C43.5901 22.0021 44.6717 23.2019 45.2125 25.0014C45.7532 23.2019 46.8348 22.0021 48.4572 22.0021C48.6804 22.0007 48.9029 22.0259 49.1206 22.0771C49.8909 22.2346 50.5789 22.6802 51.0546 23.3296C51.5303 23.979 51.7606 24.7872 51.7019 25.6013Z" fill="#CF4054"/>
<path d="M48.4571 22.0021C46.8347 22.0021 45.7531 23.2019 45.2123 25.0014C45.6327 23.6517 46.4742 22.752 47.736 22.752C48.0763 22.7418 48.4148 22.8053 48.7302 22.9384C49.0456 23.0715 49.331 23.2712 49.5682 23.525C49.8055 23.7788 49.9895 24.081 50.1085 24.4126C50.2275 24.7442 50.279 25.0979 50.2597 25.4513C50.2597 29.5003 46.0538 31.7498 45.2123 31.7498C44.8085 31.7498 40.5125 29.669 40.1815 25.9064C40.1707 25.7565 40.165 25.6028 40.165 25.4513C40.1279 24.831 40.3123 24.2183 40.6827 23.7306C41.0531 23.2429 41.5835 22.9145 42.1724 22.8082C42.3419 22.7696 42.5151 22.7507 42.6886 22.752C43.9505 22.752 44.792 23.6517 45.2123 25.0014C44.6715 23.2019 43.59 22.0021 41.9676 22.0021C41.7444 22.0007 41.5219 22.0259 41.3042 22.0771C40.5339 22.2346 39.8459 22.6802 39.3702 23.3296C38.8945 23.979 38.6642 24.7872 38.7228 25.6013C38.7228 25.8012 38.7301 26.0037 38.7445 26.2086C39.1699 31.2249 44.6932 33.9992 45.2123 33.9992C46.2939 33.9992 51.7018 31 51.7018 25.6013C51.7353 25.1387 51.676 24.674 51.5277 24.2366C51.3794 23.7991 51.1452 23.3985 50.8402 23.0601C50.5351 22.7217 50.1657 22.4529 49.7555 22.2708C49.3453 22.0887 48.9031 21.9972 48.4571 22.0021Z" fill="#AE2D4C"/>
<path d="M50.4523 25.5931C50.6928 25.3524 50.6163 24.8861 50.2814 24.5515C49.9466 24.2169 49.4802 24.1407 49.2397 24.3813C48.9993 24.6219 49.0758 25.0883 49.4106 25.4229C49.7455 25.7575 50.2119 25.8337 50.4523 25.5931Z" fill="#F6FAFD"/>
<path d="M49.2131 24.1712C49.3334 24.0507 49.2953 23.8175 49.1279 23.6501C48.9605 23.4828 48.7271 23.4449 48.6068 23.5653C48.4864 23.6858 48.5245 23.9191 48.6919 24.0864C48.8594 24.2537 49.0927 24.2917 49.2131 24.1712Z" fill="#F6FAFD"/>
<path d="M34.9912 25.6002C34.9912 25.8002 34.984 26.0027 34.9695 26.2077C34.5873 31.2252 29.5387 34.0001 28.5001 34.0001C27.9592 34.0001 22.0091 31.0002 22.0091 25.6002C21.9756 25.1375 22.0349 24.6727 22.1833 24.2351C22.3316 23.7976 22.5658 23.3969 22.871 23.0584C23.1761 22.7199 23.5456 22.4511 23.9559 22.2689C24.3662 22.0868 24.8085 21.9952 25.2546 22.0002C26.8774 22.0002 27.9592 23.2002 28.5001 25.0002C29.0411 23.2002 30.1229 22.0002 31.7457 22.0002C31.9689 21.9988 32.1915 22.0239 32.4092 22.0752C33.1797 22.2327 33.8679 22.6784 34.3437 23.328C34.8195 23.9775 35.0498 24.7859 34.9912 25.6002Z" fill="#CF4054"/>
<path d="M31.7455 22.0002C30.1228 22.0002 29.0409 23.2002 28.5 25.0002C28.9205 23.6502 29.7622 22.7502 31.0243 22.7502C31.3646 22.7401 31.7032 22.8036 32.0187 22.9367C32.3342 23.0698 32.6196 23.2696 32.857 23.5234C33.0943 23.7772 33.2783 24.0796 33.3974 24.4113C33.5164 24.7429 33.5679 25.0967 33.5486 25.4502C33.5486 29.5002 29.3417 31.7502 28.5 31.7502C28.0961 31.7502 23.7991 29.6689 23.468 25.9054C23.4572 25.7554 23.4514 25.6017 23.4514 25.4502C23.4144 24.8297 23.5988 24.2169 23.9693 23.7291C24.3398 23.2413 24.8704 22.9127 25.4593 22.8064C25.6289 22.7678 25.8021 22.7489 25.9757 22.7502C27.2379 22.7502 28.0795 23.6502 28.5 25.0002C27.9591 23.2002 26.8773 22.0002 25.2545 22.0002C25.0313 21.9988 24.8087 22.0239 24.591 22.0752C23.8205 22.2327 23.1323 22.6784 22.6565 23.328C22.1807 23.9775 21.9503 24.7859 22.009 25.6002C22.009 25.8002 22.0162 26.0027 22.0306 26.2077C22.4561 31.2252 27.9807 34.0001 28.5 34.0001C29.5819 34.0001 34.9911 31.0002 34.9911 25.6002C35.0246 25.1375 34.9652 24.6727 34.8169 24.2351C34.6685 23.7976 34.4343 23.3969 34.1292 23.0584C33.824 22.7199 33.4546 22.4511 33.0443 22.2689C32.6339 22.0868 32.1917 21.9952 31.7455 22.0002Z" fill="#AE2D4C"/>
<path d="M33.7424 25.5925C33.9829 25.3518 33.9064 24.8854 33.5715 24.5507C33.2365 24.216 32.77 24.1398 32.5295 24.3805C32.289 24.6212 32.3655 25.0876 32.7004 25.4223C33.0354 25.757 33.5019 25.8332 33.7424 25.5925Z" fill="#F6FAFD"/>
<path d="M32.5006 24.1704C32.621 24.0499 32.5829 23.8166 32.4154 23.6493C32.2479 23.4819 32.0146 23.4439 31.8942 23.5644C31.7738 23.6849 31.8119 23.9183 31.9794 24.0856C32.1468 24.2529 32.3802 24.2909 32.5006 24.1704Z" fill="#F6FAFD"/>
<defs>
<filter id="filter0_dd_6604_13121" x="0" y="0" width="74" height="80" filterUnits="userSpaceOnUse" color-interpolation-filters="sRGB">
<feFlood flood-opacity="0" result="BackgroundImageFix"/>
<feColorMatrix in="SourceAlpha" type="matrix" values="0 0 0 0 0 0 0 0 0 0 0 0 0 0 0 0 0 0 127 0" result="hardAlpha"/>
<feOffset dy="4"/>
<feGaussianBlur stdDeviation="5"/>
<feComposite in2="hardAlpha" operator="out"/>
<feColorMatrix type="matrix" values="0 0 0 0 0 0 0 0 0 0 0 0 0 0 0 0 0 0 0.04 0"/>
<feBlend mode="normal" in2="BackgroundImageFix" result="effect1_dropShadow_6604_13121"/>
<feColorMatrix in="SourceAlpha" type="matrix" values="0 0 0 0 0 0 0 0 0 0 0 0 0 0 0 0 0 0 127 0" result="hardAlpha"/>
<feOffset dy="-2"/>
<feGaussianBlur stdDeviation="5"/>
<feComposite in2="hardAlpha" operator="out"/>
<feColorMatrix type="matrix" values="0 0 0 0 0 0 0 0 0 0 0 0 0 0 0 0 0 0 0.04 0"/>
<feBlend mode="normal" in2="effect1_dropShadow_6604_13121" result="effect2_dropShadow_6604_13121"/>
<feBlend mode="normal" in="SourceGraphic" in2="effect2_dropShadow_6604_13121" result="shape"/>
</filter>
</defs>
</svg>
